<svg width="1440" height="1015" viewBox="0 0 1440 1015" fill="none" xmlns="http://www.w3.org/2000/svg">
<g clip-path="url(#clip0_244_113)">
<rect width="1440" height="1015" fill="white"/>
<path d="M109.5 -1V1022" stroke="black"/>
<path d="M606 1V1024" stroke="black"/>
<path d="M1103 1V1024" stroke="black"/>
<path d="M234 -1V1022" stroke="black"/>
<path d="M730.5 1V1024" stroke="black"/>
<path d="M1227.5 1V1024" stroke="black"/>
<path d="M358 -1V1022" stroke="black"/>
<path d="M854.5 1V1024" stroke="black"/>
<path d="M1351.5 1V1024" stroke="black"/>
<path d="M482 -1V1022" stroke="black"/>
<path d="M978.5 1V1024" stroke="black"/>
<path d="M0 127H1451.5" stroke="black"/>
<path d="M-6 381H1445.5" stroke="black"/>
<path d="M0 635H1451.5" stroke="black"/>
<path d="M6 889H1457.5" stroke="black"/>
<path d="M0 254H1451.5" stroke="black"/>
<path d="M-6 508H1445.5" stroke="black"/>
<path d="M0 762H1451.5" stroke="black"/>
<path d="M506.447 501.913V344.845H505.541L398.717 501.913H506.447ZM542.658 501.913H586.112V535.861H542.658V611H506.447V535.861H365.674V498.744L511.878 290.075H542.658V501.913ZM664.268 453.027C664.268 465.098 664.569 478.677 665.173 493.765C666.078 508.551 668.492 522.583 672.415 535.861C676.64 548.837 683.279 559.851 692.332 568.904C701.384 577.957 714.058 582.483 730.354 582.483C746.649 582.483 759.323 577.957 768.376 568.904C777.429 559.851 783.917 548.837 787.84 535.861C792.064 522.583 794.478 508.551 795.082 493.765C795.987 478.677 796.44 465.098 796.44 453.027C796.44 445.181 796.289 436.581 795.987 427.226C795.987 417.57 795.233 408.064 793.724 398.71C792.517 389.053 790.555 379.699 787.84 370.646C785.425 361.593 781.653 353.747 776.523 347.108C771.695 340.168 765.509 334.585 757.965 330.36C750.421 326.136 741.217 324.023 730.354 324.023C719.49 324.023 710.286 326.136 702.742 330.36C695.198 334.585 688.861 340.168 683.731 347.108C678.903 353.747 675.131 361.593 672.415 370.646C670.001 379.699 668.04 389.053 666.531 398.71C665.324 408.064 664.569 417.57 664.268 427.226C664.268 436.581 664.268 445.181 664.268 453.027ZM623.529 453.48C623.529 441.711 623.831 429.489 624.435 416.815C625.038 404.141 626.547 391.769 628.961 379.699C631.375 367.628 634.846 356.161 639.372 345.298C643.899 334.434 650.085 324.929 657.931 316.781C665.776 308.633 675.584 302.145 687.352 297.317C699.423 292.489 713.757 290.075 730.354 290.075C746.951 290.075 761.134 292.489 772.902 297.317C784.973 302.145 794.931 308.633 802.777 316.781C810.623 324.929 816.809 334.434 821.335 345.298C825.862 356.161 829.332 367.628 831.746 379.699C834.16 391.769 835.669 404.141 836.273 416.815C836.876 429.489 837.178 441.711 837.178 453.48C837.178 465.248 836.876 477.47 836.273 490.144C835.669 502.818 834.16 515.19 831.746 527.261C829.332 539.331 825.862 550.798 821.335 561.662C816.809 572.223 810.623 581.578 802.777 589.726C794.931 597.873 785.124 604.361 773.355 609.189C761.586 613.716 747.252 615.979 730.354 615.979C713.757 615.979 699.423 613.716 687.352 609.189C675.584 604.361 665.776 597.873 657.931 589.726C650.085 581.578 643.899 572.223 639.372 561.662C634.846 550.798 631.375 539.331 628.961 527.261C626.547 515.19 625.038 502.818 624.435 490.144C623.831 477.47 623.529 465.248 623.529 453.48ZM1009.48 501.913V344.845H1008.58L901.754 501.913H1009.48ZM1045.69 501.913H1089.15V535.861H1045.69V611H1009.48V535.861H868.711V498.744L1014.92 290.075H1045.69V501.913Z" fill="#0D26A8"/>
<rect x="500" y="382" width="83" height="120" fill="white"/>
<rect x="623" y="509" width="107" height="119" fill="white"/>
<rect x="979.75" y="255.75" width="115.5" height="124.5" fill="white" stroke="white" stroke-width="0.5"/>
</g>
<defs>
<clipPath id="clip0_244_113">
<rect width="1440" height="1015" fill="white"/>
</clipPath>
</defs>
</svg>
