<svg width="250" height="63" viewBox="0 0 250 63" fill="none" xmlns="http://www.w3.org/2000/svg">
<rect x="2" y="1" width="248" height="62" fill="#0D26A8"/>
<path d="M18.1724 24.4512H21.0576V31.4435H29.9508V24.4512H32.836V42H29.9508V33.9214H21.0576V42H18.1724V24.4512ZM42.0202 42.3734C41.2282 42.3734 40.4814 42.2829 39.7799 42.1018C39.0784 41.9434 38.4561 41.6719 37.913 41.2872C37.3925 40.8799 36.9739 40.3707 36.6571 39.7597C36.3629 39.1261 36.2158 38.368 36.2158 37.4855C36.2158 36.4898 36.3855 35.6752 36.725 35.0416C37.0644 34.4079 37.5057 33.8988 38.0488 33.5141C38.6145 33.1068 39.2481 32.8013 39.9496 32.5976C40.6737 32.394 41.4092 32.2242 42.1559 32.0885C42.948 31.9301 43.6947 31.8169 44.3962 31.749C45.1204 31.6585 45.754 31.5454 46.2971 31.4096C46.8402 31.2512 47.2701 31.0362 47.5869 30.7647C47.9037 30.4705 48.0621 30.0518 48.0621 29.5087C48.0621 28.8751 47.9377 28.366 47.6888 27.9813C47.4625 27.5966 47.157 27.3024 46.7723 27.0988C46.4102 26.8951 45.9916 26.7593 45.5164 26.6914C45.0638 26.6235 44.6112 26.5896 44.1586 26.5896C42.9366 26.5896 41.9183 26.8272 41.1037 27.3024C40.289 27.755 39.8478 28.6262 39.7799 29.9161H36.8947C36.9399 28.8299 37.1662 27.9134 37.5736 27.1666C37.9809 26.4199 38.524 25.8202 39.2028 25.3676C39.8817 24.8924 40.6511 24.553 41.511 24.3493C42.3935 24.1457 43.3327 24.0438 44.3283 24.0438C45.1204 24.0438 45.9011 24.1004 46.6704 24.2135C47.4625 24.3267 48.1753 24.5643 48.8089 24.9264C49.4425 25.2658 49.9517 25.7523 50.3364 26.3859C50.721 27.0196 50.9134 27.8455 50.9134 28.8638V37.8928C50.9134 38.5717 50.9473 39.0695 51.0152 39.3863C51.1057 39.7031 51.3773 39.8616 51.8299 39.8616C52.0335 39.8616 52.3277 39.805 52.7124 39.6918V41.9321C52.2146 42.2263 51.5244 42.3734 50.6418 42.3734C49.8951 42.3734 49.2954 42.1697 48.8428 41.7624C48.4129 41.3324 48.1979 40.6423 48.1979 39.6918C47.4059 40.6423 46.4781 41.3324 45.4145 41.7624C44.3736 42.1697 43.2421 42.3734 42.0202 42.3734ZM42.6651 39.8616C43.6155 39.8616 44.4302 39.7371 45.109 39.4882C45.7879 39.2166 46.3423 38.8885 46.7723 38.5038C47.2022 38.0965 47.519 37.6665 47.7227 37.214C47.9264 36.7387 48.0282 36.2975 48.0282 35.8901V32.9371C47.6661 33.2312 47.1909 33.4349 46.6026 33.548C46.0142 33.6612 45.3919 33.763 44.7357 33.8535C44.102 33.944 43.4571 34.0346 42.8009 34.1251C42.1446 34.2156 41.5563 34.374 41.0358 34.6003C40.5153 34.8266 40.0854 35.1547 39.7459 35.5847C39.4291 35.992 39.2707 36.5577 39.2707 37.2818C39.2707 37.757 39.3613 38.1644 39.5423 38.5038C39.7459 38.8206 39.9949 39.0808 40.289 39.2845C40.6059 39.4882 40.9679 39.6353 41.3752 39.7258C41.7826 39.8163 42.2125 39.8616 42.6651 39.8616ZM64.9127 24.4512H76.9288V26.9969H67.798V42H64.9127V24.4512ZM79.0953 42.2037C78.8012 42.2037 78.4957 42.1697 78.1789 42.1018C77.8621 42.0566 77.6018 42.0113 77.3982 41.9661V39.4203C77.6245 39.4882 77.8281 39.5334 78.0092 39.5561C78.2128 39.5787 78.4052 39.59 78.5862 39.59C79.333 39.59 79.8987 39.2958 80.2834 38.7075C80.6907 38.1191 80.9849 37.214 81.1659 35.992C81.3696 34.77 81.494 33.2086 81.5393 31.3078C81.5845 29.3843 81.6298 27.0988 81.6751 24.4512H93.9966V42H91.1114V26.9969H84.4584C84.3906 29.0562 84.3114 31.0136 84.2208 32.8692C84.1529 34.7021 83.9606 36.3088 83.6438 37.6892C83.327 39.0695 82.8178 40.167 82.1163 40.9817C81.4148 41.7963 80.4078 42.2037 79.0953 42.2037ZM103.211 42.3734C102.419 42.3734 101.673 42.2829 100.971 42.1018C100.27 41.9434 99.6474 41.6719 99.1043 41.2872C98.5838 40.8799 98.1652 40.3707 97.8484 39.7597C97.5542 39.1261 97.4071 38.368 97.4071 37.4855C97.4071 36.4898 97.5769 35.6752 97.9163 35.0416C98.2557 34.4079 98.697 33.8988 99.2401 33.5141C99.8058 33.1068 100.439 32.8013 101.141 32.5976C101.865 32.394 102.601 32.2242 103.347 32.0885C104.139 31.9301 104.886 31.8169 105.588 31.749C106.312 31.6585 106.945 31.5454 107.488 31.4096C108.031 31.2512 108.461 31.0362 108.778 30.7647C109.095 30.4705 109.253 30.0518 109.253 29.5087C109.253 28.8751 109.129 28.366 108.88 27.9813C108.654 27.5966 108.348 27.3024 107.964 27.0988C107.602 26.8951 107.183 26.7593 106.708 26.6914C106.255 26.6235 105.803 26.5896 105.35 26.5896C104.128 26.5896 103.11 26.8272 102.295 27.3024C101.48 27.755 101.039 28.6262 100.971 29.9161H98.086C98.1313 28.8299 98.3576 27.9134 98.7649 27.1666C99.1722 26.4199 99.7153 25.8202 100.394 25.3676C101.073 24.8924 101.842 24.553 102.702 24.3493C103.585 24.1457 104.524 24.0438 105.52 24.0438C106.312 24.0438 107.092 24.1004 107.862 24.2135C108.654 24.3267 109.367 24.5643 110 24.9264C110.634 25.2658 111.143 25.7523 111.528 26.3859C111.912 27.0196 112.105 27.8455 112.105 28.8638V37.8928C112.105 38.5717 112.139 39.0695 112.207 39.3863C112.297 39.7031 112.569 39.8616 113.021 39.8616C113.225 39.8616 113.519 39.805 113.904 39.6918V41.9321C113.406 42.2263 112.716 42.3734 111.833 42.3734C111.086 42.3734 110.487 42.1697 110.034 41.7624C109.604 41.3324 109.389 40.6423 109.389 39.6918C108.597 40.6423 107.669 41.3324 106.606 41.7624C105.565 42.1697 104.433 42.3734 103.211 42.3734ZM103.856 39.8616C104.807 39.8616 105.621 39.7371 106.3 39.4882C106.979 39.2166 107.534 38.8885 107.964 38.5038C108.394 38.0965 108.71 37.6665 108.914 37.214C109.118 36.7387 109.22 36.2975 109.22 35.8901V32.9371C108.857 33.2312 108.382 33.4349 107.794 33.548C107.206 33.6612 106.583 33.763 105.927 33.8535C105.293 33.944 104.648 34.0346 103.992 34.1251C103.336 34.2156 102.748 34.374 102.227 34.6003C101.707 34.8266 101.277 35.1547 100.937 35.5847C100.62 35.992 100.462 36.5577 100.462 37.2818C100.462 37.757 100.553 38.1644 100.734 38.5038C100.937 38.8206 101.186 39.0808 101.48 39.2845C101.797 39.4882 102.159 39.6353 102.567 39.7258C102.974 39.8163 103.404 39.8616 103.856 39.8616ZM116.589 24.4512H124.702C125.471 24.4512 126.206 24.5077 126.908 24.6209C127.632 24.734 128.277 24.949 128.843 25.2658C129.408 25.56 129.861 25.9899 130.2 26.5557C130.54 27.1214 130.71 27.8455 130.71 28.728C130.71 29.6785 130.483 30.4479 130.031 31.0362C129.578 31.6246 128.944 32.1111 128.13 32.4958V32.5297C129.148 32.7334 129.951 33.2086 130.54 33.9554C131.151 34.7021 131.456 35.6639 131.456 36.8406C131.456 37.5873 131.321 38.2775 131.049 38.9111C130.8 39.5447 130.438 40.0878 129.963 40.5404C129.488 40.993 128.922 41.3551 128.266 41.6266C127.609 41.8755 126.897 42 126.127 42H116.589V24.4512ZM125.584 39.5561C126.534 39.5561 127.247 39.2845 127.722 38.7414C128.22 38.1757 128.469 37.4742 128.469 36.6369C128.469 35.8449 128.209 35.2113 127.689 34.7361C127.168 34.2609 126.297 34.0232 125.075 34.0232H119.44V39.5561H125.584ZM124.396 31.6472C125.641 31.6472 126.501 31.4209 126.976 30.9683C127.474 30.5157 127.722 29.9161 127.722 29.1693C127.722 28.4452 127.485 27.8908 127.01 27.5061C126.534 27.0988 125.663 26.8951 124.396 26.8951H119.44V31.6472H124.396ZM134.92 24.4512H137.805V31.4435H146.698V24.4512H149.584V42H146.698V33.9214H137.805V42H134.92V24.4512ZM155.713 48.9924C155.373 48.9924 155.034 48.9698 154.694 48.9245C154.355 48.8792 154.027 48.8 153.71 48.6869V46.0393C153.982 46.1298 154.253 46.2203 154.525 46.3108C154.819 46.4014 155.113 46.4466 155.407 46.4466C155.996 46.4466 156.471 46.3108 156.833 46.0393C157.195 45.7677 157.512 45.3717 157.783 44.8513L158.971 41.8982L152.013 24.4512H155.271L160.397 38.8093H160.465L165.387 24.4512H168.442L160.804 44.3082C160.465 45.1681 160.125 45.8922 159.786 46.4806C159.469 47.0689 159.107 47.5441 158.7 47.9062C158.315 48.2909 157.874 48.5624 157.376 48.7208C156.901 48.9019 156.346 48.9924 155.713 48.9924ZM185.583 42.3734C184.338 42.3734 183.23 42.1697 182.257 41.7624C181.284 41.3324 180.446 40.7554 179.745 40.0313C179.043 39.2845 178.489 38.4133 178.082 37.4176C177.697 36.3993 177.471 35.2905 177.403 34.0911H173.771V42H170.886V24.4512H173.771V31.6133H177.505C177.64 30.5271 177.912 29.5201 178.319 28.5923C178.749 27.6645 179.304 26.8725 179.982 26.2162C180.661 25.5373 181.465 25.0056 182.392 24.6209C183.343 24.2362 184.406 24.0438 185.583 24.0438C186.896 24.0438 188.05 24.2814 189.045 24.7566C190.064 25.2319 190.924 25.8881 191.625 26.7254C192.327 27.54 192.858 28.5131 193.22 29.6445C193.582 30.7533 193.764 31.9527 193.764 33.2425C193.764 34.5324 193.582 35.7317 193.22 36.8406C192.858 37.9494 192.327 38.9224 191.625 39.7597C190.924 40.5744 190.064 41.2193 189.045 41.6945C188.05 42.1471 186.896 42.3734 185.583 42.3734ZM185.583 39.8616C186.285 39.8616 186.952 39.7145 187.586 39.4203C188.219 39.1261 188.762 38.7075 189.215 38.1644C189.668 37.5986 190.03 36.9085 190.301 36.0938C190.573 35.2565 190.709 34.3061 190.709 33.2425C190.709 32.179 190.573 31.2399 190.301 30.4252C190.03 29.588 189.668 28.8864 189.215 28.3207C188.762 27.755 188.219 27.325 187.586 27.0309C186.952 26.7367 186.285 26.5896 185.583 26.5896C184.859 26.5896 184.18 26.7367 183.546 27.0309C182.935 27.325 182.404 27.755 181.951 28.3207C181.499 28.8864 181.136 29.588 180.865 30.4252C180.593 31.2399 180.458 32.179 180.458 33.2425C180.458 35.3697 180.933 37.0103 181.883 38.1644C182.834 39.2958 184.067 39.8616 185.583 39.8616Z" fill="white"/>
<path d="M231.347 27.397C231.567 26.5981 231.097 25.7728 230.298 25.5535L217.279 21.9814C216.48 21.7622 215.655 22.2321 215.435 23.031C215.216 23.8299 215.686 24.6552 216.485 24.8744L228.057 28.0497L224.882 39.622C224.663 40.4209 225.133 41.2462 225.932 41.4654C226.731 41.6846 227.556 41.2147 227.775 40.4158L231.347 27.397ZM204.742 43.0511L230.643 28.3036L229.159 25.6966L203.258 40.444L204.742 43.0511Z" fill="white"/>
</svg>
