<svg width="500" height="68" viewBox="0 0 500 68" fill="none" xmlns="http://www.w3.org/2000/svg">
<g clip-path="url(#clip0_237_59)">
<rect width="500" height="68" fill="white"/>
<rect width="500" height="68" fill="#0D26A8"/>
<path d="M158.625 42V40.2812H159.063C159.422 40.2812 159.721 40.2109 159.961 40.0703C160.201 39.9245 160.393 39.6719 160.539 39.3125C160.69 38.9479 160.805 38.4427 160.883 37.7969C160.966 37.1458 161.026 36.3177 161.063 35.3125L161.281 30H169.281V42H167.438V31.7187H163.031L162.844 36C162.802 36.9844 162.714 37.8516 162.578 38.6016C162.448 39.3464 162.247 39.9714 161.977 40.4766C161.711 40.9818 161.357 41.362 160.914 41.6172C160.471 41.8724 159.917 42 159.25 42H158.625ZM177.695 42.25C176.539 42.25 175.542 41.9948 174.703 41.4844C173.87 40.9688 173.227 40.25 172.773 39.3281C172.326 38.401 172.102 37.3229 172.102 36.0938C172.102 34.8646 172.326 33.7812 172.773 32.8437C173.227 31.901 173.857 31.1667 174.664 30.6406C175.477 30.1094 176.424 29.8438 177.508 29.8438C178.133 29.8438 178.75 29.9479 179.359 30.1562C179.969 30.3646 180.523 30.7031 181.023 31.1719C181.523 31.6354 181.922 32.25 182.219 33.0156C182.516 33.7812 182.664 34.724 182.664 35.8437V36.625H173.414V35.0312H180.789C180.789 34.3542 180.654 33.75 180.383 33.2187C180.117 32.6875 179.737 32.2682 179.242 31.9609C178.753 31.6536 178.174 31.5 177.508 31.5C176.773 31.5 176.138 31.6823 175.602 32.0469C175.07 32.4062 174.661 32.875 174.375 33.4531C174.089 34.0312 173.945 34.651 173.945 35.3125V36.375C173.945 37.2813 174.102 38.0495 174.414 38.6797C174.732 39.3047 175.172 39.7812 175.734 40.1094C176.297 40.4323 176.951 40.5938 177.695 40.5938C178.18 40.5938 178.617 40.526 179.008 40.3906C179.404 40.25 179.745 40.0417 180.031 39.7656C180.318 39.4844 180.539 39.1354 180.695 38.7187L182.477 39.2188C182.289 39.8229 181.974 40.3542 181.531 40.8125C181.089 41.2656 180.542 41.6198 179.891 41.875C179.24 42.125 178.508 42.25 177.695 42.25ZM190.344 42.25C189.219 42.25 188.25 41.9844 187.438 41.4531C186.625 40.9219 186 40.1901 185.563 39.2578C185.125 38.3255 184.906 37.2604 184.906 36.0625C184.906 34.8437 185.13 33.7682 185.578 32.8359C186.031 31.8984 186.661 31.1667 187.469 30.6406C188.281 30.1094 189.229 29.8438 190.312 29.8438C191.156 29.8438 191.917 30 192.594 30.3125C193.271 30.625 193.826 31.0625 194.258 31.625C194.69 32.1875 194.958 32.8437 195.063 33.5937H193.219C193.078 33.0469 192.766 32.5625 192.281 32.1406C191.802 31.7135 191.156 31.5 190.344 31.5C189.625 31.5 188.995 31.6875 188.453 32.0625C187.917 32.4323 187.497 32.9557 187.195 33.6328C186.898 34.3047 186.75 35.0937 186.75 36C186.75 36.9271 186.896 37.7344 187.188 38.4219C187.484 39.1094 187.901 39.6432 188.438 40.0234C188.979 40.4036 189.615 40.5938 190.344 40.5938C190.823 40.5938 191.258 40.5104 191.648 40.3437C192.039 40.1771 192.37 39.9375 192.641 39.625C192.911 39.3125 193.104 38.9375 193.219 38.5H195.063C194.958 39.2083 194.701 39.8464 194.289 40.4141C193.883 40.9766 193.344 41.4245 192.672 41.7578C192.005 42.0859 191.229 42.25 190.344 42.25ZM205.789 35.1562V36.875H199.164V35.1562H205.789ZM199.602 30V42H197.758V30H199.602ZM207.195 30V42H205.352V30H207.195ZM215.438 42.25C214.354 42.25 213.404 41.9922 212.586 41.4766C211.773 40.9609 211.138 40.2396 210.68 39.3125C210.227 38.3854 210 37.3021 210 36.0625C210 34.8125 210.227 33.7214 210.68 32.7891C211.138 31.8568 211.773 31.1328 212.586 30.6172C213.404 30.1016 214.354 29.8438 215.438 29.8438C216.521 29.8438 217.469 30.1016 218.281 30.6172C219.099 31.1328 219.734 31.8568 220.188 32.7891C220.646 33.7214 220.875 34.8125 220.875 36.0625C220.875 37.3021 220.646 38.3854 220.188 39.3125C219.734 40.2396 219.099 40.9609 218.281 41.4766C217.469 41.9922 216.521 42.25 215.438 42.25ZM215.438 40.5938C216.26 40.5938 216.937 40.3828 217.469 39.9609C218 39.5391 218.393 38.9844 218.648 38.2969C218.904 37.6094 219.031 36.8646 219.031 36.0625C219.031 35.2604 218.904 34.513 218.648 33.8203C218.393 33.1276 218 32.5677 217.469 32.1406C216.937 31.7135 216.26 31.5 215.438 31.5C214.615 31.5 213.938 31.7135 213.406 32.1406C212.875 32.5677 212.482 33.1276 212.227 33.8203C211.971 34.513 211.844 35.2604 211.844 36.0625C211.844 36.8646 211.971 37.6094 212.227 38.2969C212.482 38.9844 212.875 39.5391 213.406 39.9609C213.938 40.3828 214.615 40.5938 215.438 40.5938ZM225.533 39.2812L231.314 30H233.439V42H231.596V32.7188L225.846 42H223.689V30H225.533V39.2812ZM230.096 26H231.814C231.814 26.8437 231.523 27.5339 230.939 28.0703C230.356 28.6068 229.564 28.875 228.564 28.875C227.58 28.875 226.796 28.6068 226.213 28.0703C225.635 27.5339 225.346 26.8437 225.346 26H227.064C227.064 26.4062 227.176 26.763 227.4 27.0703C227.63 27.3776 228.018 27.5312 228.564 27.5312C229.111 27.5312 229.502 27.3776 229.736 27.0703C229.976 26.763 230.096 26.4062 230.096 26ZM243.004 42V30H252.441V42H250.598V31.7187H244.848V42H243.004ZM255.809 46.5V30H257.59V31.9062H257.809C257.944 31.6979 258.132 31.4323 258.371 31.1094C258.616 30.7812 258.965 30.4896 259.418 30.2344C259.876 29.974 260.496 29.8438 261.277 29.8438C262.288 29.8438 263.178 30.0964 263.949 30.6016C264.72 31.1068 265.322 31.8229 265.754 32.75C266.186 33.6771 266.402 34.7708 266.402 36.0313C266.402 37.3021 266.186 38.4036 265.754 39.3359C265.322 40.263 264.723 40.9818 263.957 41.4922C263.191 41.9974 262.309 42.25 261.309 42.25C260.538 42.25 259.921 42.1224 259.457 41.8672C258.993 41.6068 258.637 41.3125 258.387 40.9844C258.137 40.651 257.944 40.375 257.809 40.1562H257.652V46.5H255.809ZM257.621 36C257.621 36.9062 257.754 37.7057 258.02 38.3984C258.285 39.0859 258.673 39.625 259.184 40.0156C259.694 40.401 260.319 40.5938 261.059 40.5938C261.829 40.5938 262.473 40.3906 262.988 39.9844C263.509 39.5729 263.9 39.0208 264.16 38.3281C264.426 37.6302 264.559 36.8542 264.559 36C264.559 35.1562 264.428 34.3958 264.168 33.7187C263.913 33.0365 263.525 32.4974 263.004 32.1016C262.488 31.7005 261.84 31.5 261.059 31.5C260.309 31.5 259.678 31.6901 259.168 32.0703C258.658 32.4453 258.272 32.9714 258.012 33.6484C257.751 34.3203 257.621 35.1042 257.621 36ZM271.059 39.2812L276.84 30H278.965V42H277.121V32.7188L271.371 42H269.215V30H271.059V39.2812ZM289.748 30V31.7187H284.186V42H282.342V30H289.748ZM296.691 42.25C295.608 42.25 294.658 41.9922 293.84 41.4766C293.027 40.9609 292.392 40.2396 291.934 39.3125C291.48 38.3854 291.254 37.3021 291.254 36.0625C291.254 34.8125 291.48 33.7214 291.934 32.7891C292.392 31.8568 293.027 31.1328 293.84 30.6172C294.658 30.1016 295.608 29.8438 296.691 29.8438C297.775 29.8438 298.723 30.1016 299.535 30.6172C300.353 31.1328 300.988 31.8568 301.441 32.7891C301.9 33.7214 302.129 34.8125 302.129 36.0625C302.129 37.3021 301.9 38.3854 301.441 39.3125C300.988 40.2396 300.353 40.9609 299.535 41.4766C298.723 41.9922 297.775 42.25 296.691 42.25ZM296.691 40.5938C297.514 40.5938 298.191 40.3828 298.723 39.9609C299.254 39.5391 299.647 38.9844 299.902 38.2969C300.158 37.6094 300.285 36.8646 300.285 36.0625C300.285 35.2604 300.158 34.513 299.902 33.8203C299.647 33.1276 299.254 32.5677 298.723 32.1406C298.191 31.7135 297.514 31.5 296.691 31.5C295.868 31.5 295.191 31.7135 294.66 32.1406C294.129 32.5677 293.736 33.1276 293.48 33.8203C293.225 34.513 293.098 35.2604 293.098 36.0625C293.098 36.8646 293.225 37.6094 293.48 38.2969C293.736 38.9844 294.129 39.5391 294.66 39.9609C295.191 40.3828 295.868 40.5938 296.691 40.5938ZM304.943 46.5V30H306.725V31.9062H306.943C307.079 31.6979 307.266 31.4323 307.506 31.1094C307.751 30.7812 308.1 30.4896 308.553 30.2344C309.011 29.974 309.631 29.8438 310.412 29.8438C311.423 29.8438 312.313 30.0964 313.084 30.6016C313.855 31.1068 314.456 31.8229 314.889 32.75C315.321 33.6771 315.537 34.7708 315.537 36.0313C315.537 37.3021 315.321 38.4036 314.889 39.3359C314.456 40.263 313.857 40.9818 313.092 41.4922C312.326 41.9974 311.443 42.25 310.443 42.25C309.673 42.25 309.055 42.1224 308.592 41.8672C308.128 41.6068 307.771 41.3125 307.521 40.9844C307.271 40.651 307.079 40.375 306.943 40.1562H306.787V46.5H304.943ZM306.756 36C306.756 36.9062 306.889 37.7057 307.154 38.3984C307.42 39.0859 307.808 39.625 308.318 40.0156C308.829 40.401 309.454 40.5938 310.193 40.5938C310.964 40.5938 311.607 40.3906 312.123 39.9844C312.644 39.5729 313.035 39.0208 313.295 38.3281C313.561 37.6302 313.693 36.8542 313.693 36C313.693 35.1562 313.563 34.3958 313.303 33.7187C313.048 33.0365 312.66 32.4974 312.139 32.1016C311.623 31.7005 310.975 31.5 310.193 31.5C309.443 31.5 308.813 31.6901 308.303 32.0703C307.792 32.4453 307.407 32.9714 307.146 33.6484C306.886 34.3203 306.756 35.1042 306.756 36ZM323.225 42.25C322.141 42.25 321.191 41.9922 320.373 41.4766C319.561 40.9609 318.925 40.2396 318.467 39.3125C318.014 38.3854 317.787 37.3021 317.787 36.0625C317.787 34.8125 318.014 33.7214 318.467 32.7891C318.925 31.8568 319.561 31.1328 320.373 30.6172C321.191 30.1016 322.141 29.8438 323.225 29.8438C324.308 29.8438 325.256 30.1016 326.068 30.6172C326.886 31.1328 327.521 31.8568 327.975 32.7891C328.433 33.7214 328.662 34.8125 328.662 36.0625C328.662 37.3021 328.433 38.3854 327.975 39.3125C327.521 40.2396 326.886 40.9609 326.068 41.4766C325.256 41.9922 324.308 42.25 323.225 42.25ZM323.225 40.5938C324.048 40.5938 324.725 40.3828 325.256 39.9609C325.787 39.5391 326.18 38.9844 326.436 38.2969C326.691 37.6094 326.818 36.8646 326.818 36.0625C326.818 35.2604 326.691 34.513 326.436 33.8203C326.18 33.1276 325.787 32.5677 325.256 32.1406C324.725 31.7135 324.048 31.5 323.225 31.5C322.402 31.5 321.725 31.7135 321.193 32.1406C320.662 32.5677 320.269 33.1276 320.014 33.8203C319.758 34.513 319.631 35.2604 319.631 36.0625C319.631 36.8646 319.758 37.6094 320.014 38.2969C320.269 38.9844 320.662 39.5391 321.193 39.9609C321.725 40.3828 322.402 40.5938 323.225 40.5938ZM331.477 42V30H333.32V35.2187H334.539L338.852 30H341.227L336.383 35.7812L341.289 42H338.914L334.977 36.9375H333.32V42H331.477Z" fill="white"/>
</g>
<defs>
<clipPath id="clip0_237_59">
<rect width="500" height="68" fill="white"/>
</clipPath>
</defs>
</svg>
