<svg width="500" height="68" viewBox="0 0 500 68" fill="none" xmlns="http://www.w3.org/2000/svg">
<g clip-path="url(#clip0_229_18)">
<rect width="500" height="68" fill="white"/>
<rect width="500" height="68" fill="#0D26A8"/>
<path d="M40.7188 35.1562V36.875H34.0938V35.1562H40.7188ZM34.5313 30V42H32.6875V30H34.5313ZM42.125 30V42H40.2812V30H42.125ZM46.25 46.5C45.9375 46.5 45.6589 46.474 45.4141 46.4219C45.1693 46.375 45 46.3281 44.9063 46.2813L45.375 44.6563C45.8229 44.7708 46.2188 44.8125 46.5625 44.7812C46.9063 44.75 47.2109 44.5964 47.4766 44.3203C47.7474 44.0495 47.9948 43.6094 48.2188 43L48.5625 42.0625L44.125 30H46.125L49.4375 39.5625H49.5625L52.875 30H54.875L49.7813 43.75C49.5521 44.3698 49.2682 44.8828 48.9297 45.2891C48.5911 45.7005 48.1979 46.0052 47.75 46.2031C47.3073 46.401 46.8073 46.5 46.25 46.5ZM56.5586 42L61.4336 35.9062L56.6211 30H58.8086L62.8086 35.125H63.8086V30H65.6523V35.125H66.6211L70.6211 30H72.8086L68.0273 35.9062L72.8711 42H70.6523L66.5898 36.8438H65.6523V42H63.8086V36.8438H62.8711L58.7773 42H56.5586ZM83.5371 35.1562V36.875H76.9121V35.1562H83.5371ZM77.3496 30V42H75.5059V30H77.3496ZM84.9434 30V42H83.0996V30H84.9434ZM93.1855 42.25C92.1022 42.25 91.1517 41.9922 90.334 41.4766C89.5215 40.9609 88.8861 40.2396 88.4277 39.3125C87.9746 38.3854 87.748 37.3021 87.748 36.0625C87.748 34.8125 87.9746 33.7214 88.4277 32.7891C88.8861 31.8568 89.5215 31.1328 90.334 30.6172C91.1517 30.1016 92.1022 29.8438 93.1855 29.8438C94.2689 29.8438 95.2168 30.1016 96.0293 30.6172C96.847 31.1328 97.4824 31.8568 97.9355 32.7891C98.3939 33.7214 98.623 34.8125 98.623 36.0625C98.623 37.3021 98.3939 38.3854 97.9355 39.3125C97.4824 40.2396 96.847 40.9609 96.0293 41.4766C95.2168 41.9922 94.2689 42.25 93.1855 42.25ZM93.1855 40.5938C94.0085 40.5938 94.6855 40.3828 95.2168 39.9609C95.748 39.5391 96.1413 38.9844 96.3965 38.2969C96.6517 37.6094 96.7793 36.8646 96.7793 36.0625C96.7793 35.2604 96.6517 34.513 96.3965 33.8203C96.1413 33.1276 95.748 32.5677 95.2168 32.1406C94.6855 31.7135 94.0085 31.5 93.1855 31.5C92.3626 31.5 91.6855 31.7135 91.1543 32.1406C90.623 32.5677 90.2298 33.1276 89.9746 33.8203C89.7194 34.513 89.5918 35.2604 89.5918 36.0625C89.5918 36.8646 89.7194 37.6094 89.9746 38.2969C90.2298 38.9844 90.623 39.5391 91.1543 39.9609C91.6855 40.3828 92.3626 40.5938 93.1855 40.5938ZM106.563 42V40.2812H107C107.359 40.2812 107.659 40.2109 107.898 40.0703C108.138 39.9245 108.331 39.6719 108.477 39.3125C108.628 38.9479 108.742 38.4427 108.82 37.7969C108.904 37.1458 108.964 36.3177 109 35.3125L109.219 30H117.219V42H115.375V31.7187H110.969L110.781 36C110.74 36.9844 110.651 37.8516 110.516 38.6016C110.385 39.3464 110.185 39.9714 109.914 40.4766C109.648 40.9818 109.294 41.362 108.852 41.6172C108.409 41.8724 107.854 42 107.188 42H106.563ZM122.445 39.2812L128.227 30H130.352V42H128.508V32.7188L122.758 42H120.602V30H122.445V39.2812ZM133.729 30H135.572V40.2812H140.104V30H141.947V40.2812H146.479V30H148.322V42H133.729V30ZM153.283 34.3437H156.721C158.127 34.3437 159.202 34.7005 159.947 35.4141C160.692 36.1276 161.064 37.0312 161.064 38.125C161.064 38.8437 160.898 39.4974 160.564 40.0859C160.231 40.6693 159.742 41.1354 159.096 41.4844C158.45 41.8281 157.658 42 156.721 42H151.689V30H153.533V40.2812H156.721C157.45 40.2812 158.049 40.0885 158.518 39.7031C158.986 39.3177 159.221 38.8229 159.221 38.2188C159.221 37.5833 158.986 37.0651 158.518 36.6641C158.049 36.263 157.45 36.0625 156.721 36.0625H153.283V34.3437ZM170.059 42V30H179.496V42H177.652V31.7187H171.902V42H170.059ZM187.895 42.25C186.738 42.25 185.741 41.9948 184.902 41.4844C184.069 40.9688 183.426 40.25 182.973 39.3281C182.525 38.401 182.301 37.3229 182.301 36.0938C182.301 34.8646 182.525 33.7812 182.973 32.8437C183.426 31.901 184.056 31.1667 184.863 30.6406C185.676 30.1094 186.624 29.8438 187.707 29.8438C188.332 29.8438 188.949 29.9479 189.559 30.1562C190.168 30.3646 190.723 30.7031 191.223 31.1719C191.723 31.6354 192.121 32.25 192.418 33.0156C192.715 33.7812 192.863 34.724 192.863 35.8437V36.625H183.613V35.0312H190.988C190.988 34.3542 190.853 33.75 190.582 33.2187C190.316 32.6875 189.936 32.2682 189.441 31.9609C188.952 31.6536 188.374 31.5 187.707 31.5C186.973 31.5 186.337 31.6823 185.801 32.0469C185.27 32.4062 184.861 32.875 184.574 33.4531C184.288 34.0312 184.145 34.651 184.145 35.3125V36.375C184.145 37.2813 184.301 38.0495 184.613 38.6797C184.931 39.3047 185.371 39.7812 185.934 40.1094C186.496 40.4323 187.15 40.5938 187.895 40.5938C188.379 40.5938 188.816 40.526 189.207 40.3906C189.603 40.25 189.944 40.0417 190.23 39.7656C190.517 39.4844 190.738 39.1354 190.895 38.7187L192.676 39.2188C192.488 39.8229 192.173 40.3542 191.73 40.8125C191.288 41.2656 190.741 41.6198 190.09 41.875C189.439 42.125 188.707 42.25 187.895 42.25ZM195.668 46.5V30H197.449V31.9062H197.668C197.803 31.6979 197.991 31.4323 198.23 31.1094C198.475 30.7812 198.824 30.4896 199.277 30.2344C199.736 29.974 200.355 29.8438 201.137 29.8438C202.147 29.8438 203.038 30.0964 203.809 30.6016C204.579 31.1068 205.181 31.8229 205.613 32.75C206.046 33.6771 206.262 34.7708 206.262 36.0313C206.262 37.3021 206.046 38.4036 205.613 39.3359C205.181 40.263 204.582 40.9818 203.816 41.4922C203.051 41.9974 202.168 42.25 201.168 42.25C200.397 42.25 199.78 42.1224 199.316 41.8672C198.853 41.6068 198.496 41.3125 198.246 40.9844C197.996 40.651 197.803 40.375 197.668 40.1562H197.512V46.5H195.668ZM197.48 36C197.48 36.9062 197.613 37.7057 197.879 38.3984C198.145 39.0859 198.533 39.625 199.043 40.0156C199.553 40.401 200.178 40.5938 200.918 40.5938C201.689 40.5938 202.332 40.3906 202.848 39.9844C203.368 39.5729 203.759 39.0208 204.02 38.3281C204.285 37.6302 204.418 36.8542 204.418 36C204.418 35.1562 204.288 34.3958 204.027 33.7187C203.772 33.0365 203.384 32.4974 202.863 32.1016C202.348 31.7005 201.699 31.5 200.918 31.5C200.168 31.5 199.538 31.6901 199.027 32.0703C198.517 32.4453 198.132 32.9714 197.871 33.6484C197.611 34.3203 197.48 35.1042 197.48 36ZM214.105 42.25C212.949 42.25 211.952 41.9948 211.113 41.4844C210.28 40.9688 209.637 40.25 209.184 39.3281C208.736 38.401 208.512 37.3229 208.512 36.0938C208.512 34.8646 208.736 33.7812 209.184 32.8437C209.637 31.901 210.267 31.1667 211.074 30.6406C211.887 30.1094 212.835 29.8438 213.918 29.8438C214.543 29.8438 215.16 29.9479 215.77 30.1562C216.379 30.3646 216.934 30.7031 217.434 31.1719C217.934 31.6354 218.332 32.25 218.629 33.0156C218.926 33.7812 219.074 34.724 219.074 35.8437V36.625H209.824V35.0312H217.199C217.199 34.3542 217.064 33.75 216.793 33.2187C216.527 32.6875 216.147 32.2682 215.652 31.9609C215.163 31.6536 214.585 31.5 213.918 31.5C213.184 31.5 212.548 31.6823 212.012 32.0469C211.48 32.4062 211.072 32.875 210.785 33.4531C210.499 34.0312 210.355 34.651 210.355 35.3125V36.375C210.355 37.2813 210.512 38.0495 210.824 38.6797C211.142 39.3047 211.582 39.7812 212.145 40.1094C212.707 40.4323 213.361 40.5938 214.105 40.5938C214.59 40.5938 215.027 40.526 215.418 40.3906C215.814 40.25 216.155 40.0417 216.441 39.7656C216.728 39.4844 216.949 39.1354 217.105 38.7187L218.887 39.2188C218.699 39.8229 218.384 40.3542 217.941 40.8125C217.499 41.2656 216.952 41.6198 216.301 41.875C215.65 42.125 214.918 42.25 214.105 42.25ZM223.723 39.2812L229.504 30H231.629V42H229.785V32.7188L224.035 42H221.879V30H223.723V39.2812ZM228.285 26H230.004C230.004 26.8437 229.712 27.5339 229.129 28.0703C228.546 28.6068 227.754 28.875 226.754 28.875C225.77 28.875 224.986 28.6068 224.402 28.0703C223.824 27.5339 223.535 26.8437 223.535 26H225.254C225.254 26.4062 225.366 26.763 225.59 27.0703C225.819 27.3776 226.207 27.5312 226.754 27.5312C227.301 27.5312 227.691 27.3776 227.926 27.0703C228.165 26.763 228.285 26.4062 228.285 26ZM233.373 31.7187V30H243.123V31.7187H239.186V42H237.342V31.7187H233.373ZM247.656 39.2812L253.438 30H255.563V42H253.719V32.7188L247.969 42H245.813V30H247.656V39.2812ZM264.377 42L269.252 35.9062L264.439 30H266.627L270.627 35.125H271.627V30H273.471V35.125H274.439L278.439 30H280.627L275.846 35.9062L280.689 42H278.471L274.408 36.8438H273.471V42H271.627V36.8438H270.689L266.596 42H264.377ZM285.168 39.2812L290.949 30H293.074V42H291.23V32.7188L285.48 42H283.324V30H285.168V39.2812ZM296.451 42V30H301.357C302.649 30 303.675 30.2917 304.436 30.875C305.196 31.4583 305.576 32.2292 305.576 33.1875C305.576 33.9167 305.36 34.4818 304.928 34.8828C304.495 35.2786 303.941 35.5469 303.264 35.6875C303.706 35.75 304.136 35.9062 304.553 36.1562C304.975 36.4062 305.324 36.75 305.6 37.1875C305.876 37.6198 306.014 38.151 306.014 38.7812C306.014 39.3958 305.857 39.9453 305.545 40.4297C305.232 40.9141 304.785 41.2969 304.201 41.5781C303.618 41.8594 302.92 42 302.107 42H296.451ZM298.201 40.3125H302.107C302.743 40.3125 303.24 40.1615 303.6 39.8594C303.959 39.5573 304.139 39.1458 304.139 38.625C304.139 38.0052 303.959 37.5182 303.6 37.1641C303.24 36.8047 302.743 36.625 302.107 36.625H298.201V40.3125ZM298.201 35.0312H301.357C301.852 35.0312 302.277 34.9635 302.631 34.8281C302.985 34.6875 303.256 34.4896 303.443 34.2344C303.636 33.974 303.732 33.6667 303.732 33.3125C303.732 32.8073 303.521 32.4115 303.1 32.125C302.678 31.8333 302.097 31.6875 301.357 31.6875H298.201V35.0312ZM313.68 42.25C312.596 42.25 311.646 41.9922 310.828 41.4766C310.016 40.9609 309.38 40.2396 308.922 39.3125C308.469 38.3854 308.242 37.3021 308.242 36.0625C308.242 34.8125 308.469 33.7214 308.922 32.7891C309.38 31.8568 310.016 31.1328 310.828 30.6172C311.646 30.1016 312.596 29.8438 313.68 29.8438C314.763 29.8438 315.711 30.1016 316.523 30.6172C317.341 31.1328 317.977 31.8568 318.43 32.7891C318.888 33.7214 319.117 34.8125 319.117 36.0625C319.117 37.3021 318.888 38.3854 318.43 39.3125C317.977 40.2396 317.341 40.9609 316.523 41.4766C315.711 41.9922 314.763 42.25 313.68 42.25ZM313.68 40.5938C314.503 40.5938 315.18 40.3828 315.711 39.9609C316.242 39.5391 316.635 38.9844 316.891 38.2969C317.146 37.6094 317.273 36.8646 317.273 36.0625C317.273 35.2604 317.146 34.513 316.891 33.8203C316.635 33.1276 316.242 32.5677 315.711 32.1406C315.18 31.7135 314.503 31.5 313.68 31.5C312.857 31.5 312.18 31.7135 311.648 32.1406C311.117 32.5677 310.724 33.1276 310.469 33.8203C310.214 34.513 310.086 35.2604 310.086 36.0625C310.086 36.8646 310.214 37.6094 310.469 38.2969C310.724 38.9844 311.117 39.5391 311.648 39.9609C312.18 40.3828 312.857 40.5938 313.68 40.5938ZM321.932 42V30H331.369V42H329.525V31.7187H323.775V42H321.932ZM336.58 39.2812L342.361 30H344.486V42H342.643V32.7188L336.893 42H334.736V30H336.58V39.2812ZM352.738 42.25C351.613 42.25 350.645 41.9844 349.832 41.4531C349.02 40.9219 348.395 40.1901 347.957 39.2578C347.52 38.3255 347.301 37.2604 347.301 36.0625C347.301 34.8437 347.525 33.7682 347.973 32.8359C348.426 31.8984 349.056 31.1667 349.863 30.6406C350.676 30.1094 351.624 29.8438 352.707 29.8438C353.551 29.8438 354.311 30 354.988 30.3125C355.665 30.625 356.22 31.0625 356.652 31.625C357.085 32.1875 357.353 32.8437 357.457 33.5937H355.613C355.473 33.0469 355.16 32.5625 354.676 32.1406C354.197 31.7135 353.551 31.5 352.738 31.5C352.02 31.5 351.389 31.6875 350.848 32.0625C350.311 32.4323 349.892 32.9557 349.59 33.6328C349.293 34.3047 349.145 35.0937 349.145 36C349.145 36.9271 349.29 37.7344 349.582 38.4219C349.879 39.1094 350.296 39.6432 350.832 40.0234C351.374 40.4036 352.009 40.5938 352.738 40.5938C353.217 40.5938 353.652 40.5104 354.043 40.3437C354.434 40.1771 354.764 39.9375 355.035 39.625C355.306 39.3125 355.499 38.9375 355.613 38.5H357.457C357.353 39.2083 357.095 39.8464 356.684 40.4141C356.277 40.9766 355.738 41.4245 355.066 41.7578C354.4 42.0859 353.624 42.25 352.738 42.25ZM368.184 35.1562V36.875H361.559V35.1562H368.184ZM361.996 30V42H360.152V30H361.996ZM369.59 30V42H367.746V30H369.59ZM374.551 34.3437H377.988C379.395 34.3437 380.47 34.7005 381.215 35.4141C381.96 36.1276 382.332 37.0312 382.332 38.125C382.332 38.8437 382.165 39.4974 381.832 40.0859C381.499 40.6693 381.009 41.1354 380.363 41.4844C379.717 41.8281 378.926 42 377.988 42H372.957V30H374.801V40.2812H377.988C378.717 40.2812 379.316 40.0885 379.785 39.7031C380.254 39.3177 380.488 38.8229 380.488 38.2188C380.488 37.5833 380.254 37.0651 379.785 36.6641C379.316 36.263 378.717 36.0625 377.988 36.0625H374.551V34.3437ZM384.238 42V30H386.082V42H384.238ZM391.301 39.2812L397.082 30H399.207V42H397.363V32.7188L391.613 42H389.457V30H391.301V39.2812ZM395.863 26H397.582C397.582 26.8437 397.29 27.5339 396.707 28.0703C396.124 28.6068 395.332 28.875 394.332 28.875C393.348 28.875 392.564 28.6068 391.98 28.0703C391.402 27.5339 391.113 26.8437 391.113 26H392.832C392.832 26.4062 392.944 26.763 393.168 27.0703C393.397 27.3776 393.785 27.5312 394.332 27.5312C394.879 27.5312 395.27 27.3776 395.504 27.0703C395.743 26.763 395.863 26.4062 395.863 26ZM415.334 39.5L419.521 30H421.271L416.084 42H414.584L409.49 30H411.209L415.334 39.5ZM410.615 30V42H408.771V30H410.615ZM420.053 42V30H421.896V42H420.053ZM430.146 42.25C429.063 42.25 428.113 41.9922 427.295 41.4766C426.482 40.9609 425.847 40.2396 425.389 39.3125C424.936 38.3854 424.709 37.3021 424.709 36.0625C424.709 34.8125 424.936 33.7214 425.389 32.7891C425.847 31.8568 426.482 31.1328 427.295 30.6172C428.113 30.1016 429.063 29.8438 430.146 29.8438C431.23 29.8438 432.178 30.1016 432.99 30.6172C433.808 31.1328 434.443 31.8568 434.896 32.7891C435.355 33.7214 435.584 34.8125 435.584 36.0625C435.584 37.3021 435.355 38.3854 434.896 39.3125C434.443 40.2396 433.808 40.9609 432.99 41.4766C432.178 41.9922 431.23 42.25 430.146 42.25ZM430.146 40.5938C430.969 40.5938 431.646 40.3828 432.178 39.9609C432.709 39.5391 433.102 38.9844 433.357 38.2969C433.613 37.6094 433.74 36.8646 433.74 36.0625C433.74 35.2604 433.613 34.513 433.357 33.8203C433.102 33.1276 432.709 32.5677 432.178 32.1406C431.646 31.7135 430.969 31.5 430.146 31.5C429.324 31.5 428.646 31.7135 428.115 32.1406C427.584 32.5677 427.191 33.1276 426.936 33.8203C426.68 34.513 426.553 35.2604 426.553 36.0625C426.553 36.8646 426.68 37.6094 426.936 38.2969C427.191 38.9844 427.584 39.5391 428.115 39.9609C428.646 40.3828 429.324 40.5938 430.146 40.5938ZM443.273 42.25C442.148 42.25 441.18 41.9844 440.367 41.4531C439.555 40.9219 438.93 40.1901 438.492 39.2578C438.055 38.3255 437.836 37.2604 437.836 36.0625C437.836 34.8437 438.06 33.7682 438.508 32.8359C438.961 31.8984 439.591 31.1667 440.398 30.6406C441.211 30.1094 442.159 29.8438 443.242 29.8438C444.086 29.8438 444.846 30 445.523 30.3125C446.201 30.625 446.755 31.0625 447.188 31.625C447.62 32.1875 447.888 32.8437 447.992 33.5937H446.148C446.008 33.0469 445.695 32.5625 445.211 32.1406C444.732 31.7135 444.086 31.5 443.273 31.5C442.555 31.5 441.924 31.6875 441.383 32.0625C440.846 32.4323 440.427 32.9557 440.125 33.6328C439.828 34.3047 439.68 35.0937 439.68 36C439.68 36.9271 439.826 37.7344 440.117 38.4219C440.414 39.1094 440.831 39.6432 441.367 40.0234C441.909 40.4036 442.544 40.5938 443.273 40.5938C443.753 40.5938 444.188 40.5104 444.578 40.3437C444.969 40.1771 445.299 39.9375 445.57 39.625C445.841 39.3125 446.034 38.9375 446.148 38.5H447.992C447.888 39.2083 447.63 39.8464 447.219 40.4141C446.813 40.9766 446.273 41.4245 445.602 41.7578C444.935 42.0859 444.159 42.25 443.273 42.25ZM449.742 31.7187V30H459.492V31.7187H455.555V42H453.711V31.7187H449.742Z" fill="white"/>
</g>
<defs>
<clipPath id="clip0_229_18">
<rect width="500" height="68" fill="white"/>
</clipPath>
</defs>
</svg>
