<svg width="500" height="68" viewBox="0 0 500 68" fill="none" xmlns="http://www.w3.org/2000/svg">
<g clip-path="url(#clip0_237_55)">
<rect width="500" height="68" fill="white"/>
<rect width="500" height="68" fill="#0D26A8"/>
<path d="M147.688 42V30H152.594C153.885 30 154.911 30.2917 155.672 30.875C156.432 31.4583 156.813 32.2292 156.813 33.1875C156.813 33.9167 156.596 34.4818 156.164 34.8828C155.732 35.2786 155.177 35.5469 154.5 35.6875C154.943 35.75 155.372 35.9062 155.789 36.1562C156.211 36.4062 156.56 36.75 156.836 37.1875C157.112 37.6198 157.25 38.151 157.25 38.7812C157.25 39.3958 157.094 39.9453 156.781 40.4297C156.469 40.9141 156.021 41.2969 155.438 41.5781C154.854 41.8594 154.156 42 153.344 42H147.688ZM149.438 40.3125H153.344C153.979 40.3125 154.477 40.1615 154.836 39.8594C155.195 39.5573 155.375 39.1458 155.375 38.625C155.375 38.0052 155.195 37.5182 154.836 37.1641C154.477 36.8047 153.979 36.625 153.344 36.625H149.438V40.3125ZM149.438 35.0312H152.594C153.089 35.0312 153.513 34.9635 153.867 34.8281C154.221 34.6875 154.492 34.4896 154.68 34.2344C154.872 33.974 154.969 33.6667 154.969 33.3125C154.969 32.8073 154.758 32.4115 154.336 32.125C153.914 31.8333 153.333 31.6875 152.594 31.6875H149.438V35.0312ZM171.104 42.25C170.02 42.25 169.07 41.9922 168.252 41.4766C167.439 40.9609 166.804 40.2396 166.346 39.3125C165.893 38.3854 165.666 37.3021 165.666 36.0625C165.666 34.8125 165.893 33.7214 166.346 32.7891C166.804 31.8568 167.439 31.1328 168.252 30.6172C169.07 30.1016 170.02 29.8438 171.104 29.8438C172.187 29.8438 173.135 30.1016 173.947 30.6172C174.765 31.1328 175.4 31.8568 175.854 32.7891C176.312 33.7214 176.541 34.8125 176.541 36.0625C176.541 37.3021 176.312 38.3854 175.854 39.3125C175.4 40.2396 174.765 40.9609 173.947 41.4766C173.135 41.9922 172.187 42.25 171.104 42.25ZM171.104 40.5938C171.926 40.5938 172.604 40.3828 173.135 39.9609C173.666 39.5391 174.059 38.9844 174.314 38.2969C174.57 37.6094 174.697 36.8646 174.697 36.0625C174.697 35.2604 174.57 34.513 174.314 33.8203C174.059 33.1276 173.666 32.5677 173.135 32.1406C172.604 31.7135 171.926 31.5 171.104 31.5C170.281 31.5 169.604 31.7135 169.072 32.1406C168.541 32.5677 168.148 33.1276 167.893 33.8203C167.637 34.513 167.51 35.2604 167.51 36.0625C167.51 36.8646 167.637 37.6094 167.893 38.2969C168.148 38.9844 168.541 39.5391 169.072 39.9609C169.604 40.3828 170.281 40.5938 171.104 40.5938ZM179.355 42V30H181.199V35.2187H182.418L186.73 30H189.105L184.262 35.7812L189.168 42H186.793L182.855 36.9375H181.199V42H179.355ZM191.172 46.5V30H192.953V31.9062H193.172C193.307 31.6979 193.495 31.4323 193.734 31.1094C193.979 30.7812 194.328 30.4896 194.781 30.2344C195.24 29.974 195.859 29.8438 196.641 29.8438C197.651 29.8438 198.542 30.0964 199.313 30.6016C200.083 31.1068 200.685 31.8229 201.117 32.75C201.549 33.6771 201.766 34.7708 201.766 36.0313C201.766 37.3021 201.549 38.4036 201.117 39.3359C200.685 40.263 200.086 40.9818 199.32 41.4922C198.555 41.9974 197.672 42.25 196.672 42.25C195.901 42.25 195.284 42.1224 194.82 41.8672C194.357 41.6068 194 41.3125 193.75 40.9844C193.5 40.651 193.307 40.375 193.172 40.1562H193.016V46.5H191.172ZM192.984 36C192.984 36.9062 193.117 37.7057 193.383 38.3984C193.648 39.0859 194.036 39.625 194.547 40.0156C195.057 40.401 195.682 40.5938 196.422 40.5938C197.193 40.5938 197.836 40.3906 198.352 39.9844C198.872 39.5729 199.263 39.0208 199.523 38.3281C199.789 37.6302 199.922 36.8542 199.922 36C199.922 35.1562 199.792 34.3958 199.531 33.7187C199.276 33.0365 198.888 32.4974 198.367 32.1016C197.852 31.7005 197.203 31.5 196.422 31.5C195.672 31.5 195.042 31.6901 194.531 32.0703C194.021 32.4453 193.635 32.9714 193.375 33.6484C193.115 34.3203 192.984 35.1042 192.984 36ZM205.336 46.5C205.023 46.5 204.745 46.474 204.5 46.4219C204.255 46.375 204.086 46.3281 203.992 46.2813L204.461 44.6563C204.909 44.7708 205.305 44.8125 205.648 44.7812C205.992 44.75 206.297 44.5964 206.563 44.3203C206.833 44.0495 207.081 43.6094 207.305 43L207.648 42.0625L203.211 30H205.211L208.523 39.5625H208.648L211.961 30H213.961L208.867 43.75C208.638 44.3698 208.354 44.8828 208.016 45.2891C207.677 45.7005 207.284 46.0052 206.836 46.2031C206.393 46.401 205.893 46.5 205.336 46.5ZM215.645 42L220.52 35.9062L215.707 30H217.895L221.895 35.125H222.895V30H224.738V35.125H225.707L229.707 30H231.895L227.113 35.9062L231.957 42H229.738L225.676 36.8438H224.738V42H222.895V36.8438H221.957L217.863 42H215.645ZM239.129 42.25C237.973 42.25 236.975 41.9948 236.137 41.4844C235.303 40.9688 234.66 40.25 234.207 39.3281C233.759 38.401 233.535 37.3229 233.535 36.0938C233.535 34.8646 233.759 33.7812 234.207 32.8437C234.66 31.901 235.29 31.1667 236.098 30.6406C236.91 30.1094 237.858 29.8438 238.941 29.8438C239.566 29.8438 240.184 29.9479 240.793 30.1562C241.402 30.3646 241.957 30.7031 242.457 31.1719C242.957 31.6354 243.355 32.25 243.652 33.0156C243.949 33.7812 244.098 34.724 244.098 35.8437V36.625H234.848V35.0312H242.223C242.223 34.3542 242.087 33.75 241.816 33.2187C241.551 32.6875 241.171 32.2682 240.676 31.9609C240.186 31.6536 239.608 31.5 238.941 31.5C238.207 31.5 237.572 31.6823 237.035 32.0469C236.504 32.4062 236.095 32.875 235.809 33.4531C235.522 34.0312 235.379 34.651 235.379 35.3125V36.375C235.379 37.2813 235.535 38.0495 235.848 38.6797C236.165 39.3047 236.605 39.7812 237.168 40.1094C237.73 40.4323 238.384 40.5938 239.129 40.5938C239.613 40.5938 240.051 40.526 240.441 40.3906C240.837 40.25 241.178 40.0417 241.465 39.7656C241.751 39.4844 241.973 39.1354 242.129 38.7187L243.91 39.2188C243.723 39.8229 243.408 40.3542 242.965 40.8125C242.522 41.2656 241.975 41.6198 241.324 41.875C240.673 42.125 239.941 42.25 239.129 42.25ZM254.934 35.1562V36.875H248.309V35.1562H254.934ZM248.746 30V42H246.902V30H248.746ZM256.34 30V42H254.496V30H256.34ZM261.551 39.2812L267.332 30H269.457V42H267.613V32.7188L261.863 42H259.707V30H261.551V39.2812ZM274.678 39.2812L280.459 30H282.584V42H280.74V32.7188L274.99 42H272.834V30H274.678V39.2812ZM297.023 42.25C295.898 42.25 294.93 41.9844 294.117 41.4531C293.305 40.9219 292.68 40.1901 292.242 39.2578C291.805 38.3255 291.586 37.2604 291.586 36.0625C291.586 34.8437 291.81 33.7682 292.258 32.8359C292.711 31.8984 293.341 31.1667 294.148 30.6406C294.961 30.1094 295.909 29.8438 296.992 29.8438C297.836 29.8438 298.596 30 299.273 30.3125C299.951 30.625 300.505 31.0625 300.938 31.625C301.37 32.1875 301.638 32.8437 301.742 33.5937H299.898C299.758 33.0469 299.445 32.5625 298.961 32.1406C298.482 31.7135 297.836 31.5 297.023 31.5C296.305 31.5 295.674 31.6875 295.133 32.0625C294.596 32.4323 294.177 32.9557 293.875 33.6328C293.578 34.3047 293.43 35.0937 293.43 36C293.43 36.9271 293.576 37.7344 293.867 38.4219C294.164 39.1094 294.581 39.6432 295.117 40.0234C295.659 40.4036 296.294 40.5938 297.023 40.5938C297.503 40.5938 297.938 40.5104 298.328 40.3437C298.719 40.1771 299.049 39.9375 299.32 39.625C299.591 39.3125 299.784 38.9375 299.898 38.5H301.742C301.638 39.2083 301.38 39.8464 300.969 40.4141C300.563 40.9766 300.023 41.4245 299.352 41.7578C298.685 42.0859 297.909 42.25 297.023 42.25ZM307.969 42.2813C307.208 42.2813 306.518 42.138 305.898 41.8516C305.279 41.5599 304.786 41.1406 304.422 40.5938C304.057 40.0417 303.875 39.375 303.875 38.5937C303.875 37.9062 304.01 37.349 304.281 36.9219C304.552 36.4896 304.914 36.151 305.367 35.9062C305.82 35.6615 306.32 35.4792 306.867 35.3594C307.419 35.2344 307.974 35.1354 308.531 35.0625C309.26 34.9687 309.852 34.8984 310.305 34.8516C310.763 34.7995 311.096 34.7135 311.305 34.5937C311.518 34.474 311.625 34.2656 311.625 33.9687V33.9062C311.625 33.1354 311.414 32.5365 310.992 32.1094C310.576 31.6823 309.943 31.4687 309.094 31.4687C308.214 31.4687 307.523 31.6615 307.023 32.0469C306.523 32.4323 306.172 32.8437 305.969 33.2812L304.219 32.6562C304.531 31.9271 304.948 31.3594 305.469 30.9531C305.995 30.5417 306.568 30.2552 307.188 30.0937C307.813 29.9271 308.427 29.8438 309.031 29.8438C309.417 29.8438 309.859 29.8906 310.359 29.9844C310.865 30.0729 311.352 30.2578 311.82 30.5391C312.294 30.8203 312.688 31.2448 313 31.8125C313.313 32.3802 313.469 33.1406 313.469 34.0938V42H311.625V40.375H311.531C311.406 40.6354 311.198 40.9141 310.906 41.2109C310.615 41.5078 310.227 41.7604 309.742 41.9687C309.258 42.1771 308.667 42.2813 307.969 42.2813ZM308.25 40.625C308.979 40.625 309.594 40.4818 310.094 40.1953C310.599 39.9089 310.979 39.5391 311.234 39.0859C311.495 38.6328 311.625 38.1562 311.625 37.6562V35.9687C311.547 36.0625 311.375 36.1484 311.109 36.2266C310.849 36.2995 310.547 36.3646 310.203 36.4219C309.865 36.474 309.534 36.5208 309.211 36.5625C308.893 36.599 308.635 36.6302 308.438 36.6562C307.958 36.7187 307.51 36.8203 307.094 36.9609C306.682 37.0964 306.349 37.3021 306.094 37.5781C305.844 37.849 305.719 38.2187 305.719 38.6875C305.719 39.3281 305.956 39.8125 306.43 40.1406C306.909 40.4635 307.516 40.625 308.25 40.625ZM316.834 42V30H318.678V35.2187H319.896L324.209 30H326.584L321.74 35.7812L326.646 42H324.271L320.334 36.9375H318.678V42H316.834ZM329.838 46.5C329.525 46.5 329.247 46.474 329.002 46.4219C328.757 46.375 328.588 46.3281 328.494 46.2813L328.963 44.6563C329.411 44.7708 329.807 44.8125 330.15 44.7812C330.494 44.75 330.799 44.5964 331.064 44.3203C331.335 44.0495 331.583 43.6094 331.807 43L332.15 42.0625L327.713 30H329.713L333.025 39.5625H333.15L336.463 30H338.463L333.369 43.75C333.14 44.3698 332.856 44.8828 332.518 45.2891C332.179 45.7005 331.786 46.0052 331.338 46.2031C330.895 46.401 330.395 46.5 329.838 46.5ZM340.896 46.5V30H342.678V31.9062H342.896C343.032 31.6979 343.219 31.4323 343.459 31.1094C343.704 30.7812 344.053 30.4896 344.506 30.2344C344.964 29.974 345.584 29.8438 346.365 29.8438C347.376 29.8438 348.266 30.0964 349.037 30.6016C349.808 31.1068 350.41 31.8229 350.842 32.75C351.274 33.6771 351.49 34.7708 351.49 36.0313C351.49 37.3021 351.274 38.4036 350.842 39.3359C350.41 40.263 349.811 40.9818 349.045 41.4922C348.279 41.9974 347.396 42.25 346.396 42.25C345.626 42.25 345.008 42.1224 344.545 41.8672C344.081 41.6068 343.725 41.3125 343.475 40.9844C343.225 40.651 343.032 40.375 342.896 40.1562H342.74V46.5H340.896ZM342.709 36C342.709 36.9062 342.842 37.7057 343.107 38.3984C343.373 39.0859 343.761 39.625 344.271 40.0156C344.782 40.401 345.407 40.5938 346.146 40.5938C346.917 40.5938 347.561 40.3906 348.076 39.9844C348.597 39.5729 348.988 39.0208 349.248 38.3281C349.514 37.6302 349.646 36.8542 349.646 36C349.646 35.1562 349.516 34.3958 349.256 33.7187C349.001 33.0365 348.613 32.4974 348.092 32.1016C347.576 31.7005 346.928 31.5 346.146 31.5C345.396 31.5 344.766 31.6901 344.256 32.0703C343.745 32.4453 343.36 32.9714 343.1 33.6484C342.839 34.3203 342.709 35.1042 342.709 36Z" fill="white"/>
</g>
<defs>
<clipPath id="clip0_237_55">
<rect width="500" height="68" fill="white"/>
</clipPath>
</defs>
</svg>
