<svg width="500" height="68" viewBox="0 0 500 68" fill="none" xmlns="http://www.w3.org/2000/svg">
<g clip-path="url(#clip0_230_33)">
<rect width="500" height="68" fill="white"/>
<rect width="500" height="68" fill="#0D26A8"/>
<path d="M146.719 35.1562V36.875H140.094V35.1562H146.719ZM140.531 30V42H138.688V30H140.531ZM148.125 30V42H146.281V30H148.125ZM156.367 42.25C155.284 42.25 154.333 41.9922 153.516 41.4766C152.703 40.9609 152.068 40.2396 151.609 39.3125C151.156 38.3854 150.93 37.3021 150.93 36.0625C150.93 34.8125 151.156 33.7214 151.609 32.7891C152.068 31.8568 152.703 31.1328 153.516 30.6172C154.333 30.1016 155.284 29.8438 156.367 29.8438C157.451 29.8438 158.398 30.1016 159.211 30.6172C160.029 31.1328 160.664 31.8568 161.117 32.7891C161.576 33.7214 161.805 34.8125 161.805 36.0625C161.805 37.3021 161.576 38.3854 161.117 39.3125C160.664 40.2396 160.029 40.9609 159.211 41.4766C158.398 41.9922 157.451 42.25 156.367 42.25ZM156.367 40.5938C157.19 40.5938 157.867 40.3828 158.398 39.9609C158.93 39.5391 159.323 38.9844 159.578 38.2969C159.833 37.6094 159.961 36.8646 159.961 36.0625C159.961 35.2604 159.833 34.513 159.578 33.8203C159.323 33.1276 158.93 32.5677 158.398 32.1406C157.867 31.7135 157.19 31.5 156.367 31.5C155.544 31.5 154.867 31.7135 154.336 32.1406C153.805 32.5677 153.411 33.1276 153.156 33.8203C152.901 34.513 152.773 35.2604 152.773 36.0625C152.773 36.8646 152.901 37.6094 153.156 38.2969C153.411 38.9844 153.805 39.5391 154.336 39.9609C154.867 40.3828 155.544 40.5938 156.367 40.5938ZM164.619 42V30H169.525C170.817 30 171.843 30.2917 172.604 30.875C173.364 31.4583 173.744 32.2292 173.744 33.1875C173.744 33.9167 173.528 34.4818 173.096 34.8828C172.663 35.2786 172.109 35.5469 171.432 35.6875C171.874 35.75 172.304 35.9062 172.721 36.1562C173.143 36.4062 173.492 36.75 173.768 37.1875C174.044 37.6198 174.182 38.151 174.182 38.7812C174.182 39.3958 174.025 39.9453 173.713 40.4297C173.4 40.9141 172.952 41.2969 172.369 41.5781C171.786 41.8594 171.088 42 170.275 42H164.619ZM166.369 40.3125H170.275C170.911 40.3125 171.408 40.1615 171.768 39.8594C172.127 39.5573 172.307 39.1458 172.307 38.625C172.307 38.0052 172.127 37.5182 171.768 37.1641C171.408 36.8047 170.911 36.625 170.275 36.625H166.369V40.3125ZM166.369 35.0312H169.525C170.02 35.0312 170.445 34.9635 170.799 34.8281C171.153 34.6875 171.424 34.4896 171.611 34.2344C171.804 33.974 171.9 33.6667 171.9 33.3125C171.9 32.8073 171.689 32.4115 171.268 32.125C170.846 31.8333 170.265 31.6875 169.525 31.6875H166.369V35.0312ZM181.848 42.25C180.764 42.25 179.814 41.9922 178.996 41.4766C178.184 40.9609 177.548 40.2396 177.09 39.3125C176.637 38.3854 176.41 37.3021 176.41 36.0625C176.41 34.8125 176.637 33.7214 177.09 32.7891C177.548 31.8568 178.184 31.1328 178.996 30.6172C179.814 30.1016 180.764 29.8438 181.848 29.8438C182.931 29.8438 183.879 30.1016 184.691 30.6172C185.509 31.1328 186.145 31.8568 186.598 32.7891C187.056 33.7214 187.285 34.8125 187.285 36.0625C187.285 37.3021 187.056 38.3854 186.598 39.3125C186.145 40.2396 185.509 40.9609 184.691 41.4766C183.879 41.9922 182.931 42.25 181.848 42.25ZM181.848 40.5938C182.671 40.5938 183.348 40.3828 183.879 39.9609C184.41 39.5391 184.803 38.9844 185.059 38.2969C185.314 37.6094 185.441 36.8646 185.441 36.0625C185.441 35.2604 185.314 34.513 185.059 33.8203C184.803 33.1276 184.41 32.5677 183.879 32.1406C183.348 31.7135 182.671 31.5 181.848 31.5C181.025 31.5 180.348 31.7135 179.816 32.1406C179.285 32.5677 178.892 33.1276 178.637 33.8203C178.382 34.513 178.254 35.2604 178.254 36.0625C178.254 36.8646 178.382 37.6094 178.637 38.2969C178.892 38.9844 179.285 39.5391 179.816 39.9609C180.348 40.3828 181.025 40.5938 181.848 40.5938ZM195.131 42.25C193.975 42.25 192.977 41.9948 192.139 41.4844C191.305 40.9688 190.662 40.25 190.209 39.3281C189.761 38.401 189.537 37.3229 189.537 36.0938C189.537 34.8646 189.761 33.7812 190.209 32.8437C190.662 31.901 191.292 31.1667 192.1 30.6406C192.912 30.1094 193.86 29.8438 194.943 29.8438C195.568 29.8438 196.186 29.9479 196.795 30.1562C197.404 30.3646 197.959 30.7031 198.459 31.1719C198.959 31.6354 199.357 32.25 199.654 33.0156C199.951 33.7812 200.1 34.724 200.1 35.8437V36.625H190.85V35.0312H198.225C198.225 34.3542 198.089 33.75 197.818 33.2187C197.553 32.6875 197.173 32.2682 196.678 31.9609C196.188 31.6536 195.61 31.5 194.943 31.5C194.209 31.5 193.574 31.6823 193.037 32.0469C192.506 32.4062 192.097 32.875 191.811 33.4531C191.524 34.0312 191.381 34.651 191.381 35.3125V36.375C191.381 37.2813 191.537 38.0495 191.85 38.6797C192.167 39.3047 192.607 39.7812 193.17 40.1094C193.732 40.4323 194.386 40.5938 195.131 40.5938C195.615 40.5938 196.053 40.526 196.443 40.3906C196.839 40.25 197.18 40.0417 197.467 39.7656C197.753 39.4844 197.975 39.1354 198.131 38.7187L199.912 39.2188C199.725 39.8229 199.41 40.3542 198.967 40.8125C198.524 41.2656 197.977 41.6198 197.326 41.875C196.675 42.125 195.943 42.25 195.131 42.25ZM213.967 42.25C212.883 42.25 211.933 41.9922 211.115 41.4766C210.303 40.9609 209.667 40.2396 209.209 39.3125C208.756 38.3854 208.529 37.3021 208.529 36.0625C208.529 34.8125 208.756 33.7214 209.209 32.7891C209.667 31.8568 210.303 31.1328 211.115 30.6172C211.933 30.1016 212.883 29.8438 213.967 29.8438C215.05 29.8438 215.998 30.1016 216.811 30.6172C217.628 31.1328 218.264 31.8568 218.717 32.7891C219.175 33.7214 219.404 34.8125 219.404 36.0625C219.404 37.3021 219.175 38.3854 218.717 39.3125C218.264 40.2396 217.628 40.9609 216.811 41.4766C215.998 41.9922 215.05 42.25 213.967 42.25ZM213.967 40.5938C214.79 40.5938 215.467 40.3828 215.998 39.9609C216.529 39.5391 216.923 38.9844 217.178 38.2969C217.433 37.6094 217.561 36.8646 217.561 36.0625C217.561 35.2604 217.433 34.513 217.178 33.8203C216.923 33.1276 216.529 32.5677 215.998 32.1406C215.467 31.7135 214.79 31.5 213.967 31.5C213.144 31.5 212.467 31.7135 211.936 32.1406C211.404 32.5677 211.011 33.1276 210.756 33.8203C210.501 34.513 210.373 35.2604 210.373 36.0625C210.373 36.8646 210.501 37.6094 210.756 38.2969C211.011 38.9844 211.404 39.5391 211.936 39.9609C212.467 40.3828 213.144 40.5938 213.967 40.5938ZM231.125 25.5L232.063 26.625C231.698 26.9792 231.276 27.2266 230.797 27.3672C230.318 27.5078 229.776 27.5937 229.172 27.625C228.568 27.6562 227.896 27.6875 227.156 27.7187C226.323 27.75 225.633 27.9531 225.086 28.3281C224.539 28.7031 224.117 29.2448 223.82 29.9531C223.523 30.6615 223.333 31.5312 223.25 32.5625H223.406C223.813 31.8125 224.375 31.2604 225.094 30.9062C225.813 30.5521 226.583 30.375 227.406 30.375C228.344 30.375 229.188 30.5937 229.938 31.0312C230.688 31.4687 231.281 32.1172 231.719 32.9766C232.156 33.8359 232.375 34.8958 232.375 36.1562C232.375 37.4115 232.151 38.4948 231.703 39.4062C231.26 40.3177 230.638 41.0208 229.836 41.5156C229.039 42.0052 228.104 42.25 227.031 42.25C225.958 42.25 225.018 41.9974 224.211 41.4922C223.404 40.9818 222.776 40.2266 222.328 39.2266C221.88 38.2214 221.656 36.9792 221.656 35.5V34.2187C221.656 31.5469 222.109 29.5208 223.016 28.1406C223.927 26.7604 225.297 26.0469 227.125 26C227.771 25.9792 228.346 25.974 228.852 25.9844C229.357 25.9948 229.797 25.9714 230.172 25.9141C230.547 25.8568 230.865 25.7187 231.125 25.5ZM227.031 40.5938C227.755 40.5938 228.378 40.4115 228.898 40.0469C229.424 39.6823 229.828 39.1693 230.109 38.5078C230.391 37.8411 230.531 37.0573 230.531 36.1562C230.531 35.2812 230.388 34.5365 230.102 33.9219C229.82 33.3073 229.417 32.8385 228.891 32.5156C228.365 32.1927 227.734 32.0312 227 32.0312C226.464 32.0312 225.982 32.1224 225.555 32.3047C225.128 32.487 224.763 32.7552 224.461 33.1094C224.159 33.4635 223.924 33.8958 223.758 34.4062C223.596 34.9167 223.51 35.5 223.5 36.1562C223.5 37.5 223.815 38.5755 224.445 39.3828C225.076 40.1901 225.938 40.5938 227.031 40.5938ZM240.07 42.25C238.987 42.25 238.036 41.9922 237.219 41.4766C236.406 40.9609 235.771 40.2396 235.312 39.3125C234.859 38.3854 234.633 37.3021 234.633 36.0625C234.633 34.8125 234.859 33.7214 235.312 32.7891C235.771 31.8568 236.406 31.1328 237.219 30.6172C238.036 30.1016 238.987 29.8438 240.07 29.8438C241.154 29.8438 242.102 30.1016 242.914 30.6172C243.732 31.1328 244.367 31.8568 244.82 32.7891C245.279 33.7214 245.508 34.8125 245.508 36.0625C245.508 37.3021 245.279 38.3854 244.82 39.3125C244.367 40.2396 243.732 40.9609 242.914 41.4766C242.102 41.9922 241.154 42.25 240.07 42.25ZM240.07 40.5938C240.893 40.5938 241.57 40.3828 242.102 39.9609C242.633 39.5391 243.026 38.9844 243.281 38.2969C243.536 37.6094 243.664 36.8646 243.664 36.0625C243.664 35.2604 243.536 34.513 243.281 33.8203C243.026 33.1276 242.633 32.5677 242.102 32.1406C241.57 31.7135 240.893 31.5 240.07 31.5C239.247 31.5 238.57 31.7135 238.039 32.1406C237.508 32.5677 237.115 33.1276 236.859 33.8203C236.604 34.513 236.477 35.2604 236.477 36.0625C236.477 36.8646 236.604 37.6094 236.859 38.2969C237.115 38.9844 237.508 39.5391 238.039 39.9609C238.57 40.3828 239.247 40.5938 240.07 40.5938ZM248.322 46.5V30H250.104V31.9062H250.322C250.458 31.6979 250.645 31.4323 250.885 31.1094C251.13 30.7812 251.479 30.4896 251.932 30.2344C252.39 29.974 253.01 29.8438 253.791 29.8438C254.801 29.8438 255.692 30.0964 256.463 30.6016C257.234 31.1068 257.835 31.8229 258.268 32.75C258.7 33.6771 258.916 34.7708 258.916 36.0313C258.916 37.3021 258.7 38.4036 258.268 39.3359C257.835 40.263 257.236 40.9818 256.471 41.4922C255.705 41.9974 254.822 42.25 253.822 42.25C253.051 42.25 252.434 42.1224 251.971 41.8672C251.507 41.6068 251.15 41.3125 250.9 40.9844C250.65 40.651 250.458 40.375 250.322 40.1562H250.166V46.5H248.322ZM250.135 36C250.135 36.9062 250.268 37.7057 250.533 38.3984C250.799 39.0859 251.187 39.625 251.697 40.0156C252.208 40.401 252.833 40.5938 253.572 40.5938C254.343 40.5938 254.986 40.3906 255.502 39.9844C256.023 39.5729 256.413 39.0208 256.674 38.3281C256.939 37.6302 257.072 36.8542 257.072 36C257.072 35.1562 256.942 34.3958 256.682 33.7187C256.426 33.0365 256.038 32.4974 255.518 32.1016C255.002 31.7005 254.354 31.5 253.572 31.5C252.822 31.5 252.192 31.6901 251.682 32.0703C251.171 32.4453 250.786 32.9714 250.525 33.6484C250.265 34.3203 250.135 35.1042 250.135 36ZM262.486 46.5C262.174 46.5 261.895 46.474 261.65 46.4219C261.406 46.375 261.236 46.3281 261.143 46.2813L261.611 44.6563C262.059 44.7708 262.455 44.8125 262.799 44.7812C263.143 44.75 263.447 44.5964 263.713 44.3203C263.984 44.0495 264.231 43.6094 264.455 43L264.799 42.0625L260.361 30H262.361L265.674 39.5625H265.799L269.111 30H271.111L266.018 43.75C265.788 44.3698 265.505 44.8828 265.166 45.2891C264.827 45.7005 264.434 46.0052 263.986 46.2031C263.544 46.401 263.044 46.5 262.486 46.5ZM271.254 45.4375V40.2812H272.254C272.499 40.026 272.71 39.75 272.887 39.4531C273.064 39.1562 273.217 38.8047 273.348 38.3984C273.483 37.987 273.598 37.487 273.691 36.8984C273.785 36.3047 273.868 35.5885 273.941 34.75L274.348 30H281.973V40.2812H283.816V45.4375H281.973V42H273.098V45.4375H271.254ZM274.348 40.2812H280.129V31.7187H276.066L275.754 34.75C275.624 36.0052 275.462 37.1016 275.27 38.0391C275.077 38.9766 274.77 39.724 274.348 40.2812ZM291.139 42.25C290.055 42.25 289.105 41.9922 288.287 41.4766C287.475 40.9609 286.839 40.2396 286.381 39.3125C285.928 38.3854 285.701 37.3021 285.701 36.0625C285.701 34.8125 285.928 33.7214 286.381 32.7891C286.839 31.8568 287.475 31.1328 288.287 30.6172C289.105 30.1016 290.055 29.8438 291.139 29.8438C292.222 29.8438 293.17 30.1016 293.982 30.6172C294.8 31.1328 295.436 31.8568 295.889 32.7891C296.347 33.7214 296.576 34.8125 296.576 36.0625C296.576 37.3021 296.347 38.3854 295.889 39.3125C295.436 40.2396 294.8 40.9609 293.982 41.4766C293.17 41.9922 292.222 42.25 291.139 42.25ZM291.139 40.5938C291.962 40.5938 292.639 40.3828 293.17 39.9609C293.701 39.5391 294.094 38.9844 294.35 38.2969C294.605 37.6094 294.732 36.8646 294.732 36.0625C294.732 35.2604 294.605 34.513 294.35 33.8203C294.094 33.1276 293.701 32.5677 293.17 32.1406C292.639 31.7135 291.962 31.5 291.139 31.5C290.316 31.5 289.639 31.7135 289.107 32.1406C288.576 32.5677 288.183 33.1276 287.928 33.8203C287.673 34.513 287.545 35.2604 287.545 36.0625C287.545 36.8646 287.673 37.6094 287.928 38.2969C288.183 38.9844 288.576 39.5391 289.107 39.9609C289.639 40.3828 290.316 40.5938 291.139 40.5938ZM299.391 42V30H304.297C305.589 30 306.615 30.2917 307.375 30.875C308.135 31.4583 308.516 32.2292 308.516 33.1875C308.516 33.9167 308.299 34.4818 307.867 34.8828C307.435 35.2786 306.88 35.5469 306.203 35.6875C306.646 35.75 307.076 35.9062 307.492 36.1562C307.914 36.4062 308.263 36.75 308.539 37.1875C308.815 37.6198 308.953 38.151 308.953 38.7812C308.953 39.3958 308.797 39.9453 308.484 40.4297C308.172 40.9141 307.724 41.2969 307.141 41.5781C306.557 41.8594 305.859 42 305.047 42H299.391ZM301.141 40.3125H305.047C305.682 40.3125 306.18 40.1615 306.539 39.8594C306.898 39.5573 307.078 39.1458 307.078 38.625C307.078 38.0052 306.898 37.5182 306.539 37.1641C306.18 36.8047 305.682 36.625 305.047 36.625H301.141V40.3125ZM301.141 35.0312H304.297C304.792 35.0312 305.216 34.9635 305.57 34.8281C305.924 34.6875 306.195 34.4896 306.383 34.2344C306.576 33.974 306.672 33.6667 306.672 33.3125C306.672 32.8073 306.461 32.4115 306.039 32.125C305.617 31.8333 305.036 31.6875 304.297 31.6875H301.141V35.0312ZM315.275 42.2813C314.515 42.2813 313.825 42.138 313.205 41.8516C312.585 41.5599 312.093 41.1406 311.729 40.5938C311.364 40.0417 311.182 39.375 311.182 38.5937C311.182 37.9062 311.317 37.349 311.588 36.9219C311.859 36.4896 312.221 36.151 312.674 35.9062C313.127 35.6615 313.627 35.4792 314.174 35.3594C314.726 35.2344 315.281 35.1354 315.838 35.0625C316.567 34.9687 317.158 34.8984 317.611 34.8516C318.07 34.7995 318.403 34.7135 318.611 34.5937C318.825 34.474 318.932 34.2656 318.932 33.9687V33.9062C318.932 33.1354 318.721 32.5365 318.299 32.1094C317.882 31.6823 317.249 31.4687 316.4 31.4687C315.52 31.4687 314.83 31.6615 314.33 32.0469C313.83 32.4323 313.479 32.8437 313.275 33.2812L311.525 32.6562C311.838 31.9271 312.255 31.3594 312.775 30.9531C313.301 30.5417 313.874 30.2552 314.494 30.0937C315.119 29.9271 315.734 29.8438 316.338 29.8438C316.723 29.8438 317.166 29.8906 317.666 29.9844C318.171 30.0729 318.658 30.2578 319.127 30.5391C319.601 30.8203 319.994 31.2448 320.307 31.8125C320.619 32.3802 320.775 33.1406 320.775 34.0938V42H318.932V40.375H318.838C318.713 40.6354 318.505 40.9141 318.213 41.2109C317.921 41.5078 317.533 41.7604 317.049 41.9687C316.564 42.1771 315.973 42.2813 315.275 42.2813ZM315.557 40.625C316.286 40.625 316.9 40.4818 317.4 40.1953C317.906 39.9089 318.286 39.5391 318.541 39.0859C318.801 38.6328 318.932 38.1562 318.932 37.6562V35.9687C318.854 36.0625 318.682 36.1484 318.416 36.2266C318.156 36.2995 317.854 36.3646 317.51 36.4219C317.171 36.474 316.84 36.5208 316.518 36.5625C316.2 36.599 315.942 36.6302 315.744 36.6562C315.265 36.7187 314.817 36.8203 314.4 36.9609C313.989 37.0964 313.656 37.3021 313.4 37.5781C313.15 37.849 313.025 38.2187 313.025 38.6875C313.025 39.3281 313.262 39.8125 313.736 40.1406C314.215 40.4635 314.822 40.625 315.557 40.625ZM332.172 35.1562V36.875H325.547V35.1562H332.172ZM325.984 30V42H324.141V30H325.984ZM333.578 30V42H331.734V30H333.578ZM338.789 39.2812L344.57 30H346.695V42H344.852V32.7188L339.102 42H336.945V30H338.789V39.2812ZM355.104 42.25C353.947 42.25 352.95 41.9948 352.111 41.4844C351.278 40.9688 350.635 40.25 350.182 39.3281C349.734 38.401 349.51 37.3229 349.51 36.0938C349.51 34.8646 349.734 33.7812 350.182 32.8437C350.635 31.901 351.265 31.1667 352.072 30.6406C352.885 30.1094 353.833 29.8438 354.916 29.8438C355.541 29.8438 356.158 29.9479 356.768 30.1562C357.377 30.3646 357.932 30.7031 358.432 31.1719C358.932 31.6354 359.33 32.25 359.627 33.0156C359.924 33.7812 360.072 34.724 360.072 35.8437V36.625H350.822V35.0312H358.197C358.197 34.3542 358.062 33.75 357.791 33.2187C357.525 32.6875 357.145 32.2682 356.65 31.9609C356.161 31.6536 355.583 31.5 354.916 31.5C354.182 31.5 353.546 31.6823 353.01 32.0469C352.479 32.4062 352.07 32.875 351.783 33.4531C351.497 34.0312 351.354 34.651 351.354 35.3125V36.375C351.354 37.2813 351.51 38.0495 351.822 38.6797C352.14 39.3047 352.58 39.7812 353.143 40.1094C353.705 40.4323 354.359 40.5938 355.104 40.5938C355.588 40.5938 356.025 40.526 356.416 40.3906C356.812 40.25 357.153 40.0417 357.439 39.7656C357.726 39.4844 357.947 39.1354 358.104 38.7187L359.885 39.2188C359.697 39.8229 359.382 40.3542 358.939 40.8125C358.497 41.2656 357.95 41.6198 357.299 41.875C356.648 42.125 355.916 42.25 355.104 42.25Z" fill="white"/>
</g>
<defs>
<clipPath id="clip0_230_33">
<rect width="500" height="68" fill="white"/>
</clipPath>
</defs>
</svg>
