<svg width="500" height="68" viewBox="0 0 500 68" fill="none" xmlns="http://www.w3.org/2000/svg">
<g clip-path="url(#clip0_229_14)">
<rect width="500" height="68" fill="white"/>
<rect width="500" height="68" fill="#0D26A8"/>
<path d="M10.6875 42V30H15.5937C16.8854 30 17.9115 30.2917 18.6719 30.875C19.4323 31.4583 19.8125 32.2292 19.8125 33.1875C19.8125 33.9167 19.5964 34.4818 19.1641 34.8828C18.7318 35.2786 18.1771 35.5469 17.5 35.6875C17.9427 35.75 18.3724 35.9062 18.7891 36.1562C19.2109 36.4062 19.5599 36.75 19.8359 37.1875C20.112 37.6198 20.25 38.151 20.25 38.7812C20.25 39.3958 20.0938 39.9453 19.7813 40.4297C19.4688 40.9141 19.0208 41.2969 18.4375 41.5781C17.8542 41.8594 17.1563 42 16.3438 42H10.6875ZM12.4375 40.3125H16.3438C16.9792 40.3125 17.4766 40.1615 17.8359 39.8594C18.1953 39.5573 18.375 39.1458 18.375 38.625C18.375 38.0052 18.1953 37.5182 17.8359 37.1641C17.4766 36.8047 16.9792 36.625 16.3438 36.625H12.4375V40.3125ZM12.4375 35.0312H15.5937C16.0885 35.0312 16.513 34.9635 16.8672 34.8281C17.2214 34.6875 17.4922 34.4896 17.6797 34.2344C17.8724 33.974 17.9688 33.6667 17.9688 33.3125C17.9688 32.8073 17.7578 32.4115 17.3359 32.125C16.9141 31.8333 16.3333 31.6875 15.5937 31.6875H12.4375V35.0312ZM24.6348 34.3437H28.0723C29.4785 34.3437 30.554 34.7005 31.2988 35.4141C32.0436 36.1276 32.416 37.0312 32.416 38.125C32.416 38.8437 32.2493 39.4974 31.916 40.0859C31.5827 40.6693 31.0931 41.1354 30.4473 41.4844C29.8014 41.8281 29.0098 42 28.0723 42H23.041V30H24.8848V40.2812H28.0723C28.8014 40.2812 29.4004 40.0885 29.8691 39.7031C30.3379 39.3177 30.5723 38.8229 30.5723 38.2188C30.5723 37.5833 30.3379 37.0651 29.8691 36.6641C29.4004 36.263 28.8014 36.0625 28.0723 36.0625H24.6348V34.3437ZM34.3223 42V30H36.166V42H34.3223ZM53.7598 35.1562V36.875H47.1348V35.1562H53.7598ZM47.5723 30V42H45.7285V30H47.5723ZM55.166 30V42H53.3223V30H55.166ZM62.0645 42.2813C61.304 42.2813 60.6139 42.138 59.9941 41.8516C59.3743 41.5599 58.8822 41.1406 58.5176 40.5938C58.153 40.0417 57.9707 39.375 57.9707 38.5937C57.9707 37.9062 58.1061 37.349 58.377 36.9219C58.6478 36.4896 59.0098 36.151 59.4629 35.9062C59.916 35.6615 60.416 35.4792 60.9629 35.3594C61.515 35.2344 62.0697 35.1354 62.627 35.0625C63.3561 34.9687 63.9473 34.8984 64.4004 34.8516C64.8587 34.7995 65.1921 34.7135 65.4004 34.5937C65.6139 34.474 65.7207 34.2656 65.7207 33.9687V33.9062C65.7207 33.1354 65.5098 32.5365 65.0879 32.1094C64.6712 31.6823 64.0384 31.4687 63.1895 31.4687C62.3092 31.4687 61.6191 31.6615 61.1191 32.0469C60.6191 32.4323 60.2676 32.8437 60.0645 33.2812L58.3145 32.6562C58.627 31.9271 59.0436 31.3594 59.5645 30.9531C60.0905 30.5417 60.6634 30.2552 61.2832 30.0937C61.9082 29.9271 62.5228 29.8438 63.127 29.8438C63.5124 29.8438 63.9551 29.8906 64.4551 29.9844C64.9603 30.0729 65.4473 30.2578 65.916 30.5391C66.39 30.8203 66.7832 31.2448 67.0957 31.8125C67.4082 32.3802 67.5645 33.1406 67.5645 34.0938V42H65.7207V40.375H65.627C65.502 40.6354 65.2936 40.9141 65.002 41.2109C64.7103 41.5078 64.3223 41.7604 63.8379 41.9687C63.3535 42.1771 62.7624 42.2813 62.0645 42.2813ZM62.3457 40.625C63.0749 40.625 63.6895 40.4818 64.1895 40.1953C64.6947 39.9089 65.0749 39.5391 65.3301 39.0859C65.5905 38.6328 65.7207 38.1562 65.7207 37.6562V35.9687C65.6426 36.0625 65.4707 36.1484 65.2051 36.2266C64.9447 36.2995 64.6426 36.3646 64.2988 36.4219C63.9603 36.474 63.6296 36.5208 63.3066 36.5625C62.9889 36.599 62.7311 36.6302 62.5332 36.6562C62.054 36.7187 61.6061 36.8203 61.1895 36.9609C60.778 37.0964 60.4447 37.3021 60.1895 37.5781C59.9395 37.849 59.8145 38.2187 59.8145 38.6875C59.8145 39.3281 60.0514 39.8125 60.5254 40.1406C61.0046 40.4635 61.6113 40.625 62.3457 40.625ZM72.7734 39.2812L78.5547 30H80.6797V42H78.8359V32.7188L73.0859 42H70.9297V30H72.7734V39.2812ZM77.3359 26H79.0547C79.0547 26.8437 78.763 27.5339 78.1797 28.0703C77.5964 28.6068 76.8047 28.875 75.8047 28.875C74.8203 28.875 74.0365 28.6068 73.4531 28.0703C72.875 27.5339 72.5859 26.8437 72.5859 26H74.3047C74.3047 26.4062 74.4167 26.763 74.6406 27.0703C74.8698 27.3776 75.2578 27.5312 75.8047 27.5312C76.3516 27.5312 76.7422 27.3776 76.9766 27.0703C77.2161 26.763 77.3359 26.4062 77.3359 26ZM82.7754 45.4375V40.2812H83.7754C84.0202 40.026 84.2311 39.75 84.4082 39.4531C84.5853 39.1562 84.7389 38.8047 84.8691 38.3984C85.0046 37.987 85.1191 37.487 85.2129 36.8984C85.3066 36.3047 85.39 35.5885 85.4629 34.75L85.8691 30H93.4941V40.2812H95.3379V45.4375H93.4941V42H84.6191V45.4375H82.7754ZM85.8691 40.2812H91.6504V31.7187H87.5879L87.2754 34.75C87.1452 36.0052 86.9837 37.1016 86.791 38.0391C86.5983 38.9766 86.291 39.724 85.8691 40.2812ZM102.816 42.25C101.66 42.25 100.663 41.9948 99.8242 41.4844C98.9909 40.9688 98.3477 40.25 97.8945 39.3281C97.4466 38.401 97.2227 37.3229 97.2227 36.0938C97.2227 34.8646 97.4466 33.7812 97.8945 32.8437C98.3477 31.901 98.9779 31.1667 99.7852 30.6406C100.598 30.1094 101.546 29.8438 102.629 29.8438C103.254 29.8438 103.871 29.9479 104.48 30.1562C105.09 30.3646 105.645 30.7031 106.145 31.1719C106.645 31.6354 107.043 32.25 107.34 33.0156C107.637 33.7812 107.785 34.724 107.785 35.8437V36.625H98.5352V35.0312H105.91C105.91 34.3542 105.775 33.75 105.504 33.2187C105.238 32.6875 104.858 32.2682 104.363 31.9609C103.874 31.6536 103.296 31.5 102.629 31.5C101.895 31.5 101.259 31.6823 100.723 32.0469C100.191 32.4062 99.7826 32.875 99.4961 33.4531C99.2096 34.0312 99.0664 34.651 99.0664 35.3125V36.375C99.0664 37.2813 99.2227 38.0495 99.5352 38.6797C99.8529 39.3047 100.293 39.7812 100.855 40.1094C101.418 40.4323 102.072 40.5938 102.816 40.5938C103.301 40.5938 103.738 40.526 104.129 40.3906C104.525 40.25 104.866 40.0417 105.152 39.7656C105.439 39.4844 105.66 39.1354 105.816 38.7187L107.598 39.2188C107.41 39.8229 107.095 40.3542 106.652 40.8125C106.21 41.2656 105.663 41.6198 105.012 41.875C104.361 42.125 103.629 42.25 102.816 42.25ZM109.473 31.7187V30H119.223V31.7187H115.285V42H113.441V31.7187H109.473ZM126.32 42.25C125.164 42.25 124.167 41.9948 123.328 41.4844C122.495 40.9688 121.852 40.25 121.398 39.3281C120.951 38.401 120.727 37.3229 120.727 36.0938C120.727 34.8646 120.951 33.7812 121.398 32.8437C121.852 31.901 122.482 31.1667 123.289 30.6406C124.102 30.1094 125.049 29.8438 126.133 29.8438C126.758 29.8438 127.375 29.9479 127.984 30.1562C128.594 30.3646 129.148 30.7031 129.648 31.1719C130.148 31.6354 130.547 32.25 130.844 33.0156C131.141 33.7812 131.289 34.724 131.289 35.8437V36.625H122.039V35.0312H129.414C129.414 34.3542 129.279 33.75 129.008 33.2187C128.742 32.6875 128.362 32.2682 127.867 31.9609C127.378 31.6536 126.799 31.5 126.133 31.5C125.398 31.5 124.763 31.6823 124.227 32.0469C123.695 32.4062 123.286 32.875 123 33.4531C122.714 34.0312 122.57 34.651 122.57 35.3125V36.375C122.57 37.2813 122.727 38.0495 123.039 38.6797C123.357 39.3047 123.797 39.7812 124.359 40.1094C124.922 40.4323 125.576 40.5938 126.32 40.5938C126.805 40.5938 127.242 40.526 127.633 40.3906C128.029 40.25 128.37 40.0417 128.656 39.7656C128.943 39.4844 129.164 39.1354 129.32 38.7187L131.102 39.2188C130.914 39.8229 130.599 40.3542 130.156 40.8125C129.714 41.2656 129.167 41.6198 128.516 41.875C127.865 42.125 127.133 42.25 126.32 42.25ZM148.313 35.1562V36.875H141.688V35.1562H148.313ZM142.125 30V42H140.281V30H142.125ZM149.719 30V42H147.875V30H149.719ZM156.617 42.2813C155.857 42.2813 155.167 42.138 154.547 41.8516C153.927 41.5599 153.435 41.1406 153.07 40.5938C152.706 40.0417 152.523 39.375 152.523 38.5937C152.523 37.9062 152.659 37.349 152.93 36.9219C153.201 36.4896 153.563 36.151 154.016 35.9062C154.469 35.6615 154.969 35.4792 155.516 35.3594C156.068 35.2344 156.622 35.1354 157.18 35.0625C157.909 34.9687 158.5 34.8984 158.953 34.8516C159.411 34.7995 159.745 34.7135 159.953 34.5937C160.167 34.474 160.273 34.2656 160.273 33.9687V33.9062C160.273 33.1354 160.063 32.5365 159.641 32.1094C159.224 31.6823 158.591 31.4687 157.742 31.4687C156.862 31.4687 156.172 31.6615 155.672 32.0469C155.172 32.4323 154.82 32.8437 154.617 33.2812L152.867 32.6562C153.18 31.9271 153.596 31.3594 154.117 30.9531C154.643 30.5417 155.216 30.2552 155.836 30.0937C156.461 29.9271 157.076 29.8438 157.68 29.8438C158.065 29.8438 158.508 29.8906 159.008 29.9844C159.513 30.0729 160 30.2578 160.469 30.5391C160.943 30.8203 161.336 31.2448 161.648 31.8125C161.961 32.3802 162.117 33.1406 162.117 34.0938V42H160.273V40.375H160.18C160.055 40.6354 159.846 40.9141 159.555 41.2109C159.263 41.5078 158.875 41.7604 158.391 41.9687C157.906 42.1771 157.315 42.2813 156.617 42.2813ZM156.898 40.625C157.628 40.625 158.242 40.4818 158.742 40.1953C159.247 39.9089 159.628 39.5391 159.883 39.0859C160.143 38.6328 160.273 38.1562 160.273 37.6562V35.9687C160.195 36.0625 160.023 36.1484 159.758 36.2266C159.497 36.2995 159.195 36.3646 158.852 36.4219C158.513 36.474 158.182 36.5208 157.859 36.5625C157.542 36.599 157.284 36.6302 157.086 36.6562C156.607 36.7187 156.159 36.8203 155.742 36.9609C155.331 37.0964 154.997 37.3021 154.742 37.5781C154.492 37.849 154.367 38.2187 154.367 38.6875C154.367 39.3281 154.604 39.8125 155.078 40.1406C155.557 40.4635 156.164 40.625 156.898 40.625ZM170.357 42.25C169.232 42.25 168.264 41.9844 167.451 41.4531C166.639 40.9219 166.014 40.1901 165.576 39.2578C165.139 38.3255 164.92 37.2604 164.92 36.0625C164.92 34.8437 165.144 33.7682 165.592 32.8359C166.045 31.8984 166.675 31.1667 167.482 30.6406C168.295 30.1094 169.243 29.8438 170.326 29.8438C171.17 29.8438 171.93 30 172.607 30.3125C173.285 30.625 173.839 31.0625 174.271 31.625C174.704 32.1875 174.972 32.8437 175.076 33.5937H173.232C173.092 33.0469 172.779 32.5625 172.295 32.1406C171.816 31.7135 171.17 31.5 170.357 31.5C169.639 31.5 169.008 31.6875 168.467 32.0625C167.93 32.4323 167.511 32.9557 167.209 33.6328C166.912 34.3047 166.764 35.0937 166.764 36C166.764 36.9271 166.91 37.7344 167.201 38.4219C167.498 39.1094 167.915 39.6432 168.451 40.0234C168.993 40.4036 169.628 40.5938 170.357 40.5938C170.837 40.5938 171.271 40.5104 171.662 40.3437C172.053 40.1771 172.383 39.9375 172.654 39.625C172.925 39.3125 173.118 38.9375 173.232 38.5H175.076C174.972 39.2083 174.714 39.8464 174.303 40.4141C173.896 40.9766 173.357 41.4245 172.686 41.7578C172.019 42.0859 171.243 42.25 170.357 42.25ZM191.99 35.1562V36.875H185.365V35.1562H191.99ZM185.803 30V42H183.959V30H185.803ZM193.396 30V42H191.553V30H193.396ZM200.295 42.2813C199.535 42.2813 198.844 42.138 198.225 41.8516C197.605 41.5599 197.113 41.1406 196.748 40.5938C196.383 40.0417 196.201 39.375 196.201 38.5937C196.201 37.9062 196.337 37.349 196.607 36.9219C196.878 36.4896 197.24 36.151 197.693 35.9062C198.146 35.6615 198.646 35.4792 199.193 35.3594C199.745 35.2344 200.3 35.1354 200.857 35.0625C201.587 34.9687 202.178 34.8984 202.631 34.8516C203.089 34.7995 203.423 34.7135 203.631 34.5937C203.844 34.474 203.951 34.2656 203.951 33.9687V33.9062C203.951 33.1354 203.74 32.5365 203.318 32.1094C202.902 31.6823 202.269 31.4687 201.42 31.4687C200.54 31.4687 199.85 31.6615 199.35 32.0469C198.85 32.4323 198.498 32.8437 198.295 33.2812L196.545 32.6562C196.857 31.9271 197.274 31.3594 197.795 30.9531C198.321 30.5417 198.894 30.2552 199.514 30.0937C200.139 29.9271 200.753 29.8438 201.357 29.8438C201.743 29.8438 202.186 29.8906 202.686 29.9844C203.191 30.0729 203.678 30.2578 204.146 30.5391C204.62 30.8203 205.014 31.2448 205.326 31.8125C205.639 32.3802 205.795 33.1406 205.795 34.0938V42H203.951V40.375H203.857C203.732 40.6354 203.524 40.9141 203.232 41.2109C202.941 41.5078 202.553 41.7604 202.068 41.9687C201.584 42.1771 200.993 42.2813 200.295 42.2813ZM200.576 40.625C201.305 40.625 201.92 40.4818 202.42 40.1953C202.925 39.9089 203.305 39.5391 203.561 39.0859C203.821 38.6328 203.951 38.1562 203.951 37.6562V35.9687C203.873 36.0625 203.701 36.1484 203.436 36.2266C203.175 36.2995 202.873 36.3646 202.529 36.4219C202.191 36.474 201.86 36.5208 201.537 36.5625C201.219 36.599 200.962 36.6302 200.764 36.6562C200.285 36.7187 199.837 36.8203 199.42 36.9609C199.008 37.0964 198.675 37.3021 198.42 37.5781C198.17 37.849 198.045 38.2187 198.045 38.6875C198.045 39.3281 198.282 39.8125 198.756 40.1406C199.235 40.4635 199.842 40.625 200.576 40.625ZM224.785 30V40.2812H226.473V45.875H224.629V42H215.348V30H217.191V40.2812H222.941V30H224.785ZM229.313 42V30H234.219C235.51 30 236.536 30.2917 237.297 30.875C238.057 31.4583 238.438 32.2292 238.438 33.1875C238.438 33.9167 238.221 34.4818 237.789 34.8828C237.357 35.2786 236.802 35.5469 236.125 35.6875C236.568 35.75 236.997 35.9062 237.414 36.1562C237.836 36.4062 238.185 36.75 238.461 37.1875C238.737 37.6198 238.875 38.151 238.875 38.7812C238.875 39.3958 238.719 39.9453 238.406 40.4297C238.094 40.9141 237.646 41.2969 237.063 41.5781C236.479 41.8594 235.781 42 234.969 42H229.313ZM231.062 40.3125H234.969C235.604 40.3125 236.102 40.1615 236.461 39.8594C236.82 39.5573 237 39.1458 237 38.625C237 38.0052 236.82 37.5182 236.461 37.1641C236.102 36.8047 235.604 36.625 234.969 36.625H231.062V40.3125ZM231.062 35.0312H234.219C234.714 35.0312 235.138 34.9635 235.492 34.8281C235.846 34.6875 236.117 34.4896 236.305 34.2344C236.497 33.974 236.594 33.6667 236.594 33.3125C236.594 32.8073 236.383 32.4115 235.961 32.125C235.539 31.8333 234.958 31.6875 234.219 31.6875H231.062V35.0312ZM246.697 42.25C245.541 42.25 244.544 41.9948 243.705 41.4844C242.872 40.9688 242.229 40.25 241.775 39.3281C241.327 38.401 241.104 37.3229 241.104 36.0938C241.104 34.8646 241.327 33.7812 241.775 32.8437C242.229 31.901 242.859 31.1667 243.666 30.6406C244.479 30.1094 245.426 29.8438 246.51 29.8438C247.135 29.8438 247.752 29.9479 248.361 30.1562C248.971 30.3646 249.525 30.7031 250.025 31.1719C250.525 31.6354 250.924 32.25 251.221 33.0156C251.518 33.7812 251.666 34.724 251.666 35.8437V36.625H242.416V35.0312H249.791C249.791 34.3542 249.656 33.75 249.385 33.2187C249.119 32.6875 248.739 32.2682 248.244 31.9609C247.755 31.6536 247.176 31.5 246.51 31.5C245.775 31.5 245.14 31.6823 244.604 32.0469C244.072 32.4062 243.663 32.875 243.377 33.4531C243.09 34.0312 242.947 34.651 242.947 35.3125V36.375C242.947 37.2813 243.104 38.0495 243.416 38.6797C243.734 39.3047 244.174 39.7812 244.736 40.1094C245.299 40.4323 245.952 40.5938 246.697 40.5938C247.182 40.5938 247.619 40.526 248.01 40.3906C248.406 40.25 248.747 40.0417 249.033 39.7656C249.32 39.4844 249.541 39.1354 249.697 38.7187L251.479 39.2188C251.291 39.8229 250.976 40.3542 250.533 40.8125C250.09 41.2656 249.544 41.6198 248.893 41.875C248.242 42.125 247.51 42.25 246.697 42.25ZM253.354 31.7187V30H263.104V31.7187H259.166V42H257.322V31.7187H253.354ZM266.98 46.5C266.668 46.5 266.389 46.474 266.145 46.4219C265.9 46.375 265.73 46.3281 265.637 46.2813L266.105 44.6563C266.553 44.7708 266.949 44.8125 267.293 44.7812C267.637 44.75 267.941 44.5964 268.207 44.3203C268.478 44.0495 268.725 43.6094 268.949 43L269.293 42.0625L264.855 30H266.855L270.168 39.5625H270.293L273.605 30H275.605L270.512 43.75C270.283 44.3698 269.999 44.8828 269.66 45.2891C269.322 45.7005 268.928 46.0052 268.48 46.2031C268.038 46.401 267.538 46.5 266.98 46.5ZM294.414 40.2812L294.195 45.4375H292.289V42H290.727V40.2812H294.414ZM278.039 30H279.883V40.2812H284.414V30H286.258V40.2812H290.789V30H292.633V42H278.039V30ZM301.998 42.25C300.842 42.25 299.844 41.9948 299.006 41.4844C298.173 40.9688 297.529 40.25 297.076 39.3281C296.628 38.401 296.404 37.3229 296.404 36.0938C296.404 34.8646 296.628 33.7812 297.076 32.8437C297.529 31.901 298.16 31.1667 298.967 30.6406C299.779 30.1094 300.727 29.8438 301.811 29.8438C302.436 29.8438 303.053 29.9479 303.662 30.1562C304.271 30.3646 304.826 30.7031 305.326 31.1719C305.826 31.6354 306.225 32.25 306.521 33.0156C306.818 33.7812 306.967 34.724 306.967 35.8437V36.625H297.717V35.0312H305.092C305.092 34.3542 304.956 33.75 304.686 33.2187C304.42 32.6875 304.04 32.2682 303.545 31.9609C303.055 31.6536 302.477 31.5 301.811 31.5C301.076 31.5 300.441 31.6823 299.904 32.0469C299.373 32.4062 298.964 32.875 298.678 33.4531C298.391 34.0312 298.248 34.651 298.248 35.3125V36.375C298.248 37.2813 298.404 38.0495 298.717 38.6797C299.035 39.3047 299.475 39.7812 300.037 40.1094C300.6 40.4323 301.253 40.5938 301.998 40.5938C302.482 40.5938 302.92 40.526 303.311 40.3906C303.706 40.25 304.048 40.0417 304.334 39.7656C304.62 39.4844 304.842 39.1354 304.998 38.7187L306.779 39.2188C306.592 39.8229 306.277 40.3542 305.834 40.8125C305.391 41.2656 304.844 41.6198 304.193 41.875C303.542 42.125 302.811 42.25 301.998 42.25ZM311.615 39.2812L317.396 30H319.521V42H317.678V32.7188L311.928 42H309.771V30H311.615V39.2812ZM316.178 26H317.896C317.896 26.8437 317.605 27.5339 317.021 28.0703C316.438 28.6068 315.646 28.875 314.646 28.875C313.662 28.875 312.878 28.6068 312.295 28.0703C311.717 27.5339 311.428 26.8437 311.428 26H313.146C313.146 26.4062 313.258 26.763 313.482 27.0703C313.712 27.3776 314.1 27.5312 314.646 27.5312C315.193 27.5312 315.584 27.3776 315.818 27.0703C316.058 26.763 316.178 26.4062 316.178 26ZM328.023 42V40.2812H328.461C328.82 40.2812 329.12 40.2109 329.359 40.0703C329.599 39.9245 329.792 39.6719 329.938 39.3125C330.089 38.9479 330.203 38.4427 330.281 37.7969C330.365 37.1458 330.424 36.3177 330.461 35.3125L330.68 30H338.68V42H336.836V31.7187H332.43L332.242 36C332.201 36.9844 332.112 37.8516 331.977 38.6016C331.846 39.3464 331.646 39.9714 331.375 40.4766C331.109 40.9818 330.755 41.362 330.313 41.6172C329.87 41.8724 329.315 42 328.648 42H328.023ZM347.094 42.25C345.938 42.25 344.94 41.9948 344.102 41.4844C343.268 40.9688 342.625 40.25 342.172 39.3281C341.724 38.401 341.5 37.3229 341.5 36.0938C341.5 34.8646 341.724 33.7812 342.172 32.8437C342.625 31.901 343.255 31.1667 344.063 30.6406C344.875 30.1094 345.823 29.8438 346.906 29.8438C347.531 29.8438 348.148 29.9479 348.758 30.1562C349.367 30.3646 349.922 30.7031 350.422 31.1719C350.922 31.6354 351.32 32.25 351.617 33.0156C351.914 33.7812 352.062 34.724 352.062 35.8437V36.625H342.813V35.0312H350.188C350.188 34.3542 350.052 33.75 349.781 33.2187C349.516 32.6875 349.135 32.2682 348.641 31.9609C348.151 31.6536 347.573 31.5 346.906 31.5C346.172 31.5 345.536 31.6823 345 32.0469C344.469 32.4062 344.06 32.875 343.773 33.4531C343.487 34.0312 343.344 34.651 343.344 35.3125V36.375C343.344 37.2813 343.5 38.0495 343.812 38.6797C344.13 39.3047 344.57 39.7812 345.133 40.1094C345.695 40.4323 346.349 40.5938 347.094 40.5938C347.578 40.5938 348.016 40.526 348.406 40.3906C348.802 40.25 349.143 40.0417 349.43 39.7656C349.716 39.4844 349.938 39.1354 350.094 38.7187L351.875 39.2188C351.688 39.8229 351.372 40.3542 350.93 40.8125C350.487 41.2656 349.94 41.6198 349.289 41.875C348.638 42.125 347.906 42.25 347.094 42.25ZM359.742 42.25C358.617 42.25 357.648 41.9844 356.836 41.4531C356.023 40.9219 355.398 40.1901 354.961 39.2578C354.523 38.3255 354.305 37.2604 354.305 36.0625C354.305 34.8437 354.529 33.7682 354.977 32.8359C355.43 31.8984 356.06 31.1667 356.867 30.6406C357.68 30.1094 358.628 29.8438 359.711 29.8438C360.555 29.8438 361.315 30 361.992 30.3125C362.669 30.625 363.224 31.0625 363.656 31.625C364.089 32.1875 364.357 32.8437 364.461 33.5937H362.617C362.477 33.0469 362.164 32.5625 361.68 32.1406C361.201 31.7135 360.555 31.5 359.742 31.5C359.023 31.5 358.393 31.6875 357.852 32.0625C357.315 32.4323 356.896 32.9557 356.594 33.6328C356.297 34.3047 356.148 35.0937 356.148 36C356.148 36.9271 356.294 37.7344 356.586 38.4219C356.883 39.1094 357.299 39.6432 357.836 40.0234C358.378 40.4036 359.013 40.5938 359.742 40.5938C360.221 40.5938 360.656 40.5104 361.047 40.3437C361.438 40.1771 361.768 39.9375 362.039 39.625C362.31 39.3125 362.503 38.9375 362.617 38.5H364.461C364.357 39.2083 364.099 39.8464 363.688 40.4141C363.281 40.9766 362.742 41.4245 362.07 41.7578C361.404 42.0859 360.628 42.25 359.742 42.25ZM375.188 35.1562V36.875H368.562V35.1562H375.188ZM369 30V42H367.156V30H369ZM376.594 30V42H374.75V30H376.594ZM384.836 42.25C383.753 42.25 382.802 41.9922 381.984 41.4766C381.172 40.9609 380.536 40.2396 380.078 39.3125C379.625 38.3854 379.398 37.3021 379.398 36.0625C379.398 34.8125 379.625 33.7214 380.078 32.7891C380.536 31.8568 381.172 31.1328 381.984 30.6172C382.802 30.1016 383.753 29.8438 384.836 29.8438C385.919 29.8438 386.867 30.1016 387.68 30.6172C388.497 31.1328 389.133 31.8568 389.586 32.7891C390.044 33.7214 390.273 34.8125 390.273 36.0625C390.273 37.3021 390.044 38.3854 389.586 39.3125C389.133 40.2396 388.497 40.9609 387.68 41.4766C386.867 41.9922 385.919 42.25 384.836 42.25ZM384.836 40.5938C385.659 40.5938 386.336 40.3828 386.867 39.9609C387.398 39.5391 387.792 38.9844 388.047 38.2969C388.302 37.6094 388.43 36.8646 388.43 36.0625C388.43 35.2604 388.302 34.513 388.047 33.8203C387.792 33.1276 387.398 32.5677 386.867 32.1406C386.336 31.7135 385.659 31.5 384.836 31.5C384.013 31.5 383.336 31.7135 382.805 32.1406C382.273 32.5677 381.88 33.1276 381.625 33.8203C381.37 34.513 381.242 35.2604 381.242 36.0625C381.242 36.8646 381.37 37.6094 381.625 38.2969C381.88 38.9844 382.273 39.5391 382.805 39.9609C383.336 40.3828 384.013 40.5938 384.836 40.5938ZM394.932 39.2812L400.713 30H402.838V42H400.994V32.7188L395.244 42H393.088V30H394.932V39.2812ZM399.494 26H401.213C401.213 26.8437 400.921 27.5339 400.338 28.0703C399.755 28.6068 398.963 28.875 397.963 28.875C396.979 28.875 396.195 28.6068 395.611 28.0703C395.033 27.5339 394.744 26.8437 394.744 26H396.463C396.463 26.4062 396.575 26.763 396.799 27.0703C397.028 27.3776 397.416 27.5312 397.963 27.5312C398.51 27.5312 398.9 27.3776 399.135 27.0703C399.374 26.763 399.494 26.4062 399.494 26ZM417.277 42.25C416.194 42.25 415.243 41.9922 414.426 41.4766C413.613 40.9609 412.978 40.2396 412.52 39.3125C412.066 38.3854 411.84 37.3021 411.84 36.0625C411.84 34.8125 412.066 33.7214 412.52 32.7891C412.978 31.8568 413.613 31.1328 414.426 30.6172C415.243 30.1016 416.194 29.8438 417.277 29.8438C418.361 29.8438 419.309 30.1016 420.121 30.6172C420.939 31.1328 421.574 31.8568 422.027 32.7891C422.486 33.7214 422.715 34.8125 422.715 36.0625C422.715 37.3021 422.486 38.3854 422.027 39.3125C421.574 40.2396 420.939 40.9609 420.121 41.4766C419.309 41.9922 418.361 42.25 417.277 42.25ZM417.277 40.5938C418.1 40.5938 418.777 40.3828 419.309 39.9609C419.84 39.5391 420.233 38.9844 420.488 38.2969C420.743 37.6094 420.871 36.8646 420.871 36.0625C420.871 35.2604 420.743 34.513 420.488 33.8203C420.233 33.1276 419.84 32.5677 419.309 32.1406C418.777 31.7135 418.1 31.5 417.277 31.5C416.454 31.5 415.777 31.7135 415.246 32.1406C414.715 32.5677 414.322 33.1276 414.066 33.8203C413.811 34.513 413.684 35.2604 413.684 36.0625C413.684 36.8646 413.811 37.6094 414.066 38.2969C414.322 38.9844 414.715 39.5391 415.246 39.9609C415.777 40.3828 416.454 40.5938 417.277 40.5938ZM425.529 42V30H434.967V42H433.123V31.7187H427.373V42H425.529ZM439.092 46.5C438.779 46.5 438.501 46.474 438.256 46.4219C438.011 46.375 437.842 46.3281 437.748 46.2813L438.217 44.6563C438.665 44.7708 439.061 44.8125 439.404 44.7812C439.748 44.75 440.053 44.5964 440.318 44.3203C440.589 44.0495 440.837 43.6094 441.061 43L441.404 42.0625L436.967 30H438.967L442.279 39.5625H442.404L445.717 30H447.717L442.623 43.75C442.394 44.3698 442.11 44.8828 441.771 45.2891C441.433 45.7005 441.04 46.0052 440.592 46.2031C440.149 46.401 439.649 46.5 439.092 46.5ZM450.15 30H451.994V40.2812H456.525V30H458.369V40.2812H462.9V30H464.744V42H450.15V30ZM468.111 42V30H469.955V35.2187H471.174L475.486 30H477.861L473.018 35.7812L477.924 42H475.549L471.611 36.9375H469.955V42H468.111ZM484.465 42.25C483.309 42.25 482.311 41.9948 481.473 41.4844C480.639 40.9688 479.996 40.25 479.543 39.3281C479.095 38.401 478.871 37.3229 478.871 36.0938C478.871 34.8646 479.095 33.7812 479.543 32.8437C479.996 31.901 480.626 31.1667 481.434 30.6406C482.246 30.1094 483.194 29.8438 484.277 29.8438C484.902 29.8438 485.52 29.9479 486.129 30.1562C486.738 30.3646 487.293 30.7031 487.793 31.1719C488.293 31.6354 488.691 32.25 488.988 33.0156C489.285 33.7812 489.434 34.724 489.434 35.8437V36.625H480.184V35.0312H487.559C487.559 34.3542 487.423 33.75 487.152 33.2187C486.887 32.6875 486.507 32.2682 486.012 31.9609C485.522 31.6536 484.944 31.5 484.277 31.5C483.543 31.5 482.908 31.6823 482.371 32.0469C481.84 32.4062 481.431 32.875 481.145 33.4531C480.858 34.0312 480.715 34.651 480.715 35.3125V36.375C480.715 37.2813 480.871 38.0495 481.184 38.6797C481.501 39.3047 481.941 39.7812 482.504 40.1094C483.066 40.4323 483.72 40.5938 484.465 40.5938C484.949 40.5938 485.387 40.526 485.777 40.3906C486.173 40.25 486.514 40.0417 486.801 39.7656C487.087 39.4844 487.309 39.1354 487.465 38.7187L489.246 39.2188C489.059 39.8229 488.743 40.3542 488.301 40.8125C487.858 41.2656 487.311 41.6198 486.66 41.875C486.009 42.125 485.277 42.25 484.465 42.25Z" fill="white"/>
</g>
<defs>
<clipPath id="clip0_229_14">
<rect width="500" height="68" fill="white"/>
</clipPath>
</defs>
</svg>
