<svg width="500" height="68" viewBox="0 0 500 68" fill="none" xmlns="http://www.w3.org/2000/svg">
<g clip-path="url(#clip0_234_40)">
<rect width="500" height="68" fill="white"/>
<rect width="500" height="68" fill="#0D26A8"/>
<path d="M139.875 46.5C139.563 46.5 139.284 46.474 139.039 46.4219C138.794 46.375 138.625 46.3281 138.531 46.2813L139 44.6563C139.448 44.7708 139.844 44.8125 140.188 44.7812C140.531 44.75 140.836 44.5964 141.102 44.3203C141.372 44.0495 141.62 43.6094 141.844 43L142.188 42.0625L137.75 30H139.75L143.063 39.5625H143.188L146.5 30H148.5L143.406 43.75C143.177 44.3698 142.893 44.8828 142.555 45.2891C142.216 45.7005 141.823 46.0052 141.375 46.2031C140.932 46.401 140.432 46.5 139.875 46.5ZM156.684 35.25V36.9687H150.34V35.25H156.684ZM151.902 30V42H150.059V30H151.902ZM160.371 42.25C159.288 42.25 158.337 41.9922 157.52 41.4766C156.707 40.9609 156.072 40.2396 155.613 39.3125C155.16 38.3854 154.934 37.3021 154.934 36.0625C154.934 34.8125 155.16 33.7214 155.613 32.7891C156.072 31.8568 156.707 31.1328 157.52 30.6172C158.337 30.1016 159.288 29.8438 160.371 29.8438C161.454 29.8438 162.402 30.1016 163.215 30.6172C164.033 31.1328 164.668 31.8568 165.121 32.7891C165.579 33.7214 165.809 34.8125 165.809 36.0625C165.809 37.3021 165.579 38.3854 165.121 39.3125C164.668 40.2396 164.033 40.9609 163.215 41.4766C162.402 41.9922 161.454 42.25 160.371 42.25ZM160.371 40.5938C161.194 40.5938 161.871 40.3828 162.402 39.9609C162.934 39.5391 163.327 38.9844 163.582 38.2969C163.837 37.6094 163.965 36.8646 163.965 36.0625C163.965 35.2604 163.837 34.513 163.582 33.8203C163.327 33.1276 162.934 32.5677 162.402 32.1406C161.871 31.7135 161.194 31.5 160.371 31.5C159.548 31.5 158.871 31.7135 158.34 32.1406C157.809 32.5677 157.415 33.1276 157.16 33.8203C156.905 34.513 156.777 35.2604 156.777 36.0625C156.777 36.8646 156.905 37.6094 157.16 38.2969C157.415 38.9844 157.809 39.5391 158.34 39.9609C158.871 40.3828 159.548 40.5938 160.371 40.5938ZM167.24 31.7187V30H176.99V31.7187H173.053V42H171.209V31.7187H167.24ZM187.711 35.1562V36.875H181.086V35.1562H187.711ZM181.523 30V42H179.68V30H181.523ZM189.117 30V42H187.273V30H189.117ZM196.016 42.2813C195.255 42.2813 194.565 42.138 193.945 41.8516C193.326 41.5599 192.833 41.1406 192.469 40.5938C192.104 40.0417 191.922 39.375 191.922 38.5937C191.922 37.9062 192.057 37.349 192.328 36.9219C192.599 36.4896 192.961 36.151 193.414 35.9062C193.867 35.6615 194.367 35.4792 194.914 35.3594C195.466 35.2344 196.021 35.1354 196.578 35.0625C197.307 34.9687 197.898 34.8984 198.352 34.8516C198.81 34.7995 199.143 34.7135 199.352 34.5937C199.565 34.474 199.672 34.2656 199.672 33.9687V33.9062C199.672 33.1354 199.461 32.5365 199.039 32.1094C198.622 31.6823 197.99 31.4687 197.141 31.4687C196.26 31.4687 195.57 31.6615 195.07 32.0469C194.57 32.4323 194.219 32.8437 194.016 33.2812L192.266 32.6562C192.578 31.9271 192.995 31.3594 193.516 30.9531C194.042 30.5417 194.615 30.2552 195.234 30.0937C195.859 29.9271 196.474 29.8438 197.078 29.8438C197.464 29.8438 197.906 29.8906 198.406 29.9844C198.911 30.0729 199.398 30.2578 199.867 30.5391C200.341 30.8203 200.734 31.2448 201.047 31.8125C201.359 32.3802 201.516 33.1406 201.516 34.0938V42H199.672V40.375H199.578C199.453 40.6354 199.245 40.9141 198.953 41.2109C198.661 41.5078 198.273 41.7604 197.789 41.9687C197.305 42.1771 196.714 42.2813 196.016 42.2813ZM196.297 40.625C197.026 40.625 197.641 40.4818 198.141 40.1953C198.646 39.9089 199.026 39.5391 199.281 39.0859C199.542 38.6328 199.672 38.1562 199.672 37.6562V35.9687C199.594 36.0625 199.422 36.1484 199.156 36.2266C198.896 36.2995 198.594 36.3646 198.25 36.4219C197.911 36.474 197.581 36.5208 197.258 36.5625C196.94 36.599 196.682 36.6302 196.484 36.6562C196.005 36.7187 195.557 36.8203 195.141 36.9609C194.729 37.0964 194.396 37.3021 194.141 37.5781C193.891 37.849 193.766 38.2187 193.766 38.6875C193.766 39.3281 194.003 39.8125 194.477 40.1406C194.956 40.4635 195.563 40.625 196.297 40.625ZM212.1 42V31.6875H208.912C208.193 31.6875 207.628 31.8542 207.217 32.1875C206.805 32.5208 206.6 32.9792 206.6 33.5625C206.6 34.1354 206.785 34.5859 207.154 34.9141C207.529 35.2422 208.042 35.4063 208.693 35.4063H212.568V37.125H208.693C207.881 37.125 207.18 36.9818 206.592 36.6953C206.003 36.4089 205.55 36 205.232 35.4688C204.915 34.9323 204.756 34.2969 204.756 33.5625C204.756 32.8229 204.923 32.1875 205.256 31.6562C205.589 31.125 206.066 30.7161 206.686 30.4297C207.311 30.1432 208.053 30 208.912 30H213.85V42H212.1ZM204.1 42L207.506 36.0313H209.506L206.1 42H204.1ZM222.672 38.9375H224.641C224.682 39.4792 224.927 39.8906 225.375 40.1719C225.828 40.4531 226.417 40.5938 227.141 40.5938C227.88 40.5938 228.513 40.4427 229.039 40.1406C229.565 39.8333 229.828 39.3385 229.828 38.6562C229.828 38.2552 229.729 37.9062 229.531 37.6094C229.333 37.3073 229.055 37.0729 228.695 36.9062C228.336 36.7396 227.911 36.6562 227.422 36.6562H225.359V35H227.422C228.156 35 228.698 34.8333 229.047 34.5C229.401 34.1667 229.578 33.75 229.578 33.25C229.578 32.7135 229.388 32.2839 229.008 31.9609C228.628 31.6328 228.089 31.4687 227.391 31.4687C226.688 31.4687 226.102 31.6276 225.633 31.9453C225.164 32.2578 224.917 32.6615 224.891 33.1562H222.953C222.974 32.5104 223.172 31.9401 223.547 31.4453C223.922 30.9453 224.432 30.5547 225.078 30.2734C225.724 29.987 226.464 29.8438 227.297 29.8438C228.141 29.8438 228.872 29.9922 229.492 30.2891C230.117 30.5807 230.599 30.9792 230.938 31.4844C231.281 31.9844 231.453 32.5521 231.453 33.1875C231.453 33.8646 231.263 34.4115 230.883 34.8281C230.503 35.2448 230.026 35.5417 229.453 35.7187V35.8437C229.906 35.875 230.299 36.0208 230.633 36.2812C230.971 36.5365 231.234 36.8724 231.422 37.2891C231.609 37.7005 231.703 38.1562 231.703 38.6562C231.703 39.3854 231.508 40.0208 231.117 40.5625C230.727 41.099 230.19 41.5156 229.508 41.8125C228.826 42.1042 228.047 42.25 227.172 42.25C226.323 42.25 225.563 42.112 224.891 41.8359C224.219 41.5547 223.685 41.1667 223.289 40.6719C222.898 40.1719 222.693 39.5938 222.672 38.9375ZM239.168 42.25C238.085 42.25 237.134 41.9922 236.316 41.4766C235.504 40.9609 234.868 40.2396 234.41 39.3125C233.957 38.3854 233.73 37.3021 233.73 36.0625C233.73 34.8125 233.957 33.7214 234.41 32.7891C234.868 31.8568 235.504 31.1328 236.316 30.6172C237.134 30.1016 238.085 29.8438 239.168 29.8438C240.251 29.8438 241.199 30.1016 242.012 30.6172C242.829 31.1328 243.465 31.8568 243.918 32.7891C244.376 33.7214 244.605 34.8125 244.605 36.0625C244.605 37.3021 244.376 38.3854 243.918 39.3125C243.465 40.2396 242.829 40.9609 242.012 41.4766C241.199 41.9922 240.251 42.25 239.168 42.25ZM239.168 40.5938C239.991 40.5938 240.668 40.3828 241.199 39.9609C241.73 39.5391 242.124 38.9844 242.379 38.2969C242.634 37.6094 242.762 36.8646 242.762 36.0625C242.762 35.2604 242.634 34.513 242.379 33.8203C242.124 33.1276 241.73 32.5677 241.199 32.1406C240.668 31.7135 239.991 31.5 239.168 31.5C238.345 31.5 237.668 31.7135 237.137 32.1406C236.605 32.5677 236.212 33.1276 235.957 33.8203C235.702 34.513 235.574 35.2604 235.574 36.0625C235.574 36.8646 235.702 37.6094 235.957 38.2969C236.212 38.9844 236.605 39.5391 237.137 39.9609C237.668 40.3828 238.345 40.5938 239.168 40.5938ZM255.451 35.1562V36.875H248.826V35.1562H255.451ZM249.264 30V42H247.42V30H249.264ZM256.857 30V42H255.014V30H256.857ZM263.756 42.2813C262.995 42.2813 262.305 42.138 261.686 41.8516C261.066 41.5599 260.574 41.1406 260.209 40.5938C259.844 40.0417 259.662 39.375 259.662 38.5937C259.662 37.9062 259.798 37.349 260.068 36.9219C260.339 36.4896 260.701 36.151 261.154 35.9062C261.607 35.6615 262.107 35.4792 262.654 35.3594C263.206 35.2344 263.761 35.1354 264.318 35.0625C265.048 34.9687 265.639 34.8984 266.092 34.8516C266.55 34.7995 266.883 34.7135 267.092 34.5937C267.305 34.474 267.412 34.2656 267.412 33.9687V33.9062C267.412 33.1354 267.201 32.5365 266.779 32.1094C266.363 31.6823 265.73 31.4687 264.881 31.4687C264.001 31.4687 263.311 31.6615 262.811 32.0469C262.311 32.4323 261.959 32.8437 261.756 33.2812L260.006 32.6562C260.318 31.9271 260.735 31.3594 261.256 30.9531C261.782 30.5417 262.355 30.2552 262.975 30.0937C263.6 29.9271 264.214 29.8438 264.818 29.8438C265.204 29.8438 265.646 29.8906 266.146 29.9844C266.652 30.0729 267.139 30.2578 267.607 30.5391C268.081 30.8203 268.475 31.2448 268.787 31.8125C269.1 32.3802 269.256 33.1406 269.256 34.0938V42H267.412V40.375H267.318C267.193 40.6354 266.985 40.9141 266.693 41.2109C266.402 41.5078 266.014 41.7604 265.529 41.9687C265.045 42.1771 264.454 42.2813 263.756 42.2813ZM264.037 40.625C264.766 40.625 265.381 40.4818 265.881 40.1953C266.386 39.9089 266.766 39.5391 267.021 39.0859C267.282 38.6328 267.412 38.1562 267.412 37.6562V35.9687C267.334 36.0625 267.162 36.1484 266.896 36.2266C266.636 36.2995 266.334 36.3646 265.99 36.4219C265.652 36.474 265.321 36.5208 264.998 36.5625C264.68 36.599 264.423 36.6302 264.225 36.6562C263.745 36.7187 263.298 36.8203 262.881 36.9609C262.469 37.0964 262.136 37.3021 261.881 37.5781C261.631 37.849 261.506 38.2187 261.506 38.6875C261.506 39.3281 261.743 39.8125 262.217 40.1406C262.696 40.4635 263.303 40.625 264.037 40.625ZM283.684 42.25C282.6 42.25 281.65 41.9922 280.832 41.4766C280.02 40.9609 279.384 40.2396 278.926 39.3125C278.473 38.3854 278.246 37.3021 278.246 36.0625C278.246 34.8125 278.473 33.7214 278.926 32.7891C279.384 31.8568 280.02 31.1328 280.832 30.6172C281.65 30.1016 282.6 29.8438 283.684 29.8438C284.767 29.8438 285.715 30.1016 286.527 30.6172C287.345 31.1328 287.98 31.8568 288.434 32.7891C288.892 33.7214 289.121 34.8125 289.121 36.0625C289.121 37.3021 288.892 38.3854 288.434 39.3125C287.98 40.2396 287.345 40.9609 286.527 41.4766C285.715 41.9922 284.767 42.25 283.684 42.25ZM283.684 40.5938C284.507 40.5938 285.184 40.3828 285.715 39.9609C286.246 39.5391 286.639 38.9844 286.895 38.2969C287.15 37.6094 287.277 36.8646 287.277 36.0625C287.277 35.2604 287.15 34.513 286.895 33.8203C286.639 33.1276 286.246 32.5677 285.715 32.1406C285.184 31.7135 284.507 31.5 283.684 31.5C282.861 31.5 282.184 31.7135 281.652 32.1406C281.121 32.5677 280.728 33.1276 280.473 33.8203C280.217 34.513 280.09 35.2604 280.09 36.0625C280.09 36.8646 280.217 37.6094 280.473 38.2969C280.728 38.9844 281.121 39.5391 281.652 39.9609C282.184 40.3828 282.861 40.5938 283.684 40.5938ZM290.691 42L295.566 35.9062L290.754 30H292.941L296.941 35.125H297.941V30H299.785V35.125H300.754L304.754 30H306.941L302.16 35.9062L307.004 42H304.785L300.723 36.8438H299.785V42H297.941V36.8438H297.004L292.91 42H290.691ZM311.482 39.2812L317.264 30H319.389V42H317.545V32.7188L311.795 42H309.639V30H311.482V39.2812ZM321.484 45.4375V40.2812H322.484C322.729 40.026 322.94 39.75 323.117 39.4531C323.294 39.1562 323.448 38.8047 323.578 38.3984C323.714 37.987 323.828 37.487 323.922 36.8984C324.016 36.3047 324.099 35.5885 324.172 34.75L324.578 30H332.203V40.2812H334.047V45.4375H332.203V42H323.328V45.4375H321.484ZM324.578 40.2812H330.359V31.7187H326.297L325.984 34.75C325.854 36.0052 325.693 37.1016 325.5 38.0391C325.307 38.9766 325 39.724 324.578 40.2812ZM340.025 42.2813C339.265 42.2813 338.575 42.138 337.955 41.8516C337.335 41.5599 336.843 41.1406 336.479 40.5938C336.114 40.0417 335.932 39.375 335.932 38.5937C335.932 37.9062 336.067 37.349 336.338 36.9219C336.609 36.4896 336.971 36.151 337.424 35.9062C337.877 35.6615 338.377 35.4792 338.924 35.3594C339.476 35.2344 340.031 35.1354 340.588 35.0625C341.317 34.9687 341.908 34.8984 342.361 34.8516C342.82 34.7995 343.153 34.7135 343.361 34.5937C343.575 34.474 343.682 34.2656 343.682 33.9687V33.9062C343.682 33.1354 343.471 32.5365 343.049 32.1094C342.632 31.6823 341.999 31.4687 341.15 31.4687C340.27 31.4687 339.58 31.6615 339.08 32.0469C338.58 32.4323 338.229 32.8437 338.025 33.2812L336.275 32.6562C336.588 31.9271 337.005 31.3594 337.525 30.9531C338.051 30.5417 338.624 30.2552 339.244 30.0937C339.869 29.9271 340.484 29.8438 341.088 29.8438C341.473 29.8438 341.916 29.8906 342.416 29.9844C342.921 30.0729 343.408 30.2578 343.877 30.5391C344.351 30.8203 344.744 31.2448 345.057 31.8125C345.369 32.3802 345.525 33.1406 345.525 34.0938V42H343.682V40.375H343.588C343.463 40.6354 343.255 40.9141 342.963 41.2109C342.671 41.5078 342.283 41.7604 341.799 41.9687C341.314 42.1771 340.723 42.2813 340.025 42.2813ZM340.307 40.625C341.036 40.625 341.65 40.4818 342.15 40.1953C342.656 39.9089 343.036 39.5391 343.291 39.0859C343.551 38.6328 343.682 38.1562 343.682 37.6562V35.9687C343.604 36.0625 343.432 36.1484 343.166 36.2266C342.906 36.2995 342.604 36.3646 342.26 36.4219C341.921 36.474 341.59 36.5208 341.268 36.5625C340.95 36.599 340.692 36.6302 340.494 36.6562C340.015 36.7187 339.567 36.8203 339.15 36.9609C338.739 37.0964 338.406 37.3021 338.15 37.5781C337.9 37.849 337.775 38.2187 337.775 38.6875C337.775 39.3281 338.012 39.8125 338.486 40.1406C338.965 40.4635 339.572 40.625 340.307 40.625ZM356.922 35.1562V36.875H350.297V35.1562H356.922ZM350.734 30V42H348.891V30H350.734ZM358.328 30V42H356.484V30H358.328ZM363.539 39.2812L369.32 30H371.445V42H369.602V32.7188L363.852 42H361.695V30H363.539V39.2812ZM382.041 42V31.6875H378.854C378.135 31.6875 377.57 31.8542 377.158 32.1875C376.747 32.5208 376.541 32.9792 376.541 33.5625C376.541 34.1354 376.726 34.5859 377.096 34.9141C377.471 35.2422 377.984 35.4063 378.635 35.4063H382.51V37.125H378.635C377.822 37.125 377.122 36.9818 376.533 36.6953C375.945 36.4089 375.492 36 375.174 35.4688C374.856 34.9323 374.697 34.2969 374.697 33.5625C374.697 32.8229 374.864 32.1875 375.197 31.6562C375.531 31.125 376.007 30.7161 376.627 30.4297C377.252 30.1432 377.994 30 378.854 30H383.791V42H382.041ZM374.041 42L377.447 36.0313H379.447L376.041 42H374.041Z" fill="white"/>
</g>
<defs>
<clipPath id="clip0_234_40">
<rect width="500" height="68" fill="white"/>
</clipPath>
</defs>
</svg>
