<svg width="500" height="68" viewBox="0 0 500 68" fill="none" xmlns="http://www.w3.org/2000/svg">
<g clip-path="url(#clip0_229_13)">
<rect width="500" height="68" fill="white"/>
<rect width="500" height="68" fill="#0D26A8"/>
<path d="M28.25 39.5L32.4375 30H34.1875L29 42H27.5L22.4062 30H24.125L28.25 39.5ZM23.5313 30V42H21.6875V30H23.5313ZM32.9687 42V30H34.8125V42H32.9687ZM39.7813 34.3437H43.2188C44.625 34.3437 45.7005 34.7005 46.4453 35.4141C47.1901 36.1276 47.5625 37.0312 47.5625 38.125C47.5625 38.8437 47.3958 39.4974 47.0625 40.0859C46.7292 40.6693 46.2396 41.1354 45.5938 41.4844C44.9479 41.8281 44.1563 42 43.2188 42H38.1875V30H40.0313V40.2812H43.2188C43.9479 40.2812 44.5469 40.0885 45.0156 39.7031C45.4844 39.3177 45.7188 38.8229 45.7188 38.2188C45.7188 37.5833 45.4844 37.0651 45.0156 36.6641C44.5469 36.263 43.9479 36.0625 43.2188 36.0625H39.7813V34.3437ZM49.4687 42V30H51.3125V42H49.4687ZM60.875 46.5V30H62.6562V31.9062H62.875C63.0104 31.6979 63.1979 31.4323 63.4375 31.1094C63.6823 30.7812 64.0313 30.4896 64.4844 30.2344C64.9427 29.974 65.5625 29.8438 66.3438 29.8438C67.3542 29.8438 68.2448 30.0964 69.0156 30.6016C69.7865 31.1068 70.388 31.8229 70.8203 32.75C71.2526 33.6771 71.4687 34.7708 71.4687 36.0313C71.4687 37.3021 71.2526 38.4036 70.8203 39.3359C70.388 40.263 69.7891 40.9818 69.0234 41.4922C68.2578 41.9974 67.375 42.25 66.375 42.25C65.6042 42.25 64.987 42.1224 64.5234 41.8672C64.0599 41.6068 63.7031 41.3125 63.4531 40.9844C63.2031 40.651 63.0104 40.375 62.875 40.1562H62.7188V46.5H60.875ZM62.6875 36C62.6875 36.9062 62.8203 37.7057 63.0859 38.3984C63.3516 39.0859 63.7396 39.625 64.25 40.0156C64.7604 40.401 65.3854 40.5938 66.125 40.5938C66.8958 40.5938 67.5391 40.3906 68.0547 39.9844C68.5755 39.5729 68.9661 39.0208 69.2266 38.3281C69.4922 37.6302 69.625 36.8542 69.625 36C69.625 35.1562 69.4948 34.3958 69.2344 33.7187C68.9792 33.0365 68.5911 32.4974 68.0703 32.1016C67.5547 31.7005 66.9063 31.5 66.125 31.5C65.375 31.5 64.7448 31.6901 64.2344 32.0703C63.724 32.4453 63.3385 32.9714 63.0781 33.6484C62.8177 34.3203 62.6875 35.1042 62.6875 36ZM77.8125 42.2813C77.0521 42.2813 76.362 42.138 75.7422 41.8516C75.1224 41.5599 74.6302 41.1406 74.2656 40.5938C73.901 40.0417 73.7188 39.375 73.7188 38.5937C73.7188 37.9062 73.8542 37.349 74.125 36.9219C74.3958 36.4896 74.7578 36.151 75.2109 35.9062C75.6641 35.6615 76.1641 35.4792 76.7109 35.3594C77.263 35.2344 77.8177 35.1354 78.375 35.0625C79.1042 34.9687 79.6953 34.8984 80.1484 34.8516C80.6068 34.7995 80.9401 34.7135 81.1484 34.5937C81.362 34.474 81.4688 34.2656 81.4688 33.9687V33.9062C81.4688 33.1354 81.2578 32.5365 80.8359 32.1094C80.4193 31.6823 79.7865 31.4687 78.9375 31.4687C78.0573 31.4687 77.3672 31.6615 76.8672 32.0469C76.3672 32.4323 76.0156 32.8437 75.8125 33.2812L74.0625 32.6562C74.375 31.9271 74.7917 31.3594 75.3125 30.9531C75.8385 30.5417 76.4115 30.2552 77.0313 30.0937C77.6563 29.9271 78.2708 29.8438 78.875 29.8438C79.2604 29.8438 79.7031 29.8906 80.2031 29.9844C80.7083 30.0729 81.1953 30.2578 81.6641 30.5391C82.138 30.8203 82.5313 31.2448 82.8438 31.8125C83.1563 32.3802 83.3125 33.1406 83.3125 34.0938V42H81.4688V40.375H81.375C81.25 40.6354 81.0417 40.9141 80.75 41.2109C80.4583 41.5078 80.0703 41.7604 79.5859 41.9687C79.1016 42.1771 78.5104 42.2813 77.8125 42.2813ZM78.0938 40.625C78.8229 40.625 79.4375 40.4818 79.9375 40.1953C80.4427 39.9089 80.8229 39.5391 81.0781 39.0859C81.3385 38.6328 81.4688 38.1562 81.4688 37.6562V35.9687C81.3906 36.0625 81.2188 36.1484 80.9531 36.2266C80.6927 36.2995 80.3906 36.3646 80.0469 36.4219C79.7083 36.474 79.3776 36.5208 79.0547 36.5625C78.737 36.599 78.4792 36.6302 78.2813 36.6562C77.8021 36.7187 77.3542 36.8203 76.9375 36.9609C76.526 37.0964 76.1927 37.3021 75.9375 37.5781C75.6875 37.849 75.5625 38.2187 75.5625 38.6875C75.5625 39.3281 75.7995 39.8125 76.2734 40.1406C76.7526 40.4635 77.3594 40.625 78.0938 40.625ZM91.5527 42.25C90.4277 42.25 89.459 41.9844 88.6465 41.4531C87.834 40.9219 87.209 40.1901 86.7715 39.2578C86.334 38.3255 86.1152 37.2604 86.1152 36.0625C86.1152 34.8437 86.3392 33.7682 86.7871 32.8359C87.2402 31.8984 87.8704 31.1667 88.6777 30.6406C89.4902 30.1094 90.4382 29.8438 91.5215 29.8438C92.3652 29.8438 93.1257 30 93.8027 30.3125C94.4798 30.625 95.0345 31.0625 95.4668 31.625C95.8991 32.1875 96.1673 32.8437 96.2715 33.5937H94.4277C94.2871 33.0469 93.9746 32.5625 93.4902 32.1406C93.0111 31.7135 92.3652 31.5 91.5527 31.5C90.834 31.5 90.2038 31.6875 89.6621 32.0625C89.1257 32.4323 88.7064 32.9557 88.4043 33.6328C88.1074 34.3047 87.959 35.0937 87.959 36C87.959 36.9271 88.1048 37.7344 88.3965 38.4219C88.6934 39.1094 89.11 39.6432 89.6465 40.0234C90.1882 40.4036 90.8236 40.5938 91.5527 40.5938C92.0319 40.5938 92.4668 40.5104 92.8574 40.3437C93.248 40.1771 93.5788 39.9375 93.8496 39.625C94.1204 39.3125 94.3132 38.9375 94.4277 38.5H96.2715C96.1673 39.2083 95.9095 39.8464 95.498 40.4141C95.0918 40.9766 94.5527 41.4245 93.8809 41.7578C93.2142 42.0859 92.4382 42.25 91.5527 42.25ZM98.9668 42V30H108.404V42H106.561V31.7187H100.811V42H98.9668ZM116.646 42.25C115.563 42.25 114.613 41.9922 113.795 41.4766C112.982 40.9609 112.347 40.2396 111.889 39.3125C111.436 38.3854 111.209 37.3021 111.209 36.0625C111.209 34.8125 111.436 33.7214 111.889 32.7891C112.347 31.8568 112.982 31.1328 113.795 30.6172C114.613 30.1016 115.563 29.8438 116.646 29.8438C117.73 29.8438 118.678 30.1016 119.49 30.6172C120.308 31.1328 120.943 31.8568 121.396 32.7891C121.855 33.7214 122.084 34.8125 122.084 36.0625C122.084 37.3021 121.855 38.3854 121.396 39.3125C120.943 40.2396 120.308 40.9609 119.49 41.4766C118.678 41.9922 117.73 42.25 116.646 42.25ZM116.646 40.5938C117.469 40.5938 118.146 40.3828 118.678 39.9609C119.209 39.5391 119.602 38.9844 119.857 38.2969C120.113 37.6094 120.24 36.8646 120.24 36.0625C120.24 35.2604 120.113 34.513 119.857 33.8203C119.602 33.1276 119.209 32.5677 118.678 32.1406C118.146 31.7135 117.469 31.5 116.646 31.5C115.824 31.5 115.146 31.7135 114.615 32.1406C114.084 32.5677 113.691 33.1276 113.436 33.8203C113.18 34.513 113.053 35.2604 113.053 36.0625C113.053 36.8646 113.18 37.6094 113.436 38.2969C113.691 38.9844 114.084 39.5391 114.615 39.9609C115.146 40.3828 115.824 40.5938 116.646 40.5938ZM123.836 42V40.2812H124.273C124.633 40.2812 124.932 40.2109 125.172 40.0703C125.411 39.9245 125.604 39.6719 125.75 39.3125C125.901 38.9479 126.016 38.4427 126.094 37.7969C126.177 37.1458 126.237 36.3177 126.273 35.3125L126.492 30H134.492V42H132.648V31.7187H128.242L128.055 36C128.013 36.9844 127.924 37.8516 127.789 38.6016C127.659 39.3464 127.458 39.9714 127.188 40.4766C126.922 40.9818 126.568 41.362 126.125 41.6172C125.682 41.8724 125.128 42 124.461 42H123.836ZM142.75 42.25C141.667 42.25 140.716 41.9922 139.898 41.4766C139.086 40.9609 138.451 40.2396 137.992 39.3125C137.539 38.3854 137.313 37.3021 137.313 36.0625C137.313 34.8125 137.539 33.7214 137.992 32.7891C138.451 31.8568 139.086 31.1328 139.898 30.6172C140.716 30.1016 141.667 29.8438 142.75 29.8438C143.833 29.8438 144.781 30.1016 145.594 30.6172C146.411 31.1328 147.047 31.8568 147.5 32.7891C147.958 33.7214 148.188 34.8125 148.188 36.0625C148.188 37.3021 147.958 38.3854 147.5 39.3125C147.047 40.2396 146.411 40.9609 145.594 41.4766C144.781 41.9922 143.833 42.25 142.75 42.25ZM142.75 40.5938C143.573 40.5938 144.25 40.3828 144.781 39.9609C145.313 39.5391 145.706 38.9844 145.961 38.2969C146.216 37.6094 146.344 36.8646 146.344 36.0625C146.344 35.2604 146.216 34.513 145.961 33.8203C145.706 33.1276 145.313 32.5677 144.781 32.1406C144.25 31.7135 143.573 31.5 142.75 31.5C141.927 31.5 141.25 31.7135 140.719 32.1406C140.188 32.5677 139.794 33.1276 139.539 33.8203C139.284 34.513 139.156 35.2604 139.156 36.0625C139.156 36.8646 139.284 37.6094 139.539 38.2969C139.794 38.9844 140.188 39.5391 140.719 39.9609C141.25 40.3828 141.927 40.5938 142.75 40.5938ZM149.758 42L154.633 35.9062L149.82 30H152.008L156.008 35.125H157.008V30H158.852V35.125H159.82L163.82 30H166.008L161.227 35.9062L166.07 42H163.852L159.789 36.8438H158.852V42H157.008V36.8438H156.07L151.977 42H149.758ZM173.242 42.25C172.086 42.25 171.089 41.9948 170.25 41.4844C169.417 40.9688 168.773 40.25 168.32 39.3281C167.872 38.401 167.648 37.3229 167.648 36.0938C167.648 34.8646 167.872 33.7812 168.32 32.8437C168.773 31.901 169.404 31.1667 170.211 30.6406C171.023 30.1094 171.971 29.8438 173.055 29.8438C173.68 29.8438 174.297 29.9479 174.906 30.1562C175.516 30.3646 176.07 30.7031 176.57 31.1719C177.07 31.6354 177.469 32.25 177.766 33.0156C178.063 33.7812 178.211 34.724 178.211 35.8437V36.625H168.961V35.0312H176.336C176.336 34.3542 176.201 33.75 175.93 33.2187C175.664 32.6875 175.284 32.2682 174.789 31.9609C174.299 31.6536 173.721 31.5 173.055 31.5C172.32 31.5 171.685 31.6823 171.148 32.0469C170.617 32.4062 170.208 32.875 169.922 33.4531C169.635 34.0312 169.492 34.651 169.492 35.3125V36.375C169.492 37.2813 169.648 38.0495 169.961 38.6797C170.279 39.3047 170.719 39.7812 171.281 40.1094C171.844 40.4323 172.497 40.5938 173.242 40.5938C173.727 40.5938 174.164 40.526 174.555 40.3906C174.951 40.25 175.292 40.0417 175.578 39.7656C175.865 39.4844 176.086 39.1354 176.242 38.7187L178.023 39.2188C177.836 39.8229 177.521 40.3542 177.078 40.8125C176.635 41.2656 176.089 41.6198 175.437 41.875C174.786 42.125 174.055 42.25 173.242 42.25ZM189.047 35.1562V36.875H182.422V35.1562H189.047ZM182.859 30V42H181.016V30H182.859ZM190.453 30V42H188.609V30H190.453ZM195.414 34.3437H198.852C200.258 34.3437 201.333 34.7005 202.078 35.4141C202.823 36.1276 203.195 37.0312 203.195 38.125C203.195 38.8437 203.029 39.4974 202.695 40.0859C202.362 40.6693 201.872 41.1354 201.227 41.4844C200.581 41.8281 199.789 42 198.852 42H193.82V30H195.664V40.2812H198.852C199.581 40.2812 200.18 40.0885 200.648 39.7031C201.117 39.3177 201.352 38.8229 201.352 38.2188C201.352 37.5833 201.117 37.0651 200.648 36.6641C200.18 36.263 199.581 36.0625 198.852 36.0625H195.414V34.3437ZM205.102 42V30H206.945V42H205.102ZM216.508 42V30H225.945V42H224.102V31.7187H218.352V42H216.508ZM229.313 46.5V30H231.094V31.9062H231.313C231.448 31.6979 231.635 31.4323 231.875 31.1094C232.12 30.7812 232.469 30.4896 232.922 30.2344C233.38 29.974 234 29.8438 234.781 29.8438C235.792 29.8438 236.682 30.0964 237.453 30.6016C238.224 31.1068 238.826 31.8229 239.258 32.75C239.69 33.6771 239.906 34.7708 239.906 36.0313C239.906 37.3021 239.69 38.4036 239.258 39.3359C238.826 40.263 238.227 40.9818 237.461 41.4922C236.695 41.9974 235.813 42.25 234.813 42.25C234.042 42.25 233.424 42.1224 232.961 41.8672C232.497 41.6068 232.141 41.3125 231.891 40.9844C231.641 40.651 231.448 40.375 231.313 40.1562H231.156V46.5H229.313ZM231.125 36C231.125 36.9062 231.258 37.7057 231.523 38.3984C231.789 39.0859 232.177 39.625 232.688 40.0156C233.198 40.401 233.823 40.5938 234.562 40.5938C235.333 40.5938 235.977 40.3906 236.492 39.9844C237.013 39.5729 237.404 39.0208 237.664 38.3281C237.93 37.6302 238.063 36.8542 238.063 36C238.063 35.1562 237.932 34.3958 237.672 33.7187C237.417 33.0365 237.029 32.4974 236.508 32.1016C235.992 31.7005 235.344 31.5 234.562 31.5C233.813 31.5 233.182 31.6901 232.672 32.0703C232.161 32.4453 231.776 32.9714 231.516 33.6484C231.255 34.3203 231.125 35.1042 231.125 36ZM249.938 42V31.6875H246.75C246.031 31.6875 245.466 31.8542 245.055 32.1875C244.643 32.5208 244.438 32.9792 244.438 33.5625C244.438 34.1354 244.622 34.5859 244.992 34.9141C245.367 35.2422 245.88 35.4063 246.531 35.4063H250.406V37.125H246.531C245.719 37.125 245.018 36.9818 244.43 36.6953C243.841 36.4089 243.388 36 243.07 35.4688C242.753 34.9323 242.594 34.2969 242.594 33.5625C242.594 32.8229 242.76 32.1875 243.094 31.6562C243.427 31.125 243.904 30.7161 244.523 30.4297C245.148 30.1432 245.891 30 246.75 30H251.688V42H249.938ZM241.938 42L245.344 36.0313H247.344L243.938 42H241.938ZM261.635 39.5L265.822 30H267.572L262.385 42H260.885L255.791 30H257.51L261.635 39.5ZM256.916 30V42H255.072V30H256.916ZM266.354 42V30H268.197V42H266.354ZM276.447 42.25C275.364 42.25 274.413 41.9922 273.596 41.4766C272.783 40.9609 272.148 40.2396 271.689 39.3125C271.236 38.3854 271.01 37.3021 271.01 36.0625C271.01 34.8125 271.236 33.7214 271.689 32.7891C272.148 31.8568 272.783 31.1328 273.596 30.6172C274.413 30.1016 275.364 29.8438 276.447 29.8438C277.531 29.8438 278.479 30.1016 279.291 30.6172C280.109 31.1328 280.744 31.8568 281.197 32.7891C281.656 33.7214 281.885 34.8125 281.885 36.0625C281.885 37.3021 281.656 38.3854 281.197 39.3125C280.744 40.2396 280.109 40.9609 279.291 41.4766C278.479 41.9922 277.531 42.25 276.447 42.25ZM276.447 40.5938C277.27 40.5938 277.947 40.3828 278.479 39.9609C279.01 39.5391 279.403 38.9844 279.658 38.2969C279.913 37.6094 280.041 36.8646 280.041 36.0625C280.041 35.2604 279.913 34.513 279.658 33.8203C279.403 33.1276 279.01 32.5677 278.479 32.1406C277.947 31.7135 277.27 31.5 276.447 31.5C275.624 31.5 274.947 31.7135 274.416 32.1406C273.885 32.5677 273.492 33.1276 273.236 33.8203C272.981 34.513 272.854 35.2604 272.854 36.0625C272.854 36.8646 272.981 37.6094 273.236 38.2969C273.492 38.9844 273.885 39.5391 274.416 39.9609C274.947 40.3828 275.624 40.5938 276.447 40.5938ZM298.918 35.1562V36.875H292.293V35.1562H298.918ZM292.73 30V42H290.887V30H292.73ZM300.324 30V42H298.48V30H300.324ZM307.223 42.2813C306.462 42.2813 305.772 42.138 305.152 41.8516C304.533 41.5599 304.04 41.1406 303.676 40.5938C303.311 40.0417 303.129 39.375 303.129 38.5937C303.129 37.9062 303.264 37.349 303.535 36.9219C303.806 36.4896 304.168 36.151 304.621 35.9062C305.074 35.6615 305.574 35.4792 306.121 35.3594C306.673 35.2344 307.228 35.1354 307.785 35.0625C308.514 34.9687 309.105 34.8984 309.559 34.8516C310.017 34.7995 310.35 34.7135 310.559 34.5937C310.772 34.474 310.879 34.2656 310.879 33.9687V33.9062C310.879 33.1354 310.668 32.5365 310.246 32.1094C309.829 31.6823 309.197 31.4687 308.348 31.4687C307.467 31.4687 306.777 31.6615 306.277 32.0469C305.777 32.4323 305.426 32.8437 305.223 33.2812L303.473 32.6562C303.785 31.9271 304.202 31.3594 304.723 30.9531C305.249 30.5417 305.822 30.2552 306.441 30.0937C307.066 29.9271 307.681 29.8438 308.285 29.8438C308.671 29.8438 309.113 29.8906 309.613 29.9844C310.118 30.0729 310.605 30.2578 311.074 30.5391C311.548 30.8203 311.941 31.2448 312.254 31.8125C312.566 32.3802 312.723 33.1406 312.723 34.0938V42H310.879V40.375H310.785C310.66 40.6354 310.452 40.9141 310.16 41.2109C309.868 41.5078 309.48 41.7604 308.996 41.9687C308.512 42.1771 307.921 42.2813 307.223 42.2813ZM307.504 40.625C308.233 40.625 308.848 40.4818 309.348 40.1953C309.853 39.9089 310.233 39.5391 310.488 39.0859C310.749 38.6328 310.879 38.1562 310.879 37.6562V35.9687C310.801 36.0625 310.629 36.1484 310.363 36.2266C310.103 36.2995 309.801 36.3646 309.457 36.4219C309.118 36.474 308.788 36.5208 308.465 36.5625C308.147 36.599 307.889 36.6302 307.691 36.6562C307.212 36.7187 306.764 36.8203 306.348 36.9609C305.936 37.0964 305.603 37.3021 305.348 37.5781C305.098 37.849 304.973 38.2187 304.973 38.6875C304.973 39.3281 305.21 39.8125 305.684 40.1406C306.163 40.4635 306.77 40.625 307.504 40.625ZM321.213 42V40.2812H321.65C322.01 40.2812 322.309 40.2109 322.549 40.0703C322.788 39.9245 322.981 39.6719 323.127 39.3125C323.278 38.9479 323.393 38.4427 323.471 37.7969C323.554 37.1458 323.614 36.3177 323.65 35.3125L323.869 30H331.869V42H330.025V31.7187H325.619L325.432 36C325.39 36.9844 325.301 37.8516 325.166 38.6016C325.036 39.3464 324.835 39.9714 324.564 40.4766C324.299 40.9818 323.945 41.362 323.502 41.6172C323.059 41.8724 322.505 42 321.838 42H321.213ZM340.283 42.25C339.127 42.25 338.13 41.9948 337.291 41.4844C336.458 40.9688 335.814 40.25 335.361 39.3281C334.913 38.401 334.689 37.3229 334.689 36.0938C334.689 34.8646 334.913 33.7812 335.361 32.8437C335.814 31.901 336.445 31.1667 337.252 30.6406C338.064 30.1094 339.012 29.8438 340.096 29.8438C340.721 29.8438 341.338 29.9479 341.947 30.1562C342.557 30.3646 343.111 30.7031 343.611 31.1719C344.111 31.6354 344.51 32.25 344.807 33.0156C345.104 33.7812 345.252 34.724 345.252 35.8437V36.625H336.002V35.0312H343.377C343.377 34.3542 343.242 33.75 342.971 33.2187C342.705 32.6875 342.325 32.2682 341.83 31.9609C341.34 31.6536 340.762 31.5 340.096 31.5C339.361 31.5 338.726 31.6823 338.189 32.0469C337.658 32.4062 337.249 32.875 336.963 33.4531C336.676 34.0312 336.533 34.651 336.533 35.3125V36.375C336.533 37.2813 336.689 38.0495 337.002 38.6797C337.32 39.3047 337.76 39.7812 338.322 40.1094C338.885 40.4323 339.538 40.5938 340.283 40.5938C340.768 40.5938 341.205 40.526 341.596 40.3906C341.992 40.25 342.333 40.0417 342.619 39.7656C342.906 39.4844 343.127 39.1354 343.283 38.7187L345.064 39.2188C344.877 39.8229 344.562 40.3542 344.119 40.8125C343.676 41.2656 343.13 41.6198 342.479 41.875C341.827 42.125 341.096 42.25 340.283 42.25ZM352.932 42.25C351.807 42.25 350.838 41.9844 350.025 41.4531C349.213 40.9219 348.588 40.1901 348.15 39.2578C347.713 38.3255 347.494 37.2604 347.494 36.0625C347.494 34.8437 347.718 33.7682 348.166 32.8359C348.619 31.8984 349.249 31.1667 350.057 30.6406C350.869 30.1094 351.817 29.8438 352.9 29.8438C353.744 29.8438 354.505 30 355.182 30.3125C355.859 30.625 356.413 31.0625 356.846 31.625C357.278 32.1875 357.546 32.8437 357.65 33.5937H355.807C355.666 33.0469 355.354 32.5625 354.869 32.1406C354.39 31.7135 353.744 31.5 352.932 31.5C352.213 31.5 351.583 31.6875 351.041 32.0625C350.505 32.4323 350.085 32.9557 349.783 33.6328C349.486 34.3047 349.338 35.0937 349.338 36C349.338 36.9271 349.484 37.7344 349.775 38.4219C350.072 39.1094 350.489 39.6432 351.025 40.0234C351.567 40.4036 352.202 40.5938 352.932 40.5938C353.411 40.5938 353.846 40.5104 354.236 40.3437C354.627 40.1771 354.958 39.9375 355.229 39.625C355.499 39.3125 355.692 38.9375 355.807 38.5H357.65C357.546 39.2083 357.288 39.8464 356.877 40.4141C356.471 40.9766 355.932 41.4245 355.26 41.7578C354.593 42.0859 353.817 42.25 352.932 42.25ZM368.377 35.1562V36.875H361.752V35.1562H368.377ZM362.189 30V42H360.346V30H362.189ZM369.783 30V42H367.939V30H369.783ZM378.025 42.25C376.942 42.25 375.992 41.9922 375.174 41.4766C374.361 40.9609 373.726 40.2396 373.268 39.3125C372.814 38.3854 372.588 37.3021 372.588 36.0625C372.588 34.8125 372.814 33.7214 373.268 32.7891C373.726 31.8568 374.361 31.1328 375.174 30.6172C375.992 30.1016 376.942 29.8438 378.025 29.8438C379.109 29.8438 380.057 30.1016 380.869 30.6172C381.687 31.1328 382.322 31.8568 382.775 32.7891C383.234 33.7214 383.463 34.8125 383.463 36.0625C383.463 37.3021 383.234 38.3854 382.775 39.3125C382.322 40.2396 381.687 40.9609 380.869 41.4766C380.057 41.9922 379.109 42.25 378.025 42.25ZM378.025 40.5938C378.848 40.5938 379.525 40.3828 380.057 39.9609C380.588 39.5391 380.981 38.9844 381.236 38.2969C381.492 37.6094 381.619 36.8646 381.619 36.0625C381.619 35.2604 381.492 34.513 381.236 33.8203C380.981 33.1276 380.588 32.5677 380.057 32.1406C379.525 31.7135 378.848 31.5 378.025 31.5C377.202 31.5 376.525 31.7135 375.994 32.1406C375.463 32.5677 375.07 33.1276 374.814 33.8203C374.559 34.513 374.432 35.2604 374.432 36.0625C374.432 36.8646 374.559 37.6094 374.814 38.2969C375.07 38.9844 375.463 39.5391 375.994 39.9609C376.525 40.3828 377.202 40.5938 378.025 40.5938ZM388.121 39.2812L393.902 30H396.027V42H394.184V32.7188L388.434 42H386.277V30H388.121V39.2812ZM392.684 26H394.402C394.402 26.8437 394.111 27.5339 393.527 28.0703C392.944 28.6068 392.152 28.875 391.152 28.875C390.168 28.875 389.384 28.6068 388.801 28.0703C388.223 27.5339 387.934 26.8437 387.934 26H389.652C389.652 26.4062 389.764 26.763 389.988 27.0703C390.217 27.3776 390.605 27.5312 391.152 27.5312C391.699 27.5312 392.09 27.3776 392.324 27.0703C392.564 26.763 392.684 26.4062 392.684 26ZM410.467 42.25C409.383 42.25 408.433 41.9922 407.615 41.4766C406.803 40.9609 406.167 40.2396 405.709 39.3125C405.256 38.3854 405.029 37.3021 405.029 36.0625C405.029 34.8125 405.256 33.7214 405.709 32.7891C406.167 31.8568 406.803 31.1328 407.615 30.6172C408.433 30.1016 409.383 29.8438 410.467 29.8438C411.55 29.8438 412.498 30.1016 413.311 30.6172C414.128 31.1328 414.764 31.8568 415.217 32.7891C415.675 33.7214 415.904 34.8125 415.904 36.0625C415.904 37.3021 415.675 38.3854 415.217 39.3125C414.764 40.2396 414.128 40.9609 413.311 41.4766C412.498 41.9922 411.55 42.25 410.467 42.25ZM410.467 40.5938C411.29 40.5938 411.967 40.3828 412.498 39.9609C413.029 39.5391 413.423 38.9844 413.678 38.2969C413.933 37.6094 414.061 36.8646 414.061 36.0625C414.061 35.2604 413.933 34.513 413.678 33.8203C413.423 33.1276 413.029 32.5677 412.498 32.1406C411.967 31.7135 411.29 31.5 410.467 31.5C409.644 31.5 408.967 31.7135 408.436 32.1406C407.904 32.5677 407.511 33.1276 407.256 33.8203C407.001 34.513 406.873 35.2604 406.873 36.0625C406.873 36.8646 407.001 37.6094 407.256 38.2969C407.511 38.9844 407.904 39.5391 408.436 39.9609C408.967 40.3828 409.644 40.5938 410.467 40.5938ZM418.719 42V30H428.156V42H426.312V31.7187H420.563V42H418.719ZM432.281 46.5C431.969 46.5 431.69 46.474 431.445 46.4219C431.201 46.375 431.031 46.3281 430.938 46.2813L431.406 44.6563C431.854 44.7708 432.25 44.8125 432.594 44.7812C432.938 44.75 433.242 44.5964 433.508 44.3203C433.779 44.0495 434.026 43.6094 434.25 43L434.594 42.0625L430.156 30H432.156L435.469 39.5625H435.594L438.906 30H440.906L435.813 43.75C435.583 44.3698 435.299 44.8828 434.961 45.2891C434.622 45.7005 434.229 46.0052 433.781 46.2031C433.339 46.401 432.839 46.5 432.281 46.5ZM443.34 30H445.184V40.2812H449.715V30H451.559V40.2812H456.09V30H457.934V42H443.34V30ZM461.301 42V30H463.145V35.2187H464.363L468.676 30H471.051L466.207 35.7812L471.113 42H468.738L464.801 36.9375H463.145V42H461.301ZM477.654 42.25C476.498 42.25 475.501 41.9948 474.662 41.4844C473.829 40.9688 473.186 40.25 472.732 39.3281C472.285 38.401 472.061 37.3229 472.061 36.0938C472.061 34.8646 472.285 33.7812 472.732 32.8437C473.186 31.901 473.816 31.1667 474.623 30.6406C475.436 30.1094 476.383 29.8438 477.467 29.8438C478.092 29.8438 478.709 29.9479 479.318 30.1562C479.928 30.3646 480.482 30.7031 480.982 31.1719C481.482 31.6354 481.881 32.25 482.178 33.0156C482.475 33.7812 482.623 34.724 482.623 35.8437V36.625H473.373V35.0312H480.748C480.748 34.3542 480.613 33.75 480.342 33.2187C480.076 32.6875 479.696 32.2682 479.201 31.9609C478.712 31.6536 478.133 31.5 477.467 31.5C476.732 31.5 476.097 31.6823 475.561 32.0469C475.029 32.4062 474.62 32.875 474.334 33.4531C474.048 34.0312 473.904 34.651 473.904 35.3125V36.375C473.904 37.2813 474.061 38.0495 474.373 38.6797C474.691 39.3047 475.131 39.7812 475.693 40.1094C476.256 40.4323 476.91 40.5938 477.654 40.5938C478.139 40.5938 478.576 40.526 478.967 40.3906C479.363 40.25 479.704 40.0417 479.99 39.7656C480.277 39.4844 480.498 39.1354 480.654 38.7187L482.436 39.2188C482.248 39.8229 481.933 40.3542 481.49 40.8125C481.048 41.2656 480.501 41.6198 479.85 41.875C479.199 42.125 478.467 42.25 477.654 42.25Z" fill="white"/>
</g>
<defs>
<clipPath id="clip0_229_13">
<rect width="500" height="68" fill="white"/>
</clipPath>
</defs>
</svg>
