<svg width="500" height="68" viewBox="0 0 500 68" fill="none" xmlns="http://www.w3.org/2000/svg">
<g clip-path="url(#clip0_234_44)">
<rect width="500" height="68" fill="white"/>
<rect width="500" height="68" fill="#0D26A8"/>
<path d="M216.406 45.4375V40.2812H217.406C217.651 40.026 217.862 39.75 218.039 39.4531C218.216 39.1562 218.37 38.8047 218.5 38.3984C218.635 37.987 218.75 37.487 218.844 36.8984C218.938 36.3047 219.021 35.5885 219.094 34.75L219.5 30H227.125V40.2812H228.969V45.4375H227.125V42H218.25V45.4375H216.406ZM219.5 40.2812H225.281V31.7187H221.219L220.906 34.75C220.776 36.0052 220.615 37.1016 220.422 38.0391C220.229 38.9766 219.922 39.724 219.5 40.2812ZM236.447 42.25C235.291 42.25 234.294 41.9948 233.455 41.4844C232.622 40.9688 231.979 40.25 231.525 39.3281C231.077 38.401 230.854 37.3229 230.854 36.0938C230.854 34.8646 231.077 33.7812 231.525 32.8437C231.979 31.901 232.609 31.1667 233.416 30.6406C234.229 30.1094 235.176 29.8438 236.26 29.8438C236.885 29.8438 237.502 29.9479 238.111 30.1562C238.721 30.3646 239.275 30.7031 239.775 31.1719C240.275 31.6354 240.674 32.25 240.971 33.0156C241.268 33.7812 241.416 34.724 241.416 35.8437V36.625H232.166V35.0312H239.541C239.541 34.3542 239.406 33.75 239.135 33.2187C238.869 32.6875 238.489 32.2682 237.994 31.9609C237.505 31.6536 236.926 31.5 236.26 31.5C235.525 31.5 234.89 31.6823 234.354 32.0469C233.822 32.4062 233.413 32.875 233.127 33.4531C232.84 34.0312 232.697 34.651 232.697 35.3125V36.375C232.697 37.2813 232.854 38.0495 233.166 38.6797C233.484 39.3047 233.924 39.7812 234.486 40.1094C235.049 40.4323 235.702 40.5938 236.447 40.5938C236.932 40.5938 237.369 40.526 237.76 40.3906C238.156 40.25 238.497 40.0417 238.783 39.7656C239.07 39.4844 239.291 39.1354 239.447 38.7187L241.229 39.2188C241.041 39.8229 240.726 40.3542 240.283 40.8125C239.84 41.2656 239.294 41.6198 238.643 41.875C237.992 42.125 237.26 42.25 236.447 42.25ZM243.104 31.7187V30H252.854V31.7187H248.916V42H247.072V31.7187H243.104ZM258.451 42.2813C257.691 42.2813 257.001 42.138 256.381 41.8516C255.761 41.5599 255.269 41.1406 254.904 40.5938C254.54 40.0417 254.357 39.375 254.357 38.5937C254.357 37.9062 254.493 37.349 254.764 36.9219C255.035 36.4896 255.396 36.151 255.85 35.9062C256.303 35.6615 256.803 35.4792 257.35 35.3594C257.902 35.2344 258.456 35.1354 259.014 35.0625C259.743 34.9687 260.334 34.8984 260.787 34.8516C261.245 34.7995 261.579 34.7135 261.787 34.5937C262.001 34.474 262.107 34.2656 262.107 33.9687V33.9062C262.107 33.1354 261.896 32.5365 261.475 32.1094C261.058 31.6823 260.425 31.4687 259.576 31.4687C258.696 31.4687 258.006 31.6615 257.506 32.0469C257.006 32.4323 256.654 32.8437 256.451 33.2812L254.701 32.6562C255.014 31.9271 255.43 31.3594 255.951 30.9531C256.477 30.5417 257.05 30.2552 257.67 30.0937C258.295 29.9271 258.91 29.8438 259.514 29.8438C259.899 29.8438 260.342 29.8906 260.842 29.9844C261.347 30.0729 261.834 30.2578 262.303 30.5391C262.777 30.8203 263.17 31.2448 263.482 31.8125C263.795 32.3802 263.951 33.1406 263.951 34.0938V42H262.107V40.375H262.014C261.889 40.6354 261.68 40.9141 261.389 41.2109C261.097 41.5078 260.709 41.7604 260.225 41.9687C259.74 42.1771 259.149 42.2813 258.451 42.2813ZM258.732 40.625C259.462 40.625 260.076 40.4818 260.576 40.1953C261.081 39.9089 261.462 39.5391 261.717 39.0859C261.977 38.6328 262.107 38.1562 262.107 37.6562V35.9687C262.029 36.0625 261.857 36.1484 261.592 36.2266C261.331 36.2995 261.029 36.3646 260.686 36.4219C260.347 36.474 260.016 36.5208 259.693 36.5625C259.376 36.599 259.118 36.6302 258.92 36.6562C258.441 36.7187 257.993 36.8203 257.576 36.9609C257.165 37.0964 256.831 37.3021 256.576 37.5781C256.326 37.849 256.201 38.2187 256.201 38.6875C256.201 39.3281 256.438 39.8125 256.912 40.1406C257.391 40.4635 257.998 40.625 258.732 40.625ZM266.254 42V40.2812H266.691C267.051 40.2812 267.35 40.2109 267.59 40.0703C267.829 39.9245 268.022 39.6719 268.168 39.3125C268.319 38.9479 268.434 38.4427 268.512 37.7969C268.595 37.1458 268.655 36.3177 268.691 35.3125L268.91 30H276.91V42H275.066V31.7187H270.66L270.473 36C270.431 36.9844 270.342 37.8516 270.207 38.6016C270.077 39.3464 269.876 39.9714 269.605 40.4766C269.34 40.9818 268.986 41.362 268.543 41.6172C268.1 41.8724 267.546 42 266.879 42H266.254ZM282.137 39.2812L287.918 30H290.043V42H288.199V32.7188L282.449 42H280.293V30H282.137V39.2812Z" fill="white"/>
</g>
<defs>
<clipPath id="clip0_234_44">
<rect width="500" height="68" fill="white"/>
</clipPath>
</defs>
</svg>
