<svg width="500" height="68" viewBox="0 0 500 68" fill="none" xmlns="http://www.w3.org/2000/svg">
<g clip-path="url(#clip0_237_63)">
<rect width="500" height="68" fill="white"/>
<rect width="500" height="68" fill="#0D26A8"/>
<path d="M146.938 38.9375H148.906C148.948 39.4792 149.193 39.8906 149.641 40.1719C150.094 40.4531 150.682 40.5938 151.406 40.5938C152.146 40.5938 152.779 40.4427 153.305 40.1406C153.831 39.8333 154.094 39.3385 154.094 38.6562C154.094 38.2552 153.995 37.9062 153.797 37.6094C153.599 37.3073 153.32 37.0729 152.961 36.9062C152.602 36.7396 152.177 36.6562 151.688 36.6562H149.625V35H151.688C152.422 35 152.964 34.8333 153.313 34.5C153.667 34.1667 153.844 33.75 153.844 33.25C153.844 32.7135 153.654 32.2839 153.273 31.9609C152.893 31.6328 152.354 31.4687 151.656 31.4687C150.953 31.4687 150.367 31.6276 149.898 31.9453C149.43 32.2578 149.182 32.6615 149.156 33.1562H147.219C147.24 32.5104 147.438 31.9401 147.813 31.4453C148.188 30.9453 148.698 30.5547 149.344 30.2734C149.99 29.987 150.729 29.8438 151.562 29.8438C152.406 29.8438 153.138 29.9922 153.758 30.2891C154.383 30.5807 154.865 30.9792 155.203 31.4844C155.547 31.9844 155.719 32.5521 155.719 33.1875C155.719 33.8646 155.529 34.4115 155.148 34.8281C154.768 35.2448 154.292 35.5417 153.719 35.7187V35.8437C154.172 35.875 154.565 36.0208 154.898 36.2812C155.237 36.5365 155.5 36.8724 155.688 37.2891C155.875 37.7005 155.969 38.1562 155.969 38.6562C155.969 39.3854 155.773 40.0208 155.383 40.5625C154.992 41.099 154.456 41.5156 153.773 41.8125C153.091 42.1042 152.313 42.25 151.438 42.25C150.589 42.25 149.828 42.112 149.156 41.8359C148.484 41.5547 147.951 41.1667 147.555 40.6719C147.164 40.1719 146.958 39.5938 146.938 38.9375ZM163.59 42.25C162.434 42.25 161.436 41.9948 160.598 41.4844C159.764 40.9688 159.121 40.25 158.668 39.3281C158.22 38.401 157.996 37.3229 157.996 36.0938C157.996 34.8646 158.22 33.7812 158.668 32.8437C159.121 31.901 159.751 31.1667 160.559 30.6406C161.371 30.1094 162.319 29.8438 163.402 29.8438C164.027 29.8438 164.645 29.9479 165.254 30.1562C165.863 30.3646 166.418 30.7031 166.918 31.1719C167.418 31.6354 167.816 32.25 168.113 33.0156C168.41 33.7812 168.559 34.724 168.559 35.8437V36.625H159.309V35.0312H166.684C166.684 34.3542 166.548 33.75 166.277 33.2187C166.012 32.6875 165.632 32.2682 165.137 31.9609C164.647 31.6536 164.069 31.5 163.402 31.5C162.668 31.5 162.033 31.6823 161.496 32.0469C160.965 32.4062 160.556 32.875 160.27 33.4531C159.983 34.0312 159.84 34.651 159.84 35.3125V36.375C159.84 37.2813 159.996 38.0495 160.309 38.6797C160.626 39.3047 161.066 39.7812 161.629 40.1094C162.191 40.4323 162.845 40.5938 163.59 40.5938C164.074 40.5938 164.512 40.526 164.902 40.3906C165.298 40.25 165.639 40.0417 165.926 39.7656C166.212 39.4844 166.434 39.1354 166.59 38.7187L168.371 39.2188C168.184 39.8229 167.868 40.3542 167.426 40.8125C166.983 41.2656 166.436 41.6198 165.785 41.875C165.134 42.125 164.402 42.25 163.59 42.25ZM171.363 46.5V30H173.145V31.9062H173.363C173.499 31.6979 173.686 31.4323 173.926 31.1094C174.171 30.7812 174.52 30.4896 174.973 30.2344C175.431 29.974 176.051 29.8438 176.832 29.8438C177.842 29.8438 178.733 30.0964 179.504 30.6016C180.275 31.1068 180.876 31.8229 181.309 32.75C181.741 33.6771 181.957 34.7708 181.957 36.0313C181.957 37.3021 181.741 38.4036 181.309 39.3359C180.876 40.263 180.277 40.9818 179.512 41.4922C178.746 41.9974 177.863 42.25 176.863 42.25C176.092 42.25 175.475 42.1224 175.012 41.8672C174.548 41.6068 174.191 41.3125 173.941 40.9844C173.691 40.651 173.499 40.375 173.363 40.1562H173.207V46.5H171.363ZM173.176 36C173.176 36.9062 173.309 37.7057 173.574 38.3984C173.84 39.0859 174.228 39.625 174.738 40.0156C175.249 40.401 175.874 40.5938 176.613 40.5938C177.384 40.5938 178.027 40.3906 178.543 39.9844C179.064 39.5729 179.454 39.0208 179.715 38.3281C179.98 37.6302 180.113 36.8542 180.113 36C180.113 35.1562 179.983 34.3958 179.723 33.7187C179.467 33.0365 179.079 32.4974 178.559 32.1016C178.043 31.7005 177.395 31.5 176.613 31.5C175.863 31.5 175.233 31.6901 174.723 32.0703C174.212 32.4453 173.827 32.9714 173.566 33.6484C173.306 34.3203 173.176 35.1042 173.176 36ZM184.77 42V30H186.613V35.2187H187.832L192.145 30H194.52L189.676 35.7812L194.582 42H192.207L188.27 36.9375H186.613V42H184.77ZM200.117 42.2813C199.357 42.2813 198.667 42.138 198.047 41.8516C197.427 41.5599 196.935 41.1406 196.57 40.5938C196.206 40.0417 196.023 39.375 196.023 38.5937C196.023 37.9062 196.159 37.349 196.43 36.9219C196.701 36.4896 197.063 36.151 197.516 35.9062C197.969 35.6615 198.469 35.4792 199.016 35.3594C199.568 35.2344 200.122 35.1354 200.68 35.0625C201.409 34.9687 202 34.8984 202.453 34.8516C202.911 34.7995 203.245 34.7135 203.453 34.5937C203.667 34.474 203.773 34.2656 203.773 33.9687V33.9062C203.773 33.1354 203.563 32.5365 203.141 32.1094C202.724 31.6823 202.091 31.4687 201.242 31.4687C200.362 31.4687 199.672 31.6615 199.172 32.0469C198.672 32.4323 198.32 32.8437 198.117 33.2812L196.367 32.6562C196.68 31.9271 197.096 31.3594 197.617 30.9531C198.143 30.5417 198.716 30.2552 199.336 30.0937C199.961 29.9271 200.576 29.8438 201.18 29.8438C201.565 29.8438 202.008 29.8906 202.508 29.9844C203.013 30.0729 203.5 30.2578 203.969 30.5391C204.443 30.8203 204.836 31.2448 205.148 31.8125C205.461 32.3802 205.617 33.1406 205.617 34.0938V42H203.773V40.375H203.68C203.555 40.6354 203.346 40.9141 203.055 41.2109C202.763 41.5078 202.375 41.7604 201.891 41.9687C201.406 42.1771 200.815 42.2813 200.117 42.2813ZM200.398 40.625C201.128 40.625 201.742 40.4818 202.242 40.1953C202.747 39.9089 203.128 39.5391 203.383 39.0859C203.643 38.6328 203.773 38.1562 203.773 37.6562V35.9687C203.695 36.0625 203.523 36.1484 203.258 36.2266C202.997 36.2995 202.695 36.3646 202.352 36.4219C202.013 36.474 201.682 36.5208 201.359 36.5625C201.042 36.599 200.784 36.6302 200.586 36.6562C200.107 36.7187 199.659 36.8203 199.242 36.9609C198.831 37.0964 198.497 37.3021 198.242 37.5781C197.992 37.849 197.867 38.2187 197.867 38.6875C197.867 39.3281 198.104 39.8125 198.578 40.1406C199.057 40.4635 199.664 40.625 200.398 40.625ZM207.92 42V40.2812H208.357C208.717 40.2812 209.016 40.2109 209.256 40.0703C209.495 39.9245 209.688 39.6719 209.834 39.3125C209.985 38.9479 210.1 38.4427 210.178 37.7969C210.261 37.1458 210.321 36.3177 210.357 35.3125L210.576 30H218.576V42H216.732V31.7187H212.326L212.139 36C212.097 36.9844 212.008 37.8516 211.873 38.6016C211.743 39.3464 211.542 39.9714 211.271 40.4766C211.006 40.9818 210.652 41.362 210.209 41.6172C209.766 41.8724 209.212 42 208.545 42H207.92ZM223.553 34.3437H226.99C228.396 34.3437 229.472 34.7005 230.217 35.4141C230.962 36.1276 231.334 37.0312 231.334 38.125C231.334 38.8437 231.167 39.4974 230.834 40.0859C230.501 40.6693 230.011 41.1354 229.365 41.4844C228.719 41.8281 227.928 42 226.99 42H221.959V30H223.803V40.2812H226.99C227.719 40.2812 228.318 40.0885 228.787 39.7031C229.256 39.3177 229.49 38.8229 229.49 38.2188C229.49 37.5833 229.256 37.0651 228.787 36.6641C228.318 36.263 227.719 36.0625 226.99 36.0625H223.553V34.3437ZM242.172 35.1562V36.875H235.547V35.1562H242.172ZM235.984 30V42H234.141V30H235.984ZM243.578 30V42H241.734V30H243.578ZM251.82 42.25C250.737 42.25 249.786 41.9922 248.969 41.4766C248.156 40.9609 247.521 40.2396 247.062 39.3125C246.609 38.3854 246.383 37.3021 246.383 36.0625C246.383 34.8125 246.609 33.7214 247.062 32.7891C247.521 31.8568 248.156 31.1328 248.969 30.6172C249.786 30.1016 250.737 29.8438 251.82 29.8438C252.904 29.8438 253.852 30.1016 254.664 30.6172C255.482 31.1328 256.117 31.8568 256.57 32.7891C257.029 33.7214 257.258 34.8125 257.258 36.0625C257.258 37.3021 257.029 38.3854 256.57 39.3125C256.117 40.2396 255.482 40.9609 254.664 41.4766C253.852 41.9922 252.904 42.25 251.82 42.25ZM251.82 40.5938C252.643 40.5938 253.32 40.3828 253.852 39.9609C254.383 39.5391 254.776 38.9844 255.031 38.2969C255.286 37.6094 255.414 36.8646 255.414 36.0625C255.414 35.2604 255.286 34.513 255.031 33.8203C254.776 33.1276 254.383 32.5677 253.852 32.1406C253.32 31.7135 252.643 31.5 251.82 31.5C250.997 31.5 250.32 31.7135 249.789 32.1406C249.258 32.5677 248.865 33.1276 248.609 33.8203C248.354 34.513 248.227 35.2604 248.227 36.0625C248.227 36.8646 248.354 37.6094 248.609 38.2969C248.865 38.9844 249.258 39.5391 249.789 39.9609C250.32 40.3828 250.997 40.5938 251.82 40.5938ZM265.104 42.25C263.947 42.25 262.95 41.9948 262.111 41.4844C261.278 40.9688 260.635 40.25 260.182 39.3281C259.734 38.401 259.51 37.3229 259.51 36.0938C259.51 34.8646 259.734 33.7812 260.182 32.8437C260.635 31.901 261.265 31.1667 262.072 30.6406C262.885 30.1094 263.833 29.8438 264.916 29.8438C265.541 29.8438 266.158 29.9479 266.768 30.1562C267.377 30.3646 267.932 30.7031 268.432 31.1719C268.932 31.6354 269.33 32.25 269.627 33.0156C269.924 33.7812 270.072 34.724 270.072 35.8437V36.625H260.822V35.0312H268.197C268.197 34.3542 268.062 33.75 267.791 33.2187C267.525 32.6875 267.145 32.2682 266.65 31.9609C266.161 31.6536 265.583 31.5 264.916 31.5C264.182 31.5 263.546 31.6823 263.01 32.0469C262.479 32.4062 262.07 32.875 261.783 33.4531C261.497 34.0312 261.354 34.651 261.354 35.3125V36.375C261.354 37.2813 261.51 38.0495 261.822 38.6797C262.14 39.3047 262.58 39.7812 263.143 40.1094C263.705 40.4323 264.359 40.5938 265.104 40.5938C265.588 40.5938 266.025 40.526 266.416 40.3906C266.812 40.25 267.153 40.0417 267.439 39.7656C267.726 39.4844 267.947 39.1354 268.104 38.7187L269.885 39.2188C269.697 39.8229 269.382 40.3542 268.939 40.8125C268.497 41.2656 267.95 41.6198 267.299 41.875C266.648 42.125 265.916 42.25 265.104 42.25ZM278.314 38.9375H280.283C280.325 39.4792 280.57 39.8906 281.018 40.1719C281.471 40.4531 282.059 40.5938 282.783 40.5938C283.523 40.5938 284.156 40.4427 284.682 40.1406C285.208 39.8333 285.471 39.3385 285.471 38.6562C285.471 38.2552 285.372 37.9062 285.174 37.6094C284.976 37.3073 284.697 37.0729 284.338 36.9062C283.979 36.7396 283.554 36.6562 283.064 36.6562H281.002V35H283.064C283.799 35 284.34 34.8333 284.689 34.5C285.044 34.1667 285.221 33.75 285.221 33.25C285.221 32.7135 285.031 32.2839 284.65 31.9609C284.27 31.6328 283.731 31.4687 283.033 31.4687C282.33 31.4687 281.744 31.6276 281.275 31.9453C280.807 32.2578 280.559 32.6615 280.533 33.1562H278.596C278.617 32.5104 278.814 31.9401 279.189 31.4453C279.564 30.9453 280.075 30.5547 280.721 30.2734C281.367 29.987 282.106 29.8438 282.939 29.8438C283.783 29.8438 284.515 29.9922 285.135 30.2891C285.76 30.5807 286.242 30.9792 286.58 31.4844C286.924 31.9844 287.096 32.5521 287.096 33.1875C287.096 33.8646 286.906 34.4115 286.525 34.8281C286.145 35.2448 285.669 35.5417 285.096 35.7187V35.8437C285.549 35.875 285.942 36.0208 286.275 36.2812C286.614 36.5365 286.877 36.8724 287.064 37.2891C287.252 37.7005 287.346 38.1562 287.346 38.6562C287.346 39.3854 287.15 40.0208 286.76 40.5625C286.369 41.099 285.833 41.5156 285.15 41.8125C284.468 42.1042 283.689 42.25 282.814 42.25C281.965 42.25 281.205 42.112 280.533 41.8359C279.861 41.5547 279.327 41.1667 278.932 40.6719C278.541 40.1719 278.335 39.5938 278.314 38.9375ZM288.654 45.4375V40.2812H289.654C289.899 40.026 290.11 39.75 290.287 39.4531C290.464 39.1562 290.618 38.8047 290.748 38.3984C290.883 37.987 290.998 37.487 291.092 36.8984C291.186 36.3047 291.269 35.5885 291.342 34.75L291.748 30H299.373V40.2812H301.217V45.4375H299.373V42H290.498V45.4375H288.654ZM291.748 40.2812H297.529V31.7187H293.467L293.154 34.75C293.024 36.0052 292.863 37.1016 292.67 38.0391C292.477 38.9766 292.17 39.724 291.748 40.2812ZM307.195 42.2813C306.435 42.2813 305.745 42.138 305.125 41.8516C304.505 41.5599 304.013 41.1406 303.648 40.5938C303.284 40.0417 303.102 39.375 303.102 38.5937C303.102 37.9062 303.237 37.349 303.508 36.9219C303.779 36.4896 304.141 36.151 304.594 35.9062C305.047 35.6615 305.547 35.4792 306.094 35.3594C306.646 35.2344 307.201 35.1354 307.758 35.0625C308.487 34.9687 309.078 34.8984 309.531 34.8516C309.99 34.7995 310.323 34.7135 310.531 34.5937C310.745 34.474 310.852 34.2656 310.852 33.9687V33.9062C310.852 33.1354 310.641 32.5365 310.219 32.1094C309.802 31.6823 309.169 31.4687 308.32 31.4687C307.44 31.4687 306.75 31.6615 306.25 32.0469C305.75 32.4323 305.398 32.8437 305.195 33.2812L303.445 32.6562C303.758 31.9271 304.174 31.3594 304.695 30.9531C305.221 30.5417 305.794 30.2552 306.414 30.0937C307.039 29.9271 307.654 29.8438 308.258 29.8438C308.643 29.8438 309.086 29.8906 309.586 29.9844C310.091 30.0729 310.578 30.2578 311.047 30.5391C311.521 30.8203 311.914 31.2448 312.227 31.8125C312.539 32.3802 312.695 33.1406 312.695 34.0938V42H310.852V40.375H310.758C310.633 40.6354 310.424 40.9141 310.133 41.2109C309.841 41.5078 309.453 41.7604 308.969 41.9687C308.484 42.1771 307.893 42.2813 307.195 42.2813ZM307.477 40.625C308.206 40.625 308.82 40.4818 309.32 40.1953C309.826 39.9089 310.206 39.5391 310.461 39.0859C310.721 38.6328 310.852 38.1562 310.852 37.6562V35.9687C310.773 36.0625 310.602 36.1484 310.336 36.2266C310.076 36.2995 309.773 36.3646 309.43 36.4219C309.091 36.474 308.76 36.5208 308.438 36.5625C308.12 36.599 307.862 36.6302 307.664 36.6562C307.185 36.7187 306.737 36.8203 306.32 36.9609C305.909 37.0964 305.576 37.3021 305.32 37.5781C305.07 37.849 304.945 38.2187 304.945 38.6875C304.945 39.3281 305.182 39.8125 305.656 40.1406C306.135 40.4635 306.742 40.625 307.477 40.625ZM324.092 35.1562V36.875H317.467V35.1562H324.092ZM317.904 30V42H316.061V30H317.904ZM325.498 30V42H323.654V30H325.498ZM330.709 39.2812L336.49 30H338.615V42H336.771V32.7188L331.021 42H328.865V30H330.709V39.2812ZM347.023 42.25C345.867 42.25 344.87 41.9948 344.031 41.4844C343.198 40.9688 342.555 40.25 342.102 39.3281C341.654 38.401 341.43 37.3229 341.43 36.0938C341.43 34.8646 341.654 33.7812 342.102 32.8437C342.555 31.901 343.185 31.1667 343.992 30.6406C344.805 30.1094 345.753 29.8438 346.836 29.8438C347.461 29.8438 348.078 29.9479 348.688 30.1562C349.297 30.3646 349.852 30.7031 350.352 31.1719C350.852 31.6354 351.25 32.25 351.547 33.0156C351.844 33.7812 351.992 34.724 351.992 35.8437V36.625H342.742V35.0312H350.117C350.117 34.3542 349.982 33.75 349.711 33.2187C349.445 32.6875 349.065 32.2682 348.57 31.9609C348.081 31.6536 347.503 31.5 346.836 31.5C346.102 31.5 345.466 31.6823 344.93 32.0469C344.398 32.4062 343.99 32.875 343.703 33.4531C343.417 34.0312 343.273 34.651 343.273 35.3125V36.375C343.273 37.2813 343.43 38.0495 343.742 38.6797C344.06 39.3047 344.5 39.7812 345.063 40.1094C345.625 40.4323 346.279 40.5938 347.023 40.5938C347.508 40.5938 347.945 40.526 348.336 40.3906C348.732 40.25 349.073 40.0417 349.359 39.7656C349.646 39.4844 349.867 39.1354 350.023 38.7187L351.805 39.2188C351.617 39.8229 351.302 40.3542 350.859 40.8125C350.417 41.2656 349.87 41.6198 349.219 41.875C348.568 42.125 347.836 42.25 347.023 42.25Z" fill="white"/>
</g>
<defs>
<clipPath id="clip0_237_63">
<rect width="500" height="68" fill="white"/>
</clipPath>
</defs>
</svg>
