<svg width="500" height="68" viewBox="0 0 500 68" fill="none" xmlns="http://www.w3.org/2000/svg">
<g clip-path="url(#clip0_234_48)">
<rect width="500" height="68" fill="white"/>
<rect width="500" height="68" fill="#0D26A8"/>
<path d="M86.6875 42V30H91.5937C92.8854 30 93.9115 30.2917 94.6719 30.875C95.4323 31.4583 95.8125 32.2292 95.8125 33.1875C95.8125 33.9167 95.5964 34.4818 95.1641 34.8828C94.7318 35.2786 94.1771 35.5469 93.5 35.6875C93.9427 35.75 94.3724 35.9062 94.7891 36.1562C95.2109 36.4062 95.5599 36.75 95.8359 37.1875C96.112 37.6198 96.25 38.151 96.25 38.7812C96.25 39.3958 96.0938 39.9453 95.7813 40.4297C95.4688 40.9141 95.0208 41.2969 94.4375 41.5781C93.8542 41.8594 93.1563 42 92.3438 42H86.6875ZM88.4375 40.3125H92.3438C92.9792 40.3125 93.4766 40.1615 93.8359 39.8594C94.1953 39.5573 94.375 39.1458 94.375 38.625C94.375 38.0052 94.1953 37.5182 93.8359 37.1641C93.4766 36.8047 92.9792 36.625 92.3438 36.625H88.4375V40.3125ZM88.4375 35.0312H91.5937C92.0885 35.0312 92.513 34.9635 92.8672 34.8281C93.2214 34.6875 93.4922 34.4896 93.6797 34.2344C93.8724 33.974 93.9688 33.6667 93.9688 33.3125C93.9688 32.8073 93.7578 32.4115 93.3359 32.125C92.9141 31.8333 92.3333 31.6875 91.5937 31.6875H88.4375V35.0312ZM103.916 42.25C102.833 42.25 101.882 41.9922 101.064 41.4766C100.252 40.9609 99.6165 40.2396 99.1582 39.3125C98.7051 38.3854 98.4785 37.3021 98.4785 36.0625C98.4785 34.8125 98.7051 33.7214 99.1582 32.7891C99.6165 31.8568 100.252 31.1328 101.064 30.6172C101.882 30.1016 102.833 29.8438 103.916 29.8438C104.999 29.8438 105.947 30.1016 106.76 30.6172C107.577 31.1328 108.213 31.8568 108.666 32.7891C109.124 33.7214 109.354 34.8125 109.354 36.0625C109.354 37.3021 109.124 38.3854 108.666 39.3125C108.213 40.2396 107.577 40.9609 106.76 41.4766C105.947 41.9922 104.999 42.25 103.916 42.25ZM103.916 40.5938C104.739 40.5938 105.416 40.3828 105.947 39.9609C106.479 39.5391 106.872 38.9844 107.127 38.2969C107.382 37.6094 107.51 36.8646 107.51 36.0625C107.51 35.2604 107.382 34.513 107.127 33.8203C106.872 33.1276 106.479 32.5677 105.947 32.1406C105.416 31.7135 104.739 31.5 103.916 31.5C103.093 31.5 102.416 31.7135 101.885 32.1406C101.354 32.5677 100.96 33.1276 100.705 33.8203C100.45 34.513 100.322 35.2604 100.322 36.0625C100.322 36.8646 100.45 37.6094 100.705 38.2969C100.96 38.9844 101.354 39.5391 101.885 39.9609C102.416 40.3828 103.093 40.5938 103.916 40.5938ZM111.418 38.9375H113.387C113.428 39.4792 113.673 39.8906 114.121 40.1719C114.574 40.4531 115.163 40.5938 115.887 40.5938C116.626 40.5938 117.259 40.4427 117.785 40.1406C118.311 39.8333 118.574 39.3385 118.574 38.6562C118.574 38.2552 118.475 37.9062 118.277 37.6094C118.079 37.3073 117.801 37.0729 117.441 36.9062C117.082 36.7396 116.658 36.6562 116.168 36.6562H114.105V35H116.168C116.902 35 117.444 34.8333 117.793 34.5C118.147 34.1667 118.324 33.75 118.324 33.25C118.324 32.7135 118.134 32.2839 117.754 31.9609C117.374 31.6328 116.835 31.4687 116.137 31.4687C115.434 31.4687 114.848 31.6276 114.379 31.9453C113.91 32.2578 113.663 32.6615 113.637 33.1562H111.699C111.72 32.5104 111.918 31.9401 112.293 31.4453C112.668 30.9453 113.178 30.5547 113.824 30.2734C114.47 29.987 115.21 29.8438 116.043 29.8438C116.887 29.8438 117.618 29.9922 118.238 30.2891C118.863 30.5807 119.345 30.9792 119.684 31.4844C120.027 31.9844 120.199 32.5521 120.199 33.1875C120.199 33.8646 120.009 34.4115 119.629 34.8281C119.249 35.2448 118.772 35.5417 118.199 35.7187V35.8437C118.652 35.875 119.046 36.0208 119.379 36.2812C119.717 36.5365 119.98 36.8724 120.168 37.2891C120.355 37.7005 120.449 38.1562 120.449 38.6562C120.449 39.3854 120.254 40.0208 119.863 40.5625C119.473 41.099 118.936 41.5156 118.254 41.8125C117.572 42.1042 116.793 42.25 115.918 42.25C115.069 42.25 114.309 42.112 113.637 41.8359C112.965 41.5547 112.431 41.1667 112.035 40.6719C111.645 40.1719 111.439 39.5938 111.418 38.9375ZM129.602 39.5L133.789 30H135.539L130.352 42H128.852L123.758 30H125.477L129.602 39.5ZM124.883 30V42H123.039V30H124.883ZM134.32 42V30H136.164V42H134.32ZM144.414 42.25C143.331 42.25 142.38 41.9922 141.563 41.4766C140.75 40.9609 140.115 40.2396 139.656 39.3125C139.203 38.3854 138.977 37.3021 138.977 36.0625C138.977 34.8125 139.203 33.7214 139.656 32.7891C140.115 31.8568 140.75 31.1328 141.563 30.6172C142.38 30.1016 143.331 29.8438 144.414 29.8438C145.497 29.8438 146.445 30.1016 147.258 30.6172C148.076 31.1328 148.711 31.8568 149.164 32.7891C149.622 33.7214 149.852 34.8125 149.852 36.0625C149.852 37.3021 149.622 38.3854 149.164 39.3125C148.711 40.2396 148.076 40.9609 147.258 41.4766C146.445 41.9922 145.497 42.25 144.414 42.25ZM144.414 40.5938C145.237 40.5938 145.914 40.3828 146.445 39.9609C146.977 39.5391 147.37 38.9844 147.625 38.2969C147.88 37.6094 148.008 36.8646 148.008 36.0625C148.008 35.2604 147.88 34.513 147.625 33.8203C147.37 33.1276 146.977 32.5677 146.445 32.1406C145.914 31.7135 145.237 31.5 144.414 31.5C143.591 31.5 142.914 31.7135 142.383 32.1406C141.852 32.5677 141.458 33.1276 141.203 33.8203C140.948 34.513 140.82 35.2604 140.82 36.0625C140.82 36.8646 140.948 37.6094 141.203 38.2969C141.458 38.9844 141.852 39.5391 142.383 39.9609C142.914 40.3828 143.591 40.5938 144.414 40.5938ZM151.422 42L156.297 35.9062L151.484 30H153.672L157.672 35.125H158.672V30H160.516V35.125H161.484L165.484 30H167.672L162.891 35.9062L167.734 42H165.516L161.453 36.8438H160.516V42H158.672V36.8438H157.734L153.641 42H151.422ZM178.4 35.1562V36.875H171.775V35.1562H178.4ZM172.213 30V42H170.369V30H172.213ZM179.807 30V42H177.963V30H179.807ZM188.049 42.25C186.965 42.25 186.015 41.9922 185.197 41.4766C184.385 40.9609 183.749 40.2396 183.291 39.3125C182.838 38.3854 182.611 37.3021 182.611 36.0625C182.611 34.8125 182.838 33.7214 183.291 32.7891C183.749 31.8568 184.385 31.1328 185.197 30.6172C186.015 30.1016 186.965 29.8438 188.049 29.8438C189.132 29.8438 190.08 30.1016 190.893 30.6172C191.71 31.1328 192.346 31.8568 192.799 32.7891C193.257 33.7214 193.486 34.8125 193.486 36.0625C193.486 37.3021 193.257 38.3854 192.799 39.3125C192.346 40.2396 191.71 40.9609 190.893 41.4766C190.08 41.9922 189.132 42.25 188.049 42.25ZM188.049 40.5938C188.872 40.5938 189.549 40.3828 190.08 39.9609C190.611 39.5391 191.005 38.9844 191.26 38.2969C191.515 37.6094 191.643 36.8646 191.643 36.0625C191.643 35.2604 191.515 34.513 191.26 33.8203C191.005 33.1276 190.611 32.5677 190.08 32.1406C189.549 31.7135 188.872 31.5 188.049 31.5C187.226 31.5 186.549 31.7135 186.018 32.1406C185.486 32.5677 185.093 33.1276 184.838 33.8203C184.583 34.513 184.455 35.2604 184.455 36.0625C184.455 36.8646 184.583 37.6094 184.838 38.2969C185.093 38.9844 185.486 39.5391 186.018 39.9609C186.549 40.3828 187.226 40.5938 188.049 40.5938ZM201.176 42.25C200.051 42.25 199.082 41.9844 198.27 41.4531C197.457 40.9219 196.832 40.1901 196.395 39.2578C195.957 38.3255 195.738 37.2604 195.738 36.0625C195.738 34.8437 195.962 33.7682 196.41 32.8359C196.863 31.8984 197.493 31.1667 198.301 30.6406C199.113 30.1094 200.061 29.8438 201.145 29.8438C201.988 29.8438 202.749 30 203.426 30.3125C204.103 30.625 204.658 31.0625 205.09 31.625C205.522 32.1875 205.79 32.8437 205.895 33.5937H204.051C203.91 33.0469 203.598 32.5625 203.113 32.1406C202.634 31.7135 201.988 31.5 201.176 31.5C200.457 31.5 199.827 31.6875 199.285 32.0625C198.749 32.4323 198.329 32.9557 198.027 33.6328C197.73 34.3047 197.582 35.0937 197.582 36C197.582 36.9271 197.728 37.7344 198.02 38.4219C198.316 39.1094 198.733 39.6432 199.27 40.0234C199.811 40.4036 200.447 40.5938 201.176 40.5938C201.655 40.5938 202.09 40.5104 202.48 40.3437C202.871 40.1771 203.202 39.9375 203.473 39.625C203.743 39.3125 203.936 38.9375 204.051 38.5H205.895C205.79 39.2083 205.533 39.8464 205.121 40.4141C204.715 40.9766 204.176 41.4245 203.504 41.7578C202.837 42.0859 202.061 42.25 201.176 42.25ZM207.645 31.7187V30H217.395V31.7187H213.457V42H211.613V31.7187H207.645ZM221.678 34.3437H225.115C226.521 34.3437 227.597 34.7005 228.342 35.4141C229.087 36.1276 229.459 37.0312 229.459 38.125C229.459 38.8437 229.292 39.4974 228.959 40.0859C228.626 40.6693 228.136 41.1354 227.49 41.4844C226.844 41.8281 226.053 42 225.115 42H220.084V30H221.928V40.2812H225.115C225.844 40.2812 226.443 40.0885 226.912 39.7031C227.381 39.3177 227.615 38.8229 227.615 38.2188C227.615 37.5833 227.381 37.0651 226.912 36.6641C226.443 36.263 225.844 36.0625 225.115 36.0625H221.678V34.3437ZM238.453 42V30H243.359C244.651 30 245.677 30.2917 246.438 30.875C247.198 31.4583 247.578 32.2292 247.578 33.1875C247.578 33.9167 247.362 34.4818 246.93 34.8828C246.497 35.2786 245.943 35.5469 245.266 35.6875C245.708 35.75 246.138 35.9062 246.555 36.1562C246.977 36.4062 247.326 36.75 247.602 37.1875C247.878 37.6198 248.016 38.151 248.016 38.7812C248.016 39.3958 247.859 39.9453 247.547 40.4297C247.234 40.9141 246.786 41.2969 246.203 41.5781C245.62 41.8594 244.922 42 244.109 42H238.453ZM240.203 40.3125H244.109C244.745 40.3125 245.242 40.1615 245.602 39.8594C245.961 39.5573 246.141 39.1458 246.141 38.625C246.141 38.0052 245.961 37.5182 245.602 37.1641C245.242 36.8047 244.745 36.625 244.109 36.625H240.203V40.3125ZM240.203 35.0312H243.359C243.854 35.0312 244.279 34.9635 244.633 34.8281C244.987 34.6875 245.258 34.4896 245.445 34.2344C245.638 33.974 245.734 33.6667 245.734 33.3125C245.734 32.8073 245.523 32.4115 245.102 32.125C244.68 31.8333 244.099 31.6875 243.359 31.6875H240.203V35.0312ZM252.4 34.3437H255.838C257.244 34.3437 258.32 34.7005 259.064 35.4141C259.809 36.1276 260.182 37.0312 260.182 38.125C260.182 38.8437 260.015 39.4974 259.682 40.0859C259.348 40.6693 258.859 41.1354 258.213 41.4844C257.567 41.8281 256.775 42 255.838 42H250.807V30H252.65V40.2812H255.838C256.567 40.2812 257.166 40.0885 257.635 39.7031C258.104 39.3177 258.338 38.8229 258.338 38.2188C258.338 37.5833 258.104 37.0651 257.635 36.6641C257.166 36.263 256.567 36.0625 255.838 36.0625H252.4V34.3437ZM262.088 42V30H263.932V42H262.088ZM267.307 42V30H276.744V42H274.9V31.7187H269.15V42H267.307ZM281.955 39.2812L287.736 30H289.861V42H288.018V32.7188L282.268 42H280.111V30H281.955V39.2812ZM291.605 31.7187V30H301.355V31.7187H297.418V42H295.574V31.7187H291.605ZM305.639 34.3437H309.076C310.482 34.3437 311.558 34.7005 312.303 35.4141C313.048 36.1276 313.42 37.0312 313.42 38.125C313.42 38.8437 313.253 39.4974 312.92 40.0859C312.587 40.6693 312.097 41.1354 311.451 41.4844C310.805 41.8281 310.014 42 309.076 42H304.045V30H305.889V40.2812H309.076C309.805 40.2812 310.404 40.0885 310.873 39.7031C311.342 39.3177 311.576 38.8229 311.576 38.2188C311.576 37.5833 311.342 37.0651 310.873 36.6641C310.404 36.263 309.805 36.0625 309.076 36.0625H305.639V34.3437ZM322.414 42V30H324.258V35.2187H325.477L329.789 30H332.164L327.32 35.7812L332.227 42H329.852L325.914 36.9375H324.258V42H322.414ZM338.611 42.25C337.528 42.25 336.577 41.9922 335.76 41.4766C334.947 40.9609 334.312 40.2396 333.854 39.3125C333.4 38.3854 333.174 37.3021 333.174 36.0625C333.174 34.8125 333.4 33.7214 333.854 32.7891C334.312 31.8568 334.947 31.1328 335.76 30.6172C336.577 30.1016 337.528 29.8438 338.611 29.8438C339.695 29.8438 340.643 30.1016 341.455 30.6172C342.273 31.1328 342.908 31.8568 343.361 32.7891C343.82 33.7214 344.049 34.8125 344.049 36.0625C344.049 37.3021 343.82 38.3854 343.361 39.3125C342.908 40.2396 342.273 40.9609 341.455 41.4766C340.643 41.9922 339.695 42.25 338.611 42.25ZM338.611 40.5938C339.434 40.5938 340.111 40.3828 340.643 39.9609C341.174 39.5391 341.567 38.9844 341.822 38.2969C342.077 37.6094 342.205 36.8646 342.205 36.0625C342.205 35.2604 342.077 34.513 341.822 33.8203C341.567 33.1276 341.174 32.5677 340.643 32.1406C340.111 31.7135 339.434 31.5 338.611 31.5C337.788 31.5 337.111 31.7135 336.58 32.1406C336.049 32.5677 335.656 33.1276 335.4 33.8203C335.145 34.513 335.018 35.2604 335.018 36.0625C335.018 36.8646 335.145 37.6094 335.4 38.2969C335.656 38.9844 336.049 39.5391 336.58 39.9609C337.111 40.3828 337.788 40.5938 338.611 40.5938ZM351.738 46.0938V26H353.582V46.0938H351.738ZM351.738 42.25C350.926 42.25 350.186 42.1042 349.52 41.8125C348.853 41.5156 348.28 41.0964 347.801 40.5547C347.322 40.0078 346.952 39.3542 346.691 38.5937C346.431 37.8333 346.301 36.9896 346.301 36.0625C346.301 35.125 346.431 34.276 346.691 33.5156C346.952 32.75 347.322 32.0937 347.801 31.5469C348.28 31 348.853 30.5807 349.52 30.2891C350.186 29.9922 350.926 29.8438 351.738 29.8438H352.301V42.25H351.738ZM351.738 40.5938H352.051V31.5H351.738C351.124 31.5 350.59 31.625 350.137 31.875C349.684 32.1198 349.309 32.4557 349.012 32.8828C348.72 33.3047 348.501 33.7891 348.355 34.3359C348.215 34.8828 348.145 35.4583 348.145 36.0625C348.145 36.8646 348.272 37.6094 348.527 38.2969C348.783 38.9844 349.176 39.5391 349.707 39.9609C350.238 40.3828 350.915 40.5938 351.738 40.5938ZM353.582 42.25H353.02V29.8438H353.582C354.395 29.8438 355.134 29.9922 355.801 30.2891C356.467 30.5807 357.04 31 357.52 31.5469C357.999 32.0937 358.368 32.75 358.629 33.5156C358.889 34.276 359.02 35.125 359.02 36.0625C359.02 36.9896 358.889 37.8333 358.629 38.5937C358.368 39.3542 357.999 40.0078 357.52 40.5547C357.04 41.0964 356.467 41.5156 355.801 41.8125C355.134 42.1042 354.395 42.25 353.582 42.25ZM353.582 40.5938C354.202 40.5938 354.736 40.474 355.184 40.2344C355.637 39.9896 356.009 39.6562 356.301 39.2344C356.598 38.8073 356.816 38.3229 356.957 37.7812C357.103 37.2344 357.176 36.6615 357.176 36.0625C357.176 35.2604 357.048 34.513 356.793 33.8203C356.538 33.1276 356.145 32.5677 355.613 32.1406C355.082 31.7135 354.405 31.5 353.582 31.5H353.27V40.5938H353.582ZM366.869 42.25C365.713 42.25 364.715 41.9948 363.877 41.4844C363.044 40.9688 362.4 40.25 361.947 39.3281C361.499 38.401 361.275 37.3229 361.275 36.0938C361.275 34.8646 361.499 33.7812 361.947 32.8437C362.4 31.901 363.031 31.1667 363.838 30.6406C364.65 30.1094 365.598 29.8438 366.682 29.8438C367.307 29.8438 367.924 29.9479 368.533 30.1562C369.143 30.3646 369.697 30.7031 370.197 31.1719C370.697 31.6354 371.096 32.25 371.393 33.0156C371.689 33.7812 371.838 34.724 371.838 35.8437V36.625H362.588V35.0312H369.963C369.963 34.3542 369.827 33.75 369.557 33.2187C369.291 32.6875 368.911 32.2682 368.416 31.9609C367.926 31.6536 367.348 31.5 366.682 31.5C365.947 31.5 365.312 31.6823 364.775 32.0469C364.244 32.4062 363.835 32.875 363.549 33.4531C363.262 34.0312 363.119 34.651 363.119 35.3125V36.375C363.119 37.2813 363.275 38.0495 363.588 38.6797C363.906 39.3047 364.346 39.7812 364.908 40.1094C365.471 40.4323 366.124 40.5938 366.869 40.5938C367.354 40.5938 367.791 40.526 368.182 40.3906C368.577 40.25 368.919 40.0417 369.205 39.7656C369.492 39.4844 369.713 39.1354 369.869 38.7187L371.65 39.2188C371.463 39.8229 371.148 40.3542 370.705 40.8125C370.262 41.2656 369.715 41.6198 369.064 41.875C368.413 42.125 367.682 42.25 366.869 42.25ZM380.299 25.25L375.143 44.4062H373.455L378.611 25.25H380.299ZM391.734 30V42H389.891V30H391.734ZM391.016 35.7187V37.4375C390.599 37.5937 390.185 37.7318 389.773 37.8516C389.362 37.9661 388.93 38.0573 388.477 38.125C388.023 38.1875 387.526 38.2188 386.984 38.2188C385.625 38.2188 384.534 37.8516 383.711 37.1172C382.893 36.3828 382.484 35.2812 382.484 33.8125V29.9688H384.328V33.8125C384.328 34.4271 384.445 34.9323 384.68 35.3281C384.914 35.724 385.232 36.0182 385.633 36.2109C386.034 36.4036 386.484 36.5 386.984 36.5C387.766 36.5 388.471 36.4297 389.102 36.2891C389.737 36.1432 390.375 35.9531 391.016 35.7187ZM398.648 42.2813C397.888 42.2813 397.198 42.138 396.578 41.8516C395.958 41.5599 395.466 41.1406 395.102 40.5938C394.737 40.0417 394.555 39.375 394.555 38.5937C394.555 37.9062 394.69 37.349 394.961 36.9219C395.232 36.4896 395.594 36.151 396.047 35.9062C396.5 35.6615 397 35.4792 397.547 35.3594C398.099 35.2344 398.654 35.1354 399.211 35.0625C399.94 34.9687 400.531 34.8984 400.984 34.8516C401.443 34.7995 401.776 34.7135 401.984 34.5937C402.198 34.474 402.305 34.2656 402.305 33.9687V33.9062C402.305 33.1354 402.094 32.5365 401.672 32.1094C401.255 31.6823 400.622 31.4687 399.773 31.4687C398.893 31.4687 398.203 31.6615 397.703 32.0469C397.203 32.4323 396.852 32.8437 396.648 33.2812L394.898 32.6562C395.211 31.9271 395.628 31.3594 396.148 30.9531C396.674 30.5417 397.247 30.2552 397.867 30.0937C398.492 29.9271 399.107 29.8438 399.711 29.8438C400.096 29.8438 400.539 29.8906 401.039 29.9844C401.544 30.0729 402.031 30.2578 402.5 30.5391C402.974 30.8203 403.367 31.2448 403.68 31.8125C403.992 32.3802 404.148 33.1406 404.148 34.0938V42H402.305V40.375H402.211C402.086 40.6354 401.878 40.9141 401.586 41.2109C401.294 41.5078 400.906 41.7604 400.422 41.9687C399.938 42.1771 399.346 42.2813 398.648 42.2813ZM398.93 40.625C399.659 40.625 400.273 40.4818 400.773 40.1953C401.279 39.9089 401.659 39.5391 401.914 39.0859C402.174 38.6328 402.305 38.1562 402.305 37.6562V35.9687C402.227 36.0625 402.055 36.1484 401.789 36.2266C401.529 36.2995 401.227 36.3646 400.883 36.4219C400.544 36.474 400.214 36.5208 399.891 36.5625C399.573 36.599 399.315 36.6302 399.117 36.6562C398.638 36.7187 398.19 36.8203 397.773 36.9609C397.362 37.0964 397.029 37.3021 396.773 37.5781C396.523 37.849 396.398 38.2187 396.398 38.6875C396.398 39.3281 396.635 39.8125 397.109 40.1406C397.589 40.4635 398.195 40.625 398.93 40.625ZM409.357 39.2812L415.139 30H417.264V42H415.42V32.7188L409.67 42H407.514V30H409.357V39.2812ZM413.92 26H415.639C415.639 26.8437 415.347 27.5339 414.764 28.0703C414.18 28.6068 413.389 28.875 412.389 28.875C411.404 28.875 410.62 28.6068 410.037 28.0703C409.459 27.5339 409.17 26.8437 409.17 26H410.889C410.889 26.4062 411.001 26.763 411.225 27.0703C411.454 27.3776 411.842 27.5312 412.389 27.5312C412.936 27.5312 413.326 27.3776 413.561 27.0703C413.8 26.763 413.92 26.4062 413.92 26Z" fill="white"/>
</g>
<defs>
<clipPath id="clip0_234_48">
<rect width="500" height="68" fill="white"/>
</clipPath>
</defs>
</svg>
