<svg width="500" height="68" viewBox="0 0 500 68" fill="none" xmlns="http://www.w3.org/2000/svg">
<g clip-path="url(#clip0_230_29)">
<rect width="500" height="68" fill="white"/>
<rect width="500" height="68" fill="#0D26A8"/>
<path d="M150.875 46.5C150.563 46.5 150.284 46.474 150.039 46.4219C149.794 46.375 149.625 46.3281 149.531 46.2813L150 44.6563C150.448 44.7708 150.844 44.8125 151.188 44.7812C151.531 44.75 151.836 44.5964 152.102 44.3203C152.372 44.0495 152.62 43.6094 152.844 43L153.188 42.0625L148.75 30H150.75L154.063 39.5625H154.188L157.5 30H159.5L154.406 43.75C154.177 44.3698 153.893 44.8828 153.555 45.2891C153.216 45.7005 152.823 46.0052 152.375 46.2031C151.932 46.401 151.432 46.5 150.875 46.5ZM167.684 35.25V36.9687H161.34V35.25H167.684ZM162.902 30V42H161.059V30H162.902ZM171.371 42.25C170.288 42.25 169.337 41.9922 168.52 41.4766C167.707 40.9609 167.072 40.2396 166.613 39.3125C166.16 38.3854 165.934 37.3021 165.934 36.0625C165.934 34.8125 166.16 33.7214 166.613 32.7891C167.072 31.8568 167.707 31.1328 168.52 30.6172C169.337 30.1016 170.288 29.8438 171.371 29.8438C172.454 29.8438 173.402 30.1016 174.215 30.6172C175.033 31.1328 175.668 31.8568 176.121 32.7891C176.579 33.7214 176.809 34.8125 176.809 36.0625C176.809 37.3021 176.579 38.3854 176.121 39.3125C175.668 40.2396 175.033 40.9609 174.215 41.4766C173.402 41.9922 172.454 42.25 171.371 42.25ZM171.371 40.5938C172.194 40.5938 172.871 40.3828 173.402 39.9609C173.934 39.5391 174.327 38.9844 174.582 38.2969C174.837 37.6094 174.965 36.8646 174.965 36.0625C174.965 35.2604 174.837 34.513 174.582 33.8203C174.327 33.1276 173.934 32.5677 173.402 32.1406C172.871 31.7135 172.194 31.5 171.371 31.5C170.548 31.5 169.871 31.7135 169.34 32.1406C168.809 32.5677 168.415 33.1276 168.16 33.8203C167.905 34.513 167.777 35.2604 167.777 36.0625C167.777 36.8646 167.905 37.6094 168.16 38.2969C168.415 38.9844 168.809 39.5391 169.34 39.9609C169.871 40.3828 170.548 40.5938 171.371 40.5938ZM178.24 31.7187V30H187.99V31.7187H184.053V42H182.209V31.7187H178.24ZM198.711 35.1562V36.875H192.086V35.1562H198.711ZM192.523 30V42H190.68V30H192.523ZM200.117 30V42H198.273V30H200.117ZM207.016 42.2813C206.255 42.2813 205.565 42.138 204.945 41.8516C204.326 41.5599 203.833 41.1406 203.469 40.5938C203.104 40.0417 202.922 39.375 202.922 38.5937C202.922 37.9062 203.057 37.349 203.328 36.9219C203.599 36.4896 203.961 36.151 204.414 35.9062C204.867 35.6615 205.367 35.4792 205.914 35.3594C206.466 35.2344 207.021 35.1354 207.578 35.0625C208.307 34.9687 208.898 34.8984 209.352 34.8516C209.81 34.7995 210.143 34.7135 210.352 34.5937C210.565 34.474 210.672 34.2656 210.672 33.9687V33.9062C210.672 33.1354 210.461 32.5365 210.039 32.1094C209.622 31.6823 208.99 31.4687 208.141 31.4687C207.26 31.4687 206.57 31.6615 206.07 32.0469C205.57 32.4323 205.219 32.8437 205.016 33.2812L203.266 32.6562C203.578 31.9271 203.995 31.3594 204.516 30.9531C205.042 30.5417 205.615 30.2552 206.234 30.0937C206.859 29.9271 207.474 29.8438 208.078 29.8438C208.464 29.8438 208.906 29.8906 209.406 29.9844C209.911 30.0729 210.398 30.2578 210.867 30.5391C211.341 30.8203 211.734 31.2448 212.047 31.8125C212.359 32.3802 212.516 33.1406 212.516 34.0938V42H210.672V40.375H210.578C210.453 40.6354 210.245 40.9141 209.953 41.2109C209.661 41.5078 209.273 41.7604 208.789 41.9687C208.305 42.1771 207.714 42.2813 207.016 42.2813ZM207.297 40.625C208.026 40.625 208.641 40.4818 209.141 40.1953C209.646 39.9089 210.026 39.5391 210.281 39.0859C210.542 38.6328 210.672 38.1562 210.672 37.6562V35.9687C210.594 36.0625 210.422 36.1484 210.156 36.2266C209.896 36.2995 209.594 36.3646 209.25 36.4219C208.911 36.474 208.581 36.5208 208.258 36.5625C207.94 36.599 207.682 36.6302 207.484 36.6562C207.005 36.7187 206.557 36.8203 206.141 36.9609C205.729 37.0964 205.396 37.3021 205.141 37.5781C204.891 37.849 204.766 38.2187 204.766 38.6875C204.766 39.3281 205.003 39.8125 205.477 40.1406C205.956 40.4635 206.563 40.625 207.297 40.625ZM223.1 42V31.6875H219.912C219.193 31.6875 218.628 31.8542 218.217 32.1875C217.805 32.5208 217.6 32.9792 217.6 33.5625C217.6 34.1354 217.785 34.5859 218.154 34.9141C218.529 35.2422 219.042 35.4063 219.693 35.4063H223.568V37.125H219.693C218.881 37.125 218.18 36.9818 217.592 36.6953C217.003 36.4089 216.55 36 216.232 35.4688C215.915 34.9323 215.756 34.2969 215.756 33.5625C215.756 32.8229 215.923 32.1875 216.256 31.6562C216.589 31.125 217.066 30.7161 217.686 30.4297C218.311 30.1432 219.053 30 219.912 30H224.85V42H223.1ZM215.1 42L218.506 36.0313H220.506L217.1 42H215.1ZM237.953 42.2813C237.193 42.2813 236.503 42.138 235.883 41.8516C235.263 41.5599 234.771 41.1406 234.406 40.5938C234.042 40.0417 233.859 39.375 233.859 38.5937C233.859 37.9062 233.995 37.349 234.266 36.9219C234.536 36.4896 234.898 36.151 235.352 35.9062C235.805 35.6615 236.305 35.4792 236.852 35.3594C237.404 35.2344 237.958 35.1354 238.516 35.0625C239.245 34.9687 239.836 34.8984 240.289 34.8516C240.747 34.7995 241.081 34.7135 241.289 34.5937C241.503 34.474 241.609 34.2656 241.609 33.9687V33.9062C241.609 33.1354 241.398 32.5365 240.977 32.1094C240.56 31.6823 239.927 31.4687 239.078 31.4687C238.198 31.4687 237.508 31.6615 237.008 32.0469C236.508 32.4323 236.156 32.8437 235.953 33.2812L234.203 32.6562C234.516 31.9271 234.932 31.3594 235.453 30.9531C235.979 30.5417 236.552 30.2552 237.172 30.0937C237.797 29.9271 238.411 29.8438 239.016 29.8438C239.401 29.8438 239.844 29.8906 240.344 29.9844C240.849 30.0729 241.336 30.2578 241.805 30.5391C242.279 30.8203 242.672 31.2448 242.984 31.8125C243.297 32.3802 243.453 33.1406 243.453 34.0938V42H241.609V40.375H241.516C241.391 40.6354 241.182 40.9141 240.891 41.2109C240.599 41.5078 240.211 41.7604 239.727 41.9687C239.242 42.1771 238.651 42.2813 237.953 42.2813ZM238.234 40.625C238.964 40.625 239.578 40.4818 240.078 40.1953C240.583 39.9089 240.964 39.5391 241.219 39.0859C241.479 38.6328 241.609 38.1562 241.609 37.6562V35.9687C241.531 36.0625 241.359 36.1484 241.094 36.2266C240.833 36.2995 240.531 36.3646 240.187 36.4219C239.849 36.474 239.518 36.5208 239.195 36.5625C238.878 36.599 238.62 36.6302 238.422 36.6562C237.943 36.7187 237.495 36.8203 237.078 36.9609C236.667 37.0964 236.333 37.3021 236.078 37.5781C235.828 37.849 235.703 38.2187 235.703 38.6875C235.703 39.3281 235.94 39.8125 236.414 40.1406C236.893 40.4635 237.5 40.625 238.234 40.625ZM245.186 31.7187V30H254.936V31.7187H250.998V42H249.154V31.7187H245.186ZM264.188 39.5L268.375 30H270.125L264.938 42H263.438L258.344 30H260.062L264.188 39.5ZM259.469 30V42H257.625V30H259.469ZM268.906 42V30H270.75V42H268.906ZM279 42.25C277.917 42.25 276.966 41.9922 276.148 41.4766C275.336 40.9609 274.701 40.2396 274.242 39.3125C273.789 38.3854 273.563 37.3021 273.563 36.0625C273.563 34.8125 273.789 33.7214 274.242 32.7891C274.701 31.8568 275.336 31.1328 276.148 30.6172C276.966 30.1016 277.917 29.8438 279 29.8438C280.083 29.8438 281.031 30.1016 281.844 30.6172C282.661 31.1328 283.297 31.8568 283.75 32.7891C284.208 33.7214 284.438 34.8125 284.438 36.0625C284.438 37.3021 284.208 38.3854 283.75 39.3125C283.297 40.2396 282.661 40.9609 281.844 41.4766C281.031 41.9922 280.083 42.25 279 42.25ZM279 40.5938C279.823 40.5938 280.5 40.3828 281.031 39.9609C281.563 39.5391 281.956 38.9844 282.211 38.2969C282.466 37.6094 282.594 36.8646 282.594 36.0625C282.594 35.2604 282.466 34.513 282.211 33.8203C281.956 33.1276 281.563 32.5677 281.031 32.1406C280.5 31.7135 279.823 31.5 279 31.5C278.177 31.5 277.5 31.7135 276.969 32.1406C276.438 32.5677 276.044 33.1276 275.789 33.8203C275.534 34.513 275.406 35.2604 275.406 36.0625C275.406 36.8646 275.534 37.6094 275.789 38.2969C276.044 38.9844 276.438 39.5391 276.969 39.9609C277.5 40.3828 278.177 40.5938 279 40.5938ZM292.127 42.25C291.002 42.25 290.033 41.9844 289.221 41.4531C288.408 40.9219 287.783 40.1901 287.346 39.2578C286.908 38.3255 286.689 37.2604 286.689 36.0625C286.689 34.8437 286.913 33.7682 287.361 32.8359C287.814 31.8984 288.445 31.1667 289.252 30.6406C290.064 30.1094 291.012 29.8438 292.096 29.8438C292.939 29.8438 293.7 30 294.377 30.3125C295.054 30.625 295.609 31.0625 296.041 31.625C296.473 32.1875 296.742 32.8437 296.846 33.5937H295.002C294.861 33.0469 294.549 32.5625 294.064 32.1406C293.585 31.7135 292.939 31.5 292.127 31.5C291.408 31.5 290.778 31.6875 290.236 32.0625C289.7 32.4323 289.281 32.9557 288.979 33.6328C288.682 34.3047 288.533 35.0937 288.533 36C288.533 36.9271 288.679 37.7344 288.971 38.4219C289.268 39.1094 289.684 39.6432 290.221 40.0234C290.762 40.4036 291.398 40.5938 292.127 40.5938C292.606 40.5938 293.041 40.5104 293.432 40.3437C293.822 40.1771 294.153 39.9375 294.424 39.625C294.695 39.3125 294.887 38.9375 295.002 38.5H296.846C296.742 39.2083 296.484 39.8464 296.072 40.4141C295.666 40.9766 295.127 41.4245 294.455 41.7578C293.788 42.0859 293.012 42.25 292.127 42.25ZM304.416 46.0938V26H306.26V46.0938H304.416ZM304.416 42.25C303.604 42.25 302.864 42.1042 302.197 41.8125C301.531 41.5156 300.958 41.0964 300.479 40.5547C299.999 40.0078 299.63 39.3542 299.369 38.5937C299.109 37.8333 298.979 36.9896 298.979 36.0625C298.979 35.125 299.109 34.276 299.369 33.5156C299.63 32.75 299.999 32.0937 300.479 31.5469C300.958 31 301.531 30.5807 302.197 30.2891C302.864 29.9922 303.604 29.8438 304.416 29.8438H304.979V42.25H304.416ZM304.416 40.5938H304.729V31.5H304.416C303.801 31.5 303.268 31.625 302.814 31.875C302.361 32.1198 301.986 32.4557 301.689 32.8828C301.398 33.3047 301.179 33.7891 301.033 34.3359C300.893 34.8828 300.822 35.4583 300.822 36.0625C300.822 36.8646 300.95 37.6094 301.205 38.2969C301.46 38.9844 301.854 39.5391 302.385 39.9609C302.916 40.3828 303.593 40.5938 304.416 40.5938ZM306.26 42.25H305.697V29.8438H306.26C307.072 29.8438 307.812 29.9922 308.479 30.2891C309.145 30.5807 309.718 31 310.197 31.5469C310.676 32.0937 311.046 32.75 311.307 33.5156C311.567 34.276 311.697 35.125 311.697 36.0625C311.697 36.9896 311.567 37.8333 311.307 38.5937C311.046 39.3542 310.676 40.0078 310.197 40.5547C309.718 41.0964 309.145 41.5156 308.479 41.8125C307.812 42.1042 307.072 42.25 306.26 42.25ZM306.26 40.5938C306.88 40.5938 307.413 40.474 307.861 40.2344C308.314 39.9896 308.687 39.6562 308.979 39.2344C309.275 38.8073 309.494 38.3229 309.635 37.7812C309.781 37.2344 309.854 36.6615 309.854 36.0625C309.854 35.2604 309.726 34.513 309.471 33.8203C309.215 33.1276 308.822 32.5677 308.291 32.1406C307.76 31.7135 307.083 31.5 306.26 31.5H305.947V40.5938H306.26ZM319.547 42.25C318.391 42.25 317.393 41.9948 316.555 41.4844C315.721 40.9688 315.078 40.25 314.625 39.3281C314.177 38.401 313.953 37.3229 313.953 36.0938C313.953 34.8646 314.177 33.7812 314.625 32.8437C315.078 31.901 315.708 31.1667 316.516 30.6406C317.328 30.1094 318.276 29.8438 319.359 29.8438C319.984 29.8438 320.602 29.9479 321.211 30.1562C321.82 30.3646 322.375 30.7031 322.875 31.1719C323.375 31.6354 323.773 32.25 324.07 33.0156C324.367 33.7812 324.516 34.724 324.516 35.8437V36.625H315.266V35.0312H322.641C322.641 34.3542 322.505 33.75 322.234 33.2187C321.969 32.6875 321.589 32.2682 321.094 31.9609C320.604 31.6536 320.026 31.5 319.359 31.5C318.625 31.5 317.99 31.6823 317.453 32.0469C316.922 32.4062 316.513 32.875 316.227 33.4531C315.94 34.0312 315.797 34.651 315.797 35.3125V36.375C315.797 37.2813 315.953 38.0495 316.266 38.6797C316.583 39.3047 317.023 39.7812 317.586 40.1094C318.148 40.4323 318.802 40.5938 319.547 40.5938C320.031 40.5938 320.469 40.526 320.859 40.3906C321.255 40.25 321.596 40.0417 321.883 39.7656C322.169 39.4844 322.391 39.1354 322.547 38.7187L324.328 39.2188C324.141 39.8229 323.826 40.3542 323.383 40.8125C322.94 41.2656 322.393 41.6198 321.742 41.875C321.091 42.125 320.359 42.25 319.547 42.25ZM327.32 46.5V30H329.102V31.9062H329.32C329.456 31.6979 329.643 31.4323 329.883 31.1094C330.128 30.7812 330.477 30.4896 330.93 30.2344C331.388 29.974 332.008 29.8438 332.789 29.8438C333.799 29.8438 334.69 30.0964 335.461 30.6016C336.232 31.1068 336.833 31.8229 337.266 32.75C337.698 33.6771 337.914 34.7708 337.914 36.0313C337.914 37.3021 337.698 38.4036 337.266 39.3359C336.833 40.263 336.234 40.9818 335.469 41.4922C334.703 41.9974 333.82 42.25 332.82 42.25C332.049 42.25 331.432 42.1224 330.969 41.8672C330.505 41.6068 330.148 41.3125 329.898 40.9844C329.648 40.651 329.456 40.375 329.32 40.1562H329.164V46.5H327.32ZM329.133 36C329.133 36.9062 329.266 37.7057 329.531 38.3984C329.797 39.0859 330.185 39.625 330.695 40.0156C331.206 40.401 331.831 40.5938 332.57 40.5938C333.341 40.5938 333.984 40.3906 334.5 39.9844C335.021 39.5729 335.411 39.0208 335.672 38.3281C335.938 37.6302 336.07 36.8542 336.07 36C336.07 35.1562 335.94 34.3958 335.68 33.7187C335.424 33.0365 335.036 32.4974 334.516 32.1016C334 31.7005 333.352 31.5 332.57 31.5C331.82 31.5 331.19 31.6901 330.68 32.0703C330.169 32.4453 329.784 32.9714 329.523 33.6484C329.263 34.3203 329.133 35.1042 329.133 36ZM344.258 42.2813C343.497 42.2813 342.807 42.138 342.188 41.8516C341.568 41.5599 341.076 41.1406 340.711 40.5938C340.346 40.0417 340.164 39.375 340.164 38.5937C340.164 37.9062 340.299 37.349 340.57 36.9219C340.841 36.4896 341.203 36.151 341.656 35.9062C342.109 35.6615 342.609 35.4792 343.156 35.3594C343.708 35.2344 344.263 35.1354 344.82 35.0625C345.549 34.9687 346.141 34.8984 346.594 34.8516C347.052 34.7995 347.385 34.7135 347.594 34.5937C347.807 34.474 347.914 34.2656 347.914 33.9687V33.9062C347.914 33.1354 347.703 32.5365 347.281 32.1094C346.865 31.6823 346.232 31.4687 345.383 31.4687C344.503 31.4687 343.813 31.6615 343.313 32.0469C342.813 32.4323 342.461 32.8437 342.258 33.2812L340.508 32.6562C340.82 31.9271 341.237 31.3594 341.758 30.9531C342.284 30.5417 342.857 30.2552 343.477 30.0937C344.102 29.9271 344.716 29.8438 345.32 29.8438C345.706 29.8438 346.148 29.8906 346.648 29.9844C347.154 30.0729 347.641 30.2578 348.109 30.5391C348.583 30.8203 348.977 31.2448 349.289 31.8125C349.602 32.3802 349.758 33.1406 349.758 34.0938V42H347.914V40.375H347.82C347.695 40.6354 347.487 40.9141 347.195 41.2109C346.904 41.5078 346.516 41.7604 346.031 41.9687C345.547 42.1771 344.956 42.2813 344.258 42.2813ZM344.539 40.625C345.268 40.625 345.883 40.4818 346.383 40.1953C346.888 39.9089 347.268 39.5391 347.523 39.0859C347.784 38.6328 347.914 38.1562 347.914 37.6562V35.9687C347.836 36.0625 347.664 36.1484 347.398 36.2266C347.138 36.2995 346.836 36.3646 346.492 36.4219C346.154 36.474 345.823 36.5208 345.5 36.5625C345.182 36.599 344.924 36.6302 344.727 36.6562C344.247 36.7187 343.799 36.8203 343.383 36.9609C342.971 37.0964 342.638 37.3021 342.383 37.5781C342.133 37.849 342.008 38.2187 342.008 38.6875C342.008 39.3281 342.245 39.8125 342.719 40.1406C343.198 40.4635 343.805 40.625 344.539 40.625Z" fill="white"/>
</g>
<defs>
<clipPath id="clip0_230_29">
<rect width="500" height="68" fill="white"/>
</clipPath>
</defs>
</svg>
