<svg width="500" height="68" viewBox="0 0 500 68" fill="none" xmlns="http://www.w3.org/2000/svg">
<g clip-path="url(#clip0_230_25)">
<rect width="500" height="68" fill="white"/>
<rect width="500" height="68" fill="#0D26A8"/>
<path d="M164.875 46.5C164.563 46.5 164.284 46.474 164.039 46.4219C163.794 46.375 163.625 46.3281 163.531 46.2813L164 44.6563C164.448 44.7708 164.844 44.8125 165.188 44.7812C165.531 44.75 165.836 44.5964 166.102 44.3203C166.372 44.0495 166.62 43.6094 166.844 43L167.188 42.0625L162.75 30H164.75L168.063 39.5625H168.188L171.5 30H173.5L168.406 43.75C168.177 44.3698 167.893 44.8828 167.555 45.2891C167.216 45.7005 166.823 46.0052 166.375 46.2031C165.932 46.401 165.432 46.5 164.875 46.5ZM173.643 45.4375V40.2812H174.643C174.887 40.026 175.098 39.75 175.275 39.4531C175.452 39.1562 175.606 38.8047 175.736 38.3984C175.872 37.987 175.986 37.487 176.08 36.8984C176.174 36.3047 176.257 35.5885 176.33 34.75L176.736 30H184.361V40.2812H186.205V45.4375H184.361V42H175.486V45.4375H173.643ZM176.736 40.2812H182.518V31.7187H178.455L178.143 34.75C178.012 36.0052 177.851 37.1016 177.658 38.0391C177.465 38.9766 177.158 39.724 176.736 40.2812ZM193.527 42.25C192.444 42.25 191.493 41.9922 190.676 41.4766C189.863 40.9609 189.228 40.2396 188.77 39.3125C188.316 38.3854 188.09 37.3021 188.09 36.0625C188.09 34.8125 188.316 33.7214 188.77 32.7891C189.228 31.8568 189.863 31.1328 190.676 30.6172C191.493 30.1016 192.444 29.8438 193.527 29.8438C194.611 29.8438 195.559 30.1016 196.371 30.6172C197.189 31.1328 197.824 31.8568 198.277 32.7891C198.736 33.7214 198.965 34.8125 198.965 36.0625C198.965 37.3021 198.736 38.3854 198.277 39.3125C197.824 40.2396 197.189 40.9609 196.371 41.4766C195.559 41.9922 194.611 42.25 193.527 42.25ZM193.527 40.5938C194.35 40.5938 195.027 40.3828 195.559 39.9609C196.09 39.5391 196.483 38.9844 196.738 38.2969C196.993 37.6094 197.121 36.8646 197.121 36.0625C197.121 35.2604 196.993 34.513 196.738 33.8203C196.483 33.1276 196.09 32.5677 195.559 32.1406C195.027 31.7135 194.35 31.5 193.527 31.5C192.704 31.5 192.027 31.7135 191.496 32.1406C190.965 32.5677 190.572 33.1276 190.316 33.8203C190.061 34.513 189.934 35.2604 189.934 36.0625C189.934 36.8646 190.061 37.6094 190.316 38.2969C190.572 38.9844 190.965 39.5391 191.496 39.9609C192.027 40.3828 192.704 40.5938 193.527 40.5938ZM210.686 25.5L211.623 26.625C211.258 26.9792 210.837 27.2266 210.357 27.3672C209.878 27.5078 209.337 27.5937 208.732 27.625C208.128 27.6562 207.456 27.6875 206.717 27.7187C205.883 27.75 205.193 27.9531 204.646 28.3281C204.1 28.7031 203.678 29.2448 203.381 29.9531C203.084 30.6615 202.894 31.5312 202.811 32.5625H202.967C203.373 31.8125 203.936 31.2604 204.654 30.9062C205.373 30.5521 206.144 30.375 206.967 30.375C207.904 30.375 208.748 30.5937 209.498 31.0312C210.248 31.4687 210.842 32.1172 211.279 32.9766C211.717 33.8359 211.936 34.8958 211.936 36.1562C211.936 37.4115 211.712 38.4948 211.264 39.4062C210.821 40.3177 210.199 41.0208 209.396 41.5156C208.6 42.0052 207.665 42.25 206.592 42.25C205.519 42.25 204.579 41.9974 203.771 41.4922C202.964 40.9818 202.337 40.2266 201.889 39.2266C201.441 38.2214 201.217 36.9792 201.217 35.5V34.2187C201.217 31.5469 201.67 29.5208 202.576 28.1406C203.488 26.7604 204.857 26.0469 206.686 26C207.331 25.9792 207.907 25.974 208.412 25.9844C208.917 25.9948 209.357 25.9714 209.732 25.9141C210.107 25.8568 210.425 25.7187 210.686 25.5ZM206.592 40.5938C207.316 40.5938 207.938 40.4115 208.459 40.0469C208.985 39.6823 209.389 39.1693 209.67 38.5078C209.951 37.8411 210.092 37.0573 210.092 36.1562C210.092 35.2812 209.949 34.5365 209.662 33.9219C209.381 33.3073 208.977 32.8385 208.451 32.5156C207.925 32.1927 207.295 32.0312 206.561 32.0312C206.024 32.0312 205.542 32.1224 205.115 32.3047C204.688 32.487 204.324 32.7552 204.021 33.1094C203.719 33.4635 203.485 33.8958 203.318 34.4062C203.157 34.9167 203.071 35.5 203.061 36.1562C203.061 37.5 203.376 38.5755 204.006 39.3828C204.636 40.1901 205.498 40.5938 206.592 40.5938ZM222.787 35.1562V36.875H216.162V35.1562H222.787ZM216.6 30V42H214.756V30H216.6ZM224.193 30V42H222.35V30H224.193ZM229.154 34.3437H232.592C233.998 34.3437 235.074 34.7005 235.818 35.4141C236.563 36.1276 236.936 37.0312 236.936 38.125C236.936 38.8437 236.769 39.4974 236.436 40.0859C236.102 40.6693 235.613 41.1354 234.967 41.4844C234.321 41.8281 233.529 42 232.592 42H227.561V30H229.404V40.2812H232.592C233.321 40.2812 233.92 40.0885 234.389 39.7031C234.857 39.3177 235.092 38.8229 235.092 38.2188C235.092 37.5833 234.857 37.0651 234.389 36.6641C233.92 36.263 233.321 36.0625 232.592 36.0625H229.154V34.3437ZM238.842 42V30H240.686V42H238.842ZM249.092 42.25C247.936 42.25 246.938 41.9948 246.1 41.4844C245.266 40.9688 244.623 40.25 244.17 39.3281C243.722 38.401 243.498 37.3229 243.498 36.0938C243.498 34.8646 243.722 33.7812 244.17 32.8437C244.623 31.901 245.253 31.1667 246.061 30.6406C246.873 30.1094 247.821 29.8438 248.904 29.8438C249.529 29.8438 250.146 29.9479 250.756 30.1562C251.365 30.3646 251.92 30.7031 252.42 31.1719C252.92 31.6354 253.318 32.25 253.615 33.0156C253.912 33.7812 254.061 34.724 254.061 35.8437V36.625H244.811V35.0312H252.186C252.186 34.3542 252.05 33.75 251.779 33.2187C251.514 32.6875 251.133 32.2682 250.639 31.9609C250.149 31.6536 249.571 31.5 248.904 31.5C248.17 31.5 247.535 31.6823 246.998 32.0469C246.467 32.4062 246.058 32.875 245.771 33.4531C245.485 34.0312 245.342 34.651 245.342 35.3125V36.375C245.342 37.2813 245.498 38.0495 245.811 38.6797C246.128 39.3047 246.568 39.7812 247.131 40.1094C247.693 40.4323 248.347 40.5938 249.092 40.5938C249.576 40.5938 250.014 40.526 250.404 40.3906C250.8 40.25 251.141 40.0417 251.428 39.7656C251.714 39.4844 251.936 39.1354 252.092 38.7187L253.873 39.2188C253.686 39.8229 253.37 40.3542 252.928 40.8125C252.485 41.2656 251.938 41.6198 251.287 41.875C250.636 42.125 249.904 42.25 249.092 42.25ZM263.053 42V30H264.896V35.2187H266.115L270.428 30H272.803L267.959 35.7812L272.865 42H270.49L266.553 36.9375H264.896V42H263.053ZM274.869 46.5V30H276.65V31.9062H276.869C277.005 31.6979 277.192 31.4323 277.432 31.1094C277.676 30.7812 278.025 30.4896 278.479 30.2344C278.937 29.974 279.557 29.8438 280.338 29.8438C281.348 29.8438 282.239 30.0964 283.01 30.6016C283.781 31.1068 284.382 31.8229 284.814 32.75C285.247 33.6771 285.463 34.7708 285.463 36.0313C285.463 37.3021 285.247 38.4036 284.814 39.3359C284.382 40.263 283.783 40.9818 283.018 41.4922C282.252 41.9974 281.369 42.25 280.369 42.25C279.598 42.25 278.981 42.1224 278.518 41.8672C278.054 41.6068 277.697 41.3125 277.447 40.9844C277.197 40.651 277.005 40.375 276.869 40.1562H276.713V46.5H274.869ZM276.682 36C276.682 36.9062 276.814 37.7057 277.08 38.3984C277.346 39.0859 277.734 39.625 278.244 40.0156C278.755 40.401 279.38 40.5938 280.119 40.5938C280.89 40.5938 281.533 40.3906 282.049 39.9844C282.57 39.5729 282.96 39.0208 283.221 38.3281C283.486 37.6302 283.619 36.8542 283.619 36C283.619 35.1562 283.489 34.3958 283.229 33.7187C282.973 33.0365 282.585 32.4974 282.064 32.1016C281.549 31.7005 280.9 31.5 280.119 31.5C279.369 31.5 278.739 31.6901 278.229 32.0703C277.718 32.4453 277.333 32.9714 277.072 33.6484C276.812 34.3203 276.682 35.1042 276.682 36ZM293.307 42.25C292.15 42.25 291.153 41.9948 290.314 41.4844C289.481 40.9688 288.838 40.25 288.385 39.3281C287.937 38.401 287.713 37.3229 287.713 36.0938C287.713 34.8646 287.937 33.7812 288.385 32.8437C288.838 31.901 289.468 31.1667 290.275 30.6406C291.088 30.1094 292.036 29.8438 293.119 29.8438C293.744 29.8438 294.361 29.9479 294.971 30.1562C295.58 30.3646 296.135 30.7031 296.635 31.1719C297.135 31.6354 297.533 32.25 297.83 33.0156C298.127 33.7812 298.275 34.724 298.275 35.8437V36.625H289.025V35.0312H296.4C296.4 34.3542 296.265 33.75 295.994 33.2187C295.729 32.6875 295.348 32.2682 294.854 31.9609C294.364 31.6536 293.786 31.5 293.119 31.5C292.385 31.5 291.749 31.6823 291.213 32.0469C290.682 32.4062 290.273 32.875 289.986 33.4531C289.7 34.0312 289.557 34.651 289.557 35.3125V36.375C289.557 37.2813 289.713 38.0495 290.025 38.6797C290.343 39.3047 290.783 39.7812 291.346 40.1094C291.908 40.4323 292.562 40.5938 293.307 40.5938C293.791 40.5938 294.229 40.526 294.619 40.3906C295.015 40.25 295.356 40.0417 295.643 39.7656C295.929 39.4844 296.15 39.1354 296.307 38.7187L298.088 39.2188C297.9 39.8229 297.585 40.3542 297.143 40.8125C296.7 41.2656 296.153 41.6198 295.502 41.875C294.851 42.125 294.119 42.25 293.307 42.25ZM305.955 42.25C304.83 42.25 303.861 41.9844 303.049 41.4531C302.236 40.9219 301.611 40.1901 301.174 39.2578C300.736 38.3255 300.518 37.2604 300.518 36.0625C300.518 34.8437 300.742 33.7682 301.189 32.8359C301.643 31.8984 302.273 31.1667 303.08 30.6406C303.893 30.1094 304.84 29.8438 305.924 29.8438C306.768 29.8438 307.528 30 308.205 30.3125C308.882 30.625 309.437 31.0625 309.869 31.625C310.301 32.1875 310.57 32.8437 310.674 33.5937H308.83C308.689 33.0469 308.377 32.5625 307.893 32.1406C307.413 31.7135 306.768 31.5 305.955 31.5C305.236 31.5 304.606 31.6875 304.064 32.0625C303.528 32.4323 303.109 32.9557 302.807 33.6328C302.51 34.3047 302.361 35.0937 302.361 36C302.361 36.9271 302.507 37.7344 302.799 38.4219C303.096 39.1094 303.512 39.6432 304.049 40.0234C304.59 40.4036 305.226 40.5938 305.955 40.5938C306.434 40.5938 306.869 40.5104 307.26 40.3437C307.65 40.1771 307.981 39.9375 308.252 39.625C308.523 39.3125 308.715 38.9375 308.83 38.5H310.674C310.57 39.2083 310.312 39.8464 309.9 40.4141C309.494 40.9766 308.955 41.4245 308.283 41.7578C307.617 42.0859 306.84 42.25 305.955 42.25ZM312.307 42V40.2812H312.744C313.104 40.2812 313.403 40.2109 313.643 40.0703C313.882 39.9245 314.075 39.6719 314.221 39.3125C314.372 38.9479 314.486 38.4427 314.564 37.7969C314.648 37.1458 314.708 36.3177 314.744 35.3125L314.963 30H322.963V42H321.119V31.7187H316.713L316.525 36C316.484 36.9844 316.395 37.8516 316.26 38.6016C316.13 39.3464 315.929 39.9714 315.658 40.4766C315.393 40.9818 315.038 41.362 314.596 41.6172C314.153 41.8724 313.598 42 312.932 42H312.307ZM329.877 42.2813C329.117 42.2813 328.426 42.138 327.807 41.8516C327.187 41.5599 326.695 41.1406 326.33 40.5938C325.965 40.0417 325.783 39.375 325.783 38.5937C325.783 37.9062 325.919 37.349 326.189 36.9219C326.46 36.4896 326.822 36.151 327.275 35.9062C327.729 35.6615 328.229 35.4792 328.775 35.3594C329.327 35.2344 329.882 35.1354 330.439 35.0625C331.169 34.9687 331.76 34.8984 332.213 34.8516C332.671 34.7995 333.005 34.7135 333.213 34.5937C333.426 34.474 333.533 34.2656 333.533 33.9687V33.9062C333.533 33.1354 333.322 32.5365 332.9 32.1094C332.484 31.6823 331.851 31.4687 331.002 31.4687C330.122 31.4687 329.432 31.6615 328.932 32.0469C328.432 32.4323 328.08 32.8437 327.877 33.2812L326.127 32.6562C326.439 31.9271 326.856 31.3594 327.377 30.9531C327.903 30.5417 328.476 30.2552 329.096 30.0937C329.721 29.9271 330.335 29.8438 330.939 29.8438C331.325 29.8438 331.768 29.8906 332.268 29.9844C332.773 30.0729 333.26 30.2578 333.729 30.5391C334.202 30.8203 334.596 31.2448 334.908 31.8125C335.221 32.3802 335.377 33.1406 335.377 34.0938V42H333.533V40.375H333.439C333.314 40.6354 333.106 40.9141 332.814 41.2109C332.523 41.5078 332.135 41.7604 331.65 41.9687C331.166 42.1771 330.575 42.2813 329.877 42.2813ZM330.158 40.625C330.887 40.625 331.502 40.4818 332.002 40.1953C332.507 39.9089 332.887 39.5391 333.143 39.0859C333.403 38.6328 333.533 38.1562 333.533 37.6562V35.9687C333.455 36.0625 333.283 36.1484 333.018 36.2266C332.757 36.2995 332.455 36.3646 332.111 36.4219C331.773 36.474 331.442 36.5208 331.119 36.5625C330.801 36.599 330.544 36.6302 330.346 36.6562C329.867 36.7187 329.419 36.8203 329.002 36.9609C328.59 37.0964 328.257 37.3021 328.002 37.5781C327.752 37.849 327.627 38.2187 327.627 38.6875C327.627 39.3281 327.864 39.8125 328.338 40.1406C328.817 40.4635 329.424 40.625 330.158 40.625Z" fill="white"/>
</g>
<defs>
<clipPath id="clip0_230_25">
<rect width="500" height="68" fill="white"/>
</clipPath>
</defs>
</svg>
