<svg width="205" height="54" viewBox="0 0 205 54" fill="none" xmlns="http://www.w3.org/2000/svg">
<rect x="3" y="4" width="197" height="45" rx="22.5" fill="#0D26A8"/>
<path d="M18.4339 22.4164H20.3384V27.0319H26.2086V22.4164H28.1131V34H26.2086V28.6675H20.3384V34H18.4339V22.4164ZM34.1753 34.2465C33.6525 34.2465 33.1596 34.1867 32.6965 34.0672C32.2335 33.9627 31.8227 33.7834 31.4642 33.5295C31.1207 33.2606 30.8444 32.9245 30.6352 32.5212C30.4411 32.103 30.344 31.6026 30.344 31.0201C30.344 30.3629 30.456 29.8251 30.6801 29.4069C30.9041 28.9887 31.1954 28.6526 31.5539 28.3987C31.9273 28.1298 32.3455 27.9281 32.8086 27.7937C33.2865 27.6593 33.772 27.5473 34.2649 27.4576C34.7877 27.3531 35.2806 27.2784 35.7437 27.2336C36.2216 27.1738 36.6399 27.0991 36.9984 27.0095C37.3569 26.905 37.6407 26.7631 37.8498 26.5838C38.0589 26.3896 38.1634 26.1133 38.1634 25.7548C38.1634 25.3366 38.0813 25.0005 37.917 24.7466C37.7676 24.4927 37.566 24.2985 37.312 24.164C37.0731 24.0296 36.7967 23.94 36.483 23.8952C36.1843 23.8504 35.8856 23.828 35.5868 23.828C34.7802 23.828 34.1081 23.9848 33.5703 24.2985C33.0326 24.5972 32.7413 25.1723 32.6965 26.0237H30.7921C30.822 25.3067 30.9713 24.7018 31.2402 24.2089C31.5091 23.7159 31.8675 23.3201 32.3156 23.0214C32.7638 22.7077 33.2716 22.4836 33.8392 22.3492C34.4217 22.2148 35.0416 22.1476 35.6989 22.1476C36.2216 22.1476 36.737 22.1849 37.2448 22.2596C37.7676 22.3343 38.2381 22.4911 38.6564 22.7301C39.0746 22.9542 39.4107 23.2753 39.6646 23.6935C39.9185 24.1118 40.0455 24.657 40.0455 25.3291V31.289C40.0455 31.7371 40.0679 32.0657 40.1127 32.2748C40.1725 32.4839 40.3517 32.5885 40.6504 32.5885C40.7849 32.5885 40.9791 32.5511 41.233 32.4764V33.9552C40.9044 34.1494 40.4488 34.2465 39.8663 34.2465C39.3733 34.2465 38.9775 34.112 38.6788 33.8432C38.395 33.5594 38.2531 33.1038 38.2531 32.4764C37.7303 33.1038 37.1179 33.5594 36.4158 33.8432C35.7287 34.112 34.9819 34.2465 34.1753 34.2465ZM34.601 32.5885C35.2283 32.5885 35.7661 32.5063 36.2142 32.342C36.6623 32.1628 37.0282 31.9462 37.312 31.6922C37.5958 31.4234 37.805 31.1396 37.9394 30.8408C38.0738 30.5272 38.141 30.2359 38.141 29.967V28.0178C37.9021 28.2119 37.5884 28.3464 37.2 28.4211C36.8117 28.4957 36.4009 28.563 35.9677 28.6227C35.5495 28.6825 35.1238 28.7422 34.6906 28.802C34.2574 28.8617 33.8691 28.9663 33.5255 29.1156C33.182 29.265 32.8982 29.4816 32.6741 29.7654C32.465 30.0342 32.3605 30.4077 32.3605 30.8857C32.3605 31.1993 32.4202 31.4682 32.5397 31.6922C32.6741 31.9014 32.8384 32.0731 33.0326 32.2076C33.2417 32.342 33.4807 32.4391 33.7496 32.4988C34.0185 32.5586 34.3023 32.5885 34.601 32.5885ZM47.1729 27.7937L42.2213 22.4164H44.5738L49.391 27.7937V22.4164H51.2954V27.7937L56.1126 22.4164H58.4652L53.4912 27.7937L59.1149 34H56.7624L51.9452 28.8244L51.2954 29.4069V34H49.391V29.4069L48.6516 28.7347L43.9241 34H41.5715L47.1729 27.7937ZM60.5534 22.4164H63.2869L66.8045 31.8043H66.8493L70.367 22.4164H73.1004V34H71.196V24.8138L67.7007 34H65.9531L62.4579 24.8138V34H60.5534V22.4164ZM75.979 22.4164H77.8834V31.8715L83.3504 22.4164H85.7925V34H83.8881V24.5449L78.4212 34H75.979V22.4164ZM94.9054 22.4164H96.8099V27.0319H102.68V22.4164H104.585V34H102.68V28.6675H96.8099V34H94.9054V22.4164ZM110.647 34.2465C110.124 34.2465 109.631 34.1867 109.168 34.0672C108.705 33.9627 108.294 33.7834 107.936 33.5295C107.592 33.2606 107.316 32.9245 107.107 32.5212C106.913 32.103 106.815 31.6026 106.815 31.0201C106.815 30.3629 106.927 29.8251 107.152 29.4069C107.376 28.9887 107.667 28.6526 108.025 28.3987C108.399 28.1298 108.817 27.9281 109.28 27.7937C109.758 27.6593 110.243 27.5473 110.736 27.4576C111.259 27.3531 111.752 27.2784 112.215 27.2336C112.693 27.1738 113.111 27.0991 113.47 27.0095C113.828 26.905 114.112 26.7631 114.321 26.5838C114.53 26.3896 114.635 26.1133 114.635 25.7548C114.635 25.3366 114.553 25.0005 114.388 24.7466C114.239 24.4927 114.037 24.2985 113.783 24.164C113.545 24.0296 113.268 23.94 112.954 23.8952C112.656 23.8504 112.357 23.828 112.058 23.828C111.252 23.828 110.58 23.9848 110.042 24.2985C109.504 24.5972 109.213 25.1723 109.168 26.0237H107.264C107.293 25.3067 107.443 24.7018 107.712 24.2089C107.98 23.7159 108.339 23.3201 108.787 23.0214C109.235 22.7077 109.743 22.4836 110.311 22.3492C110.893 22.2148 111.513 22.1476 112.17 22.1476C112.693 22.1476 113.208 22.1849 113.716 22.2596C114.239 22.3343 114.71 22.4911 115.128 22.7301C115.546 22.9542 115.882 23.2753 116.136 23.6935C116.39 24.1118 116.517 24.657 116.517 25.3291V31.289C116.517 31.7371 116.539 32.0657 116.584 32.2748C116.644 32.4839 116.823 32.5885 117.122 32.5885C117.256 32.5885 117.451 32.5511 117.704 32.4764V33.9552C117.376 34.1494 116.92 34.2465 116.338 34.2465C115.845 34.2465 115.449 34.112 115.15 33.8432C114.866 33.5594 114.725 33.1038 114.725 32.4764C114.202 33.1038 113.589 33.5594 112.887 33.8432C112.2 34.112 111.453 34.2465 110.647 34.2465ZM111.072 32.5885C111.7 32.5885 112.238 32.5063 112.686 32.342C113.134 32.1628 113.5 31.9462 113.783 31.6922C114.067 31.4234 114.276 31.1396 114.411 30.8408C114.545 30.5272 114.612 30.2359 114.612 29.967V28.0178C114.373 28.2119 114.06 28.3464 113.671 28.4211C113.283 28.4957 112.872 28.563 112.439 28.6227C112.021 28.6825 111.595 28.7422 111.162 28.802C110.729 28.8617 110.341 28.9663 109.997 29.1156C109.653 29.265 109.37 29.4816 109.146 29.7654C108.936 30.0342 108.832 30.4077 108.832 30.8857C108.832 31.1993 108.892 31.4682 109.011 31.6922C109.146 31.9014 109.31 32.0731 109.504 32.2076C109.713 32.342 109.952 32.4391 110.221 32.4988C110.49 32.5586 110.774 32.5885 111.072 32.5885ZM129.88 34.2465C128.476 34.2465 127.341 33.888 126.475 33.171C125.608 32.4391 125.123 31.4084 125.018 30.0791H126.967C127.281 31.7968 128.267 32.6557 129.925 32.6557C130.956 32.6557 131.785 32.3271 132.412 31.6698C133.054 30.9977 133.413 30.0268 133.487 28.7571H128.648V27.2112H133.465C133.301 26.1208 132.927 25.2694 132.345 24.657C131.777 24.0445 130.971 23.7383 129.925 23.7383C128.446 23.7383 127.498 24.4404 127.08 25.8444H125.108C125.317 24.6346 125.832 23.7159 126.654 23.0886C127.49 22.4612 128.588 22.1476 129.947 22.1476C130.799 22.1476 131.568 22.282 132.255 22.5509C132.942 22.8048 133.525 23.1857 134.003 23.6935C134.481 24.2014 134.847 24.8213 135.101 25.5532C135.369 26.2701 135.504 27.0991 135.504 28.0402C135.504 28.9812 135.377 29.8401 135.123 30.6168C134.884 31.3786 134.518 32.0283 134.025 32.5661C133.547 33.1038 132.957 33.522 132.255 33.8208C131.568 34.1046 130.776 34.2465 129.88 34.2465ZM137.747 22.4164H139.651V27.9506L144.961 22.4164H147.493L142.362 27.4352L148.098 34H145.656L140.816 28.4883L139.651 29.631V34H137.747V22.4164ZM149.608 22.4164H151.512V23.9848H151.557C151.871 23.3425 152.363 22.8795 153.036 22.5957C153.708 22.2969 154.447 22.1476 155.254 22.1476C156.15 22.1476 156.927 22.3119 157.584 22.6405C158.256 22.9691 158.809 23.4172 159.242 23.9848C159.69 24.5375 160.026 25.1798 160.25 25.9117C160.474 26.6436 160.586 27.4203 160.586 28.2418C160.586 29.0783 160.474 29.8625 160.25 30.5944C160.041 31.3114 159.712 31.9462 159.264 32.4988C158.831 33.0366 158.278 33.4623 157.606 33.7759C156.949 34.0896 156.18 34.2465 155.299 34.2465C155 34.2465 154.679 34.2166 154.335 34.1568C153.992 34.0971 153.648 34 153.304 33.8656C152.961 33.7311 152.632 33.5519 152.319 33.3278C152.02 33.0888 151.766 32.7976 151.557 32.454H151.512V38.4139H149.608V22.4164ZM155.097 32.5885C155.739 32.5885 156.284 32.4615 156.732 32.2076C157.181 31.9536 157.539 31.6176 157.808 31.1993C158.077 30.7811 158.271 30.3031 158.39 29.7654C158.51 29.2277 158.57 28.675 158.57 28.1074C158.57 27.5697 158.495 27.0469 158.346 26.539C158.211 26.0162 157.995 25.5532 157.696 25.1499C157.412 24.7466 157.039 24.4254 156.576 24.1864C156.128 23.9475 155.597 23.828 154.985 23.828C154.343 23.828 153.797 23.9549 153.349 24.2089C152.901 24.4628 152.535 24.7989 152.251 25.2171C151.968 25.6204 151.758 26.0834 151.624 26.6062C151.505 27.129 151.445 27.6593 151.445 28.197C151.445 28.7646 151.512 29.3173 151.646 29.855C151.781 30.3778 151.99 30.8408 152.274 31.2441C152.573 31.6474 152.953 31.976 153.416 32.23C153.88 32.469 154.44 32.5885 155.097 32.5885ZM166.026 34.2465C165.503 34.2465 165.01 34.1867 164.547 34.0672C164.084 33.9627 163.673 33.7834 163.315 33.5295C162.971 33.2606 162.695 32.9245 162.486 32.5212C162.291 32.103 162.194 31.6026 162.194 31.0201C162.194 30.3629 162.306 29.8251 162.53 29.4069C162.754 28.9887 163.046 28.6526 163.404 28.3987C163.778 28.1298 164.196 27.9281 164.659 27.7937C165.137 27.6593 165.622 27.5473 166.115 27.4576C166.638 27.3531 167.131 27.2784 167.594 27.2336C168.072 27.1738 168.49 27.0991 168.849 27.0095C169.207 26.905 169.491 26.7631 169.7 26.5838C169.909 26.3896 170.014 26.1133 170.014 25.7548C170.014 25.3366 169.932 25.0005 169.767 24.7466C169.618 24.4927 169.416 24.2985 169.162 24.164C168.923 24.0296 168.647 23.94 168.333 23.8952C168.035 23.8504 167.736 23.828 167.437 23.828C166.631 23.828 165.958 23.9848 165.421 24.2985C164.883 24.5972 164.592 25.1723 164.547 26.0237H162.642C162.672 25.3067 162.822 24.7018 163.091 24.2089C163.359 23.7159 163.718 23.3201 164.166 23.0214C164.614 22.7077 165.122 22.4836 165.69 22.3492C166.272 22.2148 166.892 22.1476 167.549 22.1476C168.072 22.1476 168.587 22.1849 169.095 22.2596C169.618 22.3343 170.088 22.4911 170.507 22.7301C170.925 22.9542 171.261 23.2753 171.515 23.6935C171.769 24.1118 171.896 24.657 171.896 25.3291V31.289C171.896 31.7371 171.918 32.0657 171.963 32.2748C172.023 32.4839 172.202 32.5885 172.501 32.5885C172.635 32.5885 172.829 32.5511 173.083 32.4764V33.9552C172.755 34.1494 172.299 34.2465 171.717 34.2465C171.224 34.2465 170.828 34.112 170.529 33.8432C170.245 33.5594 170.103 33.1038 170.103 32.4764C169.581 33.1038 168.968 33.5594 168.266 33.8432C167.579 34.112 166.832 34.2465 166.026 34.2465ZM166.451 32.5885C167.079 32.5885 167.616 32.5063 168.065 32.342C168.513 32.1628 168.879 31.9462 169.162 31.6922C169.446 31.4234 169.655 31.1396 169.79 30.8408C169.924 30.5272 169.991 30.2359 169.991 29.967V28.0178C169.752 28.2119 169.439 28.3464 169.05 28.4211C168.662 28.4957 168.251 28.563 167.818 28.6227C167.4 28.6825 166.974 28.7422 166.541 28.802C166.108 28.8617 165.719 28.9663 165.376 29.1156C165.032 29.265 164.749 29.4816 164.524 29.7654C164.315 30.0342 164.211 30.4077 164.211 30.8857C164.211 31.1993 164.271 31.4682 164.39 31.6922C164.524 31.9014 164.689 32.0731 164.883 32.2076C165.092 32.342 165.331 32.4391 165.6 32.4988C165.869 32.5586 166.153 32.5885 166.451 32.5885ZM174.856 22.4164H176.76V27.0319H182.63V22.4164H184.535V34H182.63V28.6675H176.76V34H174.856V22.4164Z" fill="white"/>
</svg>
