<svg width="1473" height="1015" viewBox="0 0 1473 1015" fill="none" xmlns="http://www.w3.org/2000/svg">
<g clip-path="url(#clip0_274_3)">
<rect width="1473" height="1015" fill="white"/>
<path d="M109.5 -1V1022" stroke="black"/>
<path d="M606 1V1024" stroke="black"/>
<path d="M1103 1V1024" stroke="black"/>
<path d="M234 -1V1022" stroke="black"/>
<path d="M730.5 1V1024" stroke="black"/>
<path d="M1227.5 1V1024" stroke="black"/>
<path d="M358 -1V1022" stroke="black"/>
<path d="M854.5 1V1024" stroke="black"/>
<path d="M1351.5 1V1024" stroke="black"/>
<path d="M482 -1V1022" stroke="black"/>
<path d="M978.5 1V1024" stroke="black"/>
<path d="M0 127L1482 124" stroke="black"/>
<path d="M-6 381H1476" stroke="black"/>
<path d="M0 635L1487 633.976" stroke="black"/>
<path d="M-2.5 886.981L1487 886.981" stroke="black"/>
<path d="M0 254H1481.5" stroke="black"/>
<path d="M-6 508H1475" stroke="black"/>
<path d="M0 762L1498 757.89" stroke="black"/>
<path d="M1269.47 165.297V176.797H1256.8L1252.58 188.006H1269.47V199.506H1248.22L1233.51 238.373H1217.5L1203.53 199.506H1183.73V188.006H1199.3L1195.23 176.797H1183.73V165.297H1191.01L1179.65 134H1195.23L1205.71 165.297H1247.05L1258.41 134H1272.82L1261.17 165.297H1269.47ZM1210.37 176.797L1214.3 188.006H1238.9L1242.97 176.797H1210.37ZM1234.82 199.506H1218.08L1226.23 222.942L1234.82 199.506Z" fill="black"/>
<rect x="-6" y="1" width="1481" height="60" fill="white"/>
<path d="M-6 61H1487" stroke="black"/>
<path d="M559.82 798.599H599.934C608.412 798.599 614.736 800.684 618.906 804.854C623.075 809.024 625.16 815.348 625.16 823.825V852.36H612.34V823.825C612.34 819.07 611.358 815.572 609.394 813.332C607.43 811.092 604.276 809.971 599.934 809.971H572.64V878H559.82V798.599ZM586.08 878V824.239H598.9V866.627H626.194C630.537 866.627 633.69 865.507 635.654 863.267C637.619 861.027 638.601 857.529 638.601 852.774V799.426H651.421V852.774C651.421 861.251 649.336 867.575 645.166 871.745C640.996 875.915 634.672 878 626.194 878H586.08Z" fill="#0D26A8"/>
<path d="M1346.56 1006V985.475H1317.16V977.905L1346.56 923.171V902.064H1356.9V923.171L1386.45 977.905V985.475H1356.9V1006H1346.56ZM1328.51 976.013H1346.56V940.203L1328.51 976.013ZM1356.9 976.013H1374.95L1356.9 939.912V976.013Z" fill="#0D26A8"/>
<path d="M134.757 454.576C133.319 461.138 130.308 466.306 125.724 470.081C121.23 473.856 115.882 475.743 109.681 475.743C105.097 475.743 100.962 474.979 97.2772 473.451C93.5921 471.833 90.4463 469.676 87.8398 466.98C85.2333 464.193 83.211 460.913 81.7729 457.138C80.4247 453.363 79.7506 449.273 79.7506 444.869C79.7506 440.375 80.4247 436.241 81.7729 432.466C83.1211 428.691 85.0535 425.455 87.5702 422.759C90.0868 420.062 93.1877 417.95 96.8728 416.422C100.558 414.894 104.692 414.13 109.276 414.13C115.748 414.13 121.32 415.883 125.994 419.388C130.668 422.804 133.544 427.882 134.622 434.623H126.129C125.41 430.848 123.567 427.747 120.601 425.32C117.725 422.804 113.995 421.545 109.411 421.545C106.085 421.545 103.119 422.13 100.513 423.298C97.9963 424.466 95.8841 426.129 94.1764 428.286C92.4686 430.354 91.1654 432.78 90.2666 435.567C89.3678 438.353 88.9184 441.364 88.9184 444.6C88.9184 447.745 89.3678 450.756 90.2666 453.633C91.2553 456.509 92.6484 459.025 94.446 461.182C96.2436 463.34 98.4007 465.092 100.917 466.44C103.524 467.699 106.445 468.328 109.681 468.328C114.265 468.328 117.995 467.07 120.871 464.553C123.747 461.946 125.5 458.621 126.129 454.576H134.757ZM66.4034 444.6C66.4034 450.801 67.4371 456.554 69.5043 461.857C71.6614 467.07 74.5825 471.609 78.2676 475.473C82.0426 479.338 86.4467 482.394 91.48 484.641C96.6031 486.798 102.131 487.877 108.063 487.877C113.905 487.877 119.343 486.798 124.376 484.641C129.409 482.394 133.769 479.338 137.454 475.473C141.229 471.609 144.15 467.07 146.217 461.857C148.374 456.554 149.453 450.801 149.453 444.6C149.453 438.578 148.374 432.96 146.217 427.747C144.15 422.534 141.229 418.04 137.454 414.265C133.769 410.4 129.409 407.389 124.376 405.232C119.343 402.985 113.905 401.862 108.063 401.862C102.131 401.862 96.6031 402.985 91.48 405.232C86.4467 407.389 82.0426 410.4 78.2676 414.265C74.5825 418.04 71.6614 422.534 69.5043 427.747C67.4371 432.96 66.4034 438.578 66.4034 444.6ZM57.2357 444.6C57.2357 437.499 58.5839 430.893 61.2803 424.781C63.9767 418.669 67.6168 413.366 72.2007 408.872C76.8745 404.378 82.2673 400.873 88.3791 398.356C94.5808 395.75 101.142 394.447 108.063 394.447C114.984 394.447 121.5 395.75 127.612 398.356C133.724 400.873 139.071 404.378 143.655 408.872C148.239 413.366 151.879 418.669 154.576 424.781C157.272 430.893 158.62 437.499 158.62 444.6C158.62 451.88 157.272 458.621 154.576 464.823C151.879 470.934 148.239 476.282 143.655 480.866C139.071 485.36 133.724 488.866 127.612 491.382C121.5 493.899 114.984 495.157 108.063 495.157C101.142 495.157 94.5808 493.899 88.3791 491.382C82.2673 488.866 76.8745 485.36 72.2007 480.866C67.6168 476.282 63.9767 470.934 61.2803 464.823C58.5839 458.621 57.2357 451.88 57.2357 444.6Z" fill="black"/>
<path d="M705.977 416.692H693.169V407.254H705.977V396.739H717.436V407.254H745.209V416.692H717.436V435.162H717.706C718.605 433.005 719.863 431.207 721.481 429.769C723.099 428.241 724.896 427.028 726.874 426.129C728.941 425.141 731.053 424.422 733.21 423.972C735.457 423.523 737.614 423.298 739.682 423.298C744.266 423.298 748.085 423.927 751.141 425.186C754.197 426.444 756.669 428.197 758.556 430.444C760.444 432.691 761.747 435.387 762.466 438.533C763.275 441.589 763.68 445.004 763.68 448.779V493H752.22V447.431C752.22 443.117 750.962 439.701 748.445 437.185C745.928 434.668 742.468 433.41 738.064 433.41C734.559 433.41 731.503 433.949 728.896 435.027C726.379 436.106 724.267 437.634 722.56 439.611C720.852 441.589 719.549 443.926 718.65 446.622C717.841 449.228 717.436 452.105 717.436 455.25V493H705.977V416.692Z" fill="black"/>
<path d="M604.5 190C604.5 225.093 577.391 253.5 544 253.5C510.609 253.5 483.5 225.093 483.5 190C483.5 154.907 510.609 126.5 544 126.5C577.391 126.5 604.5 154.907 604.5 190Z" stroke="black"/>
<circle cx="1414" cy="445" r="60.5" stroke="#0D26A8"/>
<path d="M480.5 951.5C480.5 986.313 453.394 1014.5 420 1014.5C386.606 1014.5 359.5 986.313 359.5 951.5C359.5 916.687 386.606 888.5 420 888.5C453.394 888.5 480.5 916.687 480.5 951.5Z" stroke="#0D26A8"/>
<path d="M107.278 1001.94C105.628 1001.94 103.882 1001.79 102.038 1001.5C100.194 1001.31 98.3014 1000.97 96.3605 1000.48V989.563C98.3014 990.34 100.194 990.922 102.038 991.31C103.882 991.698 105.628 991.892 107.278 991.892C110.189 991.892 112.567 990.825 114.411 988.69C116.352 986.555 117.322 983.449 117.322 979.373C117.322 977.724 116.983 975.249 116.303 971.949C115.721 968.747 114.557 964.477 112.81 959.139C111.16 953.802 108.685 947.3 105.386 939.633L88.7909 968.747L76.7087 949.241L67.6835 967H55.7468L76.7087 928.424L88.3542 949.677L100.728 928.279C97.9132 922.359 95.6326 916.779 93.8858 911.538C92.139 906.298 90.8774 901.494 90.101 897.127C89.3247 892.76 88.9365 888.975 88.9365 885.773C88.9365 880.241 89.7614 875.68 91.4111 872.089C93.158 868.499 95.5356 865.83 98.544 864.083C101.649 862.336 105.192 861.463 109.171 861.463C115.187 861.463 119.943 863.307 123.436 866.994C127.027 870.682 128.822 875.874 128.822 882.57C128.822 886.452 128.24 890.819 127.075 895.671C125.911 900.524 124.116 905.667 121.689 911.102C119.36 916.536 116.4 922.116 112.81 927.842C117.177 937.741 120.525 945.99 122.854 952.589C125.28 959.091 126.93 964.428 127.803 968.601C128.677 972.871 129.113 976.462 129.113 979.373C129.113 986.555 127.124 992.086 123.145 995.968C119.166 999.947 113.877 1001.94 107.278 1001.94ZM108.152 916.488C110.772 911.538 112.713 906.977 113.974 902.804C115.236 898.534 116.061 894.798 116.449 891.595C116.837 888.296 117.031 885.676 117.031 883.735C117.031 879.465 116.303 876.359 114.848 874.418C113.392 872.477 111.451 871.507 109.025 871.507C106.696 871.507 104.706 872.526 103.057 874.564C101.504 876.602 100.728 880.241 100.728 885.482C100.728 887.714 101.019 890.625 101.601 894.216C102.183 897.709 103.008 901.446 104.076 905.424C105.24 909.403 106.599 913.091 108.152 916.488Z" fill="#0D26A8"/>
<rect x="111" y="383" width="81" height="122" fill="#FFFDFD" stroke="white" stroke-width="2"/>
<rect x="1269" y="893" width="81" height="122" fill="#FFFDFD" stroke="white" stroke-width="2"/>
<rect x="732" y="255" width="620" height="502" fill="black" stroke="black" stroke-width="2"/>
</g>
<defs>
<clipPath id="clip0_274_3">
<rect width="1473" height="1015" fill="white"/>
</clipPath>
</defs>
</svg>
