<svg width="1440" height="1015" viewBox="0 0 1440 1015" fill="none" xmlns="http://www.w3.org/2000/svg">
<g clip-path="url(#clip0_144_13)">
<rect width="1440" height="1015" fill="white"/>
<path d="M109.5 -1V1022" stroke="black"/>
<path d="M606 1V1024" stroke="black"/>
<path d="M1103 1V1024" stroke="black"/>
<path d="M234 -1V1022" stroke="black"/>
<path d="M730.5 1V1024" stroke="black"/>
<path d="M1227.5 1V1024" stroke="black"/>
<path d="M358 -1V1022" stroke="black"/>
<path d="M854.5 1V1024" stroke="black"/>
<path d="M1351.5 1V1024" stroke="black"/>
<path d="M482 -1V1022" stroke="black"/>
<path d="M978.5 1V1024" stroke="black"/>
<path d="M0 127H1451.5" stroke="black"/>
<path d="M-6 381H1445.5" stroke="black"/>
<path d="M0 635H1451.5" stroke="black"/>
<path d="M6 889H1457.5" stroke="black"/>
<path d="M0 254H1451.5" stroke="black"/>
<path d="M-6 508H1445.5" stroke="black"/>
<path d="M0 762H1451.5" stroke="black"/>
<path d="M359.572 574.813C349.845 574.813 341.348 573.172 334.081 569.89C326.815 566.492 320.78 561.862 315.974 556.003C311.169 550.143 307.536 543.228 305.075 535.259C302.731 527.289 301.559 518.734 301.559 509.592C301.559 500.451 302.848 491.896 305.427 483.926C308.005 475.84 311.755 468.808 316.678 462.831C321.717 456.854 327.929 452.166 335.312 448.767C342.695 445.251 351.251 443.493 360.978 443.493C367.541 443.493 373.753 444.372 379.613 446.13C385.473 447.888 390.688 450.466 395.258 453.865C399.829 457.264 403.638 461.542 406.685 466.698C409.732 471.738 411.725 477.598 412.662 484.278H395.962C394.087 475.371 389.926 468.691 383.48 464.237C377.151 459.784 369.592 457.557 360.802 457.557C353.302 457.557 346.856 458.963 341.465 461.776C336.191 464.589 331.796 468.398 328.28 473.203C324.881 477.891 322.362 483.282 320.721 489.376C319.08 495.47 318.26 501.799 318.26 508.362C318.26 515.511 319.08 522.308 320.721 528.754C322.362 535.083 324.881 540.65 328.28 545.455C331.796 550.143 336.25 553.893 341.641 556.706C347.032 559.518 353.478 560.925 360.978 560.925C366.369 560.925 371.233 560.046 375.569 558.288C379.906 556.413 383.597 553.893 386.644 550.729C389.809 547.447 392.27 543.58 394.028 539.126C395.786 534.673 396.841 529.868 397.192 524.711H413.893C412.252 540.65 406.802 553.014 397.544 561.804C388.402 570.476 375.745 574.813 359.572 574.813Z" fill="#0D26A8"/>
<path d="M678.712 352.482H695.413V413.307L759.051 352.482H780.674L720.903 408.385L782.783 478H761.688L708.246 418.581L695.413 430.535V478H678.712V352.482Z" fill="black"/>
<path d="M807.712 291.482H862.736C875.511 291.482 885.121 294.763 891.567 301.326C898.013 307.772 901.236 316.855 901.236 328.575C901.236 340.294 898.013 349.436 891.567 355.999C885.121 362.445 875.511 365.668 862.736 365.668H824.413V417H807.712V291.482ZM857.111 351.604C866.604 351.604 873.518 349.67 877.855 345.803C882.308 341.818 884.535 336.075 884.535 328.575C884.535 321.074 882.308 315.39 877.855 311.522C873.518 307.538 866.604 305.545 857.111 305.545H824.413V351.604H857.111Z" fill="#0D26A8"/>
<path d="M1039.52 413.712V500.38H1025.45V430.413H985.549V495.633H971.485V430.413H928.064V500.907H914V413.712H1039.52Z" fill="black"/>
<path d="M864.306 660.33C864.306 650.485 865.419 641.695 867.646 633.96C869.99 626.343 873.33 619.897 877.666 614.623C882.12 609.349 887.452 605.306 893.664 602.493C899.992 599.68 907.141 598.274 915.111 598.274C922.963 598.274 930.112 599.68 936.558 602.493C943.004 605.306 948.453 609.349 952.907 614.623C957.36 619.897 960.818 626.343 963.279 633.96C965.74 641.695 966.971 650.485 966.971 660.33H980.507V677.03H966.971C966.971 686.875 965.74 695.665 963.279 703.4C960.935 711.135 957.478 717.639 952.907 722.913C948.453 728.187 943.004 732.172 936.558 734.867C930.229 737.68 923.08 739.086 915.111 739.086C898.586 739.086 885.987 733.637 877.315 722.737C868.642 711.955 864.306 696.72 864.306 677.03H849.187V660.33H864.306ZM953.434 660.33C952.965 644.157 949.332 632.554 942.535 625.522C935.855 618.49 926.713 614.974 915.111 614.974C903.391 614.974 894.425 618.49 888.214 625.522C882.003 632.554 878.545 644.157 877.842 660.33H953.434ZM877.842 677.03C878.545 693.204 882.003 704.806 888.214 711.838C894.425 718.87 903.391 722.386 915.111 722.386C926.713 722.386 935.855 718.87 942.535 711.838C949.332 704.806 952.965 693.204 953.434 677.03H877.842Z" fill="#0D26A8"/>
<path d="M541.518 250.712V337.38H527.455V267.413H487.549V332.633H473.485V267.413L430.064 267.413V337.907H416V250.712L541.518 250.712Z" fill="black"/>
<path d="M605.529 735.813C590.41 735.813 577.987 731.945 568.26 724.21C558.532 716.475 552.673 704.873 550.68 689.403H567.557C569.432 700.068 573.534 708.213 579.862 713.838C586.308 719.464 594.629 722.276 604.825 722.276C611.271 722.276 617.014 721.163 622.053 718.936C627.21 716.592 631.546 713.369 635.062 709.268C638.695 705.166 641.508 700.243 643.501 694.501C645.61 688.758 646.841 682.429 647.192 675.515H588.652V661.627H646.489C645.786 656.001 644.438 650.61 642.446 645.454C640.453 640.18 637.758 635.55 634.359 631.566C631.078 627.464 626.976 624.241 622.053 621.897C617.248 619.436 611.623 618.205 605.177 618.205C600.606 618.205 596.27 618.791 592.168 619.963C588.183 621.135 584.609 622.835 581.445 625.061C578.28 627.288 575.585 629.984 573.358 633.148C571.131 636.312 569.49 639.828 568.436 643.696H551.911C552.731 637.25 554.782 631.566 558.064 626.643C561.462 621.721 565.623 617.619 570.545 614.338C575.467 611.056 580.859 608.595 586.718 606.954C592.695 605.314 598.731 604.493 604.825 604.493C614.67 604.493 623.284 606.251 630.667 609.767C638.051 613.283 644.145 618.029 648.95 624.006C653.872 629.984 657.506 637.015 659.85 645.102C662.311 653.071 663.541 661.51 663.541 670.417C663.541 680.73 662.076 689.93 659.146 698.017C656.216 706.103 652.173 712.959 647.016 718.585C641.86 724.21 635.707 728.488 628.558 731.418C621.526 734.348 613.85 735.813 605.529 735.813Z" fill="black"/>
</g>
<defs>
<clipPath id="clip0_144_13">
<rect width="1440" height="1015" fill="white"/>
</clipPath>
</defs>
</svg>
