<svg width="373" height="724" viewBox="0 0 373 724" fill="none" xmlns="http://www.w3.org/2000/svg">
<rect x="0.792123" y="0.792123" width="371.416" height="722.416" fill="white"/>
<rect x="2" y="93" width="371" height="531" fill="#0D26A8"/>
<path d="M89.5347 656.927H101.506V659.463H92.4093V674.411H89.5347V656.927ZM101.737 671.875H103.8C104.048 671.401 104.296 670.759 104.544 669.947C104.815 669.113 105.052 668.2 105.254 667.208C105.48 666.193 105.66 665.122 105.796 663.995C105.931 662.868 105.998 661.763 105.998 660.681V656.927H118.647V671.875H121.014V679.721H118.275V674.411H104.477V679.721H101.737V671.875ZM115.772 671.875V659.463H108.805V660.951C108.805 662.056 108.738 663.161 108.602 664.266C108.49 665.348 108.332 666.374 108.129 667.343C107.926 668.313 107.701 669.192 107.453 669.981C107.227 670.77 107.002 671.401 106.776 671.875H115.772ZM131.155 674.783C129.757 674.783 128.528 674.558 127.469 674.107C126.432 673.656 125.564 673.025 124.865 672.213C124.166 671.401 123.636 670.432 123.275 669.305C122.937 668.177 122.768 666.949 122.768 665.618C122.768 664.311 122.971 663.105 123.377 662C123.782 660.873 124.346 659.903 125.068 659.091C125.812 658.28 126.68 657.649 127.672 657.198C128.686 656.747 129.791 656.521 130.986 656.521C132.541 656.521 133.826 656.848 134.841 657.502C135.878 658.133 136.701 658.945 137.31 659.937C137.941 660.929 138.369 662.011 138.595 663.183C138.843 664.356 138.944 665.472 138.899 666.531H125.812C125.789 667.298 125.879 668.031 126.082 668.73C126.285 669.406 126.612 670.015 127.063 670.556C127.514 671.074 128.089 671.491 128.788 671.807C129.486 672.123 130.309 672.281 131.256 672.281C132.474 672.281 133.466 671.999 134.232 671.435C135.021 670.871 135.54 670.015 135.788 668.865H138.629C138.245 670.849 137.4 672.337 136.092 673.329C134.785 674.298 133.139 674.783 131.155 674.783ZM135.856 663.995C135.81 663.319 135.653 662.676 135.382 662.067C135.134 661.459 134.785 660.94 134.334 660.512C133.905 660.061 133.387 659.711 132.778 659.463C132.192 659.193 131.538 659.058 130.817 659.058C130.073 659.058 129.396 659.193 128.788 659.463C128.201 659.711 127.694 660.061 127.266 660.512C126.837 660.963 126.499 661.493 126.251 662.101C126.003 662.687 125.857 663.319 125.812 663.995H135.856ZM151.291 656.927H154.166V663.894H163.026V656.927H165.901V674.411H163.026V666.362H154.166V674.411H151.291V656.927ZM175.051 674.783C174.262 674.783 173.518 674.693 172.819 674.513C172.12 674.355 171.5 674.084 170.959 673.701C170.44 673.295 170.023 672.788 169.708 672.179C169.415 671.548 169.268 670.793 169.268 669.913C169.268 668.921 169.437 668.11 169.775 667.478C170.114 666.847 170.553 666.34 171.094 665.957C171.658 665.551 172.289 665.246 172.988 665.043C173.71 664.841 174.442 664.671 175.186 664.536C175.975 664.378 176.719 664.266 177.418 664.198C178.14 664.108 178.771 663.995 179.312 663.86C179.853 663.702 180.282 663.488 180.597 663.217C180.913 662.924 181.071 662.507 181.071 661.966C181.071 661.335 180.947 660.827 180.699 660.444C180.473 660.061 180.169 659.768 179.786 659.565C179.425 659.362 179.008 659.227 178.534 659.159C178.083 659.091 177.632 659.058 177.182 659.058C175.964 659.058 174.95 659.294 174.138 659.768C173.326 660.219 172.887 661.087 172.819 662.372H169.944C169.99 661.29 170.215 660.377 170.621 659.633C171.027 658.889 171.568 658.291 172.244 657.84C172.92 657.367 173.687 657.029 174.544 656.826C175.423 656.623 176.359 656.521 177.351 656.521C178.14 656.521 178.918 656.578 179.684 656.69C180.473 656.803 181.183 657.04 181.815 657.401C182.446 657.739 182.953 658.223 183.336 658.855C183.72 659.486 183.911 660.309 183.911 661.323V670.319C183.911 670.995 183.945 671.491 184.013 671.807C184.103 672.123 184.374 672.281 184.824 672.281C185.027 672.281 185.32 672.224 185.704 672.111V674.343C185.208 674.637 184.52 674.783 183.641 674.783C182.897 674.783 182.299 674.58 181.848 674.174C181.42 673.746 181.206 673.058 181.206 672.111C180.417 673.058 179.492 673.746 178.433 674.174C177.396 674.58 176.268 674.783 175.051 674.783ZM175.694 672.281C176.64 672.281 177.452 672.157 178.128 671.909C178.805 671.638 179.357 671.311 179.786 670.928C180.214 670.522 180.53 670.094 180.732 669.643C180.935 669.169 181.037 668.73 181.037 668.324V665.382C180.676 665.675 180.203 665.878 179.616 665.99C179.03 666.103 178.41 666.205 177.756 666.295C177.125 666.385 176.483 666.475 175.829 666.565C175.175 666.655 174.589 666.813 174.07 667.039C173.552 667.264 173.123 667.591 172.785 668.019C172.47 668.425 172.312 668.989 172.312 669.71C172.312 670.184 172.402 670.59 172.582 670.928C172.785 671.243 173.033 671.503 173.326 671.706C173.642 671.909 174.003 672.055 174.408 672.145C174.814 672.235 175.243 672.281 175.694 672.281ZM195.616 674.783C194.286 674.783 193.102 674.569 192.065 674.141C191.051 673.712 190.194 673.103 189.495 672.314C188.819 671.525 188.3 670.59 187.939 669.507C187.601 668.425 187.432 667.219 187.432 665.889C187.432 664.581 187.601 663.364 187.939 662.237C188.278 661.087 188.785 660.095 189.461 659.261C190.16 658.404 191.017 657.739 192.031 657.265C193.069 656.769 194.286 656.521 195.684 656.521C196.676 656.521 197.6 656.645 198.457 656.893C199.336 657.119 200.103 657.479 200.757 657.975C201.433 658.471 201.985 659.103 202.414 659.869C202.842 660.613 203.113 661.504 203.225 662.541H200.249C200.024 661.436 199.55 660.579 198.829 659.971C198.108 659.362 197.138 659.058 195.921 659.058C194.884 659.058 194.015 659.249 193.317 659.633C192.618 660.016 192.054 660.523 191.626 661.154C191.22 661.786 190.927 662.518 190.746 663.353C190.566 664.164 190.476 665.01 190.476 665.889C190.476 666.701 190.566 667.49 190.746 668.256C190.949 669.023 191.254 669.71 191.659 670.319C192.065 670.905 192.584 671.379 193.215 671.739C193.869 672.1 194.658 672.281 195.582 672.281C197.003 672.281 198.108 671.909 198.897 671.165C199.708 670.421 200.204 669.372 200.385 668.019H203.327C203.011 670.206 202.211 671.886 200.926 673.058C199.641 674.208 197.871 674.783 195.616 674.783ZM215.956 656.927H218.83V663.894H227.691V656.927H230.565V674.411H227.691V666.362H218.83V674.411H215.956V656.927ZM239.715 674.783C238.926 674.783 238.182 674.693 237.483 674.513C236.784 674.355 236.164 674.084 235.623 673.701C235.105 673.295 234.688 672.788 234.372 672.179C234.079 671.548 233.932 670.793 233.932 669.913C233.932 668.921 234.101 668.11 234.44 667.478C234.778 666.847 235.217 666.34 235.759 665.957C236.322 665.551 236.953 665.246 237.652 665.043C238.374 664.841 239.107 664.671 239.851 664.536C240.64 664.378 241.384 664.266 242.083 664.198C242.804 664.108 243.435 663.995 243.976 663.86C244.518 663.702 244.946 663.488 245.262 663.217C245.577 662.924 245.735 662.507 245.735 661.966C245.735 661.335 245.611 660.827 245.363 660.444C245.138 660.061 244.833 659.768 244.45 659.565C244.089 659.362 243.672 659.227 243.199 659.159C242.748 659.091 242.297 659.058 241.846 659.058C240.628 659.058 239.614 659.294 238.802 659.768C237.991 660.219 237.551 661.087 237.483 662.372H234.609C234.654 661.29 234.879 660.377 235.285 659.633C235.691 658.889 236.232 658.291 236.908 657.84C237.585 657.367 238.351 657.029 239.208 656.826C240.087 656.623 241.023 656.521 242.015 656.521C242.804 656.521 243.582 656.578 244.348 656.69C245.138 656.803 245.848 657.04 246.479 657.401C247.11 657.739 247.618 658.223 248.001 658.855C248.384 659.486 248.576 660.309 248.576 661.323V670.319C248.576 670.995 248.61 671.491 248.677 671.807C248.767 672.123 249.038 672.281 249.489 672.281C249.692 672.281 249.985 672.224 250.368 672.111V674.343C249.872 674.637 249.184 674.783 248.305 674.783C247.561 674.783 246.964 674.58 246.513 674.174C246.084 673.746 245.87 673.058 245.87 672.111C245.081 673.058 244.157 673.746 243.097 674.174C242.06 674.58 240.933 674.783 239.715 674.783ZM240.358 672.281C241.305 672.281 242.116 672.157 242.793 671.909C243.469 671.638 244.022 671.311 244.45 670.928C244.878 670.522 245.194 670.094 245.397 669.643C245.6 669.169 245.701 668.73 245.701 668.324V665.382C245.34 665.675 244.867 665.878 244.281 665.99C243.695 666.103 243.075 666.205 242.421 666.295C241.79 666.385 241.147 666.475 240.493 666.565C239.839 666.655 239.253 666.813 238.735 667.039C238.216 667.264 237.788 667.591 237.45 668.019C237.134 668.425 236.976 668.989 236.976 669.71C236.976 670.184 237.066 670.59 237.247 670.928C237.45 671.243 237.698 671.503 237.991 671.706C238.306 671.909 238.667 672.055 239.073 672.145C239.479 672.235 239.907 672.281 240.358 672.281ZM253.043 656.927H255.918V671.198L264.17 656.927H267.856V674.411H264.981V660.14L256.73 674.411H253.043V656.927ZM260.45 654.357C259.773 654.357 259.142 654.255 258.556 654.052C257.97 653.85 257.451 653.556 257 653.173C256.572 652.79 256.222 652.328 255.952 651.787C255.704 651.223 255.58 650.58 255.58 649.859H257.981C258.026 651.527 258.838 652.362 260.416 652.362C261.205 652.362 261.802 652.147 262.208 651.719C262.637 651.268 262.851 650.648 262.851 649.859H265.252C265.252 650.535 265.128 651.155 264.88 651.719C264.632 652.283 264.294 652.756 263.865 653.139C263.437 653.523 262.93 653.827 262.344 654.052C261.757 654.255 261.126 654.357 260.45 654.357ZM276.426 659.463H270.169V656.927H285.557V659.463H279.3V674.411H276.426V659.463ZM287.853 656.927H290.727V671.198L298.979 656.927H302.665V674.411H299.79V660.14L291.539 674.411H287.853V656.927Z" fill="#0D26A8"/>
<path d="M34.15 160.215C33.8394 160.215 33.5169 160.179 33.1825 160.107C32.8481 160.06 32.5733 160.012 32.3583 159.964V157.277C32.5972 157.348 32.8122 157.396 33.0033 157.42C33.2183 157.444 33.4214 157.456 33.6125 157.456C34.4008 157.456 34.9981 157.145 35.4042 156.524C35.8342 155.903 36.1447 154.948 36.3358 153.658C36.5508 152.368 36.6822 150.719 36.73 148.712C36.7778 146.682 36.8256 144.269 36.8733 141.474H49.8808V160H46.835V144.162H39.8117C39.74 146.336 39.6564 148.402 39.5608 150.361C39.4892 152.296 39.2861 153.992 38.9517 155.449C38.6172 156.906 38.0797 158.065 37.3392 158.925C36.5986 159.785 35.5356 160.215 34.15 160.215ZM62.3679 160.394C60.8868 160.394 59.5849 160.155 58.4621 159.677C57.3632 159.2 56.4435 158.531 55.7029 157.671C54.9624 156.811 54.401 155.784 54.0187 154.589C53.6604 153.395 53.4812 152.093 53.4812 150.683C53.4812 149.298 53.6962 148.02 54.1262 146.849C54.5562 145.655 55.1535 144.627 55.9179 143.768C56.7062 142.907 57.626 142.239 58.6771 141.761C59.7521 141.283 60.9226 141.044 62.1887 141.044C63.8371 141.044 65.1987 141.391 66.2737 142.083C67.3726 142.752 68.2446 143.612 68.8896 144.663C69.5585 145.714 70.0124 146.861 70.2512 148.103C70.514 149.346 70.6215 150.528 70.5737 151.651H56.7062C56.6824 152.463 56.7779 153.239 56.9929 153.98C57.2079 154.697 57.5543 155.342 58.0321 155.915C58.5099 156.464 59.119 156.906 59.8596 157.241C60.6001 157.575 61.4721 157.743 62.4754 157.743C63.7654 157.743 64.8165 157.444 65.6287 156.847C66.4649 156.249 67.0143 155.342 67.2771 154.123H70.2871C69.881 156.226 68.9851 157.802 67.5996 158.853C66.214 159.881 64.4701 160.394 62.3679 160.394ZM67.3487 148.963C67.301 148.247 67.1337 147.566 66.8471 146.921C66.5843 146.276 66.214 145.726 65.7362 145.273C65.2824 144.795 64.7329 144.424 64.0879 144.162C63.4668 143.875 62.774 143.732 62.0096 143.732C61.2212 143.732 60.5046 143.875 59.8596 144.162C59.2385 144.424 58.701 144.795 58.2471 145.273C57.7932 145.75 57.4349 146.312 57.1721 146.957C56.9093 147.578 56.754 148.247 56.7062 148.963H67.3487ZM81.3993 160.394C79.9899 160.394 78.7357 160.167 77.6368 159.713C76.5618 159.259 75.654 158.614 74.9135 157.778C74.1968 156.942 73.6474 155.951 73.2652 154.804C72.9068 153.658 72.7277 152.379 72.7277 150.97C72.7277 149.584 72.9068 148.294 73.2652 147.1C73.6235 145.882 74.161 144.831 74.8777 143.947C75.6182 143.039 76.526 142.334 77.601 141.832C78.6999 141.307 79.9899 141.044 81.471 141.044C82.5221 141.044 83.5015 141.176 84.4093 141.438C85.341 141.677 86.1532 142.059 86.846 142.585C87.5627 143.111 88.1479 143.779 88.6018 144.592C89.0557 145.38 89.3424 146.324 89.4618 147.423H86.3085C86.0696 146.252 85.5679 145.344 84.8035 144.699C84.039 144.054 83.0118 143.732 81.7218 143.732C80.6229 143.732 79.7032 143.935 78.9627 144.341C78.2221 144.747 77.6249 145.284 77.171 145.953C76.741 146.622 76.4304 147.399 76.2393 148.282C76.0482 149.142 75.9527 150.038 75.9527 150.97C75.9527 151.83 76.0482 152.666 76.2393 153.478C76.4543 154.291 76.7768 155.019 77.2068 155.664C77.6368 156.285 78.1863 156.787 78.8552 157.169C79.5479 157.551 80.384 157.743 81.3635 157.743C82.8685 157.743 84.039 157.348 84.8752 156.56C85.7352 155.772 86.2607 154.661 86.4518 153.227H89.5693C89.2349 155.545 88.3868 157.324 87.0252 158.567C85.6635 159.785 83.7882 160.394 81.3993 160.394ZM92.9774 141.474H96.0232V148.856H105.412V141.474H108.457V160H105.412V151.472H96.0232V160H92.9774V141.474ZM118.153 160.394C117.317 160.394 116.528 160.299 115.788 160.107C115.047 159.94 114.39 159.654 113.817 159.247C113.268 158.818 112.826 158.28 112.491 157.635C112.181 156.966 112.025 156.166 112.025 155.234C112.025 154.183 112.205 153.323 112.563 152.654C112.921 151.985 113.387 151.448 113.96 151.042C114.558 150.612 115.226 150.289 115.967 150.074C116.731 149.859 117.508 149.68 118.296 149.537C119.132 149.369 119.921 149.25 120.661 149.178C121.426 149.083 122.095 148.963 122.668 148.82C123.241 148.653 123.695 148.426 124.03 148.139C124.364 147.829 124.531 147.387 124.531 146.813C124.531 146.144 124.4 145.607 124.137 145.201C123.898 144.795 123.576 144.484 123.17 144.269C122.787 144.054 122.345 143.911 121.844 143.839C121.366 143.767 120.888 143.732 120.41 143.732C119.12 143.732 118.045 143.982 117.185 144.484C116.325 144.962 115.86 145.882 115.788 147.243H112.742C112.79 146.097 113.029 145.129 113.459 144.341C113.889 143.552 114.462 142.919 115.179 142.442C115.895 141.94 116.708 141.582 117.615 141.367C118.547 141.152 119.538 141.044 120.59 141.044C121.426 141.044 122.25 141.104 123.062 141.223C123.898 141.343 124.651 141.594 125.32 141.976C125.988 142.334 126.526 142.848 126.932 143.517C127.338 144.186 127.541 145.057 127.541 146.132V155.664C127.541 156.381 127.577 156.906 127.649 157.241C127.744 157.575 128.031 157.743 128.509 157.743C128.724 157.743 129.034 157.683 129.44 157.563V159.928C128.915 160.239 128.186 160.394 127.255 160.394C126.466 160.394 125.833 160.179 125.355 159.749C124.901 159.295 124.675 158.567 124.675 157.563C123.838 158.567 122.859 159.295 121.736 159.749C120.637 160.179 119.443 160.394 118.153 160.394ZM118.834 157.743C119.837 157.743 120.697 157.611 121.414 157.348C122.13 157.062 122.716 156.715 123.17 156.309C123.623 155.879 123.958 155.425 124.173 154.948C124.388 154.446 124.495 153.98 124.495 153.55V150.432C124.113 150.743 123.611 150.958 122.99 151.077C122.369 151.197 121.712 151.304 121.02 151.4C120.351 151.496 119.67 151.591 118.977 151.687C118.284 151.782 117.663 151.949 117.114 152.188C116.564 152.427 116.11 152.774 115.752 153.227C115.418 153.658 115.25 154.255 115.25 155.019C115.25 155.521 115.346 155.951 115.537 156.309C115.752 156.644 116.015 156.918 116.325 157.133C116.66 157.348 117.042 157.504 117.472 157.599C117.902 157.695 118.356 157.743 118.834 157.743ZM136.181 152.762C134.867 152.571 133.792 151.973 132.956 150.97C132.12 149.967 131.702 148.701 131.702 147.172C131.702 145.428 132.215 144.042 133.243 143.015C134.294 141.988 135.715 141.474 137.507 141.474H146.895V160H143.849V152.869H139.8L134.138 160H130.089L136.181 152.762ZM143.849 150.253V144.162H138.474C137.184 144.162 136.253 144.436 135.679 144.986C135.106 145.535 134.819 146.276 134.819 147.207C134.819 148.163 135.106 148.916 135.679 149.465C136.253 149.991 137.184 150.253 138.474 150.253H143.849ZM169.451 160.394C167.969 160.394 166.667 160.155 165.545 159.677C164.446 159.176 163.514 158.495 162.75 157.635C161.985 156.751 161.412 155.724 161.03 154.553C160.647 153.383 160.456 152.117 160.456 150.755C160.456 149.393 160.647 148.127 161.03 146.957C161.412 145.762 161.985 144.735 162.75 143.875C163.514 142.991 164.446 142.298 165.545 141.797C166.667 141.295 167.969 141.044 169.451 141.044C170.908 141.044 172.198 141.295 173.321 141.797C174.443 142.298 175.387 142.991 176.151 143.875C176.916 144.735 177.489 145.762 177.871 146.957C178.254 148.127 178.445 149.393 178.445 150.755C178.445 152.117 178.254 153.383 177.871 154.553C177.489 155.724 176.916 156.751 176.151 157.635C175.387 158.495 174.443 159.176 173.321 159.677C172.198 160.155 170.908 160.394 169.451 160.394ZM169.451 157.743C170.239 157.743 170.979 157.587 171.672 157.277C172.389 156.966 173.01 156.524 173.536 155.951C174.061 155.354 174.467 154.625 174.754 153.765C175.064 152.881 175.22 151.878 175.22 150.755C175.22 149.632 175.064 148.641 174.754 147.781C174.467 146.897 174.061 146.156 173.536 145.559C173.01 144.962 172.389 144.508 171.672 144.198C170.979 143.887 170.239 143.732 169.451 143.732C168.662 143.732 167.91 143.887 167.193 144.198C166.5 144.508 165.891 144.962 165.366 145.559C164.84 146.156 164.422 146.897 164.111 147.781C163.825 148.641 163.681 149.632 163.681 150.755C163.681 151.878 163.825 152.881 164.111 153.765C164.422 154.625 164.84 155.354 165.366 155.951C165.891 156.524 166.5 156.966 167.193 157.277C167.91 157.587 168.662 157.743 169.451 157.743ZM182.036 141.474H197.158V160H194.112V144.162H185.082V160H182.036V141.474ZM203.636 167.382C203.278 167.382 202.92 167.358 202.561 167.31C202.203 167.262 201.857 167.179 201.522 167.059V164.264C201.809 164.36 202.096 164.455 202.382 164.551C202.693 164.646 203.003 164.694 203.314 164.694C203.935 164.694 204.437 164.551 204.819 164.264C205.201 163.978 205.536 163.559 205.822 163.01L207.076 159.893L199.731 141.474H203.171L208.581 156.632H208.653L213.849 141.474H217.074L209.011 162.437C208.653 163.344 208.295 164.109 207.936 164.73C207.602 165.351 207.22 165.853 206.79 166.235C206.384 166.641 205.918 166.928 205.392 167.095C204.891 167.286 204.305 167.382 203.636 167.382ZM219.654 141.474H222.7V157.312H229.616V141.474H232.661V157.312H239.577V141.474H242.623V160H219.654V141.474ZM247.194 141.474H250.24V150.325L258.732 141.474H262.781L254.575 149.501L263.749 160H259.843L252.103 151.185L250.24 153.012V160H247.194V141.474ZM271.179 160.394C270.343 160.394 269.555 160.299 268.814 160.107C268.074 159.94 267.417 159.654 266.844 159.247C266.294 158.818 265.852 158.28 265.518 157.635C265.207 156.966 265.052 156.166 265.052 155.234C265.052 154.183 265.231 153.323 265.589 152.654C265.948 151.985 266.414 151.448 266.987 151.042C267.584 150.612 268.253 150.289 268.994 150.074C269.758 149.859 270.534 149.68 271.323 149.537C272.159 149.369 272.947 149.25 273.688 149.178C274.452 149.083 275.121 148.963 275.694 148.82C276.268 148.653 276.722 148.426 277.056 148.139C277.39 147.829 277.558 147.387 277.558 146.813C277.558 146.144 277.426 145.607 277.164 145.201C276.925 144.795 276.602 144.484 276.196 144.269C275.814 144.054 275.372 143.911 274.87 143.839C274.392 143.767 273.915 143.732 273.437 143.732C272.147 143.732 271.072 143.982 270.212 144.484C269.352 144.962 268.886 145.882 268.814 147.243H265.769C265.816 146.097 266.055 145.129 266.485 144.341C266.915 143.552 267.489 142.919 268.205 142.442C268.922 141.94 269.734 141.582 270.642 141.367C271.574 141.152 272.565 141.044 273.616 141.044C274.452 141.044 275.276 141.104 276.089 141.223C276.925 141.343 277.677 141.594 278.346 141.976C279.015 142.334 279.552 142.848 279.959 143.517C280.365 144.186 280.568 145.057 280.568 146.132V155.664C280.568 156.381 280.604 156.906 280.675 157.241C280.771 157.575 281.057 157.743 281.535 157.743C281.75 157.743 282.061 157.683 282.467 157.563V159.928C281.941 160.239 281.213 160.394 280.281 160.394C279.493 160.394 278.86 160.179 278.382 159.749C277.928 159.295 277.701 158.567 277.701 157.563C276.865 158.567 275.885 159.295 274.763 159.749C273.664 160.179 272.469 160.394 271.179 160.394ZM271.86 157.743C272.864 157.743 273.724 157.611 274.44 157.348C275.157 157.062 275.742 156.715 276.196 156.309C276.65 155.879 276.984 155.425 277.199 154.948C277.414 154.446 277.522 153.98 277.522 153.55V150.432C277.14 150.743 276.638 150.958 276.017 151.077C275.396 151.197 274.739 151.304 274.046 151.4C273.377 151.496 272.696 151.591 272.004 151.687C271.311 151.782 270.69 151.949 270.14 152.188C269.591 152.427 269.137 152.774 268.779 153.227C268.444 153.658 268.277 154.255 268.277 155.019C268.277 155.521 268.372 155.951 268.564 156.309C268.779 156.644 269.041 156.918 269.352 157.133C269.686 157.348 270.069 157.504 270.499 157.599C270.929 157.695 271.382 157.743 271.86 157.743ZM311.221 137.64C309.931 138.906 308.724 140.411 307.601 142.155C306.479 143.899 305.475 145.762 304.591 147.745C303.731 149.728 303.027 151.77 302.477 153.873C301.928 155.975 301.593 158.017 301.474 160H298.07C298.213 157.85 298.56 155.76 299.109 153.729C299.682 151.675 300.411 149.716 301.295 147.852C302.179 145.965 303.194 144.186 304.341 142.513C305.511 140.841 306.765 139.3 308.103 137.891H294.773V135.024H311.221V137.64ZM315.867 156.022H319.844V159.642C319.844 161.003 319.534 162.174 318.913 163.153C318.292 164.133 317.288 164.826 315.903 165.232V163.44C316.309 163.297 316.643 163.082 316.906 162.795C317.193 162.532 317.42 162.234 317.587 161.899C317.754 161.589 317.862 161.266 317.909 160.932C317.981 160.597 318.005 160.287 317.981 160H315.867V156.022ZM34.2933 184.474H38.665L44.2908 199.488H44.3625L49.9883 184.474H54.36V203H51.3142V188.308L45.7242 203H42.9292L37.3392 188.308V203H34.2933V184.474ZM66.8471 203.394C65.366 203.394 64.064 203.155 62.9412 202.677C61.8424 202.2 60.9226 201.531 60.1821 200.671C59.4415 199.811 58.8801 198.784 58.4979 197.589C58.1396 196.395 57.9604 195.093 57.9604 193.683C57.9604 192.298 58.1754 191.02 58.6054 189.849C59.0354 188.655 59.6326 187.627 60.3971 186.768C61.1854 185.907 62.1051 185.239 63.1562 184.761C64.2312 184.283 65.4018 184.044 66.6679 184.044C68.3162 184.044 69.6779 184.391 70.7529 185.083C71.8518 185.752 72.7237 186.612 73.3687 187.663C74.0376 188.714 74.4915 189.861 74.7304 191.103C74.9932 192.346 75.1007 193.528 75.0529 194.651H61.1854C61.1615 195.463 61.2571 196.239 61.4721 196.98C61.6871 197.697 62.0335 198.342 62.5112 198.915C62.989 199.464 63.5982 199.906 64.3387 200.241C65.0793 200.575 65.9512 200.743 66.9546 200.743C68.2446 200.743 69.2957 200.444 70.1079 199.847C70.944 199.249 71.4935 198.342 71.7562 197.123H74.7662C74.3601 199.226 73.4643 200.802 72.0787 201.853C70.6932 202.881 68.9493 203.394 66.8471 203.394ZM71.8279 191.963C71.7801 191.247 71.6129 190.566 71.3262 189.921C71.0635 189.276 70.6932 188.726 70.2154 188.273C69.7615 187.795 69.2121 187.424 68.5671 187.162C67.946 186.875 67.2532 186.732 66.4887 186.732C65.7004 186.732 64.9837 186.875 64.3387 187.162C63.7176 187.424 63.1801 187.795 62.7262 188.273C62.2724 188.75 61.914 189.312 61.6512 189.957C61.3885 190.578 61.2332 191.247 61.1854 191.963H71.8279ZM84.8752 193.074L76.956 184.474H80.7185L88.4227 193.074V184.474H91.4685V193.074L99.1727 184.474H102.935L94.9802 193.074L103.974 203H100.212L92.5077 194.723L91.4685 195.654V203H88.4227V195.654L87.2402 194.579L79.6793 203H75.9168L84.8752 193.074ZM104.089 200.312H106.275C106.538 199.811 106.8 199.13 107.063 198.27C107.35 197.386 107.601 196.419 107.816 195.367C108.055 194.292 108.246 193.158 108.389 191.963C108.532 190.769 108.604 189.598 108.604 188.452V184.474H122.006V200.312H124.514V208.626H121.612V203H106.992V208.626H104.089V200.312ZM118.96 200.312V187.162H111.578V188.738C111.578 189.909 111.507 191.079 111.363 192.25C111.244 193.397 111.077 194.484 110.862 195.511C110.647 196.538 110.408 197.47 110.145 198.306C109.906 199.142 109.667 199.811 109.428 200.312H118.96ZM129.275 210.382C128.917 210.382 128.559 210.358 128.2 210.31C127.842 210.262 127.495 210.179 127.161 210.059V207.264C127.448 207.36 127.734 207.455 128.021 207.551C128.332 207.646 128.642 207.694 128.953 207.694C129.574 207.694 130.075 207.551 130.458 207.264C130.84 206.978 131.174 206.559 131.461 206.01L132.715 202.893L125.369 184.474H128.809L134.22 199.632H134.292L139.488 184.474H142.713L134.65 205.437C134.292 206.344 133.934 207.109 133.575 207.73C133.241 208.351 132.859 208.853 132.429 209.235C132.022 209.641 131.557 209.928 131.031 210.095C130.529 210.286 129.944 210.382 129.275 210.382ZM160.784 188.487C160.904 188.511 161.011 188.523 161.107 188.523C161.226 188.523 161.346 188.523 161.465 188.523H162.11C162.755 188.523 163.364 188.44 163.937 188.273C164.535 188.081 165.048 187.819 165.478 187.484C165.932 187.126 166.291 186.684 166.553 186.158C166.816 185.633 166.947 185.036 166.947 184.367C166.947 183.005 166.517 181.99 165.657 181.321C164.797 180.628 163.722 180.282 162.432 180.282C161.62 180.282 160.904 180.437 160.282 180.747C159.685 181.034 159.184 181.428 158.777 181.93C158.395 182.432 158.109 183.017 157.917 183.686C157.726 184.355 157.631 185.059 157.631 185.8H154.585C154.633 184.582 154.824 183.471 155.158 182.468C155.517 181.464 156.018 180.604 156.663 179.887C157.308 179.171 158.109 178.609 159.064 178.203C160.044 177.797 161.166 177.594 162.432 177.594C163.531 177.594 164.547 177.737 165.478 178.024C166.434 178.287 167.258 178.693 167.951 179.242C168.644 179.792 169.181 180.497 169.563 181.357C169.969 182.217 170.172 183.232 170.172 184.402C170.172 185.549 169.838 186.564 169.169 187.448C168.5 188.332 167.664 189.001 166.661 189.455V189.527C168.214 189.861 169.36 190.59 170.101 191.712C170.865 192.835 171.247 194.161 171.247 195.69C171.247 196.956 171.009 198.079 170.531 199.058C170.077 200.014 169.456 200.814 168.667 201.459C167.879 202.104 166.947 202.594 165.872 202.928C164.821 203.239 163.699 203.394 162.504 203.394C161.214 203.394 160.044 203.215 158.992 202.857C157.941 202.498 157.046 201.973 156.305 201.28C155.564 200.563 154.991 199.691 154.585 198.664C154.203 197.637 154.024 196.466 154.047 195.152H157.093C157.141 196.801 157.619 198.151 158.527 199.202C159.434 200.229 160.76 200.743 162.504 200.743C163.245 200.743 163.949 200.635 164.618 200.42C165.287 200.181 165.872 199.859 166.374 199.452C166.876 199.022 167.27 198.509 167.557 197.912C167.867 197.291 168.022 196.598 168.022 195.833C168.022 195.045 167.879 194.352 167.592 193.755C167.306 193.134 166.924 192.62 166.446 192.214C165.968 191.784 165.395 191.474 164.726 191.282C164.081 191.067 163.376 190.96 162.612 190.96C161.967 190.96 161.357 190.996 160.784 191.068V188.487ZM192.819 203.394C191.409 203.394 190.155 203.167 189.056 202.713C187.981 202.259 187.073 201.614 186.333 200.778C185.616 199.942 185.067 198.951 184.684 197.804C184.326 196.658 184.147 195.379 184.147 193.97C184.147 192.584 184.326 191.294 184.684 190.1C185.043 188.882 185.58 187.831 186.297 186.947C187.037 186.039 187.945 185.334 189.02 184.832C190.119 184.307 191.409 184.044 192.89 184.044C193.941 184.044 194.921 184.176 195.829 184.438C196.76 184.677 197.572 185.059 198.265 185.585C198.982 186.111 199.567 186.779 200.021 187.592C200.475 188.38 200.762 189.324 200.881 190.423H197.728C197.489 189.252 196.987 188.344 196.223 187.699C195.458 187.054 194.431 186.732 193.141 186.732C192.042 186.732 191.122 186.935 190.382 187.341C189.641 187.747 189.044 188.284 188.59 188.953C188.16 189.622 187.85 190.399 187.659 191.282C187.467 192.142 187.372 193.038 187.372 193.97C187.372 194.83 187.467 195.666 187.659 196.478C187.874 197.291 188.196 198.019 188.626 198.664C189.056 199.285 189.606 199.787 190.274 200.169C190.967 200.551 191.803 200.743 192.783 200.743C194.288 200.743 195.458 200.348 196.294 199.56C197.154 198.772 197.68 197.661 197.871 196.227H200.989C200.654 198.545 199.806 200.324 198.444 201.567C197.083 202.785 195.207 203.394 192.819 203.394ZM209.521 203.394C208.685 203.394 207.896 203.299 207.156 203.107C206.415 202.94 205.758 202.654 205.185 202.247C204.636 201.818 204.194 201.28 203.859 200.635C203.549 199.966 203.393 199.166 203.393 198.234C203.393 197.183 203.573 196.323 203.931 195.654C204.289 194.985 204.755 194.448 205.328 194.042C205.926 193.612 206.594 193.289 207.335 193.074C208.099 192.859 208.876 192.68 209.664 192.537C210.5 192.369 211.289 192.25 212.029 192.178C212.794 192.083 213.463 191.963 214.036 191.82C214.609 191.653 215.063 191.426 215.398 191.139C215.732 190.829 215.899 190.387 215.899 189.813C215.899 189.144 215.768 188.607 215.505 188.201C215.266 187.795 214.944 187.484 214.538 187.269C214.155 187.054 213.713 186.911 213.212 186.839C212.734 186.767 212.256 186.732 211.778 186.732C210.488 186.732 209.413 186.982 208.553 187.484C207.693 187.962 207.228 188.882 207.156 190.243H204.11C204.158 189.097 204.397 188.129 204.827 187.341C205.257 186.552 205.83 185.919 206.547 185.442C207.263 184.94 208.076 184.582 208.983 184.367C209.915 184.152 210.906 184.044 211.958 184.044C212.794 184.044 213.618 184.104 214.43 184.223C215.266 184.343 216.019 184.594 216.688 184.976C217.356 185.334 217.894 185.848 218.3 186.517C218.706 187.186 218.909 188.057 218.909 189.132V198.664C218.909 199.381 218.945 199.906 219.017 200.241C219.112 200.575 219.399 200.743 219.877 200.743C220.092 200.743 220.402 200.683 220.808 200.563V202.928C220.283 203.239 219.554 203.394 218.623 203.394C217.834 203.394 217.201 203.179 216.723 202.749C216.269 202.295 216.043 201.567 216.043 200.563C215.206 201.567 214.227 202.295 213.104 202.749C212.005 203.179 210.811 203.394 209.521 203.394ZM210.202 200.743C211.205 200.743 212.065 200.611 212.782 200.348C213.498 200.062 214.084 199.715 214.538 199.309C214.991 198.879 215.326 198.425 215.541 197.948C215.756 197.446 215.863 196.98 215.863 196.55V193.432C215.481 193.743 214.979 193.958 214.358 194.077C213.737 194.197 213.08 194.304 212.388 194.4C211.719 194.496 211.038 194.591 210.345 194.687C209.652 194.782 209.031 194.949 208.482 195.188C207.932 195.427 207.478 195.774 207.12 196.227C206.786 196.658 206.618 197.255 206.618 198.019C206.618 198.521 206.714 198.951 206.905 199.309C207.12 199.644 207.383 199.918 207.693 200.133C208.028 200.348 208.41 200.504 208.84 200.599C209.27 200.695 209.724 200.743 210.202 200.743ZM223.643 184.474H226.689V193.325L235.181 184.474H239.231L231.025 192.501L240.198 203H236.292L228.552 194.185L226.689 196.012V203H223.643V184.474ZM244.404 210.382C244.045 210.382 243.687 210.358 243.329 210.31C242.97 210.262 242.624 210.179 242.29 210.059V207.264C242.576 207.36 242.863 207.455 243.15 207.551C243.46 207.646 243.771 207.694 244.081 207.694C244.702 207.694 245.204 207.551 245.586 207.264C245.968 206.978 246.303 206.559 246.59 206.01L247.844 202.893L240.498 184.474H243.938L249.349 199.632H249.42L254.616 184.474H257.841L249.779 205.437C249.42 206.344 249.062 207.109 248.704 207.73C248.369 208.351 247.987 208.853 247.557 209.235C247.151 209.641 246.685 209.928 246.16 210.095C245.658 210.286 245.073 210.382 244.404 210.382ZM260.529 184.474H263.575V186.982H263.646C264.148 185.955 264.936 185.215 266.011 184.761C267.086 184.283 268.269 184.044 269.559 184.044C270.992 184.044 272.234 184.307 273.285 184.832C274.36 185.358 275.244 186.075 275.937 186.982C276.654 187.866 277.191 188.894 277.55 190.064C277.908 191.235 278.087 192.477 278.087 193.791C278.087 195.129 277.908 196.383 277.55 197.553C277.215 198.7 276.69 199.715 275.973 200.599C275.28 201.459 274.396 202.14 273.321 202.642C272.27 203.143 271.04 203.394 269.63 203.394C269.153 203.394 268.639 203.346 268.09 203.251C267.54 203.155 266.991 203 266.441 202.785C265.892 202.57 265.366 202.283 264.865 201.925C264.387 201.543 263.981 201.077 263.646 200.527H263.575V210.059H260.529V184.474ZM269.308 200.743C270.335 200.743 271.207 200.539 271.924 200.133C272.64 199.727 273.214 199.19 273.644 198.521C274.074 197.852 274.384 197.087 274.575 196.227C274.767 195.367 274.862 194.484 274.862 193.576C274.862 192.716 274.743 191.88 274.504 191.068C274.289 190.231 273.942 189.491 273.465 188.846C273.011 188.201 272.413 187.687 271.673 187.305C270.956 186.923 270.108 186.732 269.129 186.732C268.102 186.732 267.23 186.935 266.513 187.341C265.796 187.747 265.211 188.284 264.757 188.953C264.303 189.598 263.969 190.339 263.754 191.175C263.563 192.011 263.467 192.859 263.467 193.719C263.467 194.627 263.575 195.511 263.79 196.371C264.005 197.207 264.339 197.947 264.793 198.593C265.271 199.238 265.88 199.763 266.62 200.169C267.361 200.551 268.257 200.743 269.308 200.743ZM286.786 203.394C285.95 203.394 285.162 203.299 284.421 203.107C283.681 202.94 283.024 202.654 282.451 202.247C281.901 201.818 281.459 201.28 281.125 200.635C280.814 199.966 280.659 199.166 280.659 198.234C280.659 197.183 280.838 196.323 281.196 195.654C281.555 194.985 282.021 194.448 282.594 194.042C283.191 193.612 283.86 193.289 284.601 193.074C285.365 192.859 286.141 192.68 286.93 192.537C287.766 192.369 288.554 192.25 289.295 192.178C290.059 192.083 290.728 191.963 291.301 191.82C291.875 191.653 292.329 191.426 292.663 191.139C292.998 190.829 293.165 190.387 293.165 189.813C293.165 189.144 293.033 188.607 292.771 188.201C292.532 187.795 292.209 187.484 291.803 187.269C291.421 187.054 290.979 186.911 290.477 186.839C290 186.767 289.522 186.732 289.044 186.732C287.754 186.732 286.679 186.982 285.819 187.484C284.959 187.962 284.493 188.882 284.421 190.243H281.376C281.423 189.097 281.662 188.129 282.092 187.341C282.522 186.552 283.096 185.919 283.812 185.442C284.529 184.94 285.341 184.582 286.249 184.367C287.181 184.152 288.172 184.044 289.223 184.044C290.059 184.044 290.883 184.104 291.696 184.223C292.532 184.343 293.284 184.594 293.953 184.976C294.622 185.334 295.16 185.848 295.566 186.517C295.972 187.186 296.175 188.057 296.175 189.132V198.664C296.175 199.381 296.211 199.906 296.282 200.241C296.378 200.575 296.665 200.743 297.142 200.743C297.357 200.743 297.668 200.683 298.074 200.563V202.928C297.548 203.239 296.82 203.394 295.888 203.394C295.1 203.394 294.467 203.179 293.989 202.749C293.535 202.295 293.308 201.567 293.308 200.563C292.472 201.567 291.493 202.295 290.37 202.749C289.271 203.179 288.076 203.394 286.786 203.394ZM287.467 200.743C288.471 200.743 289.331 200.611 290.047 200.348C290.764 200.062 291.349 199.715 291.803 199.309C292.257 198.879 292.591 198.425 292.806 197.948C293.021 197.446 293.129 196.98 293.129 196.55V193.432C292.747 193.743 292.245 193.958 291.624 194.077C291.003 194.197 290.346 194.304 289.653 194.4C288.984 194.496 288.303 194.591 287.611 194.687C286.918 194.782 286.297 194.949 285.747 195.188C285.198 195.427 284.744 195.774 284.386 196.227C284.051 196.658 283.884 197.255 283.884 198.019C283.884 198.521 283.98 198.951 284.171 199.309C284.386 199.644 284.648 199.918 284.959 200.133C285.293 200.348 285.676 200.504 286.106 200.599C286.536 200.695 286.99 200.743 287.467 200.743ZM300.909 184.474H305.28L310.906 199.488H310.978L316.604 184.474H320.975V203H317.93V188.308L312.34 203H309.545L303.955 188.308V203H300.909V184.474ZM325.579 184.474H328.625V199.596L337.368 184.474H341.274V203H338.228V187.878L329.485 203H325.579V184.474Z" fill="white"/>
<rect x="0.792123" y="0.792123" width="371.416" height="722.416" stroke="black" stroke-width="1.58425"/>
</svg>
