<svg width="249" height="70" viewBox="0 0 249 70" fill="none" xmlns="http://www.w3.org/2000/svg">
<g clip-path="url(#clip0_219_168)">
<rect width="249" height="70" fill="white"/>
<rect x="0.5" y="0.5" width="248" height="69" fill="#0D26A8" stroke="#0D26A8"/>
<path d="M62.0904 25.4678L58.4745 21.541H60.1925L63.7102 25.4678V21.541H65.101V25.4678L68.6188 21.541H70.3367L66.7044 25.4678L70.8112 30H69.0932L65.5755 26.2204L65.101 26.6458V30H63.7102V26.6458L63.1703 26.155L59.718 30H58L62.0904 25.4678ZM78.9463 30.18C78.3464 30.18 77.8119 30.0818 77.3429 29.8855C76.8738 29.6782 76.4702 29.4001 76.1321 29.051C75.794 28.6911 75.5267 28.2711 75.3304 27.7912C75.1449 27.3003 75.0359 26.7658 75.0031 26.1877H73.2524V30H71.8617V21.541H73.2524V24.9933H75.0522C75.1177 24.4697 75.2486 23.9843 75.4449 23.5371C75.6522 23.0899 75.9194 22.7081 76.2466 22.3918C76.5739 22.0646 76.9611 21.8082 77.4083 21.6228C77.8664 21.4374 78.3791 21.3447 78.9463 21.3447C79.579 21.3447 80.1353 21.4592 80.6152 21.6882C81.1061 21.9173 81.5206 22.2336 81.8587 22.6372C82.1968 23.0299 82.4532 23.4989 82.6277 24.0443C82.8022 24.5788 82.8895 25.1569 82.8895 25.7787C82.8895 26.4004 82.8022 26.9785 82.6277 27.513C82.4532 28.0475 82.1968 28.5165 81.8587 28.9201C81.5206 29.3128 81.1061 29.6237 80.6152 29.8527C80.1353 30.0709 79.579 30.18 78.9463 30.18ZM78.9463 28.9692C79.2845 28.9692 79.6062 28.8983 79.9117 28.7565C80.2171 28.6147 80.4789 28.4129 80.697 28.1511C80.9152 27.8784 81.0897 27.5457 81.2206 27.1531C81.3515 26.7495 81.4169 26.2913 81.4169 25.7787C81.4169 25.266 81.3515 24.8133 81.2206 24.4207C81.0897 24.0171 80.9152 23.6789 80.697 23.4062C80.4789 23.1335 80.2171 22.9263 79.9117 22.7845C79.6062 22.6427 79.2845 22.5718 78.9463 22.5718C78.5973 22.5718 78.27 22.6427 77.9646 22.7845C77.6701 22.9263 77.4138 23.1335 77.1956 23.4062C76.9775 23.6789 76.8029 24.0171 76.672 24.4207C76.5411 24.8133 76.4757 25.266 76.4757 25.7787C76.4757 26.804 76.7048 27.5948 77.1629 28.1511C77.621 28.6965 78.2155 28.9692 78.9463 28.9692ZM84.5815 21.541H85.9723V22.6863H86.005C86.2341 22.2173 86.594 21.8791 87.0849 21.6719C87.5757 21.4537 88.1157 21.3447 88.7047 21.3447C89.3591 21.3447 89.9264 21.4646 90.4063 21.7046C90.8971 21.9446 91.3007 22.2718 91.6171 22.6863C91.9443 23.0899 92.1897 23.5589 92.3533 24.0934C92.517 24.6279 92.5988 25.1951 92.5988 25.795C92.5988 26.4059 92.517 26.9785 92.3533 27.513C92.2006 28.0366 91.9607 28.5002 91.6334 28.9038C91.3171 29.2964 90.9135 29.6073 90.4227 29.8364C89.9427 30.0654 89.381 30.18 88.7374 30.18C88.5192 30.18 88.2847 30.1582 88.0338 30.1145C87.783 30.0709 87.5321 30 87.2812 29.9018C87.0303 29.8037 86.7904 29.6728 86.5613 29.5091C86.3431 29.3346 86.1577 29.1219 86.005 28.871H85.9723V33.2233H84.5815V21.541ZM88.5901 28.9692C89.0592 28.9692 89.4573 28.8765 89.7845 28.6911C90.1118 28.5056 90.3736 28.2602 90.5699 27.9548C90.7663 27.6494 90.9081 27.3003 90.9953 26.9076C91.0826 26.515 91.1262 26.1114 91.1262 25.6969C91.1262 25.3042 91.0717 24.9224 90.9626 24.5515C90.8644 24.1698 90.7063 23.8316 90.4881 23.5371C90.2809 23.2426 90.0082 23.0081 89.67 22.8336C89.3428 22.659 88.9556 22.5718 88.5083 22.5718C88.0393 22.5718 87.6412 22.6645 87.3139 22.8499C86.9867 23.0354 86.7195 23.2808 86.5122 23.5862C86.305 23.8807 86.1522 24.2189 86.0541 24.6006C85.9668 24.9824 85.9232 25.3696 85.9232 25.7623C85.9232 26.1768 85.9723 26.5804 86.0704 26.9731C86.1686 27.3549 86.3213 27.693 86.5286 27.9875C86.7467 28.282 87.0249 28.522 87.363 28.7074C87.7012 28.8819 88.1102 28.9692 88.5901 28.9692ZM94.2312 21.541H95.622V28.4456L99.6142 21.541H101.398V30H100.007V23.0954L96.0147 30H94.2312V21.541ZM108.052 21.541H109.443V25.5823L113.321 21.541H115.17L111.423 25.206L115.612 30H113.828L110.294 25.975L109.443 26.8095V30H108.052V21.541ZM120.313 30.18C119.637 30.18 119.043 30.0709 118.53 29.8527C118.028 29.6237 117.603 29.3128 117.254 28.9201C116.905 28.5165 116.643 28.0475 116.468 27.513C116.294 26.9785 116.207 26.4004 116.207 25.7787C116.207 25.1569 116.294 24.5788 116.468 24.0443C116.643 23.4989 116.905 23.0299 117.254 22.6372C117.603 22.2336 118.028 21.9173 118.53 21.6882C119.043 21.4592 119.637 21.3447 120.313 21.3447C120.979 21.3447 121.568 21.4592 122.08 21.6882C122.593 21.9173 123.024 22.2336 123.373 22.6372C123.722 23.0299 123.984 23.4989 124.158 24.0443C124.333 24.5788 124.42 25.1569 124.42 25.7787C124.42 26.4004 124.333 26.9785 124.158 27.513C123.984 28.0475 123.722 28.5165 123.373 28.9201C123.024 29.3128 122.593 29.6237 122.08 29.8527C121.568 30.0709 120.979 30.18 120.313 30.18ZM120.313 28.9692C120.673 28.9692 121.011 28.8983 121.328 28.7565C121.655 28.6147 121.939 28.4129 122.179 28.1511C122.419 27.8784 122.604 27.5457 122.735 27.1531C122.877 26.7495 122.948 26.2913 122.948 25.7787C122.948 25.266 122.877 24.8133 122.735 24.4207C122.604 24.0171 122.419 23.6789 122.179 23.4062C121.939 23.1335 121.655 22.9263 121.328 22.7845C121.011 22.6427 120.673 22.5718 120.313 22.5718C119.953 22.5718 119.61 22.6427 119.283 22.7845C118.966 22.9263 118.688 23.1335 118.448 23.4062C118.208 23.6789 118.017 24.0171 117.875 24.4207C117.745 24.8133 117.679 25.266 117.679 25.7787C117.679 26.2913 117.745 26.7495 117.875 27.1531C118.017 27.5457 118.208 27.8784 118.448 28.1511C118.688 28.4129 118.966 28.6147 119.283 28.7565C119.61 28.8983 119.953 28.9692 120.313 28.9692ZM126.06 21.541H127.451V24.9115H131.737V21.541H133.128V30H131.737V26.1059H127.451V30H126.06V21.541ZM135.215 21.541H136.606V25.5823L140.484 21.541H142.333L138.586 25.206L142.775 30H140.991L137.457 25.975L136.606 26.8095V30H135.215V21.541ZM144.695 33.3705C144.531 33.3705 144.368 33.3596 144.204 33.3378C144.04 33.316 143.882 33.2778 143.73 33.2233V31.947C143.86 31.9907 143.991 32.0343 144.122 32.0779C144.264 32.1216 144.406 32.1434 144.548 32.1434C144.831 32.1434 145.06 32.0779 145.235 31.947C145.409 31.8162 145.562 31.6253 145.693 31.3744L146.266 29.9509L142.911 21.541H144.482L146.953 28.462H146.985L149.358 21.541H150.83L147.149 31.1126C146.985 31.5271 146.822 31.8761 146.658 32.1597C146.506 32.4433 146.331 32.6724 146.135 32.8469C145.949 33.0324 145.737 33.1633 145.497 33.2396C145.268 33.3269 145 33.3705 144.695 33.3705ZM152.058 21.541H153.448V22.6863H153.481C153.71 22.2173 154.07 21.8791 154.561 21.6719C155.052 21.4537 155.592 21.3447 156.181 21.3447C156.835 21.3447 157.402 21.4646 157.882 21.7046C158.373 21.9446 158.777 22.2718 159.093 22.6863C159.42 23.0899 159.666 23.5589 159.829 24.0934C159.993 24.6279 160.075 25.1951 160.075 25.795C160.075 26.4059 159.993 26.9785 159.829 27.513C159.677 28.0366 159.437 28.5002 159.11 28.9038C158.793 29.2964 158.39 29.6073 157.899 29.8364C157.419 30.0654 156.857 30.18 156.213 30.18C155.995 30.18 155.761 30.1582 155.51 30.1145C155.259 30.0709 155.008 30 154.757 29.9018C154.506 29.8037 154.266 29.6728 154.037 29.5091C153.819 29.3346 153.634 29.1219 153.481 28.871H153.448V33.2233H152.058V21.541ZM156.066 28.9692C156.535 28.9692 156.933 28.8765 157.261 28.6911C157.588 28.5056 157.85 28.2602 158.046 27.9548C158.242 27.6494 158.384 27.3003 158.471 26.9076C158.559 26.515 158.602 26.1114 158.602 25.6969C158.602 25.3042 158.548 24.9224 158.439 24.5515C158.341 24.1698 158.182 23.8316 157.964 23.5371C157.757 23.2426 157.484 23.0081 157.146 22.8336C156.819 22.659 156.432 22.5718 155.984 22.5718C155.515 22.5718 155.117 22.6645 154.79 22.8499C154.463 23.0354 154.196 23.2808 153.988 23.5862C153.781 23.8807 153.628 24.2189 153.53 24.6006C153.443 24.9824 153.399 25.3696 153.399 25.7623C153.399 26.1768 153.448 26.5804 153.547 26.9731C153.645 27.3549 153.797 27.693 154.005 27.9875C154.223 28.282 154.501 28.522 154.839 28.7074C155.177 28.8819 155.586 28.9692 156.066 28.9692ZM165.209 30.18C164.565 30.18 163.993 30.0764 163.491 29.8691C163 29.6619 162.585 29.3673 162.247 28.9856C161.92 28.6038 161.669 28.1511 161.495 27.6276C161.331 27.104 161.249 26.5204 161.249 25.8768C161.249 25.2442 161.331 24.6552 161.495 24.1098C161.658 23.5535 161.904 23.0735 162.231 22.67C162.569 22.2555 162.984 21.9337 163.474 21.7046C163.976 21.4646 164.565 21.3447 165.241 21.3447C165.721 21.3447 166.169 21.4046 166.583 21.5246C167.009 21.6337 167.379 21.8082 167.696 22.0482C168.023 22.2882 168.29 22.5936 168.497 22.9645C168.705 23.3244 168.836 23.7553 168.89 24.257H167.45C167.341 23.7226 167.112 23.3081 166.763 23.0135C166.414 22.719 165.945 22.5718 165.356 22.5718C164.854 22.5718 164.434 22.6645 164.096 22.8499C163.758 23.0354 163.485 23.2808 163.278 23.5862C163.082 23.8916 162.94 24.2461 162.853 24.6497C162.765 25.0424 162.722 25.4514 162.722 25.8768C162.722 26.2695 162.765 26.6513 162.853 27.0222C162.951 27.393 163.098 27.7257 163.294 28.0202C163.491 28.3038 163.742 28.5329 164.047 28.7074C164.363 28.8819 164.745 28.9692 165.192 28.9692C165.88 28.9692 166.414 28.7892 166.796 28.4293C167.189 28.0693 167.428 27.5621 167.516 26.9076H168.939C168.786 27.9657 168.399 28.7783 167.778 29.3455C167.156 29.9018 166.3 30.18 165.209 30.18ZM172.835 30.18C172.453 30.18 172.093 30.1363 171.755 30.0491C171.417 29.9727 171.117 29.8418 170.855 29.6564C170.604 29.4601 170.403 29.2146 170.25 28.9201C170.108 28.6147 170.037 28.2493 170.037 27.8239C170.037 27.3439 170.119 26.9513 170.283 26.6458C170.446 26.3404 170.659 26.095 170.921 25.9096C171.193 25.7132 171.499 25.566 171.837 25.4678C172.186 25.3696 172.541 25.2878 172.901 25.2224C173.282 25.146 173.642 25.0915 173.98 25.0588C174.329 25.0151 174.635 24.9606 174.897 24.8951C175.158 24.8188 175.366 24.7152 175.518 24.5843C175.671 24.4425 175.747 24.2407 175.747 23.9789C175.747 23.6735 175.687 23.428 175.567 23.2426C175.458 23.0572 175.311 22.9154 175.126 22.8172C174.951 22.719 174.749 22.6536 174.52 22.6209C174.302 22.5881 174.084 22.5718 173.866 22.5718C173.277 22.5718 172.786 22.6863 172.393 22.9154C172.001 23.1335 171.788 23.5535 171.755 24.1752H170.364C170.386 23.6517 170.495 23.2099 170.692 22.8499C170.888 22.49 171.15 22.2009 171.477 21.9828C171.804 21.7537 172.175 21.5901 172.59 21.4919C173.015 21.3937 173.468 21.3447 173.948 21.3447C174.329 21.3447 174.706 21.3719 175.077 21.4265C175.458 21.481 175.802 21.5955 176.107 21.7701C176.413 21.9337 176.658 22.1682 176.844 22.4736C177.029 22.779 177.122 23.1772 177.122 23.668V28.0202C177.122 28.3475 177.138 28.5874 177.171 28.7401C177.215 28.8929 177.345 28.9692 177.564 28.9692C177.662 28.9692 177.804 28.9419 177.989 28.8874V29.9673C177.749 30.1091 177.416 30.18 176.991 30.18C176.631 30.18 176.342 30.0818 176.124 29.8855C175.917 29.6782 175.813 29.3455 175.813 28.8874C175.431 29.3455 174.984 29.6782 174.471 29.8855C173.969 30.0818 173.424 30.18 172.835 30.18ZM173.146 28.9692C173.604 28.9692 173.997 28.9092 174.324 28.7892C174.651 28.6583 174.918 28.5002 175.126 28.3147C175.333 28.1184 175.486 27.9112 175.584 27.693C175.682 27.4639 175.731 27.2512 175.731 27.0549V25.6314C175.557 25.7732 175.328 25.8714 175.044 25.9259C174.76 25.9805 174.46 26.0296 174.144 26.0732C173.839 26.1168 173.528 26.1605 173.211 26.2041C172.895 26.2477 172.611 26.3241 172.361 26.4331C172.11 26.5422 171.902 26.7004 171.739 26.9076C171.586 27.104 171.51 27.3767 171.51 27.7257C171.51 27.9548 171.553 28.1511 171.641 28.3147C171.739 28.4675 171.859 28.5929 172.001 28.6911C172.153 28.7892 172.328 28.8601 172.524 28.9038C172.721 28.9474 172.928 28.9692 173.146 28.9692ZM59.2762 35.3177H67.2771V36.6267H60.8306V40.0626H64.7247C65.8809 40.0626 66.7644 40.3626 67.3753 40.9625C67.997 41.5625 68.3079 42.4242 68.3079 43.5477C68.3079 44.6603 67.997 45.5165 67.3753 46.1165C66.7644 46.7055 65.8809 47 64.7247 47H59.2762V35.3177ZM64.2175 45.6911C65.9191 45.6911 66.7699 44.9766 66.7699 43.5477C66.7699 42.0969 65.9191 41.3716 64.2175 41.3716H60.8306V45.6911H64.2175ZM73.7368 47.18C73.0605 47.18 72.466 47.0709 71.9533 46.8527C71.4516 46.6237 71.0262 46.3128 70.6771 45.9201C70.3281 45.5165 70.0663 45.0475 69.8918 44.513C69.7172 43.9785 69.63 43.4004 69.63 42.7787C69.63 42.1569 69.7172 41.5788 69.8918 41.0443C70.0663 40.4989 70.3281 40.0299 70.6771 39.6372C71.0262 39.2336 71.4516 38.9173 71.9533 38.6882C72.466 38.4592 73.0605 38.3447 73.7368 38.3447C74.4022 38.3447 74.9912 38.4592 75.5038 38.6882C76.0165 38.9173 76.4474 39.2336 76.7964 39.6372C77.1455 40.0299 77.4073 40.4989 77.5818 41.0443C77.7563 41.5788 77.8436 42.1569 77.8436 42.7787C77.8436 43.4004 77.7563 43.9785 77.5818 44.513C77.4073 45.0475 77.1455 45.5165 76.7964 45.9201C76.4474 46.3128 76.0165 46.6237 75.5038 46.8527C74.9912 47.0709 74.4022 47.18 73.7368 47.18ZM73.7368 45.9692C74.0967 45.9692 74.4349 45.8983 74.7512 45.7565C75.0784 45.6147 75.362 45.4129 75.602 45.1511C75.842 44.8784 76.0274 44.5457 76.1583 44.1531C76.3001 43.7495 76.371 43.2913 76.371 42.7787C76.371 42.266 76.3001 41.8133 76.1583 41.4207C76.0274 41.0171 75.842 40.6789 75.602 40.4062C75.362 40.1335 75.0784 39.9263 74.7512 39.7845C74.4349 39.6427 74.0967 39.5718 73.7368 39.5718C73.3768 39.5718 73.0332 39.6427 72.706 39.7845C72.3897 39.9263 72.1115 40.1335 71.8715 40.4062C71.6316 40.6789 71.4407 41.0171 71.2989 41.4207C71.168 41.8133 71.1025 42.266 71.1025 42.7787C71.1025 43.2913 71.168 43.7495 71.2989 44.1531C71.4407 44.5457 71.6316 44.8784 71.8715 45.1511C72.1115 45.4129 72.3897 45.6147 72.706 45.7565C73.0332 45.8983 73.3768 45.9692 73.7368 45.9692ZM79.4179 47.0982C79.2761 47.0982 79.1288 47.0818 78.9761 47.0491C78.8234 47.0273 78.698 47.0055 78.5998 46.9836V45.7565C78.7089 45.7892 78.807 45.811 78.8943 45.822C78.9925 45.8329 79.0852 45.8383 79.1724 45.8383C79.5324 45.8383 79.8051 45.6965 79.9905 45.4129C80.1869 45.1293 80.3287 44.693 80.4159 44.104C80.5141 43.515 80.5741 42.7623 80.5959 41.8461C80.6177 40.9189 80.6395 39.8172 80.6614 38.541H86.6007V47H85.2099V39.7681H82.003C81.9703 40.7607 81.9321 41.7043 81.8885 42.5987C81.8558 43.4822 81.763 44.2567 81.6103 44.9221C81.4576 45.5874 81.2122 46.1165 80.8741 46.5091C80.5359 46.9018 80.0505 47.0982 79.4179 47.0982ZM88.7846 38.541H90.1753V41.7806H93.1859C94.0149 41.7806 94.6802 42.0097 95.182 42.4678C95.6838 42.915 95.9346 43.5477 95.9346 44.3658C95.9346 45.162 95.6947 45.8001 95.2147 46.2801C94.7348 46.76 94.0803 47 93.2513 47H88.7846V38.541ZM92.7441 45.7729C93.9112 45.7729 94.4948 45.3038 94.4948 44.3658C94.4948 43.4386 93.9112 42.975 92.7441 42.975H90.1753V45.7729H92.7441ZM97.4429 38.541H98.8336V45.7729H101.991V38.541H103.382V45.7729H106.54V38.541H107.931V47H97.4429V38.541ZM113.666 47.18C112.99 47.18 112.396 47.0709 111.883 46.8527C111.381 46.6237 110.956 46.3128 110.607 45.9201C110.258 45.5165 109.996 45.0475 109.821 44.513C109.647 43.9785 109.56 43.4004 109.56 42.7787C109.56 42.1569 109.647 41.5788 109.821 41.0443C109.996 40.4989 110.258 40.0299 110.607 39.6372C110.956 39.2336 111.381 38.9173 111.883 38.6882C112.396 38.4592 112.99 38.3447 113.666 38.3447C114.332 38.3447 114.921 38.4592 115.433 38.6882C115.946 38.9173 116.377 39.2336 116.726 39.6372C117.075 40.0299 117.337 40.4989 117.511 41.0443C117.686 41.5788 117.773 42.1569 117.773 42.7787C117.773 43.4004 117.686 43.9785 117.511 44.513C117.337 45.0475 117.075 45.5165 116.726 45.9201C116.377 46.3128 115.946 46.6237 115.433 46.8527C114.921 47.0709 114.332 47.18 113.666 47.18ZM113.666 45.9692C114.026 45.9692 114.364 45.8983 114.681 45.7565C115.008 45.6147 115.292 45.4129 115.532 45.1511C115.772 44.8784 115.957 44.5457 116.088 44.1531C116.23 43.7495 116.301 43.2913 116.301 42.7787C116.301 42.266 116.23 41.8133 116.088 41.4207C115.957 41.0171 115.772 40.6789 115.532 40.4062C115.292 40.1335 115.008 39.9263 114.681 39.7845C114.364 39.6427 114.026 39.5718 113.666 39.5718C113.306 39.5718 112.963 39.6427 112.636 39.7845C112.319 39.9263 112.041 40.1335 111.801 40.4062C111.561 40.6789 111.37 41.0171 111.228 41.4207C111.098 41.8133 111.032 42.266 111.032 42.7787C111.032 43.2913 111.098 43.7495 111.228 44.1531C111.37 44.5457 111.561 44.8784 111.801 45.1511C112.041 45.4129 112.319 45.6147 112.636 45.7565C112.963 45.8983 113.306 45.9692 113.666 45.9692ZM119.446 38.541H125.238V39.7681H120.836V47H119.446V38.541ZM129.996 47.18C129.32 47.18 128.725 47.0709 128.213 46.8527C127.711 46.6237 127.286 46.3128 126.937 45.9201C126.587 45.5165 126.326 45.0475 126.151 44.513C125.977 43.9785 125.889 43.4004 125.889 42.7787C125.889 42.1569 125.977 41.5788 126.151 41.0443C126.326 40.4989 126.587 40.0299 126.937 39.6372C127.286 39.2336 127.711 38.9173 128.213 38.6882C128.725 38.4592 129.32 38.3447 129.996 38.3447C130.662 38.3447 131.251 38.4592 131.763 38.6882C132.276 38.9173 132.707 39.2336 133.056 39.6372C133.405 40.0299 133.667 40.4989 133.841 41.0443C134.016 41.5788 134.103 42.1569 134.103 42.7787C134.103 43.4004 134.016 43.9785 133.841 44.513C133.667 45.0475 133.405 45.5165 133.056 45.9201C132.707 46.3128 132.276 46.6237 131.763 46.8527C131.251 47.0709 130.662 47.18 129.996 47.18ZM129.996 45.9692C130.356 45.9692 130.694 45.8983 131.011 45.7565C131.338 45.6147 131.621 45.4129 131.861 45.1511C132.101 44.8784 132.287 44.5457 132.418 44.1531C132.559 43.7495 132.63 43.2913 132.63 42.7787C132.63 42.266 132.559 41.8133 132.418 41.4207C132.287 41.0171 132.101 40.6789 131.861 40.4062C131.621 40.1335 131.338 39.9263 131.011 39.7845C130.694 39.6427 130.356 39.5718 129.996 39.5718C129.636 39.5718 129.293 39.6427 128.965 39.7845C128.649 39.9263 128.371 40.1335 128.131 40.4062C127.891 40.6789 127.7 41.0171 127.558 41.4207C127.427 41.8133 127.362 42.266 127.362 42.7787C127.362 43.2913 127.427 43.7495 127.558 44.1531C127.7 44.5457 127.891 44.8784 128.131 45.1511C128.371 45.4129 128.649 45.6147 128.965 45.7565C129.293 45.8983 129.636 45.9692 129.996 45.9692ZM140.296 38.541H147.201V47H145.81V39.7681H141.687V47H140.296V38.541ZM149.292 38.541H150.683V41.9115H154.97V38.541H156.36V47H154.97V43.1059H150.683V47H149.292V38.541ZM160.231 43.6949C159.631 43.6077 159.14 43.335 158.759 42.8768C158.377 42.4187 158.186 41.8406 158.186 41.1425C158.186 40.3462 158.42 39.7136 158.89 39.2445C159.369 38.7755 160.018 38.541 160.837 38.541H165.123V47H163.733V43.744H161.884L159.299 47H157.45L160.231 43.6949ZM163.733 42.5496V39.7681H161.278C160.689 39.7681 160.264 39.8936 160.002 40.1444C159.74 40.3953 159.609 40.7335 159.609 41.1589C159.609 41.5952 159.74 41.9388 160.002 42.1897C160.264 42.4296 160.689 42.5496 161.278 42.5496H163.733ZM175.422 47.18C174.746 47.18 174.152 47.0709 173.639 46.8527C173.137 46.6237 172.712 46.3128 172.363 45.9201C172.014 45.5165 171.752 45.0475 171.577 44.513C171.403 43.9785 171.315 43.4004 171.315 42.7787C171.315 42.1569 171.403 41.5788 171.577 41.0443C171.752 40.4989 172.014 40.0299 172.363 39.6372C172.712 39.2336 173.137 38.9173 173.639 38.6882C174.152 38.4592 174.746 38.3447 175.422 38.3447C176.088 38.3447 176.677 38.4592 177.189 38.6882C177.702 38.9173 178.133 39.2336 178.482 39.6372C178.831 40.0299 179.093 40.4989 179.267 41.0443C179.442 41.5788 179.529 42.1569 179.529 42.7787C179.529 43.4004 179.442 43.9785 179.267 44.513C179.093 45.0475 178.831 45.5165 178.482 45.9201C178.133 46.3128 177.702 46.6237 177.189 46.8527C176.677 47.0709 176.088 47.18 175.422 47.18ZM175.422 45.9692C175.782 45.9692 176.12 45.8983 176.437 45.7565C176.764 45.6147 177.048 45.4129 177.288 45.1511C177.527 44.8784 177.713 44.5457 177.844 44.1531C177.986 43.7495 178.057 43.2913 178.057 42.7787C178.057 42.266 177.986 41.8133 177.844 41.4207C177.713 41.0171 177.527 40.6789 177.288 40.4062C177.048 40.1335 176.764 39.9263 176.437 39.7845C176.12 39.6427 175.782 39.5718 175.422 39.5718C175.062 39.5718 174.719 39.6427 174.391 39.7845C174.075 39.9263 173.797 40.1335 173.557 40.4062C173.317 40.6789 173.126 41.0171 172.984 41.4207C172.853 41.8133 172.788 42.266 172.788 42.7787C172.788 43.2913 172.853 43.7495 172.984 44.1531C173.126 44.5457 173.317 44.8784 173.557 45.1511C173.797 45.4129 174.075 45.6147 174.391 45.7565C174.719 45.8983 175.062 45.9692 175.422 45.9692ZM185.723 38.541H187.113V41.9115H191.4V38.541H192.791V47H191.4V43.1059H187.113V47H185.723V38.541ZM197.218 47.18C196.836 47.18 196.476 47.1363 196.138 47.0491C195.8 46.9727 195.5 46.8418 195.238 46.6564C194.987 46.4601 194.785 46.2146 194.633 45.9201C194.491 45.6147 194.42 45.2493 194.42 44.8239C194.42 44.3439 194.502 43.9513 194.665 43.6458C194.829 43.3404 195.042 43.095 195.304 42.9096C195.576 42.7132 195.882 42.566 196.22 42.4678C196.569 42.3696 196.923 42.2878 197.283 42.2224C197.665 42.146 198.025 42.0915 198.363 42.0588C198.712 42.0151 199.018 41.9606 199.279 41.8951C199.541 41.8188 199.748 41.7152 199.901 41.5843C200.054 41.4425 200.13 41.2407 200.13 40.9789C200.13 40.6735 200.07 40.428 199.95 40.2426C199.841 40.0572 199.694 39.9154 199.509 39.8172C199.334 39.719 199.132 39.6536 198.903 39.6209C198.685 39.5881 198.467 39.5718 198.249 39.5718C197.66 39.5718 197.169 39.6863 196.776 39.9154C196.383 40.1335 196.171 40.5535 196.138 41.1752H194.747C194.769 40.6517 194.878 40.2099 195.074 39.8499C195.271 39.49 195.533 39.2009 195.86 38.9828C196.187 38.7537 196.558 38.5901 196.972 38.4919C197.398 38.3937 197.851 38.3447 198.33 38.3447C198.712 38.3447 199.089 38.3719 199.459 38.4265C199.841 38.481 200.185 38.5955 200.49 38.7701C200.796 38.9337 201.041 39.1682 201.226 39.4736C201.412 39.779 201.505 40.1772 201.505 40.668V45.0202C201.505 45.3475 201.521 45.5874 201.554 45.7401C201.597 45.8929 201.728 45.9692 201.946 45.9692C202.045 45.9692 202.186 45.9419 202.372 45.8874V46.9673C202.132 47.1091 201.799 47.18 201.374 47.18C201.014 47.18 200.725 47.0818 200.507 46.8855C200.299 46.6782 200.196 46.3455 200.196 45.8874C199.814 46.3455 199.367 46.6782 198.854 46.8855C198.352 47.0818 197.807 47.18 197.218 47.18ZM197.529 45.9692C197.987 45.9692 198.38 45.9092 198.707 45.7892C199.034 45.6583 199.301 45.5002 199.509 45.3147C199.716 45.1184 199.868 44.9112 199.967 44.693C200.065 44.4639 200.114 44.2512 200.114 44.0549V42.6314C199.939 42.7732 199.71 42.8714 199.427 42.9259C199.143 42.9805 198.843 43.0296 198.527 43.0732C198.221 43.1168 197.911 43.1605 197.594 43.2041C197.278 43.2477 196.994 43.3241 196.743 43.4331C196.492 43.5422 196.285 43.7004 196.122 43.9076C195.969 44.104 195.893 44.3767 195.893 44.7257C195.893 44.9548 195.936 45.1511 196.023 45.3147C196.122 45.4675 196.242 45.5929 196.383 45.6911C196.536 45.7892 196.711 45.8601 196.907 45.9038C197.103 45.9474 197.311 45.9692 197.529 45.9692ZM207.168 47.18C206.524 47.18 205.951 47.0764 205.45 46.8691C204.959 46.6619 204.544 46.3673 204.206 45.9856C203.879 45.6038 203.628 45.1511 203.453 44.6276C203.29 44.104 203.208 43.5204 203.208 42.8768C203.208 42.2442 203.29 41.6552 203.453 41.1098C203.617 40.5535 203.863 40.0735 204.19 39.67C204.528 39.2555 204.942 38.9337 205.433 38.7046C205.935 38.4646 206.524 38.3447 207.2 38.3447C207.68 38.3447 208.127 38.4046 208.542 38.5246C208.967 38.6337 209.338 38.8082 209.655 39.0482C209.982 39.2882 210.249 39.5936 210.456 39.9645C210.664 40.3244 210.794 40.7553 210.849 41.257H209.409C209.3 40.7226 209.071 40.3081 208.722 40.0135C208.373 39.719 207.904 39.5718 207.315 39.5718C206.813 39.5718 206.393 39.6645 206.055 39.8499C205.717 40.0354 205.444 40.2808 205.237 40.5862C205.041 40.8916 204.899 41.2461 204.812 41.6497C204.724 42.0424 204.681 42.4514 204.681 42.8768C204.681 43.2695 204.724 43.6513 204.812 44.0222C204.91 44.393 205.057 44.7257 205.253 45.0202C205.45 45.3038 205.7 45.5329 206.006 45.7074C206.322 45.8819 206.704 45.9692 207.151 45.9692C207.838 45.9692 208.373 45.7892 208.755 45.4293C209.147 45.0693 209.387 44.5621 209.475 43.9076H210.898C210.745 44.9657 210.358 45.7783 209.736 46.3455C209.115 46.9018 208.258 47.18 207.168 47.18Z" fill="white"/>
</g>
<defs>
<clipPath id="clip0_219_168">
<rect width="249" height="70" fill="white"/>
</clipPath>
</defs>
</svg>
