<svg width="182" height="47" viewBox="0 0 182 47" fill="none" xmlns="http://www.w3.org/2000/svg">
<rect y="1" width="182" height="46" fill="#0D26A8"/>
<path d="M57.25 30.5L61.4375 21H63.1875L58 33H56.5L51.4062 21H53.125L57.25 30.5ZM52.5313 21V33H50.6875V21H52.5313ZM61.9687 33V21H63.8125V33H61.9687ZM70.7188 33.2813C69.9583 33.2813 69.2682 33.138 68.6484 32.8516C68.0286 32.5599 67.5365 32.1406 67.1719 31.5938C66.8073 31.0417 66.625 30.375 66.625 29.5937C66.625 28.9062 66.7604 28.349 67.0313 27.9219C67.3021 27.4896 67.6641 27.151 68.1172 26.9062C68.5703 26.6615 69.0703 26.4792 69.6172 26.3594C70.1693 26.2344 70.724 26.1354 71.2813 26.0625C72.0104 25.9687 72.6016 25.8984 73.0547 25.8516C73.513 25.7995 73.8464 25.7135 74.0547 25.5937C74.2682 25.474 74.375 25.2656 74.375 24.9687V24.9062C74.375 24.1354 74.1641 23.5365 73.7422 23.1094C73.3255 22.6823 72.6927 22.4687 71.8438 22.4687C70.9635 22.4687 70.2734 22.6615 69.7734 23.0469C69.2734 23.4323 68.9219 23.8437 68.7188 24.2812L66.9688 23.6562C67.2813 22.9271 67.6979 22.3594 68.2188 21.9531C68.7448 21.5417 69.3177 21.2552 69.9375 21.0937C70.5625 20.9271 71.1771 20.8438 71.7813 20.8438C72.1667 20.8438 72.6094 20.8906 73.1094 20.9844C73.6146 21.0729 74.1016 21.2578 74.5703 21.5391C75.0443 21.8203 75.4375 22.2448 75.75 22.8125C76.0625 23.3802 76.2188 24.1406 76.2188 25.0938V33H74.375V31.375H74.2813C74.1563 31.6354 73.9479 31.9141 73.6563 32.2109C73.3646 32.5078 72.9766 32.7604 72.4922 32.9687C72.0078 33.1771 71.4167 33.2813 70.7188 33.2813ZM71 31.625C71.7292 31.625 72.3438 31.4818 72.8438 31.1953C73.349 30.9089 73.7292 30.5391 73.9844 30.0859C74.2448 29.6328 74.375 29.1562 74.375 28.6562V26.9687C74.2969 27.0625 74.125 27.1484 73.8594 27.2266C73.599 27.2995 73.2969 27.3646 72.9531 27.4219C72.6146 27.474 72.2839 27.5208 71.9609 27.5625C71.6432 27.599 71.3854 27.6302 71.1875 27.6562C70.7083 27.7187 70.2604 27.8203 69.8438 27.9609C69.4323 28.0964 69.099 28.3021 68.8438 28.5781C68.5938 28.849 68.4688 29.2187 68.4688 29.6875C68.4688 30.3281 68.7057 30.8125 69.1797 31.1406C69.6589 31.4635 70.2656 31.625 71 31.625ZM86.9902 21V22.7187H81.4277V33H79.584V21H86.9902ZM92.5898 33.2813C91.8294 33.2813 91.1393 33.138 90.5195 32.8516C89.8997 32.5599 89.4076 32.1406 89.043 31.5938C88.6784 31.0417 88.4961 30.375 88.4961 29.5937C88.4961 28.9062 88.6315 28.349 88.9023 27.9219C89.1732 27.4896 89.5352 27.151 89.9883 26.9062C90.4414 26.6615 90.9414 26.4792 91.4883 26.3594C92.0404 26.2344 92.5951 26.1354 93.1523 26.0625C93.8815 25.9687 94.4727 25.8984 94.9258 25.8516C95.3841 25.7995 95.7174 25.7135 95.9258 25.5937C96.1393 25.474 96.2461 25.2656 96.2461 24.9687V24.9062C96.2461 24.1354 96.0352 23.5365 95.6133 23.1094C95.1966 22.6823 94.5638 22.4687 93.7148 22.4687C92.8346 22.4687 92.1445 22.6615 91.6445 23.0469C91.1445 23.4323 90.793 23.8437 90.5898 24.2812L88.8398 23.6562C89.1523 22.9271 89.569 22.3594 90.0898 21.9531C90.6159 21.5417 91.1888 21.2552 91.8086 21.0937C92.4336 20.9271 93.0482 20.8438 93.6523 20.8438C94.0378 20.8438 94.4805 20.8906 94.9805 20.9844C95.4857 21.0729 95.9727 21.2578 96.4414 21.5391C96.9154 21.8203 97.3086 22.2448 97.6211 22.8125C97.9336 23.3802 98.0898 24.1406 98.0898 25.0938V33H96.2461V31.375H96.1523C96.0273 31.6354 95.819 31.9141 95.5273 32.2109C95.2357 32.5078 94.8477 32.7604 94.3633 32.9687C93.8789 33.1771 93.2878 33.2813 92.5898 33.2813ZM92.8711 31.625C93.6003 31.625 94.2148 31.4818 94.7148 31.1953C95.2201 30.9089 95.6003 30.5391 95.8555 30.0859C96.1159 29.6328 96.2461 29.1562 96.2461 28.6562V26.9687C96.168 27.0625 95.9961 27.1484 95.7305 27.2266C95.4701 27.2995 95.168 27.3646 94.8242 27.4219C94.4857 27.474 94.1549 27.5208 93.832 27.5625C93.5143 27.599 93.2565 27.6302 93.0586 27.6562C92.5794 27.7187 92.1315 27.8203 91.7148 27.9609C91.3034 28.0964 90.9701 28.3021 90.7148 28.5781C90.4648 28.849 90.3398 29.2187 90.3398 29.6875C90.3398 30.3281 90.5768 30.8125 91.0508 31.1406C91.5299 31.4635 92.1367 31.625 92.8711 31.625ZM100.705 29.9375H102.674C102.715 30.4792 102.96 30.8906 103.408 31.1719C103.861 31.4531 104.45 31.5938 105.174 31.5938C105.913 31.5938 106.546 31.4427 107.072 31.1406C107.598 30.8333 107.861 30.3385 107.861 29.6562C107.861 29.2552 107.762 28.9062 107.564 28.6094C107.367 28.3073 107.088 28.0729 106.729 27.9062C106.369 27.7396 105.945 27.6562 105.455 27.6562H103.393V26H105.455C106.189 26 106.731 25.8333 107.08 25.5C107.434 25.1667 107.611 24.75 107.611 24.25C107.611 23.7135 107.421 23.2839 107.041 22.9609C106.661 22.6328 106.122 22.4687 105.424 22.4687C104.721 22.4687 104.135 22.6276 103.666 22.9453C103.197 23.2578 102.95 23.6615 102.924 24.1562H100.986C101.007 23.5104 101.205 22.9401 101.58 22.4453C101.955 21.9453 102.465 21.5547 103.111 21.2734C103.757 20.987 104.497 20.8438 105.33 20.8438C106.174 20.8438 106.906 20.9922 107.525 21.2891C108.15 21.5807 108.632 21.9792 108.971 22.4844C109.314 22.9844 109.486 23.5521 109.486 24.1875C109.486 24.8646 109.296 25.4115 108.916 25.8281C108.536 26.2448 108.059 26.5417 107.486 26.7187V26.8437C107.939 26.875 108.333 27.0208 108.666 27.2812C109.005 27.5365 109.268 27.8724 109.455 28.2891C109.643 28.7005 109.736 29.1562 109.736 29.6562C109.736 30.3854 109.541 31.0208 109.15 31.5625C108.76 32.099 108.223 32.5156 107.541 32.8125C106.859 33.1042 106.08 33.25 105.205 33.25C104.356 33.25 103.596 33.112 102.924 32.8359C102.252 32.5547 101.718 32.1667 101.322 31.6719C100.932 31.1719 100.726 30.5938 100.705 29.9375ZM114.17 30.2812L119.951 21H122.076V33H120.232V23.7188L114.482 33H112.326V21H114.17V30.2812ZM133.484 26.1562V27.875H126.859V26.1562H133.484ZM127.297 21V33H125.453V21H127.297ZM134.891 21V33H133.047V21H134.891Z" fill="white"/>
</svg>
