<svg width="221" height="105" viewBox="0 0 221 105" fill="none" xmlns="http://www.w3.org/2000/svg">
<mask id="path-1-inside-1_213_104" fill="white">
<path fill-rule="evenodd" clip-rule="evenodd" d="M112.251 103.789L221 58L112.251 12.2111V12.0001L112 12.1056L111.749 12V12.2112L3 58L111.749 103.789V104L112 103.894L112.251 104V103.789Z"/>
</mask>
<path fill-rule="evenodd" clip-rule="evenodd" d="M112.251 103.789L221 58L112.251 12.2111V12.0001L112 12.1056L111.749 12V12.2112L3 58L111.749 103.789V104L112 103.894L112.251 104V103.789Z" fill="#0D26A8"/>
<path d="M221 58L221.999 60.373L227.635 58L221.999 55.6269L221 58ZM112.251 103.789L111.252 101.416L109.676 102.079V103.789H112.251ZM112.251 12.2111H109.676V13.9207L111.252 14.5842L112.251 12.2111ZM112.251 12.0001H114.826V8.12219L111.252 9.62703L112.251 12.0001ZM112 12.1056L111.001 14.4786L112 14.8993L112.999 14.4786L112 12.1056ZM111.749 12L112.748 9.62696L109.174 8.12217V12H111.749ZM111.749 12.2112L112.748 14.5842L114.324 13.9208V12.2112H111.749ZM3 58L2.00084 55.627L-3.63516 58L2.00084 60.3731L3 58ZM111.749 103.789H114.324V102.079L112.748 101.416L111.749 103.789ZM111.749 104H109.174V107.878L112.748 106.373L111.749 104ZM112 103.894L112.999 101.521L112 101.101L111.001 101.521L112 103.894ZM112.251 104L111.252 106.373L114.826 107.878V104H112.251ZM220.001 55.6269L111.252 101.416L113.25 106.162L221.999 60.373L220.001 55.6269ZM111.252 14.5842L220.001 60.373L221.999 55.6269L113.25 9.8381L111.252 14.5842ZM109.676 12.0001V12.2111H114.826V12.0001H109.676ZM112.999 14.4786L113.25 14.3731L111.252 9.62703L111.001 9.73257L112.999 14.4786ZM110.75 14.373L111.001 14.4786L112.999 9.73256L112.748 9.62696L110.75 14.373ZM114.324 12.2112V12H109.174V12.2112H114.324ZM3.99916 60.3731L112.748 14.5842L110.75 9.83816L2.00084 55.627L3.99916 60.3731ZM112.748 101.416L3.99916 55.627L2.00084 60.3731L110.75 106.162L112.748 101.416ZM114.324 104V103.789H109.174V104H114.324ZM111.001 101.521L110.75 101.627L112.748 106.373L112.999 106.267L111.001 101.521ZM113.25 101.627L112.999 101.521L111.001 106.267L111.252 106.373L113.25 101.627ZM109.676 103.789V104H114.826V103.789H109.676Z" fill="#0D26A8" mask="url(#path-1-inside-1_213_104)"/>
<path d="M57.6563 52.5625C57.2396 52.5677 56.8203 52.6745 56.3984 52.8828C55.9818 53.0911 55.6328 53.3672 55.3516 53.7109C55.0755 54.0495 54.9375 54.4271 54.9375 54.8437H53.125C53.125 54.3229 53.25 53.8229 53.5 53.3437C53.75 52.8646 54.0859 52.4375 54.5078 52.0625C54.9349 51.6875 55.4193 51.3906 55.9609 51.1719C56.5078 50.9531 57.0729 50.8438 57.6563 50.8438C58.75 50.8438 59.6771 51.1198 60.4375 51.6719C61.2031 52.224 61.7839 52.9531 62.1797 53.8594C62.5807 54.7656 62.7813 55.75 62.7813 56.8125V57.25C62.7813 58.3073 62.5807 59.2917 62.1797 60.2031C61.7839 61.1094 61.2031 61.8385 60.4375 62.3906C59.6771 62.9427 58.75 63.2187 57.6563 63.2187C56.7813 63.2187 56.0026 63.026 55.3203 62.6406C54.638 62.25 54.1016 61.7292 53.7109 61.0781C53.3203 60.4271 53.125 59.7031 53.125 58.9062H54.9375C54.9375 59.3594 55.0651 59.7839 55.3203 60.1797C55.5807 60.5703 55.9167 60.888 56.3281 61.1328C56.7448 61.3724 57.1875 61.4948 57.6563 61.5C58.3542 61.4948 58.9479 61.276 59.4375 60.8437C59.9271 60.4115 60.2995 59.8698 60.5547 59.2188C60.8099 58.5677 60.9375 57.9115 60.9375 57.25V56.8125C60.9375 56.1354 60.8099 55.474 60.5547 54.8281C60.3047 54.1771 59.9349 53.638 59.4453 53.2109C58.9609 52.7839 58.3646 52.5677 57.6563 52.5625ZM61.6875 56.0937V57.8125H56.4375V56.0937H61.6875ZM65.5898 63V51H67.4336V56.2187H68.6523L72.9648 51H75.3398L70.4961 56.7812L75.4023 63H73.0273L69.0898 57.9375H67.4336V63H65.5898ZM81.7871 63.25C80.6621 63.25 79.6934 62.9844 78.8809 62.4531C78.0684 61.9219 77.4434 61.1901 77.0059 60.2578C76.5684 59.3255 76.3496 58.2604 76.3496 57.0625C76.3496 55.8437 76.5736 54.7682 77.0215 53.8359C77.4746 52.8984 78.1048 52.1667 78.9121 51.6406C79.7246 51.1094 80.6725 50.8438 81.7559 50.8438C82.5996 50.8438 83.36 51 84.0371 51.3125C84.7142 51.625 85.2689 52.0625 85.7012 52.625C86.1335 53.1875 86.4017 53.8437 86.5059 54.5937H84.6621C84.5215 54.0469 84.209 53.5625 83.7246 53.1406C83.2454 52.7135 82.5996 52.5 81.7871 52.5C81.0684 52.5 80.4382 52.6875 79.8965 53.0625C79.36 53.4323 78.9408 53.9557 78.6387 54.6328C78.3418 55.3047 78.1934 56.0937 78.1934 57C78.1934 57.9271 78.3392 58.7344 78.6309 59.4219C78.9277 60.1094 79.3444 60.6432 79.8809 61.0234C80.4225 61.4036 81.0579 61.5938 81.7871 61.5938C82.2663 61.5938 82.7012 61.5104 83.0918 61.3437C83.4824 61.1771 83.8132 60.9375 84.084 60.625C84.3548 60.3125 84.5475 59.9375 84.6621 59.5H86.5059C86.4017 60.2083 86.1439 60.8464 85.7324 61.4141C85.3262 61.9766 84.7871 62.4245 84.1152 62.7578C83.4486 63.0859 82.6725 63.25 81.7871 63.25ZM94.2324 63.25C93.0762 63.25 92.0788 62.9948 91.2402 62.4844C90.4069 61.9688 89.7637 61.25 89.3105 60.3281C88.8626 59.401 88.6387 58.3229 88.6387 57.0938C88.6387 55.8646 88.8626 54.7812 89.3105 53.8437C89.7637 52.901 90.3939 52.1667 91.2012 51.6406C92.0137 51.1094 92.9616 50.8438 94.0449 50.8438C94.6699 50.8438 95.2871 50.9479 95.8965 51.1562C96.5059 51.3646 97.0605 51.7031 97.5605 52.1719C98.0605 52.6354 98.459 53.25 98.7559 54.0156C99.0527 54.7812 99.2012 55.724 99.2012 56.8437V57.625H89.9512V56.0312H97.3262C97.3262 55.3542 97.1908 54.75 96.9199 54.2187C96.6543 53.6875 96.2741 53.2682 95.7793 52.9609C95.2897 52.6536 94.7116 52.5 94.0449 52.5C93.3105 52.5 92.6751 52.6823 92.1387 53.0469C91.6074 53.4062 91.1986 53.875 90.9121 54.4531C90.6257 55.0312 90.4824 55.651 90.4824 56.3125V57.375C90.4824 58.2813 90.6387 59.0495 90.9512 59.6797C91.2689 60.3047 91.709 60.7812 92.2715 61.1094C92.834 61.4323 93.4876 61.5938 94.2324 61.5938C94.7168 61.5938 95.1543 61.526 95.5449 61.3906C95.9408 61.25 96.2819 61.0417 96.5684 60.7656C96.8548 60.4844 97.0762 60.1354 97.2324 59.7187L99.0137 60.2188C98.8262 60.8229 98.5111 61.3542 98.0684 61.8125C97.6257 62.2656 97.0788 62.6198 96.4277 62.875C95.7767 63.125 95.0449 63.25 94.2324 63.25ZM100.889 52.7187V51H110.639V52.7187H106.701V63H104.857V52.7187H100.889ZM113.328 67.5V51H115.109V52.9062H115.328C115.464 52.6979 115.651 52.4323 115.891 52.1094C116.135 51.7812 116.484 51.4896 116.938 51.2344C117.396 50.974 118.016 50.8438 118.797 50.8438C119.807 50.8438 120.698 51.0964 121.469 51.6016C122.24 52.1068 122.841 52.8229 123.273 53.75C123.706 54.6771 123.922 55.7708 123.922 57.0313C123.922 58.3021 123.706 59.4036 123.273 60.3359C122.841 61.263 122.242 61.9818 121.477 62.4922C120.711 62.9974 119.828 63.25 118.828 63.25C118.057 63.25 117.44 63.1224 116.977 62.8672C116.513 62.6068 116.156 62.3125 115.906 61.9844C115.656 61.651 115.464 61.375 115.328 61.1562H115.172V67.5H113.328ZM115.141 57C115.141 57.9062 115.273 58.7057 115.539 59.3984C115.805 60.0859 116.193 60.625 116.703 61.0156C117.214 61.401 117.839 61.5938 118.578 61.5938C119.349 61.5938 119.992 61.3906 120.508 60.9844C121.029 60.5729 121.419 60.0208 121.68 59.3281C121.945 58.6302 122.078 57.8542 122.078 57C122.078 56.1562 121.948 55.3958 121.688 54.7187C121.432 54.0365 121.044 53.4974 120.523 53.1016C120.008 52.7005 119.359 52.5 118.578 52.5C117.828 52.5 117.198 52.6901 116.688 53.0703C116.177 53.4453 115.792 53.9714 115.531 54.6484C115.271 55.3203 115.141 56.1042 115.141 57ZM131.766 63.25C130.609 63.25 129.612 62.9948 128.773 62.4844C127.94 61.9688 127.297 61.25 126.844 60.3281C126.396 59.401 126.172 58.3229 126.172 57.0938C126.172 55.8646 126.396 54.7812 126.844 53.8437C127.297 52.901 127.927 52.1667 128.734 51.6406C129.547 51.1094 130.495 50.8438 131.578 50.8438C132.203 50.8438 132.82 50.9479 133.43 51.1562C134.039 51.3646 134.594 51.7031 135.094 52.1719C135.594 52.6354 135.992 53.25 136.289 54.0156C136.586 54.7812 136.734 55.724 136.734 56.8437V57.625H127.484V56.0312H134.859C134.859 55.3542 134.724 54.75 134.453 54.2187C134.188 53.6875 133.807 53.2682 133.313 52.9609C132.823 52.6536 132.245 52.5 131.578 52.5C130.844 52.5 130.208 52.6823 129.672 53.0469C129.141 53.4062 128.732 53.875 128.445 54.4531C128.159 55.0312 128.016 55.651 128.016 56.3125V57.375C128.016 58.2813 128.172 59.0495 128.484 59.6797C128.802 60.3047 129.242 60.7812 129.805 61.1094C130.367 61.4323 131.021 61.5938 131.766 61.5938C132.25 61.5938 132.688 61.526 133.078 61.3906C133.474 61.25 133.815 61.0417 134.102 60.7656C134.388 60.4844 134.609 60.1354 134.766 59.7187L136.547 60.2188C136.359 60.8229 136.044 61.3542 135.602 61.8125C135.159 62.2656 134.612 62.6198 133.961 62.875C133.31 63.125 132.578 63.25 131.766 63.25ZM141.133 55.3437H144.57C145.977 55.3437 147.052 55.7005 147.797 56.4141C148.542 57.1276 148.914 58.0312 148.914 59.125C148.914 59.8437 148.747 60.4974 148.414 61.0859C148.081 61.6693 147.591 62.1354 146.945 62.4844C146.299 62.8281 145.508 63 144.57 63H139.539V51H141.383V61.2812H144.57C145.299 61.2812 145.898 61.0885 146.367 60.7031C146.836 60.3177 147.07 59.8229 147.07 59.2188C147.07 58.5833 146.836 58.0651 146.367 57.6641C145.898 57.263 145.299 57.0625 144.57 57.0625H141.133V55.3437ZM156.752 63.25C155.596 63.25 154.598 62.9948 153.76 62.4844C152.926 61.9688 152.283 61.25 151.83 60.3281C151.382 59.401 151.158 58.3229 151.158 57.0938C151.158 55.8646 151.382 54.7812 151.83 53.8437C152.283 52.901 152.913 52.1667 153.721 51.6406C154.533 51.1094 155.481 50.8438 156.564 50.8438C157.189 50.8438 157.807 50.9479 158.416 51.1562C159.025 51.3646 159.58 51.7031 160.08 52.1719C160.58 52.6354 160.979 53.25 161.275 54.0156C161.572 54.7812 161.721 55.724 161.721 56.8437V57.625H152.471V56.0312H159.846C159.846 55.3542 159.71 54.75 159.439 54.2187C159.174 53.6875 158.794 53.2682 158.299 52.9609C157.809 52.6536 157.231 52.5 156.564 52.5C155.83 52.5 155.195 52.6823 154.658 53.0469C154.127 53.4062 153.718 53.875 153.432 54.4531C153.145 55.0312 153.002 55.651 153.002 56.3125V57.375C153.002 58.2813 153.158 59.0495 153.471 59.6797C153.788 60.3047 154.229 60.7812 154.791 61.1094C155.354 61.4323 156.007 61.5938 156.752 61.5938C157.236 61.5938 157.674 61.526 158.064 61.3906C158.46 61.25 158.801 61.0417 159.088 60.7656C159.374 60.4844 159.596 60.1354 159.752 59.7187L161.533 60.2188C161.346 60.8229 161.031 61.3542 160.588 61.8125C160.145 62.2656 159.598 62.6198 158.947 62.875C158.296 63.125 157.564 63.25 156.752 63.25ZM164.525 67.5V51H166.307V52.9062H166.525C166.661 52.6979 166.848 52.4323 167.088 52.1094C167.333 51.7812 167.682 51.4896 168.135 51.2344C168.593 50.974 169.213 50.8438 169.994 50.8438C171.005 50.8438 171.895 51.0964 172.666 51.6016C173.437 52.1068 174.038 52.8229 174.471 53.75C174.903 54.6771 175.119 55.7708 175.119 57.0313C175.119 58.3021 174.903 59.4036 174.471 60.3359C174.038 61.263 173.439 61.9818 172.674 62.4922C171.908 62.9974 171.025 63.25 170.025 63.25C169.255 63.25 168.637 63.1224 168.174 62.8672C167.71 62.6068 167.354 62.3125 167.104 61.9844C166.854 61.651 166.661 61.375 166.525 61.1562H166.369V67.5H164.525ZM166.338 57C166.338 57.9062 166.471 58.7057 166.736 59.3984C167.002 60.0859 167.39 60.625 167.9 61.0156C168.411 61.401 169.036 61.5938 169.775 61.5938C170.546 61.5938 171.189 61.3906 171.705 60.9844C172.226 60.5729 172.617 60.0208 172.877 59.3281C173.143 58.6302 173.275 57.8542 173.275 57C173.275 56.1562 173.145 55.3958 172.885 54.7187C172.63 54.0365 172.242 53.4974 171.721 53.1016C171.205 52.7005 170.557 52.5 169.775 52.5C169.025 52.5 168.395 52.6901 167.885 53.0703C167.374 53.4453 166.989 53.9714 166.729 54.6484C166.468 55.3203 166.338 56.1042 166.338 57Z" fill="white"/>
</svg>
