<svg width="239" height="102" viewBox="0 0 239 102" fill="none" xmlns="http://www.w3.org/2000/svg">
<mask id="path-1-inside-1_213_105" fill="white">
<path fill-rule="evenodd" clip-rule="evenodd" d="M120.251 96.7888L229 51L120.251 5.21114V5.00006L120 5.1056L119.749 5V5.2112L11 51L119.749 96.7889V96.9999L120 96.8944L120.251 97V96.7888Z"/>
</mask>
<path fill-rule="evenodd" clip-rule="evenodd" d="M120.251 96.7888L229 51L120.251 5.21114V5.00006L120 5.1056L119.749 5V5.2112L11 51L119.749 96.7889V96.9999L120 96.8944L120.251 97V96.7888Z" fill="#0D26A8"/>
<path d="M229 51L229.999 53.373L235.635 51L229.999 48.6269L229 51ZM120.251 96.7888L119.252 94.4158L117.676 95.0792V96.7888H120.251ZM120.251 5.21114H117.676V6.92075L119.252 7.58417L120.251 5.21114ZM120.251 5.00006H122.826V1.12219L119.252 2.62703L120.251 5.00006ZM120 5.1056L119.001 7.47864L120 7.89933L120.999 7.47862L120 5.1056ZM119.749 5L120.748 2.62696L117.174 1.12217V5H119.749ZM119.749 5.2112L120.748 7.58423L122.324 6.92081V5.2112H119.749ZM11 51L10.0008 48.627L4.36484 51L10.0008 53.3731L11 51ZM119.749 96.7889H122.324V95.0792L120.748 94.4158L119.749 96.7889ZM119.749 96.9999H117.174V100.878L120.748 99.373L119.749 96.9999ZM120 96.8944L120.999 94.5214L120 94.1007L119.001 94.5214L120 96.8944ZM120.251 97L119.252 99.373L122.826 100.878V97H120.251ZM228.001 48.6269L119.252 94.4158L121.25 99.1618L229.999 53.373L228.001 48.6269ZM119.252 7.58417L228.001 53.373L229.999 48.6269L121.25 2.8381L119.252 7.58417ZM117.676 5.00006V5.21114H122.826V5.00006H117.676ZM120.999 7.47862L121.25 7.37309L119.252 2.62703L119.001 2.73257L120.999 7.47862ZM118.75 7.37304L119.001 7.47864L120.999 2.73256L120.748 2.62696L118.75 7.37304ZM122.324 5.2112V5H117.174V5.2112H122.324ZM11.9992 53.3731L120.748 7.58423L118.75 2.83816L10.0008 48.627L11.9992 53.3731ZM120.748 94.4158L11.9992 48.627L10.0008 53.3731L118.75 99.1619L120.748 94.4158ZM122.324 96.9999V96.7889H117.174V96.9999H122.324ZM119.001 94.5214L118.75 94.6269L120.748 99.373L120.999 99.2674L119.001 94.5214ZM121.25 94.627L120.999 94.5214L119.001 99.2674L119.252 99.373L121.25 94.627ZM117.676 96.7888V97H122.826V96.7888H117.676Z" fill="#0D26A8" mask="url(#path-1-inside-1_213_105)"/>
<path d="M54.9375 55.9375H56.9063C56.9479 56.4792 57.1927 56.8906 57.6406 57.1719C58.0938 57.4531 58.6823 57.5938 59.4063 57.5938C60.1458 57.5938 60.7786 57.4427 61.3047 57.1406C61.8307 56.8333 62.0938 56.3385 62.0938 55.6562C62.0938 55.2552 61.9948 54.9062 61.7969 54.6094C61.599 54.3073 61.3203 54.0729 60.9609 53.9062C60.6016 53.7396 60.1771 53.6562 59.6875 53.6562H57.625V52H59.6875C60.4219 52 60.9635 51.8333 61.3125 51.5C61.6667 51.1667 61.8438 50.75 61.8438 50.25C61.8438 49.7135 61.6536 49.2839 61.2734 48.9609C60.8932 48.6328 60.3542 48.4687 59.6563 48.4687C58.9531 48.4687 58.3672 48.6276 57.8984 48.9453C57.4297 49.2578 57.1823 49.6615 57.1562 50.1562H55.2188C55.2396 49.5104 55.4375 48.9401 55.8125 48.4453C56.1875 47.9453 56.6979 47.5547 57.3438 47.2734C57.9896 46.987 58.7292 46.8438 59.5625 46.8438C60.4062 46.8438 61.138 46.9922 61.7578 47.2891C62.3828 47.5807 62.8646 47.9792 63.2031 48.4844C63.5469 48.9844 63.7188 49.5521 63.7188 50.1875C63.7188 50.8646 63.5286 51.4115 63.1484 51.8281C62.7682 52.2448 62.2917 52.5417 61.7188 52.7187V52.8437C62.1719 52.875 62.5651 53.0208 62.8984 53.2812C63.237 53.5365 63.5 53.8724 63.6875 54.2891C63.875 54.7005 63.9688 55.1562 63.9688 55.6562C63.9688 56.3854 63.7734 57.0208 63.3828 57.5625C62.9922 58.099 62.4557 58.5156 61.7734 58.8125C61.0911 59.1042 60.3125 59.25 59.4375 59.25C58.5885 59.25 57.8281 59.112 57.1562 58.8359C56.4844 58.5547 55.9505 58.1667 55.5547 57.6719C55.1641 57.1719 54.9583 56.5938 54.9375 55.9375ZM71.4336 59.25C70.3503 59.25 69.3997 58.9922 68.582 58.4766C67.7695 57.9609 67.1341 57.2396 66.6758 56.3125C66.2227 55.3854 65.9961 54.3021 65.9961 53.0625C65.9961 51.8125 66.2227 50.7214 66.6758 49.7891C67.1341 48.8568 67.7695 48.1328 68.582 47.6172C69.3997 47.1016 70.3503 46.8438 71.4336 46.8438C72.5169 46.8438 73.4648 47.1016 74.2773 47.6172C75.0951 48.1328 75.7305 48.8568 76.1836 49.7891C76.6419 50.7214 76.8711 51.8125 76.8711 53.0625C76.8711 54.3021 76.6419 55.3854 76.1836 56.3125C75.7305 57.2396 75.0951 57.9609 74.2773 58.4766C73.4648 58.9922 72.5169 59.25 71.4336 59.25ZM71.4336 57.5938C72.2565 57.5938 72.9336 57.3828 73.4648 56.9609C73.9961 56.5391 74.3893 55.9844 74.6445 55.2969C74.8997 54.6094 75.0273 53.8646 75.0273 53.0625C75.0273 52.2604 74.8997 51.513 74.6445 50.8203C74.3893 50.1276 73.9961 49.5677 73.4648 49.1406C72.9336 48.7135 72.2565 48.5 71.4336 48.5C70.6107 48.5 69.9336 48.7135 69.4023 49.1406C68.8711 49.5677 68.4779 50.1276 68.2227 50.8203C67.9674 51.513 67.8398 52.2604 67.8398 53.0625C67.8398 53.8646 67.9674 54.6094 68.2227 55.2969C68.4779 55.9844 68.8711 56.5391 69.4023 56.9609C69.9336 57.3828 70.6107 57.5938 71.4336 57.5938ZM87.7168 52.1562V53.875H81.0918V52.1562H87.7168ZM81.5293 47V59H79.6855V47H81.5293ZM89.123 47V59H87.2793V47H89.123ZM96.0215 59.2813C95.2611 59.2813 94.571 59.138 93.9512 58.8516C93.3314 58.5599 92.8392 58.1406 92.4746 57.5938C92.11 57.0417 91.9277 56.375 91.9277 55.5937C91.9277 54.9062 92.0632 54.349 92.334 53.9219C92.6048 53.4896 92.9668 53.151 93.4199 52.9062C93.873 52.6615 94.373 52.4792 94.9199 52.3594C95.472 52.2344 96.0267 52.1354 96.584 52.0625C97.3132 51.9687 97.9043 51.8984 98.3574 51.8516C98.8158 51.7995 99.1491 51.7135 99.3574 51.5937C99.571 51.474 99.6777 51.2656 99.6777 50.9687V50.9062C99.6777 50.1354 99.4668 49.5365 99.0449 49.1094C98.6283 48.6823 97.9954 48.4687 97.1465 48.4687C96.2663 48.4687 95.5762 48.6615 95.0762 49.0469C94.5762 49.4323 94.2246 49.8437 94.0215 50.2812L92.2715 49.6562C92.584 48.9271 93.0007 48.3594 93.5215 47.9531C94.0475 47.5417 94.6204 47.2552 95.2402 47.0937C95.8652 46.9271 96.4798 46.8438 97.084 46.8438C97.4694 46.8438 97.9121 46.8906 98.4121 46.9844C98.9173 47.0729 99.4043 47.2578 99.873 47.5391C100.347 47.8203 100.74 48.2448 101.053 48.8125C101.365 49.3802 101.521 50.1406 101.521 51.0938V59H99.6777V57.375H99.584C99.459 57.6354 99.2507 57.9141 98.959 58.2109C98.6673 58.5078 98.2793 58.7604 97.7949 58.9687C97.3105 59.1771 96.7194 59.2813 96.0215 59.2813ZM96.3027 57.625C97.0319 57.625 97.6465 57.4818 98.1465 57.1953C98.6517 56.9089 99.0319 56.5391 99.2871 56.0859C99.5475 55.6328 99.6777 55.1562 99.6777 54.6562V52.9687C99.5996 53.0625 99.4277 53.1484 99.1621 53.2266C98.9017 53.2995 98.5996 53.3646 98.2559 53.4219C97.9173 53.474 97.5866 53.5208 97.2637 53.5625C96.946 53.599 96.6882 53.6302 96.4902 53.6562C96.0111 53.7187 95.5632 53.8203 95.1465 53.9609C94.735 54.0964 94.4017 54.3021 94.1465 54.5781C93.8965 54.849 93.7715 55.2187 93.7715 55.6875C93.7715 56.3281 94.0085 56.8125 94.4824 57.1406C94.9616 57.4635 95.5684 57.625 96.3027 57.625ZM110.387 48.7187V47H120.137V48.7187H116.199V59H114.355V48.7187H110.387ZM127.234 59.25C126.078 59.25 125.081 58.9948 124.242 58.4844C123.409 57.9688 122.766 57.25 122.313 56.3281C121.865 55.401 121.641 54.3229 121.641 53.0938C121.641 51.8646 121.865 50.7812 122.313 49.8437C122.766 48.901 123.396 48.1667 124.203 47.6406C125.016 47.1094 125.964 46.8438 127.047 46.8438C127.672 46.8438 128.289 46.9479 128.898 47.1562C129.508 47.3646 130.063 47.7031 130.563 48.1719C131.063 48.6354 131.461 49.25 131.758 50.0156C132.055 50.7812 132.203 51.724 132.203 52.8437V53.625H122.953V52.0312H130.328C130.328 51.3542 130.193 50.75 129.922 50.2187C129.656 49.6875 129.276 49.2682 128.781 48.9609C128.292 48.6536 127.714 48.5 127.047 48.5C126.313 48.5 125.677 48.6823 125.141 49.0469C124.609 49.4062 124.201 49.875 123.914 50.4531C123.628 51.0312 123.484 51.651 123.484 52.3125V53.375C123.484 54.2813 123.641 55.0495 123.953 55.6797C124.271 56.3047 124.711 56.7812 125.273 57.1094C125.836 57.4323 126.49 57.5938 127.234 57.5938C127.719 57.5938 128.156 57.526 128.547 57.3906C128.943 57.25 129.284 57.0417 129.57 56.7656C129.857 56.4844 130.078 56.1354 130.234 55.7187L132.016 56.2188C131.828 56.8229 131.513 57.3542 131.07 57.8125C130.628 58.2656 130.081 58.6198 129.43 58.875C128.779 59.125 128.047 59.25 127.234 59.25ZM139.883 59.25C138.758 59.25 137.789 58.9844 136.977 58.4531C136.164 57.9219 135.539 57.1901 135.102 56.2578C134.664 55.3255 134.445 54.2604 134.445 53.0625C134.445 51.8437 134.669 50.7682 135.117 49.8359C135.57 48.8984 136.201 48.1667 137.008 47.6406C137.82 47.1094 138.768 46.8438 139.852 46.8438C140.695 46.8438 141.456 47 142.133 47.3125C142.81 47.625 143.365 48.0625 143.797 48.625C144.229 49.1875 144.497 49.8437 144.602 50.5937H142.758C142.617 50.0469 142.305 49.5625 141.82 49.1406C141.341 48.7135 140.695 48.5 139.883 48.5C139.164 48.5 138.534 48.6875 137.992 49.0625C137.456 49.4323 137.036 49.9557 136.734 50.6328C136.438 51.3047 136.289 52.0937 136.289 53C136.289 53.9271 136.435 54.7344 136.727 55.4219C137.023 56.1094 137.44 56.6432 137.977 57.0234C138.518 57.4036 139.154 57.5938 139.883 57.5938C140.362 57.5938 140.797 57.5104 141.188 57.3437C141.578 57.1771 141.909 56.9375 142.18 56.625C142.451 56.3125 142.643 55.9375 142.758 55.5H144.602C144.497 56.2083 144.24 56.8464 143.828 57.4141C143.422 57.9766 142.883 58.4245 142.211 58.7578C141.544 59.0859 140.768 59.25 139.883 59.25ZM146.352 48.7187V47H156.102V48.7187H152.164V59H150.32V48.7187H146.352ZM163.043 59.25C161.96 59.25 161.009 58.9922 160.191 58.4766C159.379 57.9609 158.743 57.2396 158.285 56.3125C157.832 55.3854 157.605 54.3021 157.605 53.0625C157.605 51.8125 157.832 50.7214 158.285 49.7891C158.743 48.8568 159.379 48.1328 160.191 47.6172C161.009 47.1016 161.96 46.8438 163.043 46.8438C164.126 46.8438 165.074 47.1016 165.887 47.6172C166.704 48.1328 167.34 48.8568 167.793 49.7891C168.251 50.7214 168.48 51.8125 168.48 53.0625C168.48 54.3021 168.251 55.3854 167.793 56.3125C167.34 57.2396 166.704 57.9609 165.887 58.4766C165.074 58.9922 164.126 59.25 163.043 59.25ZM163.043 57.5938C163.866 57.5938 164.543 57.3828 165.074 56.9609C165.605 56.5391 165.999 55.9844 166.254 55.2969C166.509 54.6094 166.637 53.8646 166.637 53.0625C166.637 52.2604 166.509 51.513 166.254 50.8203C165.999 50.1276 165.605 49.5677 165.074 49.1406C164.543 48.7135 163.866 48.5 163.043 48.5C162.22 48.5 161.543 48.7135 161.012 49.1406C160.48 49.5677 160.087 50.1276 159.832 50.8203C159.577 51.513 159.449 52.2604 159.449 53.0625C159.449 53.8646 159.577 54.6094 159.832 55.2969C160.087 55.9844 160.48 56.5391 161.012 56.9609C161.543 57.3828 162.22 57.5938 163.043 57.5938ZM171.295 59V47H176.201C177.493 47 178.519 47.2917 179.279 47.875C180.04 48.4583 180.42 49.2292 180.42 50.1875C180.42 50.9167 180.204 51.4818 179.771 51.8828C179.339 52.2786 178.785 52.5469 178.107 52.6875C178.55 52.75 178.98 52.9062 179.396 53.1562C179.818 53.4062 180.167 53.75 180.443 54.1875C180.719 54.6198 180.857 55.151 180.857 55.7812C180.857 56.3958 180.701 56.9453 180.389 57.4297C180.076 57.9141 179.628 58.2969 179.045 58.5781C178.462 58.8594 177.764 59 176.951 59H171.295ZM173.045 57.3125H176.951C177.587 57.3125 178.084 57.1615 178.443 56.8594C178.803 56.5573 178.982 56.1458 178.982 55.625C178.982 55.0052 178.803 54.5182 178.443 54.1641C178.084 53.8047 177.587 53.625 176.951 53.625H173.045V57.3125ZM173.045 52.0312H176.201C176.696 52.0312 177.12 51.9635 177.475 51.8281C177.829 51.6875 178.1 51.4896 178.287 51.2344C178.48 50.974 178.576 50.6667 178.576 50.3125C178.576 49.8073 178.365 49.4115 177.943 49.125C177.521 48.8333 176.941 48.6875 176.201 48.6875H173.045V52.0312Z" fill="white"/>
</svg>
