<svg width="182" height="47" viewBox="0 0 182 47" fill="none" xmlns="http://www.w3.org/2000/svg">
<rect y="1" width="182" height="46" fill="#0D26A8"/>
<path d="M10.9375 28.9375H12.9063C12.9479 29.4792 13.1927 29.8906 13.6406 30.1719C14.0938 30.4531 14.6823 30.5938 15.4063 30.5938C16.1458 30.5938 16.7786 30.4427 17.3047 30.1406C17.8307 29.8333 18.0938 29.3385 18.0938 28.6562C18.0938 28.2552 17.9948 27.9062 17.7969 27.6094C17.599 27.3073 17.3203 27.0729 16.9609 26.9062C16.6016 26.7396 16.1771 26.6562 15.6875 26.6562H13.625V25H15.6875C16.4219 25 16.9635 24.8333 17.3125 24.5C17.6667 24.1667 17.8438 23.75 17.8438 23.25C17.8438 22.7135 17.6536 22.2839 17.2734 21.9609C16.8932 21.6328 16.3542 21.4687 15.6563 21.4687C14.9531 21.4687 14.3672 21.6276 13.8984 21.9453C13.4297 22.2578 13.1823 22.6615 13.1562 23.1562H11.2188C11.2396 22.5104 11.4375 21.9401 11.8125 21.4453C12.1875 20.9453 12.6979 20.5547 13.3438 20.2734C13.9896 19.987 14.7292 19.8438 15.5625 19.8438C16.4062 19.8438 17.138 19.9922 17.7578 20.2891C18.3828 20.5807 18.8646 20.9792 19.2031 21.4844C19.5469 21.9844 19.7188 22.5521 19.7188 23.1875C19.7188 23.8646 19.5286 24.4115 19.1484 24.8281C18.7682 25.2448 18.2917 25.5417 17.7188 25.7187V25.8437C18.1719 25.875 18.5651 26.0208 18.8984 26.2812C19.237 26.5365 19.5 26.8724 19.6875 27.2891C19.875 27.7005 19.9688 28.1562 19.9688 28.6562C19.9688 29.3854 19.7734 30.0208 19.3828 30.5625C18.9922 31.099 18.4557 31.5156 17.7734 31.8125C17.0911 32.1042 16.3125 32.25 15.4375 32.25C14.5885 32.25 13.8281 32.112 13.1562 31.8359C12.4844 31.5547 11.9505 31.1667 11.5547 30.6719C11.1641 30.1719 10.9583 29.5938 10.9375 28.9375ZM27.4336 32.25C26.3503 32.25 25.3997 31.9922 24.582 31.4766C23.7695 30.9609 23.1341 30.2396 22.6758 29.3125C22.2227 28.3854 21.9961 27.3021 21.9961 26.0625C21.9961 24.8125 22.2227 23.7214 22.6758 22.7891C23.1341 21.8568 23.7695 21.1328 24.582 20.6172C25.3997 20.1016 26.3503 19.8438 27.4336 19.8438C28.5169 19.8438 29.4648 20.1016 30.2773 20.6172C31.0951 21.1328 31.7305 21.8568 32.1836 22.7891C32.6419 23.7214 32.8711 24.8125 32.8711 26.0625C32.8711 27.3021 32.6419 28.3854 32.1836 29.3125C31.7305 30.2396 31.0951 30.9609 30.2773 31.4766C29.4648 31.9922 28.5169 32.25 27.4336 32.25ZM27.4336 30.5938C28.2565 30.5938 28.9336 30.3828 29.4648 29.9609C29.9961 29.5391 30.3893 28.9844 30.6445 28.2969C30.8997 27.6094 31.0273 26.8646 31.0273 26.0625C31.0273 25.2604 30.8997 24.513 30.6445 23.8203C30.3893 23.1276 29.9961 22.5677 29.4648 22.1406C28.9336 21.7135 28.2565 21.5 27.4336 21.5C26.6107 21.5 25.9336 21.7135 25.4023 22.1406C24.8711 22.5677 24.4779 23.1276 24.2227 23.8203C23.9674 24.513 23.8398 25.2604 23.8398 26.0625C23.8398 26.8646 23.9674 27.6094 24.2227 28.2969C24.4779 28.9844 24.8711 29.5391 25.4023 29.9609C25.9336 30.3828 26.6107 30.5938 27.4336 30.5938ZM43.7168 25.1562V26.875H37.0918V25.1562H43.7168ZM37.5293 20V32H35.6855V20H37.5293ZM45.123 20V32H43.2793V20H45.123ZM52.0215 32.2813C51.2611 32.2813 50.571 32.138 49.9512 31.8516C49.3314 31.5599 48.8392 31.1406 48.4746 30.5938C48.11 30.0417 47.9277 29.375 47.9277 28.5937C47.9277 27.9062 48.0632 27.349 48.334 26.9219C48.6048 26.4896 48.9668 26.151 49.4199 25.9062C49.873 25.6615 50.373 25.4792 50.9199 25.3594C51.472 25.2344 52.0267 25.1354 52.584 25.0625C53.3132 24.9687 53.9043 24.8984 54.3574 24.8516C54.8158 24.7995 55.1491 24.7135 55.3574 24.5937C55.571 24.474 55.6777 24.2656 55.6777 23.9687V23.9062C55.6777 23.1354 55.4668 22.5365 55.0449 22.1094C54.6283 21.6823 53.9954 21.4687 53.1465 21.4687C52.2663 21.4687 51.5762 21.6615 51.0762 22.0469C50.5762 22.4323 50.2246 22.8437 50.0215 23.2812L48.2715 22.6562C48.584 21.9271 49.0007 21.3594 49.5215 20.9531C50.0475 20.5417 50.6204 20.2552 51.2402 20.0937C51.8652 19.9271 52.4798 19.8438 53.084 19.8438C53.4694 19.8438 53.9121 19.8906 54.4121 19.9844C54.9173 20.0729 55.4043 20.2578 55.873 20.5391C56.347 20.8203 56.7402 21.2448 57.0527 21.8125C57.3652 22.3802 57.5215 23.1406 57.5215 24.0938V32H55.6777V30.375H55.584C55.459 30.6354 55.2507 30.9141 54.959 31.2109C54.6673 31.5078 54.2793 31.7604 53.7949 31.9687C53.3105 32.1771 52.7194 32.2813 52.0215 32.2813ZM52.3027 30.625C53.0319 30.625 53.6465 30.4818 54.1465 30.1953C54.6517 29.9089 55.0319 29.5391 55.2871 29.0859C55.5475 28.6328 55.6777 28.1562 55.6777 27.6562V25.9687C55.5996 26.0625 55.4277 26.1484 55.1621 26.2266C54.9017 26.2995 54.5996 26.3646 54.2559 26.4219C53.9173 26.474 53.5866 26.5208 53.2637 26.5625C52.946 26.599 52.6882 26.6302 52.4902 26.6562C52.0111 26.7187 51.5632 26.8203 51.1465 26.9609C50.735 27.0964 50.4017 27.3021 50.1465 27.5781C49.8965 27.849 49.7715 28.2187 49.7715 28.6875C49.7715 29.3281 50.0085 29.8125 50.4824 30.1406C50.9616 30.4635 51.5684 30.625 52.3027 30.625ZM71.9492 32.25C70.8659 32.25 69.9154 31.9922 69.0977 31.4766C68.2852 30.9609 67.6497 30.2396 67.1914 29.3125C66.7383 28.3854 66.5117 27.3021 66.5117 26.0625C66.5117 24.8125 66.7383 23.7214 67.1914 22.7891C67.6497 21.8568 68.2852 21.1328 69.0977 20.6172C69.9154 20.1016 70.8659 19.8438 71.9492 19.8438C73.0326 19.8438 73.9805 20.1016 74.793 20.6172C75.6107 21.1328 76.2461 21.8568 76.6992 22.7891C77.1576 23.7214 77.3867 24.8125 77.3867 26.0625C77.3867 27.3021 77.1576 28.3854 76.6992 29.3125C76.2461 30.2396 75.6107 30.9609 74.793 31.4766C73.9805 31.9922 73.0326 32.25 71.9492 32.25ZM71.9492 30.5938C72.7721 30.5938 73.4492 30.3828 73.9805 29.9609C74.5117 29.5391 74.9049 28.9844 75.1602 28.2969C75.4154 27.6094 75.543 26.8646 75.543 26.0625C75.543 25.2604 75.4154 24.513 75.1602 23.8203C74.9049 23.1276 74.5117 22.5677 73.9805 22.1406C73.4492 21.7135 72.7721 21.5 71.9492 21.5C71.1263 21.5 70.4492 21.7135 69.918 22.1406C69.3867 22.5677 68.9935 23.1276 68.7383 23.8203C68.4831 24.513 68.3555 25.2604 68.3555 26.0625C68.3555 26.8646 68.4831 27.6094 68.7383 28.2969C68.9935 28.9844 69.3867 29.5391 69.918 29.9609C70.4492 30.3828 71.1263 30.5938 71.9492 30.5938ZM78.957 32L83.832 25.9062L79.0195 20H81.207L85.207 25.125H86.207V20H88.0508V25.125H89.0195L93.0195 20H95.207L90.4258 25.9062L95.2695 32H93.0508L88.9883 26.8438H88.0508V32H86.207V26.8438H85.2695L81.1758 32H78.957ZM99.748 29.2812L105.529 20H107.654V32H105.811V22.7188L100.061 32H97.9043V20H99.748V29.2812ZM109.75 35.4375V30.2812H110.75C110.995 30.026 111.206 29.75 111.383 29.4531C111.56 29.1562 111.714 28.8047 111.844 28.3984C111.979 27.987 112.094 27.487 112.188 26.8984C112.281 26.3047 112.365 25.5885 112.438 24.75L112.844 20H120.469V30.2812H122.312V35.4375H120.469V32H111.594V35.4375H109.75ZM112.844 30.2812H118.625V21.7187H114.563L114.25 24.75C114.12 26.0052 113.958 27.1016 113.766 28.0391C113.573 28.9766 113.266 29.724 112.844 30.2812ZM128.291 32.2813C127.531 32.2813 126.84 32.138 126.221 31.8516C125.601 31.5599 125.109 31.1406 124.744 30.5938C124.38 30.0417 124.197 29.375 124.197 28.5937C124.197 27.9062 124.333 27.349 124.604 26.9219C124.874 26.4896 125.236 26.151 125.689 25.9062C126.143 25.6615 126.643 25.4792 127.189 25.3594C127.742 25.2344 128.296 25.1354 128.854 25.0625C129.583 24.9687 130.174 24.8984 130.627 24.8516C131.085 24.7995 131.419 24.7135 131.627 24.5937C131.84 24.474 131.947 24.2656 131.947 23.9687V23.9062C131.947 23.1354 131.736 22.5365 131.314 22.1094C130.898 21.6823 130.265 21.4687 129.416 21.4687C128.536 21.4687 127.846 21.6615 127.346 22.0469C126.846 22.4323 126.494 22.8437 126.291 23.2812L124.541 22.6562C124.854 21.9271 125.27 21.3594 125.791 20.9531C126.317 20.5417 126.89 20.2552 127.51 20.0937C128.135 19.9271 128.749 19.8438 129.354 19.8438C129.739 19.8438 130.182 19.8906 130.682 19.9844C131.187 20.0729 131.674 20.2578 132.143 20.5391C132.617 20.8203 133.01 21.2448 133.322 21.8125C133.635 22.3802 133.791 23.1406 133.791 24.0938V32H131.947V30.375H131.854C131.729 30.6354 131.52 30.9141 131.229 31.2109C130.937 31.5078 130.549 31.7604 130.064 31.9687C129.58 32.1771 128.989 32.2813 128.291 32.2813ZM128.572 30.625C129.301 30.625 129.916 30.4818 130.416 30.1953C130.921 29.9089 131.301 29.5391 131.557 29.0859C131.817 28.6328 131.947 28.1562 131.947 27.6562V25.9687C131.869 26.0625 131.697 26.1484 131.432 26.2266C131.171 26.2995 130.869 26.3646 130.525 26.4219C130.187 26.474 129.856 26.5208 129.533 26.5625C129.215 26.599 128.958 26.6302 128.76 26.6562C128.281 26.7187 127.833 26.8203 127.416 26.9609C127.005 27.0964 126.671 27.3021 126.416 27.5781C126.166 27.849 126.041 28.2187 126.041 28.6875C126.041 29.3281 126.278 29.8125 126.752 30.1406C127.231 30.4635 127.838 30.625 128.572 30.625ZM145.188 25.1562V26.875H138.562V25.1562H145.188ZM139 20V32H137.156V20H139ZM146.594 20V32H144.75V20H146.594ZM151.805 29.2812L157.586 20H159.711V32H157.867V22.7188L152.117 32H149.961V20H151.805V29.2812ZM170.307 32V21.6875H167.119C166.4 21.6875 165.835 21.8542 165.424 22.1875C165.012 22.5208 164.807 22.9792 164.807 23.5625C164.807 24.1354 164.992 24.5859 165.361 24.9141C165.736 25.2422 166.249 25.4063 166.9 25.4063H170.775V27.125H166.9C166.088 27.125 165.387 26.9818 164.799 26.6953C164.21 26.4089 163.757 26 163.439 25.4688C163.122 24.9323 162.963 24.2969 162.963 23.5625C162.963 22.8229 163.13 22.1875 163.463 21.6562C163.796 21.125 164.273 20.7161 164.893 20.4297C165.518 20.1432 166.26 20 167.119 20H172.057V32H170.307ZM162.307 32L165.713 26.0313H167.713L164.307 32H162.307Z" fill="white"/>
</svg>
