<svg width="459" height="97" viewBox="0 0 459 97" fill="none" xmlns="http://www.w3.org/2000/svg">
<g clip-path="url(#clip0_263_4)">
<path d="M64.9038 52.5156L71.2111 54.245C67.854 70.6235 56.2568 82.0173 37.4367 82.0173C16.0734 82.0173 2.0346 66.3509 2.0346 45.3944C2.0346 24.438 16.0734 8.77159 37.4367 8.77159C56.2568 8.77159 67.854 20.1654 71.2111 36.5439L64.9038 38.2733C62.4623 24.2346 51.9841 14.8754 37.4367 14.8754C20.5495 14.8754 8.85052 27.3882 8.85052 45.2927C8.85052 63.1972 20.346 75.9135 37.4367 75.9135C52.2893 75.9135 62.3606 66.4526 64.9038 52.5156ZM79.3217 81V9.78889H125.507V15.8927H86.1376V43.4616H102.72V40.1045H121.031V46.2083H102.72V49.5654H86.1376V74.8962H125.507V81H79.3217ZM149.001 43.5633L184.098 81H175.349L141.473 44.7841V81H134.657V9.78889H141.473V42.546L171.28 9.78889H179.724L149.001 43.5633ZM218.613 52.5156H195.418V81H188.602V9.78889H218.206C229.091 9.78889 238.348 18.2325 238.45 30.7453C238.552 41.1218 231.227 52.5156 218.613 52.5156ZM214.747 16.1979H195.418V46.2083H216.476C227.26 46.2083 231.634 37.8664 231.634 30.7453C231.634 23.6242 228.48 16.1979 214.747 16.1979ZM338.871 82.0173V71.946C316.897 71.7426 302.655 65.7405 302.655 45.3944C302.655 25.3536 316.999 18.2325 338.871 18.029V6.53352H345.789V18.029C367.661 18.3342 381.903 25.3536 381.903 45.3944C381.903 65.7405 367.661 71.7426 345.789 71.946V82.0173H338.871ZM338.871 65.8422V24.1328C321.17 24.3363 309.878 28.8124 309.878 45.2927C309.878 61.8747 321.068 65.6387 338.871 65.8422ZM345.789 24.1328V65.8422C363.693 65.6387 374.68 61.8747 374.68 45.2927C374.68 28.8124 363.49 24.3363 345.789 24.1328ZM393.307 37.256L387 35.5266C390.357 19.1481 401.954 8.77159 420.774 8.77159C442.138 8.77159 456.176 24.438 456.176 45.3944C456.176 66.3509 442.138 82.0173 420.774 82.0173C401.954 82.0173 390.357 71.6408 387 55.2623L393.307 53.5329C395.85 67.4699 405.82 75.9135 420.774 75.9135C436.848 75.9135 447.834 64.7232 449.259 48.6498H410.093V42.4443H449.259C448.038 26.0657 436.746 14.8754 420.774 14.8754C405.718 14.8754 395.749 23.2173 393.307 37.256Z" fill="black"/>
<path d="M292.947 9.78889H247.575V15.8927H286.131V41.7322H250.22V47.9377H286.131V74.8962H246.761V81H292.947V9.78889Z" fill="black"/>
</g>
<defs>
<clipPath id="clip0_263_4">
<rect width="459" height="97" fill="white"/>
</clipPath>
</defs>
</svg>
