<svg width="247" height="128" viewBox="0 0 247 128" fill="none" xmlns="http://www.w3.org/2000/svg">
<rect y="1" width="246" height="127" fill="#FFFEFE"/>
<path d="M123 67V98M123 98L128 89M123 98L118 89" stroke="black" stroke-width="2"/>
<path d="M72.0714 48.3454H79.1356V57H77.7127V49.6009H73.4943V57H72.0714V48.3454ZM85.0081 57.1841C84.3162 57.1841 83.708 57.0725 83.1835 56.8493C82.6701 56.615 82.2349 56.2969 81.8777 55.8952C81.5206 55.4822 81.2528 55.0024 81.0742 54.4555C80.8957 53.9087 80.8064 53.3172 80.8064 52.6811C80.8064 52.045 80.8957 51.4535 81.0742 50.9066C81.2528 50.3486 81.5206 49.8688 81.8777 49.467C82.2349 49.0541 82.6701 48.7304 83.1835 48.4961C83.708 48.2617 84.3162 48.1445 85.0081 48.1445C85.6889 48.1445 86.2915 48.2617 86.816 48.4961C87.3406 48.7304 87.7814 49.0541 88.1385 49.467C88.4956 49.8688 88.7635 50.3486 88.942 50.9066C89.1206 51.4535 89.2099 52.045 89.2099 52.6811C89.2099 53.3172 89.1206 53.9087 88.942 54.4555C88.7635 55.0024 88.4956 55.4822 88.1385 55.8952C87.7814 56.2969 87.3406 56.615 86.816 56.8493C86.2915 57.0725 85.6889 57.1841 85.0081 57.1841ZM85.0081 55.9454C85.3764 55.9454 85.7224 55.8728 86.046 55.7278C86.3808 55.5827 86.671 55.3762 86.9165 55.1084C87.162 54.8294 87.3517 54.489 87.4856 54.0872C87.6307 53.6743 87.7033 53.2056 87.7033 52.6811C87.7033 52.1566 87.6307 51.6934 87.4856 51.2917C87.3517 50.8787 87.162 50.5328 86.9165 50.2538C86.671 49.9748 86.3808 49.7627 86.046 49.6177C85.7224 49.4726 85.3764 49.4 85.0081 49.4C84.6398 49.4 84.2883 49.4726 83.9535 49.6177C83.6299 49.7627 83.3453 49.9748 83.0998 50.2538C82.8542 50.5328 82.6589 50.8787 82.5139 51.2917C82.3799 51.6934 82.313 52.1566 82.313 52.6811C82.313 53.2056 82.3799 53.6743 82.5139 54.0872C82.6589 54.489 82.8542 54.8294 83.0998 55.1084C83.3453 55.3762 83.6299 55.5827 83.9535 55.7278C84.2883 55.8728 84.6398 55.9454 85.0081 55.9454ZM92.98 49.6009H89.8831V48.3454H97.4998V49.6009H94.4029V57H92.98V49.6009ZM100.461 53.6185C99.8472 53.5292 99.345 53.2502 98.9544 52.7815C98.5638 52.3128 98.3685 51.7213 98.3685 51.0071C98.3685 50.1924 98.6084 49.5451 99.0883 49.0652C99.5793 48.5854 100.243 48.3454 101.08 48.3454H105.466V57H104.043V53.6687H102.152L99.5068 57H97.6152L100.461 53.6185ZM104.043 52.4467V49.6009H101.532C100.93 49.6009 100.494 49.7293 100.227 49.9859C99.9588 50.2426 99.8248 50.5886 99.8248 51.0238C99.8248 51.4702 99.9588 51.8218 100.227 52.0784C100.494 52.324 100.93 52.4467 101.532 52.4467H104.043ZM107.611 48.3454H109.034V51.7939H113.42V48.3454H114.843V57H113.42V53.0159H109.034V57H107.611V48.3454ZM116.978 48.3454H118.401V55.4097L122.486 48.3454H124.31V57H122.888V49.9357L118.803 57H116.978V48.3454ZM131.119 48.3454H133.161L135.79 55.3595H135.823L138.451 48.3454H140.493V57H139.071V50.1366L136.459 57H135.153L132.542 50.1366V57H131.119V48.3454ZM146.327 57.1841C145.635 57.1841 145.027 57.0725 144.502 56.8493C143.989 56.6261 143.559 56.3137 143.213 55.9119C142.867 55.5101 142.605 55.0303 142.427 54.4723C142.259 53.9143 142.175 53.306 142.175 52.6476C142.175 52.0003 142.276 51.4033 142.477 50.8564C142.678 50.2984 142.957 49.8185 143.314 49.4168C143.682 49.015 144.112 48.7025 144.603 48.4793C145.105 48.2561 145.652 48.1445 146.243 48.1445C147.013 48.1445 147.649 48.3064 148.152 48.63C148.665 48.9425 149.072 49.3442 149.374 49.8353C149.686 50.3263 149.898 50.862 150.01 51.4423C150.133 52.0226 150.183 52.5751 150.16 53.0996H143.682C143.671 53.479 143.716 53.8417 143.816 54.1877C143.916 54.5225 144.078 54.8238 144.301 55.0916C144.525 55.3483 144.809 55.5548 145.155 55.711C145.501 55.8673 145.908 55.9454 146.377 55.9454C146.98 55.9454 147.471 55.8059 147.85 55.5269C148.241 55.2479 148.498 54.8238 148.62 54.2546H150.027C149.837 55.2367 149.418 55.9733 148.771 56.4643C148.124 56.9442 147.309 57.1841 146.327 57.1841ZM148.654 51.8441C148.632 51.5093 148.553 51.1912 148.419 50.8899C148.297 50.5886 148.124 50.3319 147.901 50.1199C147.689 49.8967 147.432 49.7237 147.131 49.6009C146.84 49.467 146.517 49.4 146.16 49.4C145.791 49.4 145.457 49.467 145.155 49.6009C144.865 49.7237 144.614 49.8967 144.402 50.1199C144.19 50.3431 144.022 50.6053 143.9 50.9066C143.777 51.1968 143.704 51.5093 143.682 51.8441H148.654ZM151.635 48.3454H153.058V51.7939H157.444V48.3454H158.867V57H157.444V53.0159H153.058V57H151.635V48.3454ZM162.827 53.6185C162.213 53.5292 161.711 53.2502 161.321 52.7815C160.93 52.3128 160.735 51.7213 160.735 51.0071C160.735 50.1924 160.975 49.5451 161.455 49.0652C161.946 48.5854 162.61 48.3454 163.447 48.3454H167.833V57H166.41V53.6687H164.518L161.873 57H159.981L162.827 53.6185ZM166.41 52.4467V49.6009H163.899C163.296 49.6009 162.861 49.7293 162.593 49.9859C162.325 50.2426 162.191 50.5886 162.191 51.0238C162.191 51.4702 162.325 51.8218 162.593 52.0784C162.861 52.324 163.296 52.4467 163.899 52.4467H166.41Z" fill="black"/>
</svg>
