<svg width="85" height="80" viewBox="0 0 85 80" fill="none" xmlns="http://www.w3.org/2000/svg">
<path d="M84.2888 80H71.6756V66.9733C71.6756 58.6334 70.4522 51.6548 68.0053 46.0374C65.5585 40.4201 62.1468 36.1985 57.7701 33.3726C53.3933 30.5466 48.3102 29.1337 42.5205 29.1337C37.0065 29.1337 32.044 30.5466 27.6328 33.3726C23.2561 36.1985 19.7754 40.4201 17.1907 46.0374C14.6405 51.6548 13.3654 58.6334 13.3654 66.9733V80H0.752228V66.9733C0.752228 56.5657 2.52703 47.6055 6.07665 40.0927C9.66072 32.5799 14.5888 26.8075 20.861 22.7754C27.1676 18.7433 34.3874 16.7273 42.5205 16.7273C50.9293 16.7273 58.2525 18.7433 64.4902 22.7754C70.7623 26.8075 75.6215 32.5799 79.0677 40.0927C82.5484 47.6055 84.2888 56.5657 84.2888 66.9733V80ZM48.9305 0.598933V80H36.1105V0.598933H48.9305Z" fill="#0D26A8"/>
</svg>
