<svg width="102" height="102" viewBox="0 0 102 102" fill="none" xmlns="http://www.w3.org/2000/svg">
<path d="M77.7572 60.5763C76.3191 67.1375 73.3081 72.3056 68.7242 76.0806C64.2302 79.8556 58.8824 81.743 52.6807 81.743C48.0968 81.743 43.9623 80.9791 40.2772 79.4511C36.5921 77.8333 33.4463 75.6761 30.8398 72.9797C28.2333 70.1935 26.211 66.9128 24.7729 63.1379C23.4247 59.3629 22.7506 55.2734 22.7506 50.8693C22.7506 46.3753 23.4247 42.2408 24.7729 38.4658C26.1211 34.6909 28.0535 31.4552 30.5702 28.7588C33.0868 26.0624 36.1877 23.9502 39.8728 22.4222C43.5578 20.8943 47.6923 20.1303 52.2762 20.1303C58.7476 20.1303 64.3201 21.883 68.9939 25.3883C73.6676 28.8037 76.5438 33.8819 77.6224 40.6229H69.1287C68.4097 36.848 66.5671 33.7471 63.6011 31.3204C60.7249 28.8037 56.9949 27.5454 52.411 27.5454C49.0855 27.5454 46.1194 28.1296 43.5129 29.2981C40.9963 30.4665 38.8841 32.1293 37.1764 34.2864C35.4686 36.3536 34.1654 38.7804 33.2666 41.5667C32.3678 44.353 31.9184 47.3639 31.9184 50.5996C31.9184 53.7454 32.3678 56.7564 33.2666 59.6326C34.2553 62.5087 35.6484 65.0254 37.446 67.1825C39.2436 69.3396 41.4007 71.0923 43.9174 72.4405C46.5239 73.6988 49.445 74.3279 52.6807 74.3279C57.2645 74.3279 60.9946 73.0696 63.8707 70.553C66.7469 67.9465 68.4995 64.6209 69.1287 60.5763H77.7572ZM9.40344 50.5996C9.40344 56.8013 10.4371 62.5537 12.5043 67.8566C14.6614 73.0696 17.5825 77.6086 21.2676 81.4734C25.0426 85.3382 29.4467 88.3942 34.48 90.6412C39.6031 92.7983 45.1307 93.8768 51.0628 93.8768C56.905 93.8768 62.3428 92.7983 67.376 90.6412C72.4093 88.3942 76.7685 85.3382 80.4536 81.4734C84.2285 77.6086 87.1496 73.0696 89.2169 67.8566C91.374 62.5537 92.4526 56.8013 92.4526 50.5996C92.4526 44.5777 91.374 38.9602 89.2169 33.7471C87.1496 28.5341 84.2285 24.0401 80.4536 20.2651C76.7685 16.4003 72.4093 13.3893 67.376 11.2322C62.3428 8.98517 56.905 7.86167 51.0628 7.86167C45.1307 7.86167 39.6031 8.98517 34.48 11.2322C29.4467 13.3893 25.0426 16.4003 21.2676 20.2651C17.5825 24.0401 14.6614 28.5341 12.5043 33.7471C10.4371 38.9602 9.40344 44.5777 9.40344 50.5996ZM0.23568 50.5996C0.23568 43.4991 1.58388 36.8929 4.28028 30.7811C6.97668 24.6692 10.6168 19.3663 15.2007 14.8723C19.8745 10.3783 25.2673 6.87299 31.3791 4.35635C37.5808 1.74983 44.1421 0.446574 51.0628 0.446574C57.9836 0.446574 64.4999 1.74983 70.6117 4.35635C76.7236 6.87299 82.0714 10.3783 86.6553 14.8723C91.2392 19.3663 94.8793 24.6692 97.5757 30.7811C100.272 36.8929 101.62 43.4991 101.62 50.5996C101.62 57.8799 100.272 64.6209 97.5757 70.8226C94.8793 76.9345 91.2392 82.2823 86.6553 86.8662C82.0714 91.3602 76.7236 94.8655 70.6117 97.3822C64.4999 99.8988 57.9836 101.157 51.0628 101.157C44.1421 101.157 37.5808 99.8988 31.3791 97.3822C25.2673 94.8655 19.8745 91.3602 15.2007 86.8662C10.6168 82.2823 6.97668 76.9345 4.28028 70.8226C1.58388 64.6209 0.23568 57.8799 0.23568 50.5996Z" fill="black"/>
</svg>
