<svg width="1136" height="944" viewBox="0 0 1136 944" fill="none" xmlns="http://www.w3.org/2000/svg">
<path d="M481.774 75.832L157.746 197.766H312.421L400.485 152.605L465.968 174.056L515.644 115.348L481.774 75.832Z" stroke="#0D26A8" stroke-width="2.25803"/>
<rect x="450.997" y="96.5345" width="29.9388" height="29.9388" transform="rotate(-19.968 450.997 96.5345)" stroke="#0D26A8" stroke-width="2.25803"/>
<rect x="412.761" y="110.62" width="29.9388" height="29.9388" transform="rotate(-19.968 412.761 110.62)" stroke="#0D26A8" stroke-width="2.25803"/>
<rect x="374.531" y="124.706" width="29.9388" height="29.9388" transform="rotate(-19.968 374.531 124.706)" stroke="#0D26A8" stroke-width="2.25803"/>
<rect x="336.296" y="138.792" width="29.9388" height="29.9388" transform="rotate(-19.968 336.296 138.792)" stroke="#0D26A8" stroke-width="2.25803"/>
<rect x="218.047" y="412.586" width="29.9388" height="29.9388" transform="rotate(51.5964 218.047 412.586)" stroke="#0D26A8" stroke-width="2.25803"/>
<rect x="298.064" y="152.879" width="29.9388" height="29.9388" transform="rotate(-19.968 298.064 152.879)" stroke="#0D26A8" stroke-width="2.25803"/>
<rect x="259.675" y="166.534" width="29.9388" height="29.9388" transform="rotate(-19.968 259.675 166.534)" stroke="#0D26A8" stroke-width="2.25803"/>
<rect x="149.047" y="332.586" width="29.9388" height="29.9388" transform="rotate(51.5964 149.047 332.586)" stroke="#0D26A8" stroke-width="2.25803"/>
<path d="M236.778 503.729L74.1992 297.119L166.779 333.247L180.327 386.311H263.874L236.778 503.729Z" stroke="#0D26A8" stroke-width="2.25803"/>
<path d="M838.545 660.662L679.354 601.954L734.675 582.76L869.028 633.566L838.545 660.662Z" stroke="#0D26A8" stroke-width="2.25803"/>
<rect x="845.137" y="582.25" width="29.3544" height="29.3544" transform="rotate(20.9408 845.137 582.25)" stroke="#0D26A8" stroke-width="2.25803"/>
<rect x="983.114" y="431.81" width="29.3544" height="29.3544" transform="rotate(115.753 983.114 431.81)" stroke="#0D26A8" stroke-width="2.25803"/>
<rect x="894.217" y="489.706" width="29.3544" height="29.3544" transform="rotate(-177.842 894.217 489.706)" stroke="#0D26A8" stroke-width="2.25803"/>
<rect x="714.067" y="344.422" width="29.3544" height="29.3544" transform="rotate(-78.3021 714.067 344.422)" stroke="#0D26A8" stroke-width="2.25803"/>
<rect x="736.977" y="260.243" width="29.3544" height="29.3544" transform="rotate(-33.5877 736.977 260.243)" stroke="#0D26A8" stroke-width="2.25803"/>
<rect x="672.737" y="780.664" width="29.3544" height="29.3544" transform="rotate(-160.792 672.737 780.664)" stroke="#0D26A8" stroke-width="2.25803"/>
<rect x="799.403" y="730.301" width="29.3544" height="29.3544" transform="rotate(125.326 799.403 730.301)" stroke="#0D26A8" stroke-width="2.25803"/>
<rect x="590.798" y="816.159" width="29.3544" height="29.3544" transform="rotate(110.794 590.798 816.159)" stroke="#0D26A8" stroke-width="2.25803"/>
<rect x="496.895" y="881.601" width="29.3544" height="29.3544" transform="rotate(-155.619 496.895 881.601)" stroke="#0D26A8" stroke-width="2.25803"/>
<rect x="316.208" y="725.031" width="29.3544" height="29.3544" transform="rotate(0.748464 316.208 725.031)" stroke="#0D26A8" stroke-width="2.25803"/>
<path d="M394.841 731.79L359.842 679.855V770.177L319.197 797.273L351.939 860.498L381.293 849.208L370.003 807.434L394.841 731.79Z" stroke="#0D26A8" stroke-width="2.25803"/>
<rect x="999.952" y="437.249" width="33.8705" height="13.5482" transform="rotate(114.833 999.952 437.249)" stroke="#0D26A8" stroke-width="2.25803"/>
<rect x="895.97" y="507.315" width="33.8705" height="13.5482" transform="rotate(-178.762 895.97 507.315)" stroke="#0D26A8" stroke-width="2.25803"/>
<rect x="696.412" y="343.235" width="33.8705" height="13.5482" transform="rotate(-79.2223 696.412 343.235)" stroke="#0D26A8" stroke-width="2.25803"/>
<rect x="725.263" y="246.977" width="33.8705" height="13.5482" transform="rotate(-34.508 725.263 246.977)" stroke="#0D26A8" stroke-width="2.25803"/>
<rect x="669.251" y="798.014" width="33.8705" height="13.5482" transform="rotate(-161.712 669.251 798.014)" stroke="#0D26A8" stroke-width="2.25803"/>
<rect x="815.106" y="738.464" width="33.8705" height="13.5482" transform="rotate(124.406 815.106 738.464)" stroke="#0D26A8" stroke-width="2.25803"/>
<rect x="608.045" y="820.121" width="33.8705" height="13.5482" transform="rotate(109.874 608.045 820.121)" stroke="#0D26A8" stroke-width="2.25803"/>
<rect x="491.859" y="898.566" width="33.8705" height="13.5482" transform="rotate(-156.539 491.859 898.566)" stroke="#0D26A8" stroke-width="2.25803"/>
<rect x="948.023" y="450.89" width="20.2735" height="7.59953" transform="rotate(25.3598 948.023 450.89)" stroke="#0D26A8" stroke-width="2.25803"/>
<rect x="862.686" y="465.185" width="20.2735" height="7.59953" transform="rotate(91.7647 862.686 465.185)" stroke="#0D26A8" stroke-width="2.25803"/>
<rect x="743.477" y="317.392" width="20.2735" height="7.59953" transform="rotate(-168.696 743.477 317.392)" stroke="#0D26A8" stroke-width="2.25803"/>
<rect x="776.889" y="261.725" width="20.2735" height="7.59953" transform="rotate(-123.981 776.889 261.725)" stroke="#0D26A8" stroke-width="2.25803"/>
<rect x="649.78" y="747.976" width="20.2735" height="7.59953" transform="rotate(108.814 649.78 747.976)" stroke="#0D26A8" stroke-width="2.25803"/>
<rect x="761.631" y="743.278" width="20.2735" height="7.59953" transform="rotate(34.9325 761.631 743.278)" stroke="#0D26A8" stroke-width="2.25803"/>
<rect x="557.485" y="838.199" width="20.2735" height="7.59953" transform="rotate(20.4005 557.485 838.199)" stroke="#0D26A8" stroke-width="2.25803"/>
<rect x="476.98" y="846.977" width="20.2735" height="7.59953" transform="rotate(113.987 476.98 846.977)" stroke="#0D26A8" stroke-width="2.25803"/>
<rect x="964.933" y="411.525" width="20.2735" height="7.59953" transform="rotate(25.3598 964.933 411.525)" stroke="#0D26A8" stroke-width="2.25803"/>
<rect x="905.53" y="464.925" width="20.2735" height="7.59953" transform="rotate(91.7647 905.53 464.925)" stroke="#0D26A8" stroke-width="2.25803"/>
<rect x="736.632" y="359.685" width="20.2735" height="7.59953" transform="rotate(-168.696 736.632 359.685)" stroke="#0D26A8" stroke-width="2.25803"/>
<rect x="742.27" y="286.963" width="20.2735" height="7.59953" transform="rotate(-123.981 742.27 286.963)" stroke="#0D26A8" stroke-width="2.25803"/>
<rect x="690.817" y="760.29" width="20.2735" height="7.59953" transform="rotate(108.814 690.817 760.29)" stroke="#0D26A8" stroke-width="2.25803"/>
<rect x="784.851" y="707.273" width="20.2735" height="7.59953" transform="rotate(34.9325 784.851 707.273)" stroke="#0D26A8" stroke-width="2.25803"/>
<rect x="570.93" y="797.52" width="20.2735" height="7.59953" transform="rotate(20.4005 570.93 797.52)" stroke="#0D26A8" stroke-width="2.25803"/>
<rect x="516.588" y="863.989" width="20.2735" height="7.59953" transform="rotate(113.987 516.588 863.989)" stroke="#0D26A8" stroke-width="2.25803"/>
<rect x="789.029" y="411.167" width="151.644" height="13.5482" transform="rotate(-34.8912 789.029 411.167)" stroke="#0D26A8" stroke-width="2.25803"/>
<rect x="810.761" y="439.627" width="151.644" height="13.5482" transform="rotate(-34.8912 810.761 439.627)" stroke="#0D26A8" stroke-width="2.25803"/>
<path d="M719.559 721.064L688.834 741.848L719.559 753.596V783.417L746.669 747.27L719.559 721.064Z" stroke="#0D26A8" stroke-width="1.80734"/>
<path d="M510.814 844.867L533.406 816.853L523.466 850.289L558.709 867.459L547.865 890.05L510.814 844.867Z" stroke="#0D26A8" stroke-width="1.80734"/>
<path d="M448.46 438.215L421.35 484.303L435.808 530.39L474.666 499.665L512.62 530.39V473.458L448.46 438.215Z" stroke="#0D26A8" stroke-width="3.84471"/>
<path d="M842.459 273.747L809.023 212.297L850.592 243.022L875.895 220.43L903.909 254.77L842.459 273.747Z" stroke="#0D26A8" stroke-width="1.80734"/>
<path d="M1044.23 355.853L1024.25 413.415L1021 379.542L1010.38 365.687L976.096 386.942L962.985 341.817L1044.23 355.853Z" stroke="#0D26A8" stroke-width="1.80734"/>
<path d="M231.739 528.478L278.696 505L302.174 598.913L349.13 622.391L278.696 763.261L349.13 888.478L564.348 927.609L626.957 821.957L838.261 771.087L850 673.261L1080.87 516.739L1120 360.217L967.391 188.043L818.696 148.913L709.13 172.391L599.565 301.522L576.087 278.043L673.913 125.435L482.174 55L145.652 180.217L40 289.783L231.739 528.478Z" stroke="#0D26A8" stroke-width="7.82609"/>
<path d="M278.518 506.413L284.212 330.376L481.222 269.483L577.665 279.643L599.114 302.22L626.988 381.305L666.845 585.021L572.326 711.236L411.756 730.058L350.765 622.816" stroke="#0D26A8" stroke-width="7.82609"/>
<path d="M667.975 585.564L898.262 527.992L1081.14 516.704" stroke="#0D26A8" stroke-width="7.83429"/>
<path d="M967.124 190.463L933.258 346.246L796.666 437.684L646.527 455.745" stroke="#0D26A8" stroke-width="7.83429"/>
</svg>
