<svg width="685" height="273" viewBox="0 0 685 273" fill="none" xmlns="http://www.w3.org/2000/svg">
<g clip-path="url(#clip0_249_148)">
<rect width="685" height="273" fill="white"/>
<path d="M54.4177 139.539C53.9546 139.539 53.4916 139.508 53.0285 139.446C52.5655 139.384 52.1179 139.276 51.6857 139.122V135.51C52.0561 135.634 52.4266 135.757 52.797 135.881C53.1983 136.004 53.5996 136.066 54.0009 136.066C54.8035 136.066 55.4518 135.881 55.9457 135.51C56.4396 135.14 56.8718 134.6 57.2422 133.89L58.8629 129.861L49.3704 106.06H53.8157L60.8077 125.647H60.9003L67.6145 106.06H71.7819L61.3634 133.149C60.9003 134.322 60.4373 135.31 59.9742 136.112C59.542 136.915 59.0481 137.563 58.4925 138.057C57.9677 138.582 57.3657 138.952 56.6866 139.168C56.0383 139.415 55.282 139.539 54.4177 139.539ZM75.1159 106.06H94.6565V130H90.7206V109.533H79.0518V130H75.1159V106.06ZM110.484 130.509C108.662 130.509 107.042 130.216 105.622 129.63C104.233 129.043 103.059 128.21 102.102 127.129C101.176 126.049 100.466 124.768 99.9725 123.286C99.5094 121.804 99.2779 120.153 99.2779 118.331C99.2779 116.541 99.5094 114.874 99.9725 113.33C100.436 111.756 101.13 110.398 102.056 109.255C103.013 108.082 104.186 107.172 105.575 106.523C106.995 105.844 108.662 105.505 110.576 105.505C111.935 105.505 113.2 105.675 114.373 106.014C115.577 106.323 116.627 106.817 117.522 107.496C118.448 108.175 119.204 109.039 119.791 110.089C120.377 111.108 120.748 112.327 120.902 113.747H116.827C116.519 112.234 115.87 111.061 114.883 110.228C113.895 109.394 112.567 108.978 110.9 108.978C109.48 108.978 108.292 109.24 107.335 109.765C106.378 110.29 105.606 110.984 105.02 111.849C104.464 112.713 104.063 113.716 103.816 114.858C103.569 115.97 103.445 117.127 103.445 118.331C103.445 119.443 103.569 120.523 103.816 121.573C104.094 122.622 104.51 123.564 105.066 124.397C105.622 125.2 106.332 125.848 107.196 126.342C108.091 126.836 109.172 127.083 110.437 127.083C112.382 127.083 113.895 126.573 114.975 125.555C116.087 124.536 116.766 123.101 117.013 121.248H121.041C120.609 124.243 119.513 126.543 117.753 128.148C115.994 129.722 113.571 130.509 110.484 130.509ZM125.908 124.86H131.048V130H125.908V124.86ZM130.678 107.125L129.52 121.526H127.436L126.279 107.125V96.9384H130.678V107.125ZM150.316 106.06H161.383C162.432 106.06 163.436 106.138 164.392 106.292C165.38 106.446 166.26 106.74 167.032 107.172C167.804 107.573 168.421 108.16 168.884 108.931C169.347 109.703 169.579 110.691 169.579 111.895C169.579 113.191 169.27 114.241 168.653 115.044C168.035 115.846 167.171 116.51 166.059 117.035V117.081C167.449 117.359 168.544 118.007 169.347 119.026C170.181 120.044 170.597 121.356 170.597 122.962C170.597 123.98 170.412 124.922 170.042 125.786C169.702 126.651 169.208 127.391 168.56 128.009C167.912 128.626 167.14 129.12 166.245 129.491C165.349 129.83 164.377 130 163.327 130H150.316V106.06ZM162.587 126.666C163.883 126.666 164.856 126.296 165.504 125.555C166.183 124.783 166.523 123.826 166.523 122.684C166.523 121.603 166.168 120.739 165.458 120.091C164.747 119.443 163.559 119.118 161.892 119.118H154.205V126.666H162.587ZM160.966 115.877C162.664 115.877 163.837 115.568 164.485 114.951C165.164 114.334 165.504 113.516 165.504 112.497C165.504 111.509 165.18 110.753 164.531 110.228C163.883 109.672 162.695 109.394 160.966 109.394H154.205V115.877H160.966ZM175.322 106.06H179.258V125.601L190.556 106.06H195.604V130H191.668V110.459L180.369 130H175.322V106.06ZM198.725 126.527H201.55C201.889 125.879 202.229 124.999 202.568 123.888C202.939 122.746 203.263 121.495 203.541 120.137C203.849 118.748 204.096 117.282 204.281 115.738C204.467 114.195 204.559 112.682 204.559 111.2V106.06H221.877V126.527H225.119V137.27H221.368V130H202.476V137.27H198.725V126.527ZM217.941 126.527V109.533H208.403V111.571C208.403 113.083 208.31 114.596 208.125 116.109C207.97 117.59 207.754 118.995 207.477 120.322C207.199 121.65 206.89 122.854 206.55 123.934C206.242 125.015 205.933 125.879 205.624 126.527H217.941ZM228.817 106.06H232.753V125.601L244.051 106.06H249.098V130H245.162V110.459L233.864 130H228.817V106.06ZM255.044 106.06H260.693L267.963 125.462H268.056L275.326 106.06H280.975V130H277.039V111.015L269.815 130H266.204L258.98 111.015V130H255.044V106.06ZM297.25 130.509C295.336 130.509 293.653 130.201 292.203 129.583C290.783 128.935 289.579 128.055 288.591 126.944C287.603 125.802 286.862 124.474 286.368 122.962C285.874 121.449 285.627 119.813 285.627 118.053C285.627 116.294 285.874 114.658 286.368 113.145C286.862 111.602 287.603 110.274 288.591 109.163C289.579 108.021 290.783 107.125 292.203 106.477C293.653 105.829 295.336 105.505 297.25 105.505C299.133 105.505 300.8 105.829 302.251 106.477C303.702 107.125 304.921 108.021 305.909 109.163C306.897 110.274 307.638 111.602 308.131 113.145C308.625 114.658 308.872 116.294 308.872 118.053C308.872 119.813 308.625 121.449 308.131 122.962C307.638 124.474 306.897 125.802 305.909 126.944C304.921 128.055 303.702 128.935 302.251 129.583C300.8 130.201 299.133 130.509 297.25 130.509ZM297.25 127.083C298.269 127.083 299.225 126.882 300.121 126.481C301.047 126.08 301.849 125.508 302.529 124.768C303.208 123.996 303.732 123.054 304.103 121.943C304.504 120.801 304.705 119.504 304.705 118.053C304.705 116.602 304.504 115.321 304.103 114.21C303.732 113.068 303.208 112.111 302.529 111.339C301.849 110.567 301.047 109.981 300.121 109.58C299.225 109.178 298.269 108.978 297.25 108.978C296.231 108.978 295.259 109.178 294.333 109.58C293.437 109.981 292.65 110.567 291.971 111.339C291.292 112.111 290.752 113.068 290.35 114.21C289.98 115.321 289.795 116.602 289.795 118.053C289.795 119.504 289.98 120.801 290.35 121.943C290.752 123.054 291.292 123.996 291.971 124.768C292.65 125.508 293.437 126.08 294.333 126.481C295.259 126.882 296.231 127.083 297.25 127.083ZM326.4 106.06H337.467C338.517 106.06 339.52 106.138 340.477 106.292C341.465 106.446 342.345 106.74 343.116 107.172C343.888 107.573 344.506 108.16 344.969 108.931C345.432 109.703 345.663 110.691 345.663 111.895C345.663 113.191 345.355 114.241 344.737 115.044C344.12 115.846 343.255 116.51 342.144 117.035V117.081C343.533 117.359 344.629 118.007 345.432 119.026C346.265 120.044 346.682 121.356 346.682 122.962C346.682 123.98 346.497 124.922 346.126 125.786C345.787 126.651 345.293 127.391 344.645 128.009C343.996 128.626 343.225 129.12 342.329 129.491C341.434 129.83 340.462 130 339.412 130H326.4V106.06ZM338.671 126.666C339.968 126.666 340.94 126.296 341.588 125.555C342.268 124.783 342.607 123.826 342.607 122.684C342.607 121.603 342.252 120.739 341.542 120.091C340.832 119.443 339.644 119.118 337.977 119.118H330.29V126.666H338.671ZM337.051 115.877C338.748 115.877 339.921 115.568 340.57 114.951C341.249 114.334 341.588 113.516 341.588 112.497C341.588 111.509 341.264 110.753 340.616 110.228C339.968 109.672 338.779 109.394 337.051 109.394H330.29V115.877H337.051ZM351.407 106.06H355.343V115.229H362.751C365.098 115.229 366.981 115.877 368.401 117.174C369.821 118.439 370.531 120.23 370.531 122.545C370.531 124.798 369.852 126.604 368.493 127.963C367.135 129.321 365.283 130 362.937 130H351.407V106.06ZM361.501 126.527C364.804 126.527 366.456 125.2 366.456 122.545C366.456 119.921 364.804 118.609 361.501 118.609H355.343V126.527H361.501ZM374.328 106.06H378.264V130H374.328V106.06ZM406.988 130.509C405.166 130.509 403.546 130.216 402.126 129.63C400.737 129.043 399.564 128.21 398.607 127.129C397.68 126.049 396.97 124.768 396.477 123.286C396.013 121.804 395.782 120.153 395.782 118.331C395.782 116.541 396.013 114.874 396.477 113.33C396.94 111.756 397.634 110.398 398.56 109.255C399.517 108.082 400.69 107.172 402.079 106.523C403.499 105.844 405.166 105.505 407.08 105.505C408.439 105.505 409.704 105.675 410.877 106.014C412.081 106.323 413.131 106.817 414.026 107.496C414.952 108.175 415.708 109.039 416.295 110.089C416.881 111.108 417.252 112.327 417.406 113.747H413.331C413.023 112.234 412.374 111.061 411.387 110.228C410.399 109.394 409.071 108.978 407.404 108.978C405.984 108.978 404.796 109.24 403.839 109.765C402.882 110.29 402.11 110.984 401.524 111.849C400.968 112.713 400.567 113.716 400.32 114.858C400.073 115.97 399.949 117.127 399.949 118.331C399.949 119.443 400.073 120.523 400.32 121.573C400.598 122.622 401.014 123.564 401.57 124.397C402.126 125.2 402.836 125.848 403.7 126.342C404.595 126.836 405.676 127.083 406.941 127.083C408.886 127.083 410.399 126.573 411.479 125.555C412.591 124.536 413.27 123.101 413.517 121.248H417.545C417.113 124.243 416.017 126.543 414.258 128.148C412.498 129.722 410.075 130.509 406.988 130.509ZM421.764 130.278C421.363 130.278 420.946 130.232 420.514 130.139C420.082 130.077 419.727 130.015 419.449 129.954V126.481C419.757 126.573 420.035 126.635 420.282 126.666C420.56 126.697 420.822 126.712 421.069 126.712C422.088 126.712 422.86 126.311 423.385 125.508C423.94 124.706 424.342 123.471 424.589 121.804C424.866 120.137 425.036 118.007 425.098 115.414C425.16 112.79 425.221 109.672 425.283 106.06H442.092V130H438.156V109.533H429.08C428.988 112.342 428.879 115.013 428.756 117.544C428.663 120.044 428.401 122.236 427.969 124.119C427.537 126.002 426.842 127.5 425.885 128.611C424.928 129.722 423.554 130.278 421.764 130.278ZM448.041 106.06H451.977V125.601L463.275 106.06H468.322V130H464.386V110.459L453.088 130H448.041V106.06ZM474.268 106.06H478.204V126.527H487.141V106.06H491.077V126.527H500.014V106.06H503.949V130H474.268V106.06ZM509.856 106.06H513.792V117.498L524.766 106.06H529.998L519.395 116.433L531.249 130H526.201L516.2 118.609L513.792 120.971V130H509.856V106.06ZM544.555 130.509C542.641 130.509 540.959 130.201 539.508 129.583C538.088 128.935 536.884 128.055 535.896 126.944C534.908 125.802 534.167 124.474 533.674 122.962C533.18 121.449 532.933 119.813 532.933 118.053C532.933 116.294 533.18 114.658 533.674 113.145C534.167 111.602 534.908 110.274 535.896 109.163C536.884 108.021 538.088 107.125 539.508 106.477C540.959 105.829 542.641 105.505 544.555 105.505C546.438 105.505 548.105 105.829 549.556 106.477C551.007 107.125 552.226 108.021 553.214 109.163C554.202 110.274 554.943 111.602 555.437 113.145C555.931 114.658 556.178 116.294 556.178 118.053C556.178 119.813 555.931 121.449 555.437 122.962C554.943 124.474 554.202 125.802 553.214 126.944C552.226 128.055 551.007 128.935 549.556 129.583C548.105 130.201 546.438 130.509 544.555 130.509ZM544.555 127.083C545.574 127.083 546.531 126.882 547.426 126.481C548.352 126.08 549.155 125.508 549.834 124.768C550.513 123.996 551.038 123.054 551.408 121.943C551.81 120.801 552.01 119.504 552.01 118.053C552.01 116.602 551.81 115.321 551.408 114.21C551.038 113.068 550.513 112.111 549.834 111.339C549.155 110.567 548.352 109.981 547.426 109.58C546.531 109.178 545.574 108.978 544.555 108.978C543.536 108.978 542.564 109.178 541.638 109.58C540.743 109.981 539.956 110.567 539.276 111.339C538.597 112.111 538.057 113.068 537.656 114.21C537.285 115.321 537.1 116.602 537.1 118.053C537.1 119.504 537.285 120.801 537.656 121.943C538.057 123.054 538.597 123.996 539.276 124.768C539.956 125.508 540.743 126.08 541.638 126.481C542.564 126.882 543.536 127.083 544.555 127.083ZM560.818 106.06H566.467L573.737 125.462H573.83L581.1 106.06H586.749V130H582.813V111.015L575.589 130H571.978L564.754 111.015V130H560.818V106.06ZM66.318 168.276C65.608 168.585 64.6201 168.878 63.3545 169.156C62.0888 169.434 60.7614 169.573 59.3723 169.573C56.4088 169.573 54.2942 168.94 53.0285 167.674C51.7628 166.378 51.13 164.572 51.13 162.256V154.06H55.0659V161.608C55.0659 163.182 55.4209 164.356 56.1309 165.127C56.8718 165.868 58.1992 166.239 60.1131 166.239C61.2862 166.239 62.4438 166.115 63.586 165.868C64.7282 165.621 65.6388 165.343 66.318 165.035V154.06H70.2539V178H66.318V168.276ZM86.3882 178.509C84.4743 178.509 82.7918 178.201 81.341 177.583C79.921 176.966 78.7325 176.102 77.7755 174.99C76.8185 173.879 76.0931 172.551 75.5992 171.008C75.1361 169.464 74.9046 167.782 74.9046 165.961C74.9046 164.17 75.1824 162.519 75.7381 161.006C76.2937 159.463 77.0655 158.135 78.0533 157.024C79.072 155.913 80.2605 155.048 81.6188 154.431C83.0079 153.813 84.5206 153.505 86.1567 153.505C88.2867 153.505 90.0463 153.952 91.4354 154.848C92.8554 155.712 93.9822 156.823 94.8156 158.182C95.68 159.54 96.2665 161.022 96.5752 162.627C96.9148 164.232 97.0537 165.76 96.992 167.211H79.072C79.0412 168.261 79.1646 169.264 79.4425 170.221C79.7203 171.147 80.1679 171.98 80.7853 172.721C81.4027 173.431 82.1899 174.002 83.1469 174.435C84.1038 174.867 85.2306 175.083 86.5271 175.083C88.1941 175.083 89.5523 174.697 90.6019 173.925C91.6824 173.153 92.3924 171.98 92.7319 170.406H96.6215C96.0967 173.123 94.9391 175.16 93.1487 176.518C91.3582 177.846 89.1047 178.509 86.3882 178.509ZM92.8245 163.738C92.7628 162.812 92.5467 161.932 92.1763 161.099C91.8367 160.265 91.3582 159.555 90.7408 158.969C90.1543 158.351 89.4443 157.873 88.6108 157.533C87.8082 157.163 86.913 156.978 85.9251 156.978C84.9064 156.978 83.9803 157.163 83.1469 157.533C82.3442 157.873 81.6497 158.351 81.0631 158.969C80.4766 159.586 80.0136 160.312 79.674 161.145C79.3344 161.948 79.1338 162.812 79.072 163.738H92.8245ZM110.981 178.509C109.16 178.509 107.539 178.216 106.119 177.63C104.73 177.043 103.557 176.21 102.6 175.129C101.674 174.049 100.964 172.768 100.47 171.286C100.007 169.804 99.7753 168.153 99.7753 166.331C99.7753 164.541 100.007 162.874 100.47 161.33C100.933 159.756 101.628 158.398 102.554 157.255C103.511 156.082 104.684 155.172 106.073 154.523C107.493 153.844 109.16 153.505 111.074 153.505C112.432 153.505 113.698 153.675 114.871 154.014C116.075 154.323 117.124 154.817 118.019 155.496C118.945 156.175 119.702 157.039 120.288 158.089C120.875 159.108 121.245 160.327 121.4 161.747H117.325C117.016 160.234 116.368 159.061 115.38 158.228C114.392 157.394 113.065 156.978 111.398 156.978C109.978 156.978 108.789 157.24 107.832 157.765C106.875 158.29 106.104 158.984 105.517 159.849C104.961 160.713 104.56 161.716 104.313 162.858C104.066 163.97 103.943 165.127 103.943 166.331C103.943 167.443 104.066 168.523 104.313 169.573C104.591 170.622 105.008 171.564 105.563 172.397C106.119 173.2 106.829 173.848 107.693 174.342C108.589 174.836 109.669 175.083 110.935 175.083C112.88 175.083 114.392 174.573 115.473 173.555C116.584 172.536 117.263 171.101 117.51 169.248H121.539C121.106 172.243 120.01 174.543 118.251 176.148C116.491 177.722 114.068 178.509 110.981 178.509ZM131.731 157.533H123.164V154.06H144.233V157.533H135.667V178H131.731V157.533ZM147.377 154.06H151.312V163.599H163.444V154.06H167.38V178H163.444V166.979H151.312V178H147.377V154.06ZM173.287 154.06H177.223V163.229H184.632C186.978 163.229 188.861 163.877 190.281 165.174C191.701 166.439 192.411 168.23 192.411 170.545C192.411 172.798 191.732 174.604 190.374 175.963C189.016 177.321 187.163 178 184.817 178H173.287V154.06ZM183.382 174.527C186.685 174.527 188.336 173.2 188.336 170.545C188.336 167.921 186.685 166.609 183.382 166.609H177.223V174.527H183.382ZM196.208 154.06H200.144V178H196.208V154.06ZM206.951 172.86H212.091V177.537C212.091 179.297 211.69 180.809 210.887 182.075C210.085 183.34 208.788 184.236 206.998 184.76V182.445C207.522 182.26 207.955 181.982 208.294 181.612C208.665 181.272 208.958 180.886 209.174 180.454C209.39 180.053 209.529 179.636 209.591 179.204C209.683 178.772 209.714 178.37 209.683 178H206.951V172.86ZM231.847 154.06H251.387V178H247.451V157.533H235.782V178H231.847V154.06ZM267.631 178.509C265.717 178.509 264.035 178.201 262.584 177.583C261.164 176.935 259.96 176.055 258.972 174.944C257.984 173.802 257.243 172.474 256.749 170.962C256.256 169.449 256.009 167.813 256.009 166.053C256.009 164.294 256.256 162.658 256.749 161.145C257.243 159.602 257.984 158.274 258.972 157.163C259.96 156.021 261.164 155.125 262.584 154.477C264.035 153.829 265.717 153.505 267.631 153.505C269.514 153.505 271.181 153.829 272.632 154.477C274.083 155.125 275.302 156.021 276.29 157.163C277.278 158.274 278.019 159.602 278.513 161.145C279.007 162.658 279.254 164.294 279.254 166.053C279.254 167.813 279.007 169.449 278.513 170.962C278.019 172.474 277.278 173.802 276.29 174.944C275.302 176.055 274.083 176.935 272.632 177.583C271.181 178.201 269.514 178.509 267.631 178.509ZM267.631 175.083C268.65 175.083 269.607 174.882 270.502 174.481C271.428 174.08 272.231 173.508 272.91 172.768C273.589 171.996 274.114 171.054 274.484 169.943C274.885 168.801 275.086 167.504 275.086 166.053C275.086 164.602 274.885 163.321 274.484 162.21C274.114 161.068 273.589 160.111 272.91 159.339C272.231 158.567 271.428 157.981 270.502 157.58C269.607 157.178 268.65 156.978 267.631 156.978C266.612 156.978 265.64 157.178 264.714 157.58C263.819 157.981 263.031 158.567 262.352 159.339C261.673 160.111 261.133 161.068 260.732 162.21C260.361 163.321 260.176 164.602 260.176 166.053C260.176 167.504 260.361 168.801 260.732 169.943C261.133 171.054 261.673 171.996 262.352 172.768C263.031 173.508 263.819 174.08 264.714 174.481C265.64 174.882 266.612 175.083 267.631 175.083ZM283.894 154.06H303.435V178H299.499V157.533H287.83V178H283.894V154.06ZM309.492 154.06H313.428V157.302H313.52C314.168 155.974 315.187 155.017 316.576 154.431C317.965 153.813 319.493 153.505 321.16 153.505C323.013 153.505 324.618 153.844 325.976 154.523C327.365 155.203 328.507 156.129 329.403 157.302C330.329 158.444 331.023 159.771 331.486 161.284C331.949 162.797 332.181 164.402 332.181 166.1C332.181 167.828 331.949 169.449 331.486 170.962C331.054 172.443 330.375 173.755 329.449 174.898C328.554 176.009 327.412 176.889 326.022 177.537C324.664 178.185 323.074 178.509 321.253 178.509C320.636 178.509 319.972 178.448 319.262 178.324C318.552 178.201 317.842 178 317.132 177.722C316.422 177.444 315.743 177.074 315.095 176.611C314.477 176.117 313.952 175.515 313.52 174.805H313.428V187.122H309.492V154.06ZM320.836 175.083C322.164 175.083 323.29 174.82 324.217 174.296C325.143 173.771 325.884 173.076 326.439 172.212C326.995 171.348 327.396 170.36 327.643 169.248C327.89 168.137 328.014 166.995 328.014 165.822C328.014 164.711 327.859 163.63 327.55 162.581C327.273 161.5 326.825 160.543 326.208 159.71C325.621 158.876 324.849 158.212 323.892 157.719C322.966 157.225 321.87 156.978 320.605 156.978C319.277 156.978 318.151 157.24 317.225 157.765C316.298 158.29 315.542 158.984 314.956 159.849C314.369 160.682 313.937 161.639 313.659 162.719C313.412 163.8 313.289 164.896 313.289 166.007C313.289 167.18 313.428 168.322 313.705 169.434C313.983 170.514 314.415 171.471 315.002 172.305C315.619 173.138 316.406 173.817 317.363 174.342C318.32 174.836 319.478 175.083 320.836 175.083ZM347.127 178.509C345.213 178.509 343.531 178.201 342.08 177.583C340.66 176.935 339.456 176.055 338.468 174.944C337.48 173.802 336.739 172.474 336.245 170.962C335.751 169.449 335.504 167.813 335.504 166.053C335.504 164.294 335.751 162.658 336.245 161.145C336.739 159.602 337.48 158.274 338.468 157.163C339.456 156.021 340.66 155.125 342.08 154.477C343.531 153.829 345.213 153.505 347.127 153.505C349.01 153.505 350.677 153.829 352.128 154.477C353.579 155.125 354.798 156.021 355.786 157.163C356.774 158.274 357.515 159.602 358.009 161.145C358.502 162.658 358.749 164.294 358.749 166.053C358.749 167.813 358.502 169.449 358.009 170.962C357.515 172.474 356.774 173.802 355.786 174.944C354.798 176.055 353.579 176.935 352.128 177.583C350.677 178.201 349.01 178.509 347.127 178.509ZM347.127 175.083C348.146 175.083 349.103 174.882 349.998 174.481C350.924 174.08 351.726 173.508 352.406 172.768C353.085 171.996 353.61 171.054 353.98 169.943C354.381 168.801 354.582 167.504 354.582 166.053C354.582 164.602 354.381 163.321 353.98 162.21C353.61 161.068 353.085 160.111 352.406 159.339C351.726 158.567 350.924 157.981 349.998 157.58C349.103 157.178 348.146 156.978 347.127 156.978C346.108 156.978 345.136 157.178 344.21 157.58C343.314 157.981 342.527 158.567 341.848 159.339C341.169 160.111 340.629 161.068 340.227 162.21C339.857 163.321 339.672 164.602 339.672 166.053C339.672 167.504 339.857 168.801 340.227 169.943C340.629 171.054 341.169 171.996 341.848 172.768C342.527 173.508 343.314 174.08 344.21 174.481C345.136 174.882 346.108 175.083 347.127 175.083ZM374.086 178.509C370.999 178.509 368.499 177.722 366.585 176.148C364.702 174.573 363.513 172.135 363.02 168.832C362.834 167.535 362.742 166.084 362.742 164.479C362.742 163.337 362.773 162.148 362.834 160.914C362.927 159.679 363.066 158.459 363.251 157.255C363.467 156.052 363.745 154.894 364.085 153.783C364.455 152.671 364.933 151.668 365.52 150.773C366.57 149.137 367.851 147.933 369.363 147.161C370.876 146.358 372.774 145.88 375.059 145.726C376.571 145.602 377.837 145.463 378.856 145.309C379.874 145.155 380.446 144.769 380.569 144.151H384.505C384.443 145.355 384.181 146.281 383.718 146.93C383.255 147.578 382.606 148.072 381.773 148.411C380.939 148.72 379.921 148.936 378.717 149.06C377.513 149.152 376.108 149.26 374.503 149.384C373.176 149.476 372.018 149.785 371.03 150.31C370.042 150.835 369.194 151.545 368.484 152.44C367.804 153.304 367.249 154.338 366.817 155.542C366.384 156.715 366.076 158.012 365.89 159.432H366.029C366.708 157.857 367.758 156.561 369.178 155.542C370.629 154.523 372.373 154.014 374.411 154.014C377.775 154.014 380.43 155.064 382.375 157.163C384.32 159.262 385.292 162.287 385.292 166.239C385.292 168.245 385.014 170.02 384.459 171.564C383.934 173.076 383.178 174.357 382.19 175.407C381.202 176.426 380.013 177.197 378.624 177.722C377.266 178.247 375.753 178.509 374.086 178.509ZM374.133 175.175C375.059 175.175 375.954 174.99 376.818 174.62C377.683 174.218 378.439 173.647 379.087 172.906C379.736 172.166 380.26 171.255 380.662 170.174C381.063 169.063 381.264 167.782 381.264 166.331C381.264 163.522 380.615 161.315 379.319 159.71C378.022 158.104 376.263 157.302 374.04 157.302C371.817 157.302 370.042 158.12 368.715 159.756C367.418 161.361 366.77 163.568 366.77 166.378C366.77 169.094 367.418 171.24 368.715 172.814C370.012 174.388 371.817 175.175 374.133 175.175ZM392.388 187.539C391.925 187.539 391.462 187.508 390.999 187.446C390.536 187.384 390.088 187.276 389.656 187.122V183.51C390.026 183.634 390.397 183.757 390.767 183.881C391.169 184.004 391.57 184.066 391.971 184.066C392.774 184.066 393.422 183.881 393.916 183.51C394.41 183.14 394.842 182.6 395.213 181.89L396.833 177.861L387.341 154.06H391.786L398.778 173.647H398.871L405.585 154.06H409.752L399.334 181.149C398.871 182.322 398.408 183.31 397.945 184.112C397.512 184.915 397.018 185.563 396.463 186.057C395.938 186.582 395.336 186.952 394.657 187.168C394.009 187.415 393.252 187.539 392.388 187.539ZM413.086 154.06H417.022V173.601L428.32 154.06H433.368V178H429.432V158.459L418.133 178H413.086V154.06ZM423.227 150.541C422.301 150.541 421.436 150.402 420.634 150.125C419.831 149.847 419.121 149.445 418.504 148.921C417.917 148.396 417.439 147.763 417.068 147.022C416.729 146.25 416.559 145.371 416.559 144.383H419.847C419.908 146.667 421.02 147.809 423.181 147.809C424.261 147.809 425.079 147.516 425.635 146.93C426.221 146.312 426.515 145.463 426.515 144.383H429.802C429.802 145.309 429.632 146.158 429.293 146.93C428.953 147.701 428.49 148.35 427.904 148.874C427.317 149.399 426.623 149.816 425.82 150.125C425.017 150.402 424.153 150.541 423.227 150.541ZM445.102 157.533H436.535V154.06H457.604V157.533H449.037V178H445.102V157.533ZM460.747 154.06H464.683V173.601L475.982 154.06H481.029V178H477.093V158.459L465.795 178H460.747V154.06ZM497.162 178.509C495.248 178.509 493.566 178.201 492.115 177.583C490.695 176.966 489.506 176.102 488.549 174.99C487.592 173.879 486.867 172.551 486.373 171.008C485.91 169.464 485.678 167.782 485.678 165.961C485.678 164.17 485.956 162.519 486.512 161.006C487.067 159.463 487.839 158.135 488.827 157.024C489.846 155.913 491.034 155.048 492.392 154.431C493.782 153.813 495.294 153.505 496.93 153.505C499.06 153.505 500.82 153.952 502.209 154.848C503.629 155.712 504.756 156.823 505.589 158.182C506.454 159.54 507.04 161.022 507.349 162.627C507.688 164.232 507.827 165.76 507.766 167.211H489.846C489.815 168.261 489.938 169.264 490.216 170.221C490.494 171.147 490.942 171.98 491.559 172.721C492.176 173.431 492.964 174.002 493.921 174.435C494.877 174.867 496.004 175.083 497.301 175.083C498.968 175.083 500.326 174.697 501.376 173.925C502.456 173.153 503.166 171.98 503.506 170.406H507.395C506.87 173.123 505.713 175.16 503.922 176.518C502.132 177.846 499.878 178.509 497.162 178.509ZM503.598 163.738C503.536 162.812 503.32 161.932 502.95 161.099C502.61 160.265 502.132 159.555 501.514 158.969C500.928 158.351 500.218 157.873 499.384 157.533C498.582 157.163 497.687 156.978 496.699 156.978C495.68 156.978 494.754 157.163 493.921 157.533C493.118 157.873 492.423 158.351 491.837 158.969C491.25 159.586 490.787 160.312 490.448 161.145C490.108 161.948 489.907 162.812 489.846 163.738H503.598ZM534.642 178.509C532.821 178.509 531.2 178.216 529.78 177.63C528.391 177.043 527.218 176.21 526.261 175.129C525.335 174.049 524.625 172.768 524.131 171.286C523.668 169.804 523.437 168.153 523.437 166.331C523.437 164.541 523.668 162.874 524.131 161.33C524.594 159.756 525.289 158.398 526.215 157.255C527.172 156.082 528.345 155.172 529.734 154.523C531.154 153.844 532.821 153.505 534.735 153.505C536.093 153.505 537.359 153.675 538.532 154.014C539.736 154.323 540.785 154.817 541.681 155.496C542.607 156.175 543.363 157.039 543.95 158.089C544.536 159.108 544.906 160.327 545.061 161.747H540.986C540.677 160.234 540.029 159.061 539.041 158.228C538.053 157.394 536.726 156.978 535.059 156.978C533.639 156.978 532.451 157.24 531.494 157.765C530.537 158.29 529.765 158.984 529.178 159.849C528.623 160.713 528.221 161.716 527.974 162.858C527.727 163.97 527.604 165.127 527.604 166.331C527.604 167.443 527.727 168.523 527.974 169.573C528.252 170.622 528.669 171.564 529.225 172.397C529.78 173.2 530.49 173.848 531.355 174.342C532.25 174.836 533.33 175.083 534.596 175.083C536.541 175.083 538.053 174.573 539.134 173.555C540.245 172.536 540.924 171.101 541.171 169.248H545.2C544.768 172.243 543.672 174.543 541.912 176.148C540.153 177.722 537.729 178.509 534.642 178.509ZM549.604 154.06H553.54V163.599H565.672V154.06H569.607V178H565.672V166.979H553.54V178H549.604V154.06ZM585.84 178.509C583.927 178.509 582.244 178.201 580.793 177.583C579.373 176.935 578.169 176.055 577.181 174.944C576.194 173.802 575.453 172.474 574.959 170.962C574.465 169.449 574.218 167.813 574.218 166.053C574.218 164.294 574.465 162.658 574.959 161.145C575.453 159.602 576.194 158.274 577.181 157.163C578.169 156.021 579.373 155.125 580.793 154.477C582.244 153.829 583.927 153.505 585.84 153.505C587.724 153.505 589.391 153.829 590.841 154.477C592.292 155.125 593.512 156.021 594.499 157.163C595.487 158.274 596.228 159.602 596.722 161.145C597.216 162.658 597.463 164.294 597.463 166.053C597.463 167.813 597.216 169.449 596.722 170.962C596.228 172.474 595.487 173.802 594.499 174.944C593.512 176.055 592.292 176.935 590.841 177.583C589.391 178.201 587.724 178.509 585.84 178.509ZM585.84 175.083C586.859 175.083 587.816 174.882 588.711 174.481C589.637 174.08 590.44 173.508 591.119 172.768C591.798 171.996 592.323 171.054 592.694 169.943C593.095 168.801 593.296 167.504 593.296 166.053C593.296 164.602 593.095 163.321 592.694 162.21C592.323 161.068 591.798 160.111 591.119 159.339C590.44 158.567 589.637 157.981 588.711 157.58C587.816 157.178 586.859 156.978 585.84 156.978C584.822 156.978 583.849 157.178 582.923 157.58C582.028 157.981 581.241 158.567 580.562 159.339C579.883 160.111 579.342 161.068 578.941 162.21C578.571 163.321 578.385 164.602 578.385 166.053C578.385 167.504 578.571 168.801 578.941 169.943C579.342 171.054 579.883 171.996 580.562 172.768C581.241 173.508 582.028 174.08 582.923 174.481C583.849 174.882 584.822 175.083 585.84 175.083ZM602.104 154.06H613.17C614.22 154.06 615.223 154.138 616.18 154.292C617.168 154.446 618.048 154.74 618.82 155.172C619.591 155.573 620.209 156.16 620.672 156.931C621.135 157.703 621.366 158.691 621.366 159.895C621.366 161.191 621.058 162.241 620.44 163.044C619.823 163.846 618.959 164.51 617.847 165.035V165.081C619.236 165.359 620.332 166.007 621.135 167.026C621.968 168.044 622.385 169.356 622.385 170.962C622.385 171.98 622.2 172.922 621.829 173.786C621.49 174.651 620.996 175.391 620.348 176.009C619.699 176.626 618.928 177.12 618.032 177.491C617.137 177.83 616.165 178 615.115 178H602.104V154.06ZM614.374 174.666C615.671 174.666 616.643 174.296 617.292 173.555C617.971 172.783 618.31 171.826 618.31 170.684C618.31 169.603 617.955 168.739 617.245 168.091C616.535 167.443 615.347 167.118 613.68 167.118H605.993V174.666H614.374ZM612.754 163.877C614.452 163.877 615.625 163.568 616.273 162.951C616.952 162.334 617.292 161.516 617.292 160.497C617.292 159.509 616.967 158.753 616.319 158.228C615.671 157.672 614.482 157.394 612.754 157.394H605.993V163.877H612.754ZM633.732 178.509C632.651 178.509 631.632 178.386 630.675 178.139C629.718 177.923 628.87 177.552 628.129 177.028C627.419 176.472 626.848 175.777 626.415 174.944C626.014 174.08 625.813 173.045 625.813 171.841C625.813 170.483 626.045 169.372 626.508 168.508C626.971 167.643 627.573 166.949 628.314 166.424C629.086 165.868 629.95 165.451 630.907 165.174C631.895 164.896 632.898 164.664 633.917 164.479C634.997 164.263 636.016 164.109 636.973 164.016C637.961 163.892 638.825 163.738 639.566 163.553C640.307 163.337 640.893 163.044 641.325 162.673C641.758 162.272 641.974 161.701 641.974 160.96C641.974 160.096 641.804 159.401 641.464 158.876C641.156 158.351 640.739 157.95 640.214 157.672C639.72 157.394 639.149 157.209 638.501 157.117C637.883 157.024 637.266 156.978 636.649 156.978C634.982 156.978 633.593 157.302 632.481 157.95C631.37 158.567 630.768 159.756 630.675 161.516H626.739C626.801 160.034 627.11 158.784 627.666 157.765C628.221 156.746 628.962 155.928 629.888 155.311C630.814 154.662 631.864 154.199 633.037 153.922C634.241 153.644 635.522 153.505 636.88 153.505C637.961 153.505 639.026 153.582 640.075 153.736C641.156 153.891 642.128 154.215 642.992 154.709C643.857 155.172 644.551 155.835 645.076 156.7C645.601 157.564 645.863 158.691 645.863 160.08V172.397C645.863 173.323 645.91 174.002 646.002 174.435C646.126 174.867 646.496 175.083 647.114 175.083C647.391 175.083 647.793 175.006 648.317 174.851V177.907C647.638 178.309 646.697 178.509 645.493 178.509C644.474 178.509 643.656 178.232 643.039 177.676C642.452 177.089 642.159 176.148 642.159 174.851C641.079 176.148 639.813 177.089 638.362 177.676C636.942 178.232 635.398 178.509 633.732 178.509ZM634.611 175.083C635.908 175.083 637.019 174.913 637.945 174.573C638.871 174.203 639.628 173.755 640.214 173.231C640.801 172.675 641.233 172.088 641.511 171.471C641.789 170.823 641.927 170.221 641.927 169.665V165.637C641.434 166.038 640.785 166.316 639.983 166.47C639.18 166.624 638.331 166.763 637.436 166.887C636.572 167.01 635.692 167.134 634.797 167.257C633.901 167.381 633.099 167.597 632.389 167.906C631.679 168.214 631.092 168.662 630.629 169.248C630.197 169.804 629.981 170.576 629.981 171.564C629.981 172.212 630.104 172.768 630.351 173.231C630.629 173.663 630.969 174.018 631.37 174.296C631.802 174.573 632.296 174.774 632.852 174.898C633.407 175.021 633.994 175.083 634.611 175.083Z" fill="black"/>
</g>
<rect x="0.5" y="0.5" width="684" height="272" stroke="black"/>
<defs>
<clipPath id="clip0_249_148">
<rect width="685" height="273" fill="white"/>
</clipPath>
</defs>
</svg>
